<svg width="117" height="117" viewBox="0 0 117 117" fill="none" xmlns="http://www.w3.org/2000/svg">
<g filter="url(#filter0_ii_6412_37654)">
<circle cx="58.3984" cy="58.3984" r="58.3984" fill="url(#paint0_linear_6412_37654)"/>
</g>
<path d="M58.397 29.671C67.7527 29.671 68.861 29.7067 72.5557 29.8753C75.972 30.0311 77.8273 30.6019 79.062 31.0817C80.6975 31.7174 81.8647 32.4766 83.0908 33.7027C84.317 34.9289 85.0762 36.0961 85.7119 37.7316C86.1917 38.9663 86.7626 40.8216 86.9183 44.2378C87.0869 47.9326 87.1226 49.0408 87.1226 58.3965C87.1226 67.7523 87.0869 68.8606 86.9183 72.5553C86.7626 75.9716 86.1917 77.8268 85.7119 79.0615C85.0762 80.697 84.317 81.8643 83.0909 83.0903C81.8647 84.3165 80.6975 85.0758 79.062 85.7114C77.8273 86.1913 75.972 86.7621 72.5557 86.9179C68.8615 87.0864 67.7534 87.1222 58.397 87.1222C49.0404 87.1222 47.9325 87.0864 44.2382 86.9179C40.8219 86.7621 38.9666 86.1913 37.7319 85.7114C36.0964 85.0758 34.9292 84.3165 33.7031 83.0903C32.4771 81.8643 31.7176 80.697 31.082 79.0615C30.6022 77.8268 30.0313 75.9716 29.8756 72.5553C29.707 68.8606 29.6712 67.7523 29.6712 58.3965C29.6712 49.0408 29.707 47.9326 29.8756 44.2378C30.0313 40.8216 30.6022 38.9663 31.082 37.7316C31.7176 36.0961 32.4769 34.9289 33.7031 33.7028C34.9292 32.4766 36.0964 31.7174 37.7319 31.0817C38.9666 30.6019 40.8219 30.0311 44.2382 29.8753C47.9329 29.7067 49.0411 29.671 58.397 29.671ZM58.397 23.3577C48.8809 23.3577 47.6877 23.398 43.9504 23.5685C40.2209 23.7386 37.6738 24.331 35.445 25.1971C33.1409 26.0925 31.1869 27.2906 29.2388 29.2385C27.2909 31.1866 26.0928 33.1406 25.1975 35.4448C24.3312 37.6735 23.7389 40.2206 23.5688 43.9501C23.3982 47.6873 23.3579 48.8806 23.3579 58.3965C23.3579 67.9126 23.3982 69.1058 23.5688 72.8431C23.7389 76.5726 24.3312 79.1197 25.1975 81.3484C26.0928 83.6525 27.2909 85.6065 29.2388 87.5546C31.1869 89.5025 33.1409 90.7006 35.445 91.5959C37.6738 92.4622 40.2209 93.0545 43.9504 93.2246C47.6877 93.3951 48.8809 93.4355 58.397 93.4355C67.913 93.4355 69.1062 93.3951 72.8435 93.2246C76.573 93.0545 79.1201 92.4622 81.3488 91.5959C83.653 90.7006 85.607 89.5025 87.5551 87.5546C89.503 85.6065 90.7011 83.6525 91.5965 81.3484C92.4626 79.1197 93.055 76.5726 93.2251 72.8431C93.3956 69.1058 93.436 67.9126 93.436 58.3965C93.436 48.8806 93.3956 47.6873 93.2251 43.9501C93.055 40.2206 92.4626 37.6735 91.5965 35.4448C90.7011 33.1406 89.503 31.1866 87.5551 29.2385C85.607 27.2906 83.653 26.0925 81.3488 25.1971C79.1201 24.331 76.573 23.7386 72.8435 23.5685C69.1062 23.398 67.913 23.3577 58.397 23.3577Z" fill="url(#paint1_linear_6412_37654)"/>
<path d="M58.4179 40.4247C48.4805 40.4247 40.4248 48.4803 40.4248 58.4176C40.4248 68.3549 48.4805 76.4106 58.4179 76.4106C68.3551 76.4106 76.4108 68.3549 76.4108 58.4176C76.4108 48.4803 68.3551 40.4247 58.4179 40.4247ZM58.4179 70.0973C51.9673 70.0973 46.7381 64.8682 46.7381 58.4176C46.7381 51.9671 51.9673 46.738 58.4179 46.738C64.8684 46.738 70.0975 51.9671 70.0975 58.4176C70.0975 64.8682 64.8684 70.0973 58.4179 70.0973Z" fill="url(#paint2_linear_6412_37654)"/>
<defs>
<filter id="filter0_ii_6412_37654" x="0" y="-13.6433" width="116.797" height="135.897" filterUnits="userSpaceOnUse" color-interpolation-filters="sRGB">
<feFlood flood-opacity="0" result="BackgroundImageFix"/>
<feBlend mode="normal" in="SourceGraphic" in2="BackgroundImageFix" result="shape"/>
<feColorMatrix in="SourceAlpha" type="matrix" values="0 0 0 0 0 0 0 0 0 0 0 0 0 0 0 0 0 0 127 0" result="hardAlpha"/>
<feOffset dy="5.45732"/>
<feGaussianBlur stdDeviation="3.41083"/>
<feComposite in2="hardAlpha" operator="arithmetic" k2="-1" k3="1"/>
<feColorMatrix type="matrix" values="0 0 0 0 1 0 0 0 0 1 0 0 0 0 1 0 0 0 0.12 0"/>
<feBlend mode="normal" in2="shape" result="effect1_innerShadow_6412_37654"/>
<feColorMatrix in="SourceAlpha" type="matrix" values="0 0 0 0 0 0 0 0 0 0 0 0 0 0 0 0 0 0 127 0" result="hardAlpha"/>
<feOffset dy="-13.6433"/>
<feGaussianBlur stdDeviation="6.82165"/>
<feComposite in2="hardAlpha" operator="arithmetic" k2="-1" k3="1"/>
<feColorMatrix type="matrix" values="0 0 0 0 0.756863 0 0 0 0 0.207843 0 0 0 0 0.517647 0 0 0 0.26 0"/>
<feBlend mode="normal" in2="effect1_innerShadow_6412_37654" result="effect2_innerShadow_6412_37654"/>
</filter>
<linearGradient id="paint0_linear_6412_37654" x1="58.3984" y1="0" x2="58.3984" y2="116.797" gradientUnits="userSpaceOnUse">
<stop stop-color="#24345D"/>
<stop offset="1" stop-color="#66676A" stop-opacity="0"/>
</linearGradient>
<linearGradient id="paint1_linear_6412_37654" x1="58.3969" y1="23.3577" x2="58.3969" y2="93.4355" gradientUnits="userSpaceOnUse">
<stop stop-color="#535DCD"/>
<stop offset="0.307292" stop-color="#E2634B"/>
<stop offset="0.697917" stop-color="#DE2D76"/>
<stop offset="1" stop-color="#FED677"/>
</linearGradient>
<linearGradient id="paint2_linear_6412_37654" x1="58.4178" y1="40.4247" x2="58.4178" y2="76.4106" gradientUnits="userSpaceOnUse">
<stop stop-color="#535DCD"/>
<stop offset="0.307292" stop-color="#E2634B"/>
<stop offset="0.697917" stop-color="#DE2D76"/>
<stop offset="1" stop-color="#FED677"/>
</linearGradient>
</defs>
</svg>
