<svg width="56" height="56" viewBox="0 0 56 56" fill="none" xmlns="http://www.w3.org/2000/svg">
<circle cx="28" cy="28" r="28" fill="#F9F9F9"/>
<path d="M20 18C18.9391 18 17.9217 18.4214 17.1716 19.1716C16.4214 19.9217 16 20.9391 16 22V22.402L28 28.864L40 22.404V22C40 20.9391 39.5786 19.9217 38.8284 19.1716C38.0783 18.4214 37.0609 18 36 18H20ZM40 24.674L28.474 30.88C28.3283 30.9584 28.1655 30.9995 28 30.9995C27.8345 30.9995 27.6717 30.9584 27.526 30.88L16 24.674V34C16 35.0609 16.4214 36.0783 17.1716 36.8284C17.9217 37.5786 18.9391 38 20 38H36C37.0609 38 38.0783 37.5786 38.8284 36.8284C39.5786 36.0783 40 35.0609 40 34V24.674Z" fill="url(#paint0_linear_6412_36975)"/>
<defs>
<linearGradient id="paint0_linear_6412_36975" x1="16" y1="12.5038" x2="45.5317" y2="17.123" gradientUnits="userSpaceOnUse">
<stop offset="0.00132683" stop-color="#4485FD"/>
<stop offset="1" stop-color="#1A4187"/>
</linearGradient>
</defs>
</svg>
