<svg width="56" height="56" viewBox="0 0 56 56" fill="none" xmlns="http://www.w3.org/2000/svg">
<circle cx="28" cy="28" r="28" fill="#F9F9F9"/>
<path d="M28 14C21.38 14 16 19.38 16 26C16 30.04 18.34 33.42 21.06 35.78C21.92 36.52 23.42 37.7 24.76 39.44C26.24 41.38 27.58 43.46 28 44.86C28.42 43.46 29.76 41.38 31.24 39.44C32.58 37.7 34.08 36.52 34.94 35.78C37.66 33.42 40 30.04 40 26C40 19.38 34.62 14 28 14ZM28 19.12C28.9035 19.12 29.7981 19.298 30.6329 19.6437C31.4676 19.9895 32.226 20.4962 32.8649 21.1351C33.5038 21.774 34.0105 22.5324 34.3563 23.3671C34.702 24.2019 34.88 25.0965 34.88 26C34.88 26.9035 34.702 27.7981 34.3563 28.6329C34.0105 29.4676 33.5038 30.226 32.8649 30.8649C32.226 31.5038 31.4676 32.0105 30.6329 32.3563C29.7981 32.702 28.9035 32.88 28 32.88C26.1753 32.88 24.4254 32.1551 23.1351 30.8649C21.8449 29.5746 21.12 27.8247 21.12 26C21.12 24.1753 21.8449 22.4254 23.1351 21.1351C24.4254 19.8449 26.1753 19.12 28 19.12Z" fill="url(#paint0_linear_6412_36981)"/>
<defs>
<linearGradient id="paint0_linear_6412_36981" x1="16" y1="5.51929" x2="45.9465" y2="8.555" gradientUnits="userSpaceOnUse">
<stop offset="0.00132683" stop-color="#4485FD"/>
<stop offset="1" stop-color="#1A4187"/>
</linearGradient>
</defs>
</svg>
