<svg width="40" height="40" viewBox="0 0 40 40" fill="none" xmlns="http://www.w3.org/2000/svg">
<rect x="0.297363" width="39.5" height="39.5" rx="19.75" fill="#E1EDFF"/>
<path d="M23.6374 22.12C23.8456 23.0011 23.8517 23.9178 23.6553 24.8016C23.4589 25.6854 23.0651 26.5133 22.5033 27.2232C21.9415 27.9332 21.2263 28.5068 20.4113 28.9011C19.5963 29.2954 18.7027 29.5001 17.7974 29.5V24.7M23.6374 22.12C25.5472 20.7288 27.1009 18.9055 28.1715 16.7991C29.2421 14.6927 29.7992 12.3629 29.7974 10C27.4347 9.9983 25.1051 10.5555 22.9988 11.6261C20.8926 12.6967 19.0695 14.2503 17.6784 16.16M23.6384 22.12C21.9003 23.3913 19.9077 24.2714 17.7974 24.7M17.6784 16.16C16.7972 15.9516 15.8803 15.9453 14.9964 16.1416C14.1125 16.338 13.2845 16.7318 12.5744 17.2936C11.8644 17.8554 11.2907 18.5707 10.8963 19.3857C10.502 20.2008 10.2972 21.0946 10.2974 22H15.0974M17.6784 16.16C16.4072 17.8978 15.5271 19.89 15.0984 22M17.7974 24.7C17.6939 24.7211 17.5902 24.7411 17.4864 24.76C16.5792 24.0406 15.7577 23.2192 15.0384 22.312C15.0573 22.2078 15.0773 22.1038 15.0984 22M12.8584 24.39C12.2005 24.8792 11.6891 25.539 11.3794 26.298C11.0697 27.057 10.9735 27.8863 11.1014 28.696C11.9112 28.8237 12.7405 28.7274 13.4995 28.4175C14.2586 28.1077 14.9183 27.596 15.4074 26.938M24.5474 16.75C24.5474 17.1478 24.3893 17.5294 24.108 17.8107C23.8267 18.092 23.4452 18.25 23.0474 18.25C22.6495 18.25 22.268 18.092 21.9867 17.8107C21.7054 17.5294 21.5474 17.1478 21.5474 16.75C21.5474 16.3522 21.7054 15.9706 21.9867 15.6893C22.268 15.408 22.6495 15.25 23.0474 15.25C23.4452 15.25 23.8267 15.408 24.108 15.6893C24.3893 15.9706 24.5474 16.3522 24.5474 16.75Z" stroke="#4485FD" stroke-width="1.25" stroke-linecap="round" stroke-linejoin="round"/>
</svg>
