<svg width="56" height="56" viewBox="0 0 56 56" fill="none" xmlns="http://www.w3.org/2000/svg">
<circle cx="28" cy="28" r="28" fill="#F9F9F9"/>
<path d="M33.645 24.2968C33.4305 24.2968 33.216 24.2177 33.0466 24.0484L30.7885 21.7903C30.4611 21.4629 30.4611 20.921 30.7885 20.5935C31.116 20.2661 31.6579 20.2661 31.9853 20.5935L33.645 22.2532L37.5627 18.3468C37.8901 18.0193 38.4321 18.0193 38.7595 18.3468C39.0869 18.6742 39.0869 19.2161 38.7595 19.5435L34.2434 24.0597C34.074 24.2064 33.8595 24.2968 33.645 24.2968Z" fill="url(#paint0_linear_6412_36970)"/>
<path d="M26.9277 31.3307L24.839 33.4194C24.3987 33.8597 23.6987 33.8597 23.2471 33.4307C23.1229 33.3065 22.9987 33.1936 22.8745 33.0694C21.7116 31.8952 20.6616 30.6646 19.7245 29.3775C18.7987 28.0904 18.0535 26.8033 17.5116 25.5275C16.9809 24.2404 16.71 23.0097 16.71 21.8355C16.71 21.0678 16.8454 20.3339 17.1164 19.6565C17.3874 18.9678 17.8164 18.3355 18.4148 17.771C19.1374 17.0597 19.9277 16.7097 20.7632 16.7097C21.0793 16.7097 21.3954 16.7775 21.6777 16.9129C21.9713 17.0484 22.2309 17.2517 22.4342 17.5452L25.0535 21.2371C25.2567 21.5194 25.4035 21.7791 25.5051 22.0275C25.6067 22.2646 25.6632 22.5017 25.6632 22.7162C25.6632 22.9871 25.5842 23.2581 25.4261 23.5178C25.2793 23.7775 25.0648 24.0484 24.7938 24.3194L23.9358 25.2113C23.8116 25.3355 23.7551 25.4823 23.7551 25.6629C23.7551 25.7533 23.7664 25.8323 23.789 25.9226C23.8229 26.0129 23.8567 26.0807 23.8793 26.1484C24.0825 26.521 24.4325 27.0065 24.9293 27.5936C25.4374 28.1807 25.9793 28.7791 26.5664 29.3775C26.6793 29.4904 26.8035 29.6033 26.9164 29.7162C27.368 30.1565 27.3793 30.8791 26.9277 31.3307Z" fill="url(#paint1_linear_6412_36970)"/>
<path d="M39.2567 35.1468C39.2567 35.4629 39.2002 35.7903 39.0873 36.1064C39.0534 36.1968 39.0196 36.2871 38.9744 36.3774C38.7825 36.7839 38.5341 37.1677 38.2067 37.529C37.6534 38.1387 37.0438 38.579 36.355 38.8613C36.3438 38.8613 36.3325 38.8726 36.3212 38.8726C35.655 39.1435 34.9325 39.2903 34.1534 39.2903C33.0018 39.2903 31.7712 39.0194 30.4728 38.4661C29.1744 37.9129 27.876 37.1677 26.5889 36.2306C26.1486 35.9032 25.7083 35.5758 25.2905 35.2258L28.9825 31.5339C29.2986 31.771 29.5808 31.9516 29.8179 32.0758C29.8744 32.0984 29.9421 32.1323 30.0212 32.1661C30.1115 32.2 30.2018 32.2113 30.3034 32.2113C30.4954 32.2113 30.6421 32.1435 30.7663 32.0194L31.6244 31.1726C31.9067 30.8903 32.1776 30.6758 32.4373 30.5403C32.697 30.3823 32.9567 30.3032 33.2389 30.3032C33.4534 30.3032 33.6792 30.3484 33.9276 30.45C34.176 30.5516 34.4357 30.6984 34.7179 30.8903L38.455 33.5435C38.7486 33.7468 38.9518 33.9839 39.076 34.2661C39.1889 34.5484 39.2567 34.8306 39.2567 35.1468Z" fill="url(#paint2_linear_6412_36970)"/>
<defs>
<linearGradient id="paint0_linear_6412_36970" x1="30.543" y1="16.3986" x2="40.8825" y2="18.2393" gradientUnits="userSpaceOnUse">
<stop offset="0.00132683" stop-color="#4485FD"/>
<stop offset="1" stop-color="#1A4187"/>
</linearGradient>
<linearGradient id="paint1_linear_6412_36970" x1="16.71" y1="12.0265" x2="29.9242" y2="13.093" gradientUnits="userSpaceOnUse">
<stop offset="0.00132683" stop-color="#4485FD"/>
<stop offset="1" stop-color="#1A4187"/>
</linearGradient>
<linearGradient id="paint2_linear_6412_36970" x1="25.2905" y1="27.8335" x2="42.2022" y2="31.2591" gradientUnits="userSpaceOnUse">
<stop offset="0.00132683" stop-color="#4485FD"/>
<stop offset="1" stop-color="#1A4187"/>
</linearGradient>
</defs>
</svg>
