<svg width="24" height="25" viewBox="0 0 24 25" fill="none" xmlns="http://www.w3.org/2000/svg">
<path d="M15.59 15.1901C15.7982 16.0711 15.8044 16.9879 15.608 17.8717C15.4116 18.7555 15.0177 19.5834 14.4559 20.2933C13.8941 21.0033 13.1789 21.5769 12.364 21.9712C11.549 22.3654 10.6553 22.5702 9.75 22.5701V17.7701M15.59 15.1901C17.4999 13.7989 19.0536 11.9756 20.1242 9.86915C21.1947 7.76273 21.7519 5.43294 21.75 3.07007C19.3873 3.06837 17.0577 3.62556 14.9515 4.69614C12.8452 5.76672 11.0221 7.32033 9.631 9.23007M15.591 15.1901C13.8529 16.4613 11.8603 17.3415 9.75 17.7701M9.631 9.23007C8.74986 9.02167 7.83298 9.01539 6.94907 9.21171C6.06516 9.40803 5.23714 9.80186 4.52707 10.3637C3.817 10.9255 3.2433 11.6407 2.84895 12.4558C2.4546 13.2709 2.24984 14.1646 2.25 15.0701H7.05M9.631 9.23007C8.35988 10.9679 7.47975 12.9601 7.051 15.0701M9.75 17.7701C9.64654 17.7911 9.54287 17.8111 9.439 17.8301C8.53179 17.1107 7.71038 16.2893 6.991 15.3821C7.00989 15.2779 7.02989 15.1739 7.051 15.0701M4.811 17.4601C4.15318 17.9492 3.64173 18.609 3.33202 19.3681C3.02232 20.1271 2.92618 20.9563 3.054 21.7661C3.86383 21.8938 4.69316 21.7975 5.45218 21.4876C6.21119 21.1777 6.87095 20.6661 7.36 20.0081M16.5 9.82007C16.5 10.2179 16.342 10.5994 16.0607 10.8807C15.7794 11.162 15.3978 11.3201 15 11.3201C14.6022 11.3201 14.2206 11.162 13.9393 10.8807C13.658 10.5994 13.5 10.2179 13.5 9.82007C13.5 9.42225 13.658 9.04072 13.9393 8.75941C14.2206 8.47811 14.6022 8.32007 15 8.32007C15.3978 8.32007 15.7794 8.47811 16.0607 8.75941C16.342 9.04072 16.5 9.42225 16.5 9.82007Z" stroke="#4485FD" stroke-width="1.25" stroke-linecap="round" stroke-linejoin="round"/>
</svg>
