<svg width="1360" height="447" viewBox="0 0 1360 447" fill="none" xmlns="http://www.w3.org/2000/svg">
<g clip-path="url(#clip0_929_765)">
<rect width="1360" height="447" fill="#24345D"/>
<g opacity="0.4">
<path d="M44 285.41L185.078 301.944" stroke="#A9C5DE" stroke-width="0.2"/>
<path d="M44 285.41L185.078 301.944" stroke="#A9C5DE" stroke-width="0.2" stroke-miterlimit="10"/>
<path d="M46.5703 265.773L184.301 298.58" stroke="#A9C5DE" stroke-width="0.2"/>
<path d="M46.5703 265.773L184.301 298.58" stroke="#A9C5DE" stroke-width="0.2" stroke-miterlimit="10"/>
<path d="M51.7617 246.59L183.975 295.154" stroke="#A9C5DE" stroke-width="0.2"/>
<path d="M51.7617 246.59L183.975 295.154" stroke="#A9C5DE" stroke-width="0.2" stroke-miterlimit="10"/>
<path d="M59.5117 228.168L184.118 291.713" stroke="#A9C5DE" stroke-width="0.2"/>
<path d="M59.5117 228.168L184.118 291.713" stroke="#A9C5DE" stroke-width="0.2" stroke-miterlimit="10"/>
<path d="M69.6875 210.781L184.727 288.319" stroke="#A9C5DE" stroke-width="0.2"/>
<path d="M69.6875 210.781L184.727 288.319" stroke="#A9C5DE" stroke-width="0.2" stroke-miterlimit="10"/>
<path d="M82.1328 194.727L185.792 285.026" stroke="#A9C5DE" stroke-width="0.2"/>
<path d="M82.1328 194.727L185.792 285.026" stroke="#A9C5DE" stroke-width="0.2" stroke-miterlimit="10"/>
<path d="M96.6484 180.238L187.289 281.876" stroke="#A9C5DE" stroke-width="0.2"/>
<path d="M96.6484 180.238L187.289 281.876" stroke="#A9C5DE" stroke-width="0.2" stroke-miterlimit="10"/>
<path d="M113.008 167.551L189.202 278.926" stroke="#A9C5DE" stroke-width="0.2"/>
<path d="M113.008 167.551L189.202 278.926" stroke="#A9C5DE" stroke-width="0.2" stroke-miterlimit="10"/>
<path d="M130.953 156.867L191.495 276.227" stroke="#A9C5DE" stroke-width="0.2"/>
<path d="M130.953 156.867L191.495 276.227" stroke="#A9C5DE" stroke-width="0.2" stroke-miterlimit="10"/>
<path d="M150.199 148.355L194.142 273.811" stroke="#A9C5DE" stroke-width="0.2"/>
<path d="M150.199 148.355L194.142 273.811" stroke="#A9C5DE" stroke-width="0.2" stroke-miterlimit="10"/>
<path d="M170.445 142.148L197.086 271.729" stroke="#A9C5DE" stroke-width="0.2"/>
<path d="M170.445 142.148L197.086 271.729" stroke="#A9C5DE" stroke-width="0.2" stroke-miterlimit="10"/>
<path d="M191.363 138.34L200.292 269.994" stroke="#A9C5DE" stroke-width="0.2"/>
<path d="M191.363 138.34L200.292 269.994" stroke="#A9C5DE" stroke-width="0.2" stroke-miterlimit="10"/>
<path d="M212.636 137L203.707 268.654" stroke="#A9C5DE" stroke-width="0.2"/>
<path d="M212.636 137L203.707 268.654" stroke="#A9C5DE" stroke-width="0.2" stroke-miterlimit="10"/>
<path d="M233.927 138.141L207.281 267.722" stroke="#A9C5DE" stroke-width="0.2"/>
<path d="M233.927 138.141L207.281 267.722" stroke="#A9C5DE" stroke-width="0.2" stroke-miterlimit="10"/>
<path d="M254.892 141.75L210.949 267.206" stroke="#A9C5DE" stroke-width="0.2"/>
<path d="M254.892 141.75L210.949 267.206" stroke="#A9C5DE" stroke-width="0.2" stroke-miterlimit="10"/>
<path d="M275.2 147.762L214.652 267.122" stroke="#A9C5DE" stroke-width="0.2"/>
<path d="M275.2 147.762L214.652 267.122" stroke="#A9C5DE" stroke-width="0.2" stroke-miterlimit="10"/>
<path d="M294.538 156.094L218.344 267.469" stroke="#A9C5DE" stroke-width="0.2"/>
<path d="M294.538 156.094L218.344 267.469" stroke="#A9C5DE" stroke-width="0.2" stroke-miterlimit="10"/>
<path d="M312.597 166.609L221.957 268.247" stroke="#A9C5DE" stroke-width="0.2"/>
<path d="M312.597 166.609L221.957 268.247" stroke="#A9C5DE" stroke-width="0.2" stroke-miterlimit="10"/>
<path d="M329.093 179.137L225.434 269.441" stroke="#A9C5DE" stroke-width="0.2"/>
<path d="M329.093 179.137L225.434 269.441" stroke="#A9C5DE" stroke-width="0.2" stroke-miterlimit="10"/>
<path d="M343.766 193.488L228.727 271.026" stroke="#A9C5DE" stroke-width="0.2"/>
<path d="M343.766 193.488L228.727 271.026" stroke="#A9C5DE" stroke-width="0.2" stroke-miterlimit="10"/>
<path d="M356.386 209.43L231.773 272.98" stroke="#A9C5DE" stroke-width="0.2"/>
<path d="M356.386 209.43L231.773 272.98" stroke="#A9C5DE" stroke-width="0.2" stroke-miterlimit="10"/>
<path d="M366.756 226.715L234.543 275.279" stroke="#A9C5DE" stroke-width="0.2"/>
<path d="M366.756 226.715L234.543 275.279" stroke="#A9C5DE" stroke-width="0.2" stroke-miterlimit="10"/>
<path d="M374.703 245.07L236.973 277.871" stroke="#A9C5DE" stroke-width="0.2"/>
<path d="M374.703 245.07L236.973 277.871" stroke="#A9C5DE" stroke-width="0.2" stroke-miterlimit="10"/>
<path d="M380.109 264.199L239.031 280.733" stroke="#A9C5DE" stroke-width="0.2"/>
<path d="M380.109 264.199L239.031 280.733" stroke="#A9C5DE" stroke-width="0.2" stroke-miterlimit="10"/>
<path d="M382.89 283.809H240.695" stroke="#A9C5DE" stroke-width="0.2"/>
<path d="M382.89 283.809H240.695" stroke="#A9C5DE" stroke-width="0.2" stroke-miterlimit="10"/>
<path d="M382.999 303.588L241.922 287.055" stroke="#A9C5DE" stroke-width="0.2"/>
<path d="M382.999 303.588L241.922 287.055" stroke="#A9C5DE" stroke-width="0.2" stroke-miterlimit="10"/>
<path d="M380.438 323.228L242.707 290.422" stroke="#A9C5DE" stroke-width="0.2"/>
<path d="M380.438 323.228L242.707 290.422" stroke="#A9C5DE" stroke-width="0.2" stroke-miterlimit="10"/>
<path d="M375.235 342.407L243.027 293.844" stroke="#A9C5DE" stroke-width="0.2"/>
<path d="M375.235 342.407L243.027 293.844" stroke="#A9C5DE" stroke-width="0.2" stroke-miterlimit="10"/>
<path d="M367.489 360.834L242.883 297.289" stroke="#A9C5DE" stroke-width="0.2"/>
<path d="M367.489 360.834L242.883 297.289" stroke="#A9C5DE" stroke-width="0.2" stroke-miterlimit="10"/>
<path d="M357.313 378.218L242.273 300.68" stroke="#A9C5DE" stroke-width="0.2"/>
<path d="M357.313 378.218L242.273 300.68" stroke="#A9C5DE" stroke-width="0.2" stroke-miterlimit="10"/>
<path d="M344.866 394.272L241.207 303.973" stroke="#A9C5DE" stroke-width="0.2"/>
<path d="M344.866 394.272L241.207 303.973" stroke="#A9C5DE" stroke-width="0.2" stroke-miterlimit="10"/>
<path d="M330.351 408.763L239.711 307.125" stroke="#A9C5DE" stroke-width="0.2"/>
<path d="M330.351 408.763L239.711 307.125" stroke="#A9C5DE" stroke-width="0.2" stroke-miterlimit="10"/>
<path d="M313.989 421.446L237.801 310.07" stroke="#A9C5DE" stroke-width="0.2"/>
<path d="M313.989 421.446L237.801 310.07" stroke="#A9C5DE" stroke-width="0.2" stroke-miterlimit="10"/>
<path d="M296.052 432.134L235.504 312.773" stroke="#A9C5DE" stroke-width="0.2"/>
<path d="M296.052 432.134L235.504 312.773" stroke="#A9C5DE" stroke-width="0.2" stroke-miterlimit="10"/>
<path d="M276.806 440.643L232.863 315.188" stroke="#A9C5DE" stroke-width="0.2"/>
<path d="M276.806 440.643L232.863 315.188" stroke="#A9C5DE" stroke-width="0.2" stroke-miterlimit="10"/>
<path d="M256.56 446.854L229.914 317.273" stroke="#A9C5DE" stroke-width="0.2"/>
<path d="M256.56 446.854L229.914 317.273" stroke="#A9C5DE" stroke-width="0.2" stroke-miterlimit="10"/>
<path d="M235.64 450.658L226.711 319.004" stroke="#A9C5DE" stroke-width="0.2"/>
<path d="M235.64 450.658L226.711 319.004" stroke="#A9C5DE" stroke-width="0.2" stroke-miterlimit="10"/>
<path d="M214.363 451.998L223.292 320.344" stroke="#A9C5DE" stroke-width="0.2"/>
<path d="M214.363 451.998L223.292 320.344" stroke="#A9C5DE" stroke-width="0.2" stroke-miterlimit="10"/>
<path d="M193.078 450.858L219.724 321.277" stroke="#A9C5DE" stroke-width="0.2"/>
<path d="M193.078 450.858L219.724 321.277" stroke="#A9C5DE" stroke-width="0.2" stroke-miterlimit="10"/>
<path d="M172.117 447.253L216.054 321.797" stroke="#A9C5DE" stroke-width="0.2"/>
<path d="M172.117 447.253L216.054 321.797" stroke="#A9C5DE" stroke-width="0.2" stroke-miterlimit="10"/>
<path d="M151.801 441.235L212.349 321.875" stroke="#A9C5DE" stroke-width="0.2"/>
<path d="M151.801 441.235L212.349 321.875" stroke="#A9C5DE" stroke-width="0.2" stroke-miterlimit="10"/>
<path d="M132.465 432.903L208.659 321.527" stroke="#A9C5DE" stroke-width="0.2"/>
<path d="M132.465 432.903L208.659 321.527" stroke="#A9C5DE" stroke-width="0.2" stroke-miterlimit="10"/>
<path d="M114.406 422.392L205.047 320.754" stroke="#A9C5DE" stroke-width="0.2"/>
<path d="M114.406 422.392L205.047 320.754" stroke="#A9C5DE" stroke-width="0.2" stroke-miterlimit="10"/>
<path d="M97.9062 409.863L201.566 319.559" stroke="#A9C5DE" stroke-width="0.2"/>
<path d="M97.9062 409.863L201.566 319.559" stroke="#A9C5DE" stroke-width="0.2" stroke-miterlimit="10"/>
<path d="M83.2344 395.511L198.274 317.973" stroke="#A9C5DE" stroke-width="0.2"/>
<path d="M83.2344 395.511L198.274 317.973" stroke="#A9C5DE" stroke-width="0.2" stroke-miterlimit="10"/>
<path d="M70.6133 379.57L195.226 316.02" stroke="#A9C5DE" stroke-width="0.2"/>
<path d="M70.6133 379.57L195.226 316.02" stroke="#A9C5DE" stroke-width="0.2" stroke-miterlimit="10"/>
<path d="M60.2461 362.286L192.459 313.723" stroke="#A9C5DE" stroke-width="0.2"/>
<path d="M60.2461 362.286L192.459 313.723" stroke="#A9C5DE" stroke-width="0.2" stroke-miterlimit="10"/>
<path d="M52.2969 343.93L190.028 311.129" stroke="#A9C5DE" stroke-width="0.2"/>
<path d="M52.2969 343.93L190.028 311.129" stroke="#A9C5DE" stroke-width="0.2" stroke-miterlimit="10"/>
<path d="M46.8906 324.799L187.968 308.266" stroke="#A9C5DE" stroke-width="0.2"/>
<path d="M46.8906 324.799L187.968 308.266" stroke="#A9C5DE" stroke-width="0.2" stroke-miterlimit="10"/>
<path d="M44.1133 305.188H186.308" stroke="#A9C5DE" stroke-width="0.2"/>
<path d="M44.1133 305.188H186.308" stroke="#A9C5DE" stroke-width="0.2" stroke-miterlimit="10"/>
</g>
<g opacity="0.4">
<path d="M257 141.41L398.078 157.944" stroke="#A9C5DE" stroke-width="0.2"/>
<path d="M257 141.41L398.078 157.944" stroke="#A9C5DE" stroke-width="0.2" stroke-miterlimit="10"/>
<path d="M259.57 121.773L397.301 154.58" stroke="#A9C5DE" stroke-width="0.2"/>
<path d="M259.57 121.773L397.301 154.58" stroke="#A9C5DE" stroke-width="0.2" stroke-miterlimit="10"/>
<path d="M264.762 102.59L396.975 151.154" stroke="#A9C5DE" stroke-width="0.2"/>
<path d="M264.762 102.59L396.975 151.154" stroke="#A9C5DE" stroke-width="0.2" stroke-miterlimit="10"/>
<path d="M272.512 84.168L397.118 147.713" stroke="#A9C5DE" stroke-width="0.2"/>
<path d="M272.512 84.168L397.118 147.713" stroke="#A9C5DE" stroke-width="0.2" stroke-miterlimit="10"/>
<path d="M282.688 66.7812L397.727 144.319" stroke="#A9C5DE" stroke-width="0.2"/>
<path d="M282.688 66.7812L397.727 144.319" stroke="#A9C5DE" stroke-width="0.2" stroke-miterlimit="10"/>
<path d="M295.133 50.7266L398.792 141.026" stroke="#A9C5DE" stroke-width="0.2"/>
<path d="M295.133 50.7266L398.792 141.026" stroke="#A9C5DE" stroke-width="0.2" stroke-miterlimit="10"/>
<path d="M309.648 36.2383L400.289 137.876" stroke="#A9C5DE" stroke-width="0.2"/>
<path d="M309.648 36.2383L400.289 137.876" stroke="#A9C5DE" stroke-width="0.2" stroke-miterlimit="10"/>
<path d="M326.008 23.5508L402.202 134.926" stroke="#A9C5DE" stroke-width="0.2"/>
<path d="M326.008 23.5508L402.202 134.926" stroke="#A9C5DE" stroke-width="0.2" stroke-miterlimit="10"/>
<path d="M343.953 12.8672L404.495 132.227" stroke="#A9C5DE" stroke-width="0.2"/>
<path d="M343.953 12.8672L404.495 132.227" stroke="#A9C5DE" stroke-width="0.2" stroke-miterlimit="10"/>
<path d="M363.199 4.35547L407.142 129.811" stroke="#A9C5DE" stroke-width="0.2"/>
<path d="M363.199 4.35547L407.142 129.811" stroke="#A9C5DE" stroke-width="0.2" stroke-miterlimit="10"/>
<path d="M383.445 -1.85156L410.086 127.729" stroke="#A9C5DE" stroke-width="0.2"/>
<path d="M383.445 -1.85156L410.086 127.729" stroke="#A9C5DE" stroke-width="0.2" stroke-miterlimit="10"/>
<path d="M404.363 -5.66016L413.292 125.994" stroke="#A9C5DE" stroke-width="0.2"/>
<path d="M404.363 -5.66016L413.292 125.994" stroke="#A9C5DE" stroke-width="0.2" stroke-miterlimit="10"/>
<path d="M425.636 -7L416.707 124.654" stroke="#A9C5DE" stroke-width="0.2"/>
<path d="M425.636 -7L416.707 124.654" stroke="#A9C5DE" stroke-width="0.2" stroke-miterlimit="10"/>
<path d="M446.927 -5.85938L420.281 123.722" stroke="#A9C5DE" stroke-width="0.2"/>
<path d="M446.927 -5.85938L420.281 123.722" stroke="#A9C5DE" stroke-width="0.2" stroke-miterlimit="10"/>
<path d="M467.892 -2.25L423.949 123.206" stroke="#A9C5DE" stroke-width="0.2"/>
<path d="M467.892 -2.25L423.949 123.206" stroke="#A9C5DE" stroke-width="0.2" stroke-miterlimit="10"/>
<path d="M488.2 3.76172L427.652 123.122" stroke="#A9C5DE" stroke-width="0.2"/>
<path d="M488.2 3.76172L427.652 123.122" stroke="#A9C5DE" stroke-width="0.2" stroke-miterlimit="10"/>
<path d="M507.538 12.0938L431.344 123.469" stroke="#A9C5DE" stroke-width="0.2"/>
<path d="M507.538 12.0938L431.344 123.469" stroke="#A9C5DE" stroke-width="0.2" stroke-miterlimit="10"/>
<path d="M525.597 22.6094L434.957 124.247" stroke="#A9C5DE" stroke-width="0.2"/>
<path d="M525.597 22.6094L434.957 124.247" stroke="#A9C5DE" stroke-width="0.2" stroke-miterlimit="10"/>
<path d="M542.093 35.1367L438.434 125.441" stroke="#A9C5DE" stroke-width="0.2"/>
<path d="M542.093 35.1367L438.434 125.441" stroke="#A9C5DE" stroke-width="0.2" stroke-miterlimit="10"/>
<path d="M556.766 49.4883L441.727 127.026" stroke="#A9C5DE" stroke-width="0.2"/>
<path d="M556.766 49.4883L441.727 127.026" stroke="#A9C5DE" stroke-width="0.2" stroke-miterlimit="10"/>
<path d="M569.386 65.4297L444.773 128.98" stroke="#A9C5DE" stroke-width="0.2"/>
<path d="M569.386 65.4297L444.773 128.98" stroke="#A9C5DE" stroke-width="0.2" stroke-miterlimit="10"/>
<path d="M579.756 82.7148L447.543 131.279" stroke="#A9C5DE" stroke-width="0.2"/>
<path d="M579.756 82.7148L447.543 131.279" stroke="#A9C5DE" stroke-width="0.2" stroke-miterlimit="10"/>
<path d="M587.703 101.07L449.973 133.871" stroke="#A9C5DE" stroke-width="0.2"/>
<path d="M587.703 101.07L449.973 133.871" stroke="#A9C5DE" stroke-width="0.2" stroke-miterlimit="10"/>
<path d="M593.109 120.199L452.031 136.733" stroke="#A9C5DE" stroke-width="0.2"/>
<path d="M593.109 120.199L452.031 136.733" stroke="#A9C5DE" stroke-width="0.2" stroke-miterlimit="10"/>
<path d="M595.89 139.809H453.695" stroke="#A9C5DE" stroke-width="0.2"/>
<path d="M595.89 139.809H453.695" stroke="#A9C5DE" stroke-width="0.2" stroke-miterlimit="10"/>
<path d="M595.999 159.588L454.922 143.055" stroke="#A9C5DE" stroke-width="0.2"/>
<path d="M595.999 159.588L454.922 143.055" stroke="#A9C5DE" stroke-width="0.2" stroke-miterlimit="10"/>
<path d="M593.438 179.228L455.707 146.422" stroke="#A9C5DE" stroke-width="0.2"/>
<path d="M593.438 179.228L455.707 146.422" stroke="#A9C5DE" stroke-width="0.2" stroke-miterlimit="10"/>
<path d="M588.235 198.407L456.027 149.844" stroke="#A9C5DE" stroke-width="0.2"/>
<path d="M588.235 198.407L456.027 149.844" stroke="#A9C5DE" stroke-width="0.2" stroke-miterlimit="10"/>
<path d="M580.489 216.834L455.883 153.289" stroke="#A9C5DE" stroke-width="0.2"/>
<path d="M580.489 216.834L455.883 153.289" stroke="#A9C5DE" stroke-width="0.2" stroke-miterlimit="10"/>
<path d="M570.313 234.218L455.273 156.68" stroke="#A9C5DE" stroke-width="0.2"/>
<path d="M570.313 234.218L455.273 156.68" stroke="#A9C5DE" stroke-width="0.2" stroke-miterlimit="10"/>
<path d="M557.866 250.272L454.207 159.973" stroke="#A9C5DE" stroke-width="0.2"/>
<path d="M557.866 250.272L454.207 159.973" stroke="#A9C5DE" stroke-width="0.2" stroke-miterlimit="10"/>
<path d="M543.351 264.763L452.711 163.125" stroke="#A9C5DE" stroke-width="0.2"/>
<path d="M543.351 264.763L452.711 163.125" stroke="#A9C5DE" stroke-width="0.2" stroke-miterlimit="10"/>
<path d="M526.989 277.446L450.801 166.07" stroke="#A9C5DE" stroke-width="0.2"/>
<path d="M526.989 277.446L450.801 166.07" stroke="#A9C5DE" stroke-width="0.2" stroke-miterlimit="10"/>
<path d="M509.052 288.134L448.504 168.773" stroke="#A9C5DE" stroke-width="0.2"/>
<path d="M509.052 288.134L448.504 168.773" stroke="#A9C5DE" stroke-width="0.2" stroke-miterlimit="10"/>
<path d="M489.806 296.643L445.863 171.188" stroke="#A9C5DE" stroke-width="0.2"/>
<path d="M489.806 296.643L445.863 171.188" stroke="#A9C5DE" stroke-width="0.2" stroke-miterlimit="10"/>
<path d="M469.56 302.854L442.914 173.273" stroke="#A9C5DE" stroke-width="0.2"/>
<path d="M469.56 302.854L442.914 173.273" stroke="#A9C5DE" stroke-width="0.2" stroke-miterlimit="10"/>
<path d="M448.64 306.658L439.711 175.004" stroke="#A9C5DE" stroke-width="0.2"/>
<path d="M448.64 306.658L439.711 175.004" stroke="#A9C5DE" stroke-width="0.2" stroke-miterlimit="10"/>
<path d="M427.363 307.998L436.292 176.344" stroke="#A9C5DE" stroke-width="0.2"/>
<path d="M427.363 307.998L436.292 176.344" stroke="#A9C5DE" stroke-width="0.2" stroke-miterlimit="10"/>
<path d="M406.078 306.858L432.724 177.277" stroke="#A9C5DE" stroke-width="0.2"/>
<path d="M406.078 306.858L432.724 177.277" stroke="#A9C5DE" stroke-width="0.2" stroke-miterlimit="10"/>
<path d="M385.117 303.253L429.054 177.797" stroke="#A9C5DE" stroke-width="0.2"/>
<path d="M385.117 303.253L429.054 177.797" stroke="#A9C5DE" stroke-width="0.2" stroke-miterlimit="10"/>
<path d="M364.801 297.235L425.349 177.875" stroke="#A9C5DE" stroke-width="0.2"/>
<path d="M364.801 297.235L425.349 177.875" stroke="#A9C5DE" stroke-width="0.2" stroke-miterlimit="10"/>
<path d="M345.465 288.903L421.659 177.527" stroke="#A9C5DE" stroke-width="0.2"/>
<path d="M345.465 288.903L421.659 177.527" stroke="#A9C5DE" stroke-width="0.2" stroke-miterlimit="10"/>
<path d="M327.406 278.392L418.047 176.754" stroke="#A9C5DE" stroke-width="0.2"/>
<path d="M327.406 278.392L418.047 176.754" stroke="#A9C5DE" stroke-width="0.2" stroke-miterlimit="10"/>
<path d="M310.906 265.863L414.566 175.559" stroke="#A9C5DE" stroke-width="0.2"/>
<path d="M310.906 265.863L414.566 175.559" stroke="#A9C5DE" stroke-width="0.2" stroke-miterlimit="10"/>
<path d="M296.234 251.511L411.274 173.973" stroke="#A9C5DE" stroke-width="0.2"/>
<path d="M296.234 251.511L411.274 173.973" stroke="#A9C5DE" stroke-width="0.2" stroke-miterlimit="10"/>
<path d="M283.613 235.57L408.226 172.02" stroke="#A9C5DE" stroke-width="0.2"/>
<path d="M283.613 235.57L408.226 172.02" stroke="#A9C5DE" stroke-width="0.2" stroke-miterlimit="10"/>
<path d="M273.246 218.286L405.459 169.723" stroke="#A9C5DE" stroke-width="0.2"/>
<path d="M273.246 218.286L405.459 169.723" stroke="#A9C5DE" stroke-width="0.2" stroke-miterlimit="10"/>
<path d="M265.297 199.93L403.028 167.129" stroke="#A9C5DE" stroke-width="0.2"/>
<path d="M265.297 199.93L403.028 167.129" stroke="#A9C5DE" stroke-width="0.2" stroke-miterlimit="10"/>
<path d="M259.891 180.799L400.968 164.266" stroke="#A9C5DE" stroke-width="0.2"/>
<path d="M259.891 180.799L400.968 164.266" stroke="#A9C5DE" stroke-width="0.2" stroke-miterlimit="10"/>
<path d="M257.113 161.188H399.308" stroke="#A9C5DE" stroke-width="0.2"/>
<path d="M257.113 161.188H399.308" stroke="#A9C5DE" stroke-width="0.2" stroke-miterlimit="10"/>
</g>
<g opacity="0.4">
<path d="M599 101.41L740.078 117.944" stroke="#A9C5DE" stroke-width="0.2"/>
<path d="M599 101.41L740.078 117.944" stroke="#A9C5DE" stroke-width="0.2" stroke-miterlimit="10"/>
<path d="M601.57 81.7734L739.301 114.58" stroke="#A9C5DE" stroke-width="0.2"/>
<path d="M601.57 81.7734L739.301 114.58" stroke="#A9C5DE" stroke-width="0.2" stroke-miterlimit="10"/>
<path d="M606.762 62.5898L738.975 111.154" stroke="#A9C5DE" stroke-width="0.2"/>
<path d="M606.762 62.5898L738.975 111.154" stroke="#A9C5DE" stroke-width="0.2" stroke-miterlimit="10"/>
<path d="M614.512 44.168L739.118 107.713" stroke="#A9C5DE" stroke-width="0.2"/>
<path d="M614.512 44.168L739.118 107.713" stroke="#A9C5DE" stroke-width="0.2" stroke-miterlimit="10"/>
<path d="M624.688 26.7812L739.727 104.319" stroke="#A9C5DE" stroke-width="0.2"/>
<path d="M624.688 26.7812L739.727 104.319" stroke="#A9C5DE" stroke-width="0.2" stroke-miterlimit="10"/>
<path d="M637.133 10.7266L740.792 101.026" stroke="#A9C5DE" stroke-width="0.2"/>
<path d="M637.133 10.7266L740.792 101.026" stroke="#A9C5DE" stroke-width="0.2" stroke-miterlimit="10"/>
<path d="M651.648 -3.76172L742.289 97.8762" stroke="#A9C5DE" stroke-width="0.2"/>
<path d="M651.648 -3.76172L742.289 97.8762" stroke="#A9C5DE" stroke-width="0.2" stroke-miterlimit="10"/>
<path d="M668.008 -16.4492L744.202 94.9264" stroke="#A9C5DE" stroke-width="0.2"/>
<path d="M668.008 -16.4492L744.202 94.9264" stroke="#A9C5DE" stroke-width="0.2" stroke-miterlimit="10"/>
<path d="M685.953 -27.1328L746.495 92.2273" stroke="#A9C5DE" stroke-width="0.2"/>
<path d="M685.953 -27.1328L746.495 92.2273" stroke="#A9C5DE" stroke-width="0.2" stroke-miterlimit="10"/>
<path d="M705.199 -35.6445L749.142 89.8112" stroke="#A9C5DE" stroke-width="0.2"/>
<path d="M705.199 -35.6445L749.142 89.8112" stroke="#A9C5DE" stroke-width="0.2" stroke-miterlimit="10"/>
<path d="M725.445 -41.8516L752.086 87.7294" stroke="#A9C5DE" stroke-width="0.2"/>
<path d="M725.445 -41.8516L752.086 87.7294" stroke="#A9C5DE" stroke-width="0.2" stroke-miterlimit="10"/>
<path d="M746.363 -45.6602L755.292 85.9942" stroke="#A9C5DE" stroke-width="0.2"/>
<path d="M746.363 -45.6602L755.292 85.9942" stroke="#A9C5DE" stroke-width="0.2" stroke-miterlimit="10"/>
<path d="M767.636 -47L758.707 84.6544" stroke="#A9C5DE" stroke-width="0.2"/>
<path d="M767.636 -47L758.707 84.6544" stroke="#A9C5DE" stroke-width="0.2" stroke-miterlimit="10"/>
<path d="M788.927 -45.8594L762.281 83.7215" stroke="#A9C5DE" stroke-width="0.2"/>
<path d="M788.927 -45.8594L762.281 83.7215" stroke="#A9C5DE" stroke-width="0.2" stroke-miterlimit="10"/>
<path d="M809.892 -42.25L765.949 83.2057" stroke="#A9C5DE" stroke-width="0.2"/>
<path d="M809.892 -42.25L765.949 83.2057" stroke="#A9C5DE" stroke-width="0.2" stroke-miterlimit="10"/>
<path d="M830.2 -36.2383L769.652 83.1218" stroke="#A9C5DE" stroke-width="0.2"/>
<path d="M830.2 -36.2383L769.652 83.1218" stroke="#A9C5DE" stroke-width="0.2" stroke-miterlimit="10"/>
<path d="M849.538 -27.9062L773.344 83.4694" stroke="#A9C5DE" stroke-width="0.2"/>
<path d="M849.538 -27.9062L773.344 83.4694" stroke="#A9C5DE" stroke-width="0.2" stroke-miterlimit="10"/>
<path d="M867.597 -17.3906L776.957 84.2473" stroke="#A9C5DE" stroke-width="0.2"/>
<path d="M867.597 -17.3906L776.957 84.2473" stroke="#A9C5DE" stroke-width="0.2" stroke-miterlimit="10"/>
<path d="M884.093 -4.86328L780.434 85.4411" stroke="#A9C5DE" stroke-width="0.2"/>
<path d="M884.093 -4.86328L780.434 85.4411" stroke="#A9C5DE" stroke-width="0.2" stroke-miterlimit="10"/>
<path d="M898.766 9.48828L783.727 87.0262" stroke="#A9C5DE" stroke-width="0.2"/>
<path d="M898.766 9.48828L783.727 87.0262" stroke="#A9C5DE" stroke-width="0.2" stroke-miterlimit="10"/>
<path d="M911.386 25.4297L786.773 88.9799" stroke="#A9C5DE" stroke-width="0.2"/>
<path d="M911.386 25.4297L786.773 88.9799" stroke="#A9C5DE" stroke-width="0.2" stroke-miterlimit="10"/>
<path d="M921.756 42.7148L789.543 91.2785" stroke="#A9C5DE" stroke-width="0.2"/>
<path d="M921.756 42.7148L789.543 91.2785" stroke="#A9C5DE" stroke-width="0.2" stroke-miterlimit="10"/>
<path d="M929.703 61.0703L791.973 93.8713" stroke="#A9C5DE" stroke-width="0.2"/>
<path d="M929.703 61.0703L791.973 93.8713" stroke="#A9C5DE" stroke-width="0.2" stroke-miterlimit="10"/>
<path d="M935.109 80.1992L794.031 96.7327" stroke="#A9C5DE" stroke-width="0.2"/>
<path d="M935.109 80.1992L794.031 96.7327" stroke="#A9C5DE" stroke-width="0.2" stroke-miterlimit="10"/>
<path d="M937.89 99.8086H795.695" stroke="#A9C5DE" stroke-width="0.2"/>
<path d="M937.89 99.8086H795.695" stroke="#A9C5DE" stroke-width="0.2" stroke-miterlimit="10"/>
<path d="M937.999 119.588L796.922 103.055" stroke="#A9C5DE" stroke-width="0.2"/>
<path d="M937.999 119.588L796.922 103.055" stroke="#A9C5DE" stroke-width="0.2" stroke-miterlimit="10"/>
<path d="M935.438 139.228L797.707 106.422" stroke="#A9C5DE" stroke-width="0.2"/>
<path d="M935.438 139.228L797.707 106.422" stroke="#A9C5DE" stroke-width="0.2" stroke-miterlimit="10"/>
<path d="M930.235 158.407L798.027 109.844" stroke="#A9C5DE" stroke-width="0.2"/>
<path d="M930.235 158.407L798.027 109.844" stroke="#A9C5DE" stroke-width="0.2" stroke-miterlimit="10"/>
<path d="M922.489 176.834L797.883 113.289" stroke="#A9C5DE" stroke-width="0.2"/>
<path d="M922.489 176.834L797.883 113.289" stroke="#A9C5DE" stroke-width="0.2" stroke-miterlimit="10"/>
<path d="M912.313 194.218L797.273 116.68" stroke="#A9C5DE" stroke-width="0.2"/>
<path d="M912.313 194.218L797.273 116.68" stroke="#A9C5DE" stroke-width="0.2" stroke-miterlimit="10"/>
<path d="M899.866 210.272L796.207 119.973" stroke="#A9C5DE" stroke-width="0.2"/>
<path d="M899.866 210.272L796.207 119.973" stroke="#A9C5DE" stroke-width="0.2" stroke-miterlimit="10"/>
<path d="M885.351 224.763L794.711 123.125" stroke="#A9C5DE" stroke-width="0.2"/>
<path d="M885.351 224.763L794.711 123.125" stroke="#A9C5DE" stroke-width="0.2" stroke-miterlimit="10"/>
<path d="M868.989 237.446L792.801 126.07" stroke="#A9C5DE" stroke-width="0.2"/>
<path d="M868.989 237.446L792.801 126.07" stroke="#A9C5DE" stroke-width="0.2" stroke-miterlimit="10"/>
<path d="M851.052 248.134L790.504 128.773" stroke="#A9C5DE" stroke-width="0.2"/>
<path d="M851.052 248.134L790.504 128.773" stroke="#A9C5DE" stroke-width="0.2" stroke-miterlimit="10"/>
<path d="M831.806 256.643L787.863 131.188" stroke="#A9C5DE" stroke-width="0.2"/>
<path d="M831.806 256.643L787.863 131.188" stroke="#A9C5DE" stroke-width="0.2" stroke-miterlimit="10"/>
<path d="M811.56 262.854L784.914 133.273" stroke="#A9C5DE" stroke-width="0.2"/>
<path d="M811.56 262.854L784.914 133.273" stroke="#A9C5DE" stroke-width="0.2" stroke-miterlimit="10"/>
<path d="M790.64 266.658L781.711 135.004" stroke="#A9C5DE" stroke-width="0.2"/>
<path d="M790.64 266.658L781.711 135.004" stroke="#A9C5DE" stroke-width="0.2" stroke-miterlimit="10"/>
<path d="M769.363 267.998L778.292 136.344" stroke="#A9C5DE" stroke-width="0.2"/>
<path d="M769.363 267.998L778.292 136.344" stroke="#A9C5DE" stroke-width="0.2" stroke-miterlimit="10"/>
<path d="M748.078 266.858L774.724 137.277" stroke="#A9C5DE" stroke-width="0.2"/>
<path d="M748.078 266.858L774.724 137.277" stroke="#A9C5DE" stroke-width="0.2" stroke-miterlimit="10"/>
<path d="M727.117 263.253L771.054 137.797" stroke="#A9C5DE" stroke-width="0.2"/>
<path d="M727.117 263.253L771.054 137.797" stroke="#A9C5DE" stroke-width="0.2" stroke-miterlimit="10"/>
<path d="M706.801 257.235L767.349 137.875" stroke="#A9C5DE" stroke-width="0.2"/>
<path d="M706.801 257.235L767.349 137.875" stroke="#A9C5DE" stroke-width="0.2" stroke-miterlimit="10"/>
<path d="M687.465 248.903L763.659 137.527" stroke="#A9C5DE" stroke-width="0.2"/>
<path d="M687.465 248.903L763.659 137.527" stroke="#A9C5DE" stroke-width="0.2" stroke-miterlimit="10"/>
<path d="M669.406 238.392L760.047 136.754" stroke="#A9C5DE" stroke-width="0.2"/>
<path d="M669.406 238.392L760.047 136.754" stroke="#A9C5DE" stroke-width="0.2" stroke-miterlimit="10"/>
<path d="M652.906 225.863L756.566 135.559" stroke="#A9C5DE" stroke-width="0.2"/>
<path d="M652.906 225.863L756.566 135.559" stroke="#A9C5DE" stroke-width="0.2" stroke-miterlimit="10"/>
<path d="M638.234 211.511L753.274 133.973" stroke="#A9C5DE" stroke-width="0.2"/>
<path d="M638.234 211.511L753.274 133.973" stroke="#A9C5DE" stroke-width="0.2" stroke-miterlimit="10"/>
<path d="M625.613 195.57L750.226 132.02" stroke="#A9C5DE" stroke-width="0.2"/>
<path d="M625.613 195.57L750.226 132.02" stroke="#A9C5DE" stroke-width="0.2" stroke-miterlimit="10"/>
<path d="M615.246 178.286L747.459 129.723" stroke="#A9C5DE" stroke-width="0.2"/>
<path d="M615.246 178.286L747.459 129.723" stroke="#A9C5DE" stroke-width="0.2" stroke-miterlimit="10"/>
<path d="M607.297 159.93L745.028 127.129" stroke="#A9C5DE" stroke-width="0.2"/>
<path d="M607.297 159.93L745.028 127.129" stroke="#A9C5DE" stroke-width="0.2" stroke-miterlimit="10"/>
<path d="M601.891 140.799L742.968 124.266" stroke="#A9C5DE" stroke-width="0.2"/>
<path d="M601.891 140.799L742.968 124.266" stroke="#A9C5DE" stroke-width="0.2" stroke-miterlimit="10"/>
<path d="M599.113 121.188H741.308" stroke="#A9C5DE" stroke-width="0.2"/>
<path d="M599.113 121.188H741.308" stroke="#A9C5DE" stroke-width="0.2" stroke-miterlimit="10"/>
</g>
<g opacity="0.4">
<path d="M976 132.41L1117.08 148.944" stroke="#A9C5DE" stroke-width="0.2"/>
<path d="M976 132.41L1117.08 148.944" stroke="#A9C5DE" stroke-width="0.2" stroke-miterlimit="10"/>
<path d="M978.57 112.773L1116.3 145.58" stroke="#A9C5DE" stroke-width="0.2"/>
<path d="M978.57 112.773L1116.3 145.58" stroke="#A9C5DE" stroke-width="0.2" stroke-miterlimit="10"/>
<path d="M983.762 93.5898L1115.97 142.154" stroke="#A9C5DE" stroke-width="0.2"/>
<path d="M983.762 93.5898L1115.97 142.154" stroke="#A9C5DE" stroke-width="0.2" stroke-miterlimit="10"/>
<path d="M991.512 75.168L1116.12 138.713" stroke="#A9C5DE" stroke-width="0.2"/>
<path d="M991.512 75.168L1116.12 138.713" stroke="#A9C5DE" stroke-width="0.2" stroke-miterlimit="10"/>
<path d="M1001.69 57.7812L1116.73 135.319" stroke="#A9C5DE" stroke-width="0.2"/>
<path d="M1001.69 57.7812L1116.73 135.319" stroke="#A9C5DE" stroke-width="0.2" stroke-miterlimit="10"/>
<path d="M1014.13 41.7266L1117.79 132.026" stroke="#A9C5DE" stroke-width="0.2"/>
<path d="M1014.13 41.7266L1117.79 132.026" stroke="#A9C5DE" stroke-width="0.2" stroke-miterlimit="10"/>
<path d="M1028.65 27.2383L1119.29 128.876" stroke="#A9C5DE" stroke-width="0.2"/>
<path d="M1028.65 27.2383L1119.29 128.876" stroke="#A9C5DE" stroke-width="0.2" stroke-miterlimit="10"/>
<path d="M1045.01 14.5508L1121.2 125.926" stroke="#A9C5DE" stroke-width="0.2"/>
<path d="M1045.01 14.5508L1121.2 125.926" stroke="#A9C5DE" stroke-width="0.2" stroke-miterlimit="10"/>
<path d="M1062.95 3.86719L1123.5 123.227" stroke="#A9C5DE" stroke-width="0.2"/>
<path d="M1062.95 3.86719L1123.5 123.227" stroke="#A9C5DE" stroke-width="0.2" stroke-miterlimit="10"/>
<path d="M1082.2 -4.64453L1126.14 120.811" stroke="#A9C5DE" stroke-width="0.2"/>
<path d="M1082.2 -4.64453L1126.14 120.811" stroke="#A9C5DE" stroke-width="0.2" stroke-miterlimit="10"/>
<path d="M1102.45 -10.8516L1129.09 118.729" stroke="#A9C5DE" stroke-width="0.2"/>
<path d="M1102.45 -10.8516L1129.09 118.729" stroke="#A9C5DE" stroke-width="0.2" stroke-miterlimit="10"/>
<path d="M1123.36 -14.6602L1132.29 116.994" stroke="#A9C5DE" stroke-width="0.2"/>
<path d="M1123.36 -14.6602L1132.29 116.994" stroke="#A9C5DE" stroke-width="0.2" stroke-miterlimit="10"/>
<path d="M1144.64 -16L1135.71 115.654" stroke="#A9C5DE" stroke-width="0.2"/>
<path d="M1144.64 -16L1135.71 115.654" stroke="#A9C5DE" stroke-width="0.2" stroke-miterlimit="10"/>
<path d="M1165.93 -14.8594L1139.28 114.722" stroke="#A9C5DE" stroke-width="0.2"/>
<path d="M1165.93 -14.8594L1139.28 114.722" stroke="#A9C5DE" stroke-width="0.2" stroke-miterlimit="10"/>
<path d="M1186.89 -11.25L1142.95 114.206" stroke="#A9C5DE" stroke-width="0.2"/>
<path d="M1186.89 -11.25L1142.95 114.206" stroke="#A9C5DE" stroke-width="0.2" stroke-miterlimit="10"/>
<path d="M1207.2 -5.23828L1146.65 114.122" stroke="#A9C5DE" stroke-width="0.2"/>
<path d="M1207.2 -5.23828L1146.65 114.122" stroke="#A9C5DE" stroke-width="0.2" stroke-miterlimit="10"/>
<path d="M1226.54 3.09375L1150.34 114.469" stroke="#A9C5DE" stroke-width="0.2"/>
<path d="M1226.54 3.09375L1150.34 114.469" stroke="#A9C5DE" stroke-width="0.2" stroke-miterlimit="10"/>
<path d="M1244.6 13.6094L1153.96 115.247" stroke="#A9C5DE" stroke-width="0.2"/>
<path d="M1244.6 13.6094L1153.96 115.247" stroke="#A9C5DE" stroke-width="0.2" stroke-miterlimit="10"/>
<path d="M1261.09 26.1367L1157.43 116.441" stroke="#A9C5DE" stroke-width="0.2"/>
<path d="M1261.09 26.1367L1157.43 116.441" stroke="#A9C5DE" stroke-width="0.2" stroke-miterlimit="10"/>
<path d="M1275.77 40.4883L1160.73 118.026" stroke="#A9C5DE" stroke-width="0.2"/>
<path d="M1275.77 40.4883L1160.73 118.026" stroke="#A9C5DE" stroke-width="0.2" stroke-miterlimit="10"/>
<path d="M1288.39 56.4297L1163.77 119.98" stroke="#A9C5DE" stroke-width="0.2"/>
<path d="M1288.39 56.4297L1163.77 119.98" stroke="#A9C5DE" stroke-width="0.2" stroke-miterlimit="10"/>
<path d="M1298.76 73.7148L1166.54 122.279" stroke="#A9C5DE" stroke-width="0.2"/>
<path d="M1298.76 73.7148L1166.54 122.279" stroke="#A9C5DE" stroke-width="0.2" stroke-miterlimit="10"/>
<path d="M1306.7 92.0703L1168.97 124.871" stroke="#A9C5DE" stroke-width="0.2"/>
<path d="M1306.7 92.0703L1168.97 124.871" stroke="#A9C5DE" stroke-width="0.2" stroke-miterlimit="10"/>
<path d="M1312.11 111.199L1171.03 127.733" stroke="#A9C5DE" stroke-width="0.2"/>
<path d="M1312.11 111.199L1171.03 127.733" stroke="#A9C5DE" stroke-width="0.2" stroke-miterlimit="10"/>
<path d="M1314.89 130.809H1172.7" stroke="#A9C5DE" stroke-width="0.2"/>
<path d="M1314.89 130.809H1172.7" stroke="#A9C5DE" stroke-width="0.2" stroke-miterlimit="10"/>
<path d="M1315 150.588L1173.92 134.055" stroke="#A9C5DE" stroke-width="0.2"/>
<path d="M1315 150.588L1173.92 134.055" stroke="#A9C5DE" stroke-width="0.2" stroke-miterlimit="10"/>
<path d="M1312.44 170.228L1174.71 137.422" stroke="#A9C5DE" stroke-width="0.2"/>
<path d="M1312.44 170.228L1174.71 137.422" stroke="#A9C5DE" stroke-width="0.2" stroke-miterlimit="10"/>
<path d="M1307.23 189.407L1175.03 140.844" stroke="#A9C5DE" stroke-width="0.2"/>
<path d="M1307.23 189.407L1175.03 140.844" stroke="#A9C5DE" stroke-width="0.2" stroke-miterlimit="10"/>
<path d="M1299.49 207.834L1174.88 144.289" stroke="#A9C5DE" stroke-width="0.2"/>
<path d="M1299.49 207.834L1174.88 144.289" stroke="#A9C5DE" stroke-width="0.2" stroke-miterlimit="10"/>
<path d="M1289.31 225.218L1174.27 147.68" stroke="#A9C5DE" stroke-width="0.2"/>
<path d="M1289.31 225.218L1174.27 147.68" stroke="#A9C5DE" stroke-width="0.2" stroke-miterlimit="10"/>
<path d="M1276.87 241.272L1173.21 150.973" stroke="#A9C5DE" stroke-width="0.2"/>
<path d="M1276.87 241.272L1173.21 150.973" stroke="#A9C5DE" stroke-width="0.2" stroke-miterlimit="10"/>
<path d="M1262.35 255.763L1171.71 154.125" stroke="#A9C5DE" stroke-width="0.2"/>
<path d="M1262.35 255.763L1171.71 154.125" stroke="#A9C5DE" stroke-width="0.2" stroke-miterlimit="10"/>
<path d="M1245.99 268.446L1169.8 157.07" stroke="#A9C5DE" stroke-width="0.2"/>
<path d="M1245.99 268.446L1169.8 157.07" stroke="#A9C5DE" stroke-width="0.2" stroke-miterlimit="10"/>
<path d="M1228.05 279.134L1167.5 159.773" stroke="#A9C5DE" stroke-width="0.2"/>
<path d="M1228.05 279.134L1167.5 159.773" stroke="#A9C5DE" stroke-width="0.2" stroke-miterlimit="10"/>
<path d="M1208.81 287.643L1164.86 162.188" stroke="#A9C5DE" stroke-width="0.2"/>
<path d="M1208.81 287.643L1164.86 162.188" stroke="#A9C5DE" stroke-width="0.2" stroke-miterlimit="10"/>
<path d="M1188.56 293.854L1161.91 164.273" stroke="#A9C5DE" stroke-width="0.2"/>
<path d="M1188.56 293.854L1161.91 164.273" stroke="#A9C5DE" stroke-width="0.2" stroke-miterlimit="10"/>
<path d="M1167.64 297.658L1158.71 166.004" stroke="#A9C5DE" stroke-width="0.2"/>
<path d="M1167.64 297.658L1158.71 166.004" stroke="#A9C5DE" stroke-width="0.2" stroke-miterlimit="10"/>
<path d="M1146.36 298.998L1155.29 167.344" stroke="#A9C5DE" stroke-width="0.2"/>
<path d="M1146.36 298.998L1155.29 167.344" stroke="#A9C5DE" stroke-width="0.2" stroke-miterlimit="10"/>
<path d="M1125.08 297.858L1151.72 168.277" stroke="#A9C5DE" stroke-width="0.2"/>
<path d="M1125.08 297.858L1151.72 168.277" stroke="#A9C5DE" stroke-width="0.2" stroke-miterlimit="10"/>
<path d="M1104.12 294.253L1148.05 168.797" stroke="#A9C5DE" stroke-width="0.2"/>
<path d="M1104.12 294.253L1148.05 168.797" stroke="#A9C5DE" stroke-width="0.2" stroke-miterlimit="10"/>
<path d="M1083.8 288.235L1144.35 168.875" stroke="#A9C5DE" stroke-width="0.2"/>
<path d="M1083.8 288.235L1144.35 168.875" stroke="#A9C5DE" stroke-width="0.2" stroke-miterlimit="10"/>
<path d="M1064.46 279.903L1140.66 168.527" stroke="#A9C5DE" stroke-width="0.2"/>
<path d="M1064.46 279.903L1140.66 168.527" stroke="#A9C5DE" stroke-width="0.2" stroke-miterlimit="10"/>
<path d="M1046.41 269.392L1137.05 167.754" stroke="#A9C5DE" stroke-width="0.2"/>
<path d="M1046.41 269.392L1137.05 167.754" stroke="#A9C5DE" stroke-width="0.2" stroke-miterlimit="10"/>
<path d="M1029.91 256.863L1133.57 166.559" stroke="#A9C5DE" stroke-width="0.2"/>
<path d="M1029.91 256.863L1133.57 166.559" stroke="#A9C5DE" stroke-width="0.2" stroke-miterlimit="10"/>
<path d="M1015.23 242.511L1130.27 164.973" stroke="#A9C5DE" stroke-width="0.2"/>
<path d="M1015.23 242.511L1130.27 164.973" stroke="#A9C5DE" stroke-width="0.2" stroke-miterlimit="10"/>
<path d="M1002.61 226.57L1127.23 163.02" stroke="#A9C5DE" stroke-width="0.2"/>
<path d="M1002.61 226.57L1127.23 163.02" stroke="#A9C5DE" stroke-width="0.2" stroke-miterlimit="10"/>
<path d="M992.246 209.286L1124.46 160.723" stroke="#A9C5DE" stroke-width="0.2"/>
<path d="M992.246 209.286L1124.46 160.723" stroke="#A9C5DE" stroke-width="0.2" stroke-miterlimit="10"/>
<path d="M984.297 190.93L1122.03 158.129" stroke="#A9C5DE" stroke-width="0.2"/>
<path d="M984.297 190.93L1122.03 158.129" stroke="#A9C5DE" stroke-width="0.2" stroke-miterlimit="10"/>
<path d="M978.891 171.799L1119.97 155.266" stroke="#A9C5DE" stroke-width="0.2"/>
<path d="M978.891 171.799L1119.97 155.266" stroke="#A9C5DE" stroke-width="0.2" stroke-miterlimit="10"/>
<path d="M976.113 152.188H1118.31" stroke="#A9C5DE" stroke-width="0.2"/>
<path d="M976.113 152.188H1118.31" stroke="#A9C5DE" stroke-width="0.2" stroke-miterlimit="10"/>
</g>
<g opacity="0.4">
<path d="M761 301.41L902.078 317.944" stroke="#A9C5DE" stroke-width="0.2"/>
<path d="M761 301.41L902.078 317.944" stroke="#A9C5DE" stroke-width="0.2" stroke-miterlimit="10"/>
<path d="M763.57 281.773L901.301 314.58" stroke="#A9C5DE" stroke-width="0.2"/>
<path d="M763.57 281.773L901.301 314.58" stroke="#A9C5DE" stroke-width="0.2" stroke-miterlimit="10"/>
<path d="M768.762 262.59L900.975 311.154" stroke="#A9C5DE" stroke-width="0.2"/>
<path d="M768.762 262.59L900.975 311.154" stroke="#A9C5DE" stroke-width="0.2" stroke-miterlimit="10"/>
<path d="M776.512 244.168L901.118 307.713" stroke="#A9C5DE" stroke-width="0.2"/>
<path d="M776.512 244.168L901.118 307.713" stroke="#A9C5DE" stroke-width="0.2" stroke-miterlimit="10"/>
<path d="M786.688 226.781L901.727 304.319" stroke="#A9C5DE" stroke-width="0.2"/>
<path d="M786.688 226.781L901.727 304.319" stroke="#A9C5DE" stroke-width="0.2" stroke-miterlimit="10"/>
<path d="M799.133 210.727L902.792 301.026" stroke="#A9C5DE" stroke-width="0.2"/>
<path d="M799.133 210.727L902.792 301.026" stroke="#A9C5DE" stroke-width="0.2" stroke-miterlimit="10"/>
<path d="M813.648 196.238L904.289 297.876" stroke="#A9C5DE" stroke-width="0.2"/>
<path d="M813.648 196.238L904.289 297.876" stroke="#A9C5DE" stroke-width="0.2" stroke-miterlimit="10"/>
<path d="M830.008 183.551L906.202 294.926" stroke="#A9C5DE" stroke-width="0.2"/>
<path d="M830.008 183.551L906.202 294.926" stroke="#A9C5DE" stroke-width="0.2" stroke-miterlimit="10"/>
<path d="M847.953 172.867L908.495 292.227" stroke="#A9C5DE" stroke-width="0.2"/>
<path d="M847.953 172.867L908.495 292.227" stroke="#A9C5DE" stroke-width="0.2" stroke-miterlimit="10"/>
<path d="M867.199 164.355L911.142 289.811" stroke="#A9C5DE" stroke-width="0.2"/>
<path d="M867.199 164.355L911.142 289.811" stroke="#A9C5DE" stroke-width="0.2" stroke-miterlimit="10"/>
<path d="M887.445 158.148L914.086 287.729" stroke="#A9C5DE" stroke-width="0.2"/>
<path d="M887.445 158.148L914.086 287.729" stroke="#A9C5DE" stroke-width="0.2" stroke-miterlimit="10"/>
<path d="M908.363 154.34L917.292 285.994" stroke="#A9C5DE" stroke-width="0.2"/>
<path d="M908.363 154.34L917.292 285.994" stroke="#A9C5DE" stroke-width="0.2" stroke-miterlimit="10"/>
<path d="M929.636 153L920.707 284.654" stroke="#A9C5DE" stroke-width="0.2"/>
<path d="M929.636 153L920.707 284.654" stroke="#A9C5DE" stroke-width="0.2" stroke-miterlimit="10"/>
<path d="M950.927 154.141L924.281 283.722" stroke="#A9C5DE" stroke-width="0.2"/>
<path d="M950.927 154.141L924.281 283.722" stroke="#A9C5DE" stroke-width="0.2" stroke-miterlimit="10"/>
<path d="M971.892 157.75L927.949 283.206" stroke="#A9C5DE" stroke-width="0.2"/>
<path d="M971.892 157.75L927.949 283.206" stroke="#A9C5DE" stroke-width="0.2" stroke-miterlimit="10"/>
<path d="M992.2 163.762L931.652 283.122" stroke="#A9C5DE" stroke-width="0.2"/>
<path d="M992.2 163.762L931.652 283.122" stroke="#A9C5DE" stroke-width="0.2" stroke-miterlimit="10"/>
<path d="M1011.54 172.094L935.344 283.469" stroke="#A9C5DE" stroke-width="0.2"/>
<path d="M1011.54 172.094L935.344 283.469" stroke="#A9C5DE" stroke-width="0.2" stroke-miterlimit="10"/>
<path d="M1029.6 182.609L938.957 284.247" stroke="#A9C5DE" stroke-width="0.2"/>
<path d="M1029.6 182.609L938.957 284.247" stroke="#A9C5DE" stroke-width="0.2" stroke-miterlimit="10"/>
<path d="M1046.09 195.137L942.434 285.441" stroke="#A9C5DE" stroke-width="0.2"/>
<path d="M1046.09 195.137L942.434 285.441" stroke="#A9C5DE" stroke-width="0.2" stroke-miterlimit="10"/>
<path d="M1060.77 209.488L945.727 287.026" stroke="#A9C5DE" stroke-width="0.2"/>
<path d="M1060.77 209.488L945.727 287.026" stroke="#A9C5DE" stroke-width="0.2" stroke-miterlimit="10"/>
<path d="M1073.39 225.43L948.773 288.98" stroke="#A9C5DE" stroke-width="0.2"/>
<path d="M1073.39 225.43L948.773 288.98" stroke="#A9C5DE" stroke-width="0.2" stroke-miterlimit="10"/>
<path d="M1083.76 242.715L951.543 291.279" stroke="#A9C5DE" stroke-width="0.2"/>
<path d="M1083.76 242.715L951.543 291.279" stroke="#A9C5DE" stroke-width="0.2" stroke-miterlimit="10"/>
<path d="M1091.7 261.07L953.973 293.871" stroke="#A9C5DE" stroke-width="0.2"/>
<path d="M1091.7 261.07L953.973 293.871" stroke="#A9C5DE" stroke-width="0.2" stroke-miterlimit="10"/>
<path d="M1097.11 280.199L956.031 296.733" stroke="#A9C5DE" stroke-width="0.2"/>
<path d="M1097.11 280.199L956.031 296.733" stroke="#A9C5DE" stroke-width="0.2" stroke-miterlimit="10"/>
<path d="M1099.89 299.809H957.695" stroke="#A9C5DE" stroke-width="0.2"/>
<path d="M1099.89 299.809H957.695" stroke="#A9C5DE" stroke-width="0.2" stroke-miterlimit="10"/>
<path d="M1100 319.588L958.922 303.055" stroke="#A9C5DE" stroke-width="0.2"/>
<path d="M1100 319.588L958.922 303.055" stroke="#A9C5DE" stroke-width="0.2" stroke-miterlimit="10"/>
<path d="M1097.44 339.228L959.707 306.422" stroke="#A9C5DE" stroke-width="0.2"/>
<path d="M1097.44 339.228L959.707 306.422" stroke="#A9C5DE" stroke-width="0.2" stroke-miterlimit="10"/>
<path d="M1092.23 358.407L960.027 309.844" stroke="#A9C5DE" stroke-width="0.2"/>
<path d="M1092.23 358.407L960.027 309.844" stroke="#A9C5DE" stroke-width="0.2" stroke-miterlimit="10"/>
<path d="M1084.49 376.834L959.883 313.289" stroke="#A9C5DE" stroke-width="0.2"/>
<path d="M1084.49 376.834L959.883 313.289" stroke="#A9C5DE" stroke-width="0.2" stroke-miterlimit="10"/>
<path d="M1074.31 394.218L959.273 316.68" stroke="#A9C5DE" stroke-width="0.2"/>
<path d="M1074.31 394.218L959.273 316.68" stroke="#A9C5DE" stroke-width="0.2" stroke-miterlimit="10"/>
<path d="M1061.87 410.272L958.207 319.973" stroke="#A9C5DE" stroke-width="0.2"/>
<path d="M1061.87 410.272L958.207 319.973" stroke="#A9C5DE" stroke-width="0.2" stroke-miterlimit="10"/>
<path d="M1047.35 424.763L956.711 323.125" stroke="#A9C5DE" stroke-width="0.2"/>
<path d="M1047.35 424.763L956.711 323.125" stroke="#A9C5DE" stroke-width="0.2" stroke-miterlimit="10"/>
<path d="M1030.99 437.446L954.801 326.07" stroke="#A9C5DE" stroke-width="0.2"/>
<path d="M1030.99 437.446L954.801 326.07" stroke="#A9C5DE" stroke-width="0.2" stroke-miterlimit="10"/>
<path d="M1013.05 448.134L952.504 328.773" stroke="#A9C5DE" stroke-width="0.2"/>
<path d="M1013.05 448.134L952.504 328.773" stroke="#A9C5DE" stroke-width="0.2" stroke-miterlimit="10"/>
<path d="M993.806 456.643L949.863 331.188" stroke="#A9C5DE" stroke-width="0.2"/>
<path d="M993.806 456.643L949.863 331.188" stroke="#A9C5DE" stroke-width="0.2" stroke-miterlimit="10"/>
<path d="M973.56 462.854L946.914 333.273" stroke="#A9C5DE" stroke-width="0.2"/>
<path d="M973.56 462.854L946.914 333.273" stroke="#A9C5DE" stroke-width="0.2" stroke-miterlimit="10"/>
<path d="M952.64 466.658L943.711 335.004" stroke="#A9C5DE" stroke-width="0.2"/>
<path d="M952.64 466.658L943.711 335.004" stroke="#A9C5DE" stroke-width="0.2" stroke-miterlimit="10"/>
<path d="M931.363 467.998L940.292 336.344" stroke="#A9C5DE" stroke-width="0.2"/>
<path d="M931.363 467.998L940.292 336.344" stroke="#A9C5DE" stroke-width="0.2" stroke-miterlimit="10"/>
<path d="M910.078 466.858L936.724 337.277" stroke="#A9C5DE" stroke-width="0.2"/>
<path d="M910.078 466.858L936.724 337.277" stroke="#A9C5DE" stroke-width="0.2" stroke-miterlimit="10"/>
<path d="M889.117 463.253L933.054 337.797" stroke="#A9C5DE" stroke-width="0.2"/>
<path d="M889.117 463.253L933.054 337.797" stroke="#A9C5DE" stroke-width="0.2" stroke-miterlimit="10"/>
<path d="M868.801 457.235L929.349 337.875" stroke="#A9C5DE" stroke-width="0.2"/>
<path d="M868.801 457.235L929.349 337.875" stroke="#A9C5DE" stroke-width="0.2" stroke-miterlimit="10"/>
<path d="M849.465 448.903L925.659 337.527" stroke="#A9C5DE" stroke-width="0.2"/>
<path d="M849.465 448.903L925.659 337.527" stroke="#A9C5DE" stroke-width="0.2" stroke-miterlimit="10"/>
<path d="M831.406 438.392L922.047 336.754" stroke="#A9C5DE" stroke-width="0.2"/>
<path d="M831.406 438.392L922.047 336.754" stroke="#A9C5DE" stroke-width="0.2" stroke-miterlimit="10"/>
<path d="M814.906 425.863L918.566 335.559" stroke="#A9C5DE" stroke-width="0.2"/>
<path d="M814.906 425.863L918.566 335.559" stroke="#A9C5DE" stroke-width="0.2" stroke-miterlimit="10"/>
<path d="M800.234 411.511L915.274 333.973" stroke="#A9C5DE" stroke-width="0.2"/>
<path d="M800.234 411.511L915.274 333.973" stroke="#A9C5DE" stroke-width="0.2" stroke-miterlimit="10"/>
<path d="M787.613 395.57L912.226 332.02" stroke="#A9C5DE" stroke-width="0.2"/>
<path d="M787.613 395.57L912.226 332.02" stroke="#A9C5DE" stroke-width="0.2" stroke-miterlimit="10"/>
<path d="M777.246 378.286L909.459 329.723" stroke="#A9C5DE" stroke-width="0.2"/>
<path d="M777.246 378.286L909.459 329.723" stroke="#A9C5DE" stroke-width="0.2" stroke-miterlimit="10"/>
<path d="M769.297 359.93L907.028 327.129" stroke="#A9C5DE" stroke-width="0.2"/>
<path d="M769.297 359.93L907.028 327.129" stroke="#A9C5DE" stroke-width="0.2" stroke-miterlimit="10"/>
<path d="M763.891 340.799L904.968 324.266" stroke="#A9C5DE" stroke-width="0.2"/>
<path d="M763.891 340.799L904.968 324.266" stroke="#A9C5DE" stroke-width="0.2" stroke-miterlimit="10"/>
<path d="M761.113 321.188H903.308" stroke="#A9C5DE" stroke-width="0.2"/>
<path d="M761.113 321.188H903.308" stroke="#A9C5DE" stroke-width="0.2" stroke-miterlimit="10"/>
</g>
<g opacity="0.4">
<path d="M444 309.41L585.078 325.944" stroke="#A9C5DE" stroke-width="0.2"/>
<path d="M444 309.41L585.078 325.944" stroke="#A9C5DE" stroke-width="0.2" stroke-miterlimit="10"/>
<path d="M446.57 289.773L584.301 322.58" stroke="#A9C5DE" stroke-width="0.2"/>
<path d="M446.57 289.773L584.301 322.58" stroke="#A9C5DE" stroke-width="0.2" stroke-miterlimit="10"/>
<path d="M451.762 270.59L583.975 319.154" stroke="#A9C5DE" stroke-width="0.2"/>
<path d="M451.762 270.59L583.975 319.154" stroke="#A9C5DE" stroke-width="0.2" stroke-miterlimit="10"/>
<path d="M459.512 252.168L584.118 315.713" stroke="#A9C5DE" stroke-width="0.2"/>
<path d="M459.512 252.168L584.118 315.713" stroke="#A9C5DE" stroke-width="0.2" stroke-miterlimit="10"/>
<path d="M469.688 234.781L584.727 312.319" stroke="#A9C5DE" stroke-width="0.2"/>
<path d="M469.688 234.781L584.727 312.319" stroke="#A9C5DE" stroke-width="0.2" stroke-miterlimit="10"/>
<path d="M482.133 218.727L585.792 309.026" stroke="#A9C5DE" stroke-width="0.2"/>
<path d="M482.133 218.727L585.792 309.026" stroke="#A9C5DE" stroke-width="0.2" stroke-miterlimit="10"/>
<path d="M496.648 204.238L587.289 305.876" stroke="#A9C5DE" stroke-width="0.2"/>
<path d="M496.648 204.238L587.289 305.876" stroke="#A9C5DE" stroke-width="0.2" stroke-miterlimit="10"/>
<path d="M513.008 191.551L589.202 302.926" stroke="#A9C5DE" stroke-width="0.2"/>
<path d="M513.008 191.551L589.202 302.926" stroke="#A9C5DE" stroke-width="0.2" stroke-miterlimit="10"/>
<path d="M530.953 180.867L591.495 300.227" stroke="#A9C5DE" stroke-width="0.2"/>
<path d="M530.953 180.867L591.495 300.227" stroke="#A9C5DE" stroke-width="0.2" stroke-miterlimit="10"/>
<path d="M550.199 172.355L594.142 297.811" stroke="#A9C5DE" stroke-width="0.2"/>
<path d="M550.199 172.355L594.142 297.811" stroke="#A9C5DE" stroke-width="0.2" stroke-miterlimit="10"/>
<path d="M570.445 166.148L597.086 295.729" stroke="#A9C5DE" stroke-width="0.2"/>
<path d="M570.445 166.148L597.086 295.729" stroke="#A9C5DE" stroke-width="0.2" stroke-miterlimit="10"/>
<path d="M591.363 162.34L600.292 293.994" stroke="#A9C5DE" stroke-width="0.2"/>
<path d="M591.363 162.34L600.292 293.994" stroke="#A9C5DE" stroke-width="0.2" stroke-miterlimit="10"/>
<path d="M612.636 161L603.707 292.654" stroke="#A9C5DE" stroke-width="0.2"/>
<path d="M612.636 161L603.707 292.654" stroke="#A9C5DE" stroke-width="0.2" stroke-miterlimit="10"/>
<path d="M633.927 162.141L607.281 291.722" stroke="#A9C5DE" stroke-width="0.2"/>
<path d="M633.927 162.141L607.281 291.722" stroke="#A9C5DE" stroke-width="0.2" stroke-miterlimit="10"/>
<path d="M654.892 165.75L610.949 291.206" stroke="#A9C5DE" stroke-width="0.2"/>
<path d="M654.892 165.75L610.949 291.206" stroke="#A9C5DE" stroke-width="0.2" stroke-miterlimit="10"/>
<path d="M675.2 171.762L614.652 291.122" stroke="#A9C5DE" stroke-width="0.2"/>
<path d="M675.2 171.762L614.652 291.122" stroke="#A9C5DE" stroke-width="0.2" stroke-miterlimit="10"/>
<path d="M694.538 180.094L618.344 291.469" stroke="#A9C5DE" stroke-width="0.2"/>
<path d="M694.538 180.094L618.344 291.469" stroke="#A9C5DE" stroke-width="0.2" stroke-miterlimit="10"/>
<path d="M712.597 190.609L621.957 292.247" stroke="#A9C5DE" stroke-width="0.2"/>
<path d="M712.597 190.609L621.957 292.247" stroke="#A9C5DE" stroke-width="0.2" stroke-miterlimit="10"/>
<path d="M729.093 203.137L625.434 293.441" stroke="#A9C5DE" stroke-width="0.2"/>
<path d="M729.093 203.137L625.434 293.441" stroke="#A9C5DE" stroke-width="0.2" stroke-miterlimit="10"/>
<path d="M743.766 217.488L628.727 295.026" stroke="#A9C5DE" stroke-width="0.2"/>
<path d="M743.766 217.488L628.727 295.026" stroke="#A9C5DE" stroke-width="0.2" stroke-miterlimit="10"/>
<path d="M756.386 233.43L631.773 296.98" stroke="#A9C5DE" stroke-width="0.2"/>
<path d="M756.386 233.43L631.773 296.98" stroke="#A9C5DE" stroke-width="0.2" stroke-miterlimit="10"/>
<path d="M766.756 250.715L634.543 299.279" stroke="#A9C5DE" stroke-width="0.2"/>
<path d="M766.756 250.715L634.543 299.279" stroke="#A9C5DE" stroke-width="0.2" stroke-miterlimit="10"/>
<path d="M774.703 269.07L636.973 301.871" stroke="#A9C5DE" stroke-width="0.2"/>
<path d="M774.703 269.07L636.973 301.871" stroke="#A9C5DE" stroke-width="0.2" stroke-miterlimit="10"/>
<path d="M780.109 288.199L639.031 304.733" stroke="#A9C5DE" stroke-width="0.2"/>
<path d="M780.109 288.199L639.031 304.733" stroke="#A9C5DE" stroke-width="0.2" stroke-miterlimit="10"/>
<path d="M782.89 307.809H640.695" stroke="#A9C5DE" stroke-width="0.2"/>
<path d="M782.89 307.809H640.695" stroke="#A9C5DE" stroke-width="0.2" stroke-miterlimit="10"/>
<path d="M782.999 327.588L641.922 311.055" stroke="#A9C5DE" stroke-width="0.2"/>
<path d="M782.999 327.588L641.922 311.055" stroke="#A9C5DE" stroke-width="0.2" stroke-miterlimit="10"/>
<path d="M780.438 347.228L642.707 314.422" stroke="#A9C5DE" stroke-width="0.2"/>
<path d="M780.438 347.228L642.707 314.422" stroke="#A9C5DE" stroke-width="0.2" stroke-miterlimit="10"/>
<path d="M775.235 366.407L643.027 317.844" stroke="#A9C5DE" stroke-width="0.2"/>
<path d="M775.235 366.407L643.027 317.844" stroke="#A9C5DE" stroke-width="0.2" stroke-miterlimit="10"/>
<path d="M767.489 384.834L642.883 321.289" stroke="#A9C5DE" stroke-width="0.2"/>
<path d="M767.489 384.834L642.883 321.289" stroke="#A9C5DE" stroke-width="0.2" stroke-miterlimit="10"/>
<path d="M757.313 402.218L642.273 324.68" stroke="#A9C5DE" stroke-width="0.2"/>
<path d="M757.313 402.218L642.273 324.68" stroke="#A9C5DE" stroke-width="0.2" stroke-miterlimit="10"/>
<path d="M744.866 418.272L641.207 327.973" stroke="#A9C5DE" stroke-width="0.2"/>
<path d="M744.866 418.272L641.207 327.973" stroke="#A9C5DE" stroke-width="0.2" stroke-miterlimit="10"/>
<path d="M730.351 432.763L639.711 331.125" stroke="#A9C5DE" stroke-width="0.2"/>
<path d="M730.351 432.763L639.711 331.125" stroke="#A9C5DE" stroke-width="0.2" stroke-miterlimit="10"/>
<path d="M713.989 445.446L637.801 334.07" stroke="#A9C5DE" stroke-width="0.2"/>
<path d="M713.989 445.446L637.801 334.07" stroke="#A9C5DE" stroke-width="0.2" stroke-miterlimit="10"/>
<path d="M696.052 456.134L635.504 336.773" stroke="#A9C5DE" stroke-width="0.2"/>
<path d="M696.052 456.134L635.504 336.773" stroke="#A9C5DE" stroke-width="0.2" stroke-miterlimit="10"/>
<path d="M676.806 464.643L632.863 339.188" stroke="#A9C5DE" stroke-width="0.2"/>
<path d="M676.806 464.643L632.863 339.188" stroke="#A9C5DE" stroke-width="0.2" stroke-miterlimit="10"/>
<path d="M656.56 470.854L629.914 341.273" stroke="#A9C5DE" stroke-width="0.2"/>
<path d="M656.56 470.854L629.914 341.273" stroke="#A9C5DE" stroke-width="0.2" stroke-miterlimit="10"/>
<path d="M635.64 474.658L626.711 343.004" stroke="#A9C5DE" stroke-width="0.2"/>
<path d="M635.64 474.658L626.711 343.004" stroke="#A9C5DE" stroke-width="0.2" stroke-miterlimit="10"/>
<path d="M614.363 475.998L623.292 344.344" stroke="#A9C5DE" stroke-width="0.2"/>
<path d="M614.363 475.998L623.292 344.344" stroke="#A9C5DE" stroke-width="0.2" stroke-miterlimit="10"/>
<path d="M593.078 474.858L619.724 345.277" stroke="#A9C5DE" stroke-width="0.2"/>
<path d="M593.078 474.858L619.724 345.277" stroke="#A9C5DE" stroke-width="0.2" stroke-miterlimit="10"/>
<path d="M572.117 471.253L616.054 345.797" stroke="#A9C5DE" stroke-width="0.2"/>
<path d="M572.117 471.253L616.054 345.797" stroke="#A9C5DE" stroke-width="0.2" stroke-miterlimit="10"/>
<path d="M551.801 465.235L612.349 345.875" stroke="#A9C5DE" stroke-width="0.2"/>
<path d="M551.801 465.235L612.349 345.875" stroke="#A9C5DE" stroke-width="0.2" stroke-miterlimit="10"/>
<path d="M532.465 456.903L608.659 345.527" stroke="#A9C5DE" stroke-width="0.2"/>
<path d="M532.465 456.903L608.659 345.527" stroke="#A9C5DE" stroke-width="0.2" stroke-miterlimit="10"/>
<path d="M514.406 446.392L605.047 344.754" stroke="#A9C5DE" stroke-width="0.2"/>
<path d="M514.406 446.392L605.047 344.754" stroke="#A9C5DE" stroke-width="0.2" stroke-miterlimit="10"/>
<path d="M497.906 433.863L601.566 343.559" stroke="#A9C5DE" stroke-width="0.2"/>
<path d="M497.906 433.863L601.566 343.559" stroke="#A9C5DE" stroke-width="0.2" stroke-miterlimit="10"/>
<path d="M483.234 419.511L598.274 341.973" stroke="#A9C5DE" stroke-width="0.2"/>
<path d="M483.234 419.511L598.274 341.973" stroke="#A9C5DE" stroke-width="0.2" stroke-miterlimit="10"/>
<path d="M470.613 403.57L595.226 340.02" stroke="#A9C5DE" stroke-width="0.2"/>
<path d="M470.613 403.57L595.226 340.02" stroke="#A9C5DE" stroke-width="0.2" stroke-miterlimit="10"/>
<path d="M460.246 386.286L592.459 337.723" stroke="#A9C5DE" stroke-width="0.2"/>
<path d="M460.246 386.286L592.459 337.723" stroke="#A9C5DE" stroke-width="0.2" stroke-miterlimit="10"/>
<path d="M452.297 367.93L590.028 335.129" stroke="#A9C5DE" stroke-width="0.2"/>
<path d="M452.297 367.93L590.028 335.129" stroke="#A9C5DE" stroke-width="0.2" stroke-miterlimit="10"/>
<path d="M446.891 348.799L587.968 332.266" stroke="#A9C5DE" stroke-width="0.2"/>
<path d="M446.891 348.799L587.968 332.266" stroke="#A9C5DE" stroke-width="0.2" stroke-miterlimit="10"/>
<path d="M444.113 329.188H586.308" stroke="#A9C5DE" stroke-width="0.2"/>
<path d="M444.113 329.188H586.308" stroke="#A9C5DE" stroke-width="0.2" stroke-miterlimit="10"/>
</g>
<g opacity="0.6">
<path d="M0.822863 -1402.9C880.067 -1404.37 1759.31 -1404.37 2638.56 -1402.9C2639.11 -495.21 2637.64 412.483 2638.56 1320.18C1759.33 1318.78 880.052 1321.67 0.822863 1320.18C-0.274288 412.483 -0.274288 -495.21 0.822863 -1402.9Z" stroke="#266197" stroke-width="0.2" stroke-miterlimit="10"/>
<path d="M0.816406 587.033C99.6057 577.557 177.183 513.42 277.527 512.971C423.174 512.273 560.958 581.995 705.462 591.621C846.034 600.947 910.492 508.831 1027.89 449.482C1147.38 389.036 1217.47 456.414 1299.11 548.48C1335.23 589.227 1377.15 643.489 1427.39 664.935C1475.07 685.283 1550.22 680.445 1599.27 684.335C1744.19 695.856 1888.97 708.324 2034.02 717.102C2116.63 722.089 2195.03 753.709 2277.36 757.399C2422.5 763.933 2503.14 617.206 2638.5 586.983" stroke="#266197" stroke-width="0.2" stroke-miterlimit="10"/>
<path d="M0.816406 482.29C94.5771 471.866 177.275 423.739 272.133 423.489C413.848 423.04 550.306 482.439 691.29 491.267C828.022 499.845 913.646 411.968 1032.55 356.16C1147.25 302.347 1219.25 361.148 1309.12 438.252C1348.8 472.166 1394.61 516.902 1443.3 535.505C1496.32 555.703 1558.45 548.671 1613.49 558.047C1755.43 582.335 1891.53 627.471 2036.26 630.663C2113.56 632.358 2189.86 624.229 2267.12 624.927C2406.27 626.074 2505.98 514.757 2638.55 482.29" stroke="#266197" stroke-width="0.2" stroke-miterlimit="10"/>
<path d="M0.816406 377.577C97.9143 374.884 196.886 359.622 293.847 365.408C412.705 372.49 520.729 433.584 638.581 445.205C780.571 459.319 895.223 358.725 1022.08 305.56C1128.69 260.674 1227.8 287.955 1335.68 312.392C1437.95 335.534 1554.79 331.893 1649.1 381.666C1756.72 438.522 1865.84 571.534 1993.7 557.47C2094.27 546.448 2144.56 432.787 2239.83 409.097C2361.52 379.173 2514.11 384.409 2638.6 377.577" stroke="#266197" stroke-width="0.2" stroke-miterlimit="10"/>
<path d="M0.816406 272.829C106.783 280.809 214.029 300.908 319.219 316.518C411.837 330.233 485.117 395.168 576.043 410.878C721.187 435.815 875.977 315.82 1008.46 266.246C1122.42 223.455 1249.92 214.577 1367.5 182.609C1477.63 152.685 1603.57 85.4056 1690.29 193.182C1752.28 270.186 1826.7 515.064 1942.59 489.928C2071.55 461.949 2092.85 230.038 2206.82 173.083C2314.84 119.12 2528.83 253.129 2638.55 272.829" stroke="#266197" stroke-width="0.2" stroke-miterlimit="10"/>
<path d="M0.816406 168.094C113.823 180.063 223.218 222.705 334.99 243.702C415.677 258.913 461.574 328.137 538.74 346.441C682.193 380.504 869.988 245.248 1002.79 198.267C1062.22 177.171 1122.65 173.929 1182.86 157.62C1253.58 138.419 1320.6 97.7726 1385.65 63.5595C1488.05 9.94577 1642.47 -110.997 1716.94 36.5781C1759.28 120.465 1791.18 438.157 1913.52 408.433C1980.72 392.075 2020.4 277.266 2049.75 217.967C2082.57 151.636 2120.83 28.8476 2188.67 -10.253C2261.08 -51.947 2342.14 14.6836 2402.71 51.4402C2482.21 99.4681 2549 145.85 2638.6 167.944" stroke="#266197" stroke-width="0.2" stroke-miterlimit="10"/>
<path d="M0.816406 63.3672C112.817 75.0874 207.081 137.778 318.853 154.486C401.779 166.904 478.854 206.703 561.643 217.625C702.307 236.228 850.331 143.364 982.766 102.019C1116.02 60.4746 1234.56 40.0266 1364.21 -21.3674C1469.35 -71.2406 1620.94 -182.957 1701.99 -46.304C1749.77 34.1914 1792.65 315.227 1911 288.944C1978.39 273.982 2025.29 161.518 2059.16 103.665C2097.65 37.7822 2143.6 -80.5172 2213.72 -118.57C2286.87 -158.469 2359.19 -95.6786 2417.93 -55.381C2493.13 -3.81204 2550.18 42.62 2638.55 63.3672" stroke="#266197" stroke-width="0.2" stroke-miterlimit="10"/>
<path d="M0.816406 -41.3783C108.566 -21.429 167.629 78.3175 278.67 84.9008C391.082 91.3843 507.243 59.1661 619.518 52.5829C848.777 39.1171 1087.68 4.4552 1305.97 -72.5491C1413.86 -110.602 1565.45 -197.581 1662.54 -97.4857C1732.26 -25.369 1791.09 166.294 1909.13 142.903C2070.59 110.885 2129.43 -164.565 2277.04 -229.001C2351.46 -261.519 2404.31 -210.249 2457.93 -162.471C2519.69 -107.012 2558.6 -62.8737 2638.55 -41.3783" stroke="#266197" stroke-width="0.2" stroke-miterlimit="10"/>
<path d="M0.816406 -146.113C106.874 -116.538 124.246 12.4342 238.532 15.277C385.916 18.9676 532.569 -90.1051 677.393 -112.548C758.582 -125.116 820.251 -100.728 897.326 -83.3723C1014.36 -57.0393 1133.94 -96.1896 1247.77 -123.77C1364.9 -152.147 1507.75 -209.103 1622.63 -148.706C1714.84 -100.08 1792.83 19.4664 1906.8 -3.07634C2082.52 -37.9876 2173.27 -281.668 2339.85 -339.471C2476.99 -386.951 2523.72 -182.171 2638.64 -146.462" stroke="#266197" stroke-width="0.2" stroke-miterlimit="10"/>
<path d="M1522.6 -1402.91C1518.58 -1385.94 1519.97 -1367.99 1526.53 -1351.99C1528.23 -1356.12 1530.63 -1359.86 1533.61 -1363.02C1544.86 -1310.5 1528.68 -1251.8 1516.84 -1201.03C1478.53 -1036.45 1414.16 -875.554 1364.1 -715.062C1329.13 -602.997 1217.31 -400.462 1351.26 -335.327C1391.17 -315.877 1451.46 -325.752 1487.72 -295.429C1519.72 -268.747 1511.85 -242.812 1527.85 -205.657C1552.77 -148.003 1602.69 -158.327 1635.33 -113.242C1701.84 -21.2256 1596.29 206.595 1569.45 299.709C1528.54 441.698 1512.81 587.627 1475.23 728.22C1444.79 842.08 1335.99 1000.13 1367.3 1122.22C1390.57 1212.79 1525.02 1218.12 1522.73 1320.91" stroke="#266197" stroke-width="0.2" stroke-miterlimit="10"/>
<path d="M1421.21 -1403.26C1437.66 -1076.49 1252.43 -795.506 1221.43 -479.21C1208.54 -347.694 1300.98 -364.801 1365.66 -289.692C1394.92 -255.628 1383.72 -211.042 1405.39 -175.432C1420.98 -149.897 1443.93 -142.765 1465.69 -126.108C1565.16 -49.9511 1533.25 22.8639 1501.44 150.091C1461.25 310.832 1415.22 462.347 1391.22 626.929C1370.74 767.422 1255.99 906.518 1263.67 1050.85C1269.85 1166.96 1393.14 1210.45 1421.12 1320.47" stroke="#266197" stroke-width="0.2" stroke-miterlimit="10"/>
<path d="M1319.7 -1402.91C1302.51 -1116.64 1219.45 -835.157 1202.16 -549.583C1196.59 -457.666 1214.64 -368.643 1222.33 -277.724C1230.78 -177.329 1229.55 -133.44 1305.98 -72.5452C1398.87 1.4667 1391.88 64.1075 1366.87 184.152C1342.23 302.452 1318.87 415.564 1301.27 535.061C1281.11 671.863 1170.26 786.621 1168.7 927.363C1167.15 1068.11 1293.18 1183.96 1319.56 1320.17" stroke="#266197" stroke-width="0.2" stroke-miterlimit="10"/>
<path d="M1218.16 -1402.56C1199.88 -1219.62 1118.55 -1016.19 1129.75 -831.31C1134.32 -757.149 1177.06 -693.211 1182.87 -619.998C1192.65 -496.412 1114.02 -378.91 1078.96 -265.898C1043.12 -149.593 1065.98 -94.9321 1146.25 -18.9253C1224.56 55.3859 1244.31 105.109 1232.24 218.272C1224.43 291.536 1223.1 371.383 1211.31 443.101C1189.73 572.222 1080.06 670.423 1074.16 803.933C1066.53 976.495 1192.52 1150.6 1218.25 1320.17" stroke="#266197" stroke-width="0.2" stroke-miterlimit="10"/>
<path d="M1116.72 -1402.91C1102.18 -1267.81 1074.7 -1136.29 1048.97 -1003.28C1035.25 -931.362 999.047 -832.314 1012.94 -757.754C1028.49 -674.565 1087.6 -717.606 1113.52 -650.676C1156.44 -539.957 997.127 -354.977 958.086 -258.622C910.498 -140.772 945.606 -81.0237 1022.96 1.11754C1099.25 82.1616 1114.38 123.157 1115.62 236.22C1116.35 293.076 1123.57 353.821 1113.7 409.729C1091.53 535.26 982.361 629.171 975.961 759.291C971.847 843.327 1016.83 952.051 1040.97 1027.61C1072.01 1124.56 1100.94 1218.27 1116.58 1319.97" stroke="#266197" stroke-width="0.2" stroke-miterlimit="10"/>
<path d="M1015.19 -1402.91C1002.11 -1216.29 966.868 -1024.53 968.011 -837.102C968.422 -761.793 981.725 -686.086 982.32 -610.727C983.6 -487.59 922.113 -384.403 889.107 -269.993C858.661 -164.262 885.862 -85.7615 922.662 11.99C956.628 102.211 957.588 187.245 983.554 275.77C1001.38 336.415 1020.13 377.611 1012.58 446.037C998.045 579.747 924.628 703.882 921.153 839.337C916.902 998.383 995.805 1162.77 1015.37 1319.77" stroke="#266197" stroke-width="0.2" stroke-miterlimit="10"/>
<path d="M913.961 -1402.91C924.475 -1263.82 972.292 -1115.05 965.07 -975.002C957.161 -822.439 852.794 -696.31 833.32 -546.64C822.211 -461.556 835.514 -369.939 838.349 -284.307C841.914 -177.877 832.68 -74.1908 822.943 31.6402C814.988 118.17 776.314 269.486 830.669 345.842C876.383 409.879 912.955 417.609 914.098 513.216C915.698 669.02 900.841 824.774 900.703 980.628C900.703 1094.24 913.092 1206.95 913.915 1320.56" stroke="#266197" stroke-width="0.2" stroke-miterlimit="10"/>
<path d="M812.585 -1402.91C837.773 -1296.19 947.077 -1203.42 945.888 -1090.31C944.791 -990.063 866.482 -878.048 823.693 -791.518C781.407 -705.936 708.447 -590.728 691.121 -491.979C672.515 -385.45 739.075 -373.431 780.401 -297.474C833.248 -200.42 753.658 -44.5166 722.892 47.8985C692.995 137.67 594.892 324.196 685.726 403.794C754.298 463.991 804.585 454.316 814.505 568.126C829.316 740.139 873.111 925.169 866.848 1097.98C863.876 1179.17 814.779 1240.07 812.493 1320.71" stroke="#266197" stroke-width="0.2" stroke-miterlimit="10"/>
<path d="M710.997 -1402.91C736.095 -1291.4 864.461 -1221.87 862.495 -1103.67C860.804 -997.993 777.283 -885.13 729.923 -796.106C684.528 -710.524 600.916 -587.835 584.185 -485.994C566.082 -375.525 639.682 -370.538 684.391 -295.728C741.809 -199.622 653.991 -38.0327 621.122 52.3376C588.253 142.708 483.384 329.932 578.059 411.874C648.14 472.52 698.151 461.747 706.974 576.805C720.369 751.66 792.095 931.852 782.952 1107.76C778.381 1191.44 706.014 1238.57 710.952 1320.56" stroke="#266197" stroke-width="0.2" stroke-miterlimit="10"/>
<path d="M609.542 -1402.91C636.605 -1273.64 774.709 -1154.1 769.04 -1018.59C761.36 -833.511 556.422 -713.516 521.907 -536.466C504.49 -446.993 537.313 -348.544 547.416 -259.869C560.17 -147.754 536.81 -46.3119 513.679 62.3619C494.25 153.63 442.501 294.921 496.353 382.698C508.604 402.647 528.902 414.218 541.702 433.269C568.216 472.769 564.925 508.977 571.096 554.362C591.896 706.974 706.137 837.093 707.92 993.495C709.383 1110.7 624.948 1205.46 609.496 1320.17" stroke="#266197" stroke-width="0.2" stroke-miterlimit="10"/>
<path d="M508.267 -1402.91C529.479 -1291.25 576.61 -1202.12 619.948 -1099.54C644.359 -1041.63 684.451 -971.361 678.782 -904.082C667.765 -773.813 511.421 -720.648 473.067 -602.199C456.061 -549.932 456.929 -470.833 445.364 -416.172C431.101 -348.893 413.363 -282.412 400.883 -214.634C382.597 -115.486 393.203 -23.2206 404.449 75.8277C414.41 164.596 419.661 253.918 420.175 343.348C420.678 399.006 409.843 469.378 424.746 521.894C460.769 649.719 626.256 701.188 642.439 838.988C650.622 909.06 603.49 1009.95 580.633 1070.55C549.41 1153.34 522.484 1230.89 508.541 1319.92" stroke="#266197" stroke-width="0.2" stroke-miterlimit="10"/>
<path d="M406.67 -1402.91C429.527 -1277.13 477.162 -1166.27 523.059 -1048.81C547.105 -987.221 595.426 -897.499 584.363 -826.828C568.088 -722.493 446.487 -735.959 406.898 -648.631C383.035 -596.015 376.864 -495.021 357.527 -438.415C328.132 -352.434 292.155 -268.846 266.097 -181.219C234.097 -73.393 242.234 -7.01168 297.138 84.9546C342.852 161.211 370.281 226.645 336.681 316.865C315.012 375.466 267.515 432.92 291.195 502.045C333.435 625.232 537.139 597.053 564.431 735.402C578.694 807.618 512.271 954.844 491.562 1014.69C456.682 1115.74 424.087 1212.94 406.533 1319.72" stroke="#266197" stroke-width="0.2" stroke-miterlimit="10"/>
<path d="M305.272 -1402.91C327.672 -1281.32 371.421 -1172.55 410.416 -1056.59C431.49 -994.053 476.199 -908.421 466.645 -838.598C452.93 -739.55 344.221 -737.306 309.112 -652.92C285.752 -596.663 281.135 -504.497 261.569 -444.949C234.14 -360.513 199.854 -278.173 175.534 -192.441C145.317 -85.9113 152.997 -17.8842 205.614 73.8826C250.917 153.031 273.455 217.717 243.557 309.983C223.077 373.172 174.985 435.913 199.443 507.83C239.489 626.927 425.959 613.461 449.867 746.623C462.713 817.842 402.324 960.031 383.078 1020.93C351.718 1120.07 322.232 1216.48 305.363 1320.17" stroke="#266197" stroke-width="0.2" stroke-miterlimit="10"/>
<path d="M203.758 -1402.91C222.593 -1242.22 313.473 -1066.32 304.33 -903.184C298.845 -806.58 225.381 -746.233 205.724 -654.865C176.787 -520.207 149.724 -380.063 122.34 -243.61C102.409 -143.864 112.603 -64.0666 141.678 30.6926C169.975 122.809 182.181 200.262 165.541 297.066C152.649 371.875 119.826 456.66 137.198 533.465C162.158 645.231 283.119 695.902 293.953 814.9C308.582 976.14 220.444 1160.12 203.712 1320.32" stroke="#266197" stroke-width="0.2" stroke-miterlimit="10"/>
<path d="M102.151 -1402.91C105.214 -1259.28 136.254 -1118.64 135.431 -974.752C134.837 -867.026 104.528 -764.536 101.877 -657.309C96.5281 -441.507 60.3679 -234.234 81.9452 -17.7344C101.42 177.519 70.0136 367.237 78.7908 561.693C83.8652 674.506 130.86 776.647 132.186 890.408C133.831 1034.44 104.757 1176.38 102.151 1320.36" stroke="#266197" stroke-width="0.2" stroke-miterlimit="10"/>
</g>
</g>
<defs>
<clipPath id="clip0_929_765">
<rect width="1360" height="447" fill="white"/>
</clipPath>
</defs>
</svg>
