<svg width="118" height="117" viewBox="0 0 118 117" fill="none" xmlns="http://www.w3.org/2000/svg">
<g filter="url(#filter0_ii_6412_37661)">
<circle cx="59.1953" cy="58.3984" r="58.3984" fill="url(#paint0_linear_6412_37661)"/>
</g>
<path fill-rule="evenodd" clip-rule="evenodd" d="M94.2309 35.9396C91.6545 37.0841 88.882 37.8549 85.9739 38.2029C88.9427 36.423 91.2224 33.6061 92.2945 30.2496C89.5196 31.8986 86.4387 33.0922 83.1663 33.7392C80.5432 30.9457 76.8036 29.1985 72.6716 29.1985C64.7323 29.1985 58.2949 35.6359 58.2949 43.5752C58.2949 44.7011 58.4234 45.7989 58.6687 46.8523C46.7188 46.2543 36.126 40.5294 29.0346 31.8309C27.7966 33.9541 27.0889 36.4231 27.0889 39.0578C27.0889 44.0447 29.6232 48.4453 33.4843 51.024C31.1251 50.9493 28.9108 50.3023 26.9698 49.2255V49.4053C26.9698 56.373 31.9286 62.182 38.5015 63.5064C37.2963 63.8334 36.0256 64.011 34.7152 64.011C33.7879 64.011 32.8863 63.9199 32.0081 63.7517C33.837 69.4627 39.1485 73.6204 45.4388 73.7372C40.5196 77.5912 34.3205 79.8919 27.5841 79.8919C26.4209 79.8919 25.2763 79.8242 24.1528 79.6887C30.5155 83.767 38.0717 86.1495 46.1909 86.1495C72.6343 86.1495 87.0951 64.2422 87.0951 45.2453C87.0951 44.6216 87.0834 44.0003 87.0531 43.386C89.8653 41.3539 92.3039 38.8219 94.2309 35.9396Z" fill="url(#paint1_linear_6412_37661)"/>
<defs>
<filter id="filter0_ii_6412_37661" x="0.796875" y="-13.6433" width="116.797" height="135.897" filterUnits="userSpaceOnUse" color-interpolation-filters="sRGB">
<feFlood flood-opacity="0" result="BackgroundImageFix"/>
<feBlend mode="normal" in="SourceGraphic" in2="BackgroundImageFix" result="shape"/>
<feColorMatrix in="SourceAlpha" type="matrix" values="0 0 0 0 0 0 0 0 0 0 0 0 0 0 0 0 0 0 127 0" result="hardAlpha"/>
<feOffset dy="5.45732"/>
<feGaussianBlur stdDeviation="3.41083"/>
<feComposite in2="hardAlpha" operator="arithmetic" k2="-1" k3="1"/>
<feColorMatrix type="matrix" values="0 0 0 0 1 0 0 0 0 1 0 0 0 0 1 0 0 0 0.12 0"/>
<feBlend mode="normal" in2="shape" result="effect1_innerShadow_6412_37661"/>
<feColorMatrix in="SourceAlpha" type="matrix" values="0 0 0 0 0 0 0 0 0 0 0 0 0 0 0 0 0 0 127 0" result="hardAlpha"/>
<feOffset dy="-13.6433"/>
<feGaussianBlur stdDeviation="6.82165"/>
<feComposite in2="hardAlpha" operator="arithmetic" k2="-1" k3="1"/>
<feColorMatrix type="matrix" values="0 0 0 0 0.113725 0 0 0 0 0.631373 0 0 0 0 0.94902 0 0 0 0.26 0"/>
<feBlend mode="normal" in2="effect1_innerShadow_6412_37661" result="effect2_innerShadow_6412_37661"/>
</filter>
<linearGradient id="paint0_linear_6412_37661" x1="59.1953" y1="0" x2="59.1953" y2="116.797" gradientUnits="userSpaceOnUse">
<stop stop-color="#24345D"/>
<stop offset="1" stop-color="#66676A" stop-opacity="0"/>
</linearGradient>
<linearGradient id="paint1_linear_6412_37661" x1="59.1919" y1="29.1985" x2="59.1919" y2="86.1495" gradientUnits="userSpaceOnUse">
<stop stop-color="#005D97"/>
<stop offset="1" stop-color="#63D7FF"/>
</linearGradient>
</defs>
</svg>
