<svg width="117" height="117" viewBox="0 0 117 117" fill="none" xmlns="http://www.w3.org/2000/svg">
<g filter="url(#filter0_ii_6412_37668)">
<path d="M0 58.3984C0 90.6509 26.1458 116.797 58.3984 116.797C90.6509 116.797 116.797 90.6509 116.797 58.3984C116.797 26.1458 90.6509 0 58.3984 0C26.1458 0 0 26.1458 0 58.3984Z" fill="url(#paint0_linear_6412_37668)"/>
</g>
<path fill-rule="evenodd" clip-rule="evenodd" d="M78.8379 37.594C73.363 32.1191 66.0632 29.1992 58.3984 29.1992C42.3389 29.1992 29.1992 42.3389 29.1992 58.3984C29.1992 63.5083 30.6592 68.6181 33.2141 72.998L29.1992 87.5976L44.5288 83.5827C48.9087 85.7726 53.6535 87.2326 58.3984 87.2326C74.458 87.2326 87.5976 74.093 87.5976 58.0334C87.5976 50.3686 84.3127 43.0688 78.8379 37.594ZM58.3984 82.4877C54.0185 82.4877 49.6387 81.3928 45.9888 79.2028L45.2588 78.8378L36.134 81.3928L38.689 72.633L37.959 71.538C35.404 67.5232 34.3091 63.1433 34.3091 58.7634C34.3091 45.6238 45.2588 34.6741 58.3984 34.6741C64.9682 34.6741 70.8081 37.229 75.553 41.6089C80.2979 46.3537 82.4878 52.1936 82.4878 58.7634C82.4878 71.538 71.903 82.4877 58.3984 82.4877ZM71.5381 64.2382C70.8081 63.8733 67.1582 62.0483 66.4282 62.0483C65.6983 61.6833 65.3332 61.6833 64.9682 62.4133C64.6032 63.1433 63.1433 64.6032 62.7783 65.3332C62.4133 65.6982 62.0483 65.6982 61.3183 65.6982C60.5883 65.3332 58.3985 64.6032 55.4785 62.0483C53.2886 60.2234 51.8286 57.6684 51.4636 56.9384C51.0986 56.2085 51.4637 55.8435 51.8286 55.4785C52.1936 55.1135 52.5586 54.7485 52.9236 54.3835C53.2886 54.0185 53.2886 53.6535 53.6536 53.2885C54.0186 52.9236 53.6536 52.5586 53.6536 52.1936C53.6536 51.8286 52.1936 48.1787 51.4636 46.7187C51.0986 45.6238 50.3687 45.6238 50.0037 45.6238C49.6387 45.6238 49.2736 45.6238 48.5436 45.6238C48.1787 45.6238 47.4487 45.6238 46.7187 46.3537C45.9887 47.0837 44.1638 48.9087 44.1638 52.5586C44.1638 56.2085 46.7187 59.4934 47.0837 60.2234C47.4487 60.5883 52.1935 68.2531 59.4933 71.173C65.6982 73.728 66.7932 72.998 68.2532 72.998C69.7132 72.998 72.633 71.173 72.998 69.7131C73.728 67.8881 73.728 66.4282 73.363 66.4282C72.998 64.6032 72.2681 64.6032 71.5381 64.2382Z" fill="url(#paint1_linear_6412_37668)"/>
<defs>
<filter id="filter0_ii_6412_37668" x="0" y="-13.6433" width="116.797" height="135.897" filterUnits="userSpaceOnUse" color-interpolation-filters="sRGB">
<feFlood flood-opacity="0" result="BackgroundImageFix"/>
<feBlend mode="normal" in="SourceGraphic" in2="BackgroundImageFix" result="shape"/>
<feColorMatrix in="SourceAlpha" type="matrix" values="0 0 0 0 0 0 0 0 0 0 0 0 0 0 0 0 0 0 127 0" result="hardAlpha"/>
<feOffset dy="5.45732"/>
<feGaussianBlur stdDeviation="3.41083"/>
<feComposite in2="hardAlpha" operator="arithmetic" k2="-1" k3="1"/>
<feColorMatrix type="matrix" values="0 0 0 0 1 0 0 0 0 1 0 0 0 0 1 0 0 0 0.12 0"/>
<feBlend mode="normal" in2="shape" result="effect1_innerShadow_6412_37668"/>
<feColorMatrix in="SourceAlpha" type="matrix" values="0 0 0 0 0 0 0 0 0 0 0 0 0 0 0 0 0 0 127 0" result="hardAlpha"/>
<feOffset dy="-13.6433"/>
<feGaussianBlur stdDeviation="6.82165"/>
<feComposite in2="hardAlpha" operator="arithmetic" k2="-1" k3="1"/>
<feColorMatrix type="matrix" values="0 0 0 0 0.145098 0 0 0 0 0.827451 0 0 0 0 0.4 0 0 0 0.24 0"/>
<feBlend mode="normal" in2="effect1_innerShadow_6412_37668" result="effect2_innerShadow_6412_37668"/>
</filter>
<linearGradient id="paint0_linear_6412_37668" x1="58.3984" y1="0" x2="58.3984" y2="116.797" gradientUnits="userSpaceOnUse">
<stop stop-color="#4F5157"/>
<stop offset="1" stop-color="#24345D" stop-opacity="0"/>
</linearGradient>
<linearGradient id="paint1_linear_6412_37668" x1="58.3984" y1="29.1992" x2="58.3984" y2="87.5976" gradientUnits="userSpaceOnUse">
<stop offset="0.198902" stop-color="#006626"/>
<stop offset="1" stop-color="#9DFFC2"/>
</linearGradient>
</defs>
</svg>
