<svg width="118" height="117" viewBox="0 0 118 117" fill="none" xmlns="http://www.w3.org/2000/svg">
<g filter="url(#filter0_ii_6412_37671)">
<circle cx="59.1953" cy="58.3984" r="58.3984" fill="url(#paint0_linear_6412_37671)"/>
</g>
<path fill-rule="evenodd" clip-rule="evenodd" d="M92.1908 36.1442C93.3562 37.3096 94.1959 38.7598 94.6263 40.3507C97.1051 50.3281 96.5323 66.0861 94.6745 76.4486C94.244 78.0394 93.4043 79.4897 92.2389 80.6551C91.0736 81.8204 89.6233 82.6601 88.0325 83.0906C82.2087 84.6789 58.7691 84.6789 58.7691 84.6789C58.7691 84.6789 35.3295 84.6789 29.5057 83.0906C27.9149 82.6601 26.4646 81.8204 25.2993 80.6551C24.1339 79.4897 23.2942 78.0394 22.8637 76.4486C20.3706 66.5145 21.054 50.7469 22.8156 40.3988C23.2461 38.808 24.0858 37.3577 25.2511 36.1923C26.4165 35.027 27.8668 34.1873 29.4576 33.7568C35.2814 32.1685 58.721 32.1204 58.721 32.1204C58.721 32.1204 82.1605 32.1204 87.9843 33.7087C89.5752 34.1391 91.0255 34.9789 92.1908 36.1442ZM70.7055 58.3996L51.2607 69.6621V47.1371L70.7055 58.3996Z" fill="url(#paint1_linear_6412_37671)"/>
<defs>
<filter id="filter0_ii_6412_37671" x="0.796875" y="-13.6433" width="116.797" height="135.897" filterUnits="userSpaceOnUse" color-interpolation-filters="sRGB">
<feFlood flood-opacity="0" result="BackgroundImageFix"/>
<feBlend mode="normal" in="SourceGraphic" in2="BackgroundImageFix" result="shape"/>
<feColorMatrix in="SourceAlpha" type="matrix" values="0 0 0 0 0 0 0 0 0 0 0 0 0 0 0 0 0 0 127 0" result="hardAlpha"/>
<feOffset dy="5.45732"/>
<feGaussianBlur stdDeviation="3.41083"/>
<feComposite in2="hardAlpha" operator="arithmetic" k2="-1" k3="1"/>
<feColorMatrix type="matrix" values="0 0 0 0 1 0 0 0 0 1 0 0 0 0 1 0 0 0 0.12 0"/>
<feBlend mode="normal" in2="shape" result="effect1_innerShadow_6412_37671"/>
<feColorMatrix in="SourceAlpha" type="matrix" values="0 0 0 0 0 0 0 0 0 0 0 0 0 0 0 0 0 0 127 0" result="hardAlpha"/>
<feOffset dy="-13.6433"/>
<feGaussianBlur stdDeviation="6.82165"/>
<feComposite in2="hardAlpha" operator="arithmetic" k2="-1" k3="1"/>
<feColorMatrix type="matrix" values="0 0 0 0 1 0 0 0 0 0 0 0 0 0 0 0 0 0 0.2 0"/>
<feBlend mode="normal" in2="effect1_innerShadow_6412_37671" result="effect2_innerShadow_6412_37671"/>
</filter>
<linearGradient id="paint0_linear_6412_37671" x1="59.1953" y1="0" x2="59.1953" y2="116.797" gradientUnits="userSpaceOnUse">
<stop stop-color="#4F5157"/>
<stop offset="1" stop-color="#24345D" stop-opacity="0"/>
</linearGradient>
<linearGradient id="paint1_linear_6412_37671" x1="58.7589" y1="32.1204" x2="58.7589" y2="84.6789" gradientUnits="userSpaceOnUse">
<stop stop-color="#FF0000" stop-opacity="0.49"/>
<stop offset="1" stop-color="#FF7979"/>
</linearGradient>
</defs>
</svg>
