<svg width="22" height="22" viewBox="0 0 22 22" fill="none" xmlns="http://www.w3.org/2000/svg">
<g clip-path="url(#clip0_7003_70333)">
<path d="M6.1234 0.528163C6.24834 0.403537 6.4176 0.333534 6.59407 0.333496H14.8794C15.0559 0.333534 15.2251 0.403537 15.3501 0.528163L21.2087 6.38683C21.3334 6.51177 21.4034 6.68103 21.4034 6.8575V15.1428C21.4034 15.3193 21.3334 15.4886 21.2087 15.6135L15.3501 21.4722C15.2251 21.5968 15.0559 21.6668 14.8794 21.6668H6.59407C6.4176 21.6668 6.24834 21.5968 6.1234 21.4722L0.264735 15.6135C0.14011 15.4886 0.0701059 15.3193 0.0700684 15.1428L0.0700684 6.8575C0.0701059 6.68103 0.14011 6.51177 0.264735 6.38683L6.1234 0.528163ZM6.87007 1.66683L1.4034 7.1335V14.8668L6.87007 20.3335H14.6034L20.0701 14.8668V7.1335L14.6034 1.66683H6.87007Z" fill="url(#paint0_linear_7003_70333)"/>
<path d="M6.26471 6.52838C6.32663 6.46629 6.4002 6.41704 6.48119 6.38343C6.56219 6.34982 6.64902 6.33252 6.73671 6.33252C6.8244 6.33252 6.91122 6.34982 6.99222 6.38343C7.07321 6.41704 7.14678 6.46629 7.20871 6.52838L10.7367 10.0577L14.2647 6.52838C14.3267 6.46639 14.4003 6.41723 14.4813 6.38368C14.5622 6.35013 14.649 6.33287 14.7367 6.33287C14.8244 6.33287 14.9112 6.35013 14.9922 6.38368C15.0731 6.41723 15.1467 6.46639 15.2087 6.52838C15.2707 6.59036 15.3199 6.66395 15.3534 6.74493C15.3869 6.82592 15.4042 6.91272 15.4042 7.00038C15.4042 7.08804 15.3869 7.17484 15.3534 7.25582C15.3199 7.33681 15.2707 7.41039 15.2087 7.47238L11.6794 11.0004L15.2087 14.5284C15.2707 14.5904 15.3199 14.6639 15.3534 14.7449C15.3869 14.8259 15.4042 14.9127 15.4042 15.0004C15.4042 15.088 15.3869 15.1748 15.3534 15.2558C15.3199 15.3368 15.2707 15.4104 15.2087 15.4724C15.1467 15.5344 15.0731 15.5835 14.9922 15.6171C14.9112 15.6506 14.8244 15.6679 14.7367 15.6679C14.649 15.6679 14.5622 15.6506 14.4813 15.6171C14.4003 15.5835 14.3267 15.5344 14.2647 15.4724L10.7367 11.943L7.20871 15.4724C7.14672 15.5344 7.07314 15.5835 6.99215 15.6171C6.91116 15.6506 6.82436 15.6679 6.73671 15.6679C6.64905 15.6679 6.56225 15.6506 6.48126 15.6171C6.40028 15.5835 6.32669 15.5344 6.26471 15.4724C6.20272 15.4104 6.15355 15.3368 6.12001 15.2558C6.08646 15.1748 6.0692 15.088 6.0692 15.0004C6.0692 14.9127 6.08646 14.8259 6.12001 14.7449C6.15355 14.6639 6.20272 14.5904 6.26471 14.5284L9.79404 11.0004L6.26471 7.47238C6.20262 7.41045 6.15336 7.33688 6.11976 7.25589C6.08615 7.1749 6.06885 7.08807 6.06885 7.00038C6.06885 6.91269 6.08615 6.82586 6.11976 6.74487C6.15336 6.66387 6.20262 6.59031 6.26471 6.52838Z" fill="url(#paint1_linear_7003_70333)"/>
</g>
<defs>
<linearGradient id="paint0_linear_7003_70333" x1="0.0700681" y1="-5.52916" x2="26.5134" y2="-2.08237" gradientUnits="userSpaceOnUse">
<stop offset="0.00132683" stop-color="#4485FD"/>
<stop offset="1" stop-color="#1A4187"/>
</linearGradient>
<linearGradient id="paint1_linear_7003_70333" x1="6.06885" y1="3.76705" x2="17.6403" y2="5.27535" gradientUnits="userSpaceOnUse">
<stop offset="0.00132683" stop-color="#4485FD"/>
<stop offset="1" stop-color="#1A4187"/>
</linearGradient>
<clipPath id="clip0_7003_70333">
<rect width="21.3333" height="21.3333" fill="white" transform="translate(0.0700684 0.333496)"/>
</clipPath>
</defs>
</svg>
