<svg width="212" height="71" viewBox="0 0 212 71" fill="none" xmlns="http://www.w3.org/2000/svg">
<g clip-path="url(#clip0_6399_36153)">
<path d="M194.653 0.000114493C194.653 0.000177726 194.653 0.000228986 194.653 0.000228986H16.9556C16.3079 0.000228986 15.6679 0.000228986 15.0219 0.00375185C14.4811 0.00727471 13.9447 0.0175086 13.3987 0.026122C12.2126 0.0400405 11.0293 0.144096 9.85905 0.337385C8.69045 0.534881 7.55847 0.907218 6.50138 1.4418C5.44558 1.98091 4.48086 2.68142 3.64223 3.51793C2.7992 4.35209 2.09646 5.31626 1.56105 6.37337C1.02416 7.42838 0.651879 8.55892 0.457065 9.72594C0.260398 10.8915 0.15457 12.0705 0.14053 13.2523C0.124138 13.7924 0.122407 14.3342 0.11377 14.8744V55.5886C0.122407 56.1355 0.124138 56.6653 0.14053 57.2124C0.154574 58.3942 0.260402 59.5731 0.457065 60.7386C0.651342 61.9063 1.02364 63.0375 1.56105 64.0929C2.09622 65.1466 2.79905 66.1069 3.64223 66.9364C4.47768 67.7766 5.44302 68.4776 6.50138 69.0126C7.55846 69.5486 8.69032 69.9232 9.85905 70.1237C11.0295 70.3155 12.2127 70.4196 13.3987 70.4351C13.9447 70.4471 14.4811 70.454 15.0219 70.454C15.6679 70.4575 16.3079 70.4575 16.9556 70.4575H194.653C195.288 70.4575 195.933 70.4575 196.568 70.454C197.106 70.454 197.658 70.4471 198.196 70.4351C199.38 70.4204 200.561 70.3163 201.729 70.1237C202.902 69.9218 204.038 69.5473 205.1 69.0126C206.157 68.4773 207.122 67.7763 207.956 66.9364C208.797 66.1036 209.502 65.1441 210.044 64.0929C210.577 63.0368 210.946 61.9057 211.137 60.7386C211.334 59.573 211.444 58.3943 211.465 57.2124C211.472 56.6653 211.472 56.1355 211.472 55.5886C211.486 54.9486 211.486 54.3122 211.486 53.6619V16.7975C211.486 16.1524 211.486 15.5125 211.472 14.8744C211.472 14.3342 211.472 13.7924 211.465 13.2523C211.444 12.0703 211.334 10.8916 211.137 9.72587C210.945 8.55952 210.576 7.42907 210.044 6.3733C208.953 4.25443 207.224 2.52969 205.1 1.44164C204.038 0.908366 202.902 0.536128 201.729 0.337226C200.561 0.143086 199.38 0.0389942 198.196 0.0258754C197.658 0.0172796 197.106 0.00695766 196.568 0.00352286C195.933 2.11659e-07 195.288 0 194.653 0C194.653 0 194.653 5.12603e-05 194.653 0.000114493V0.000114493Z" fill="url(#paint0_linear_6399_36153)"/>
<path d="M15.0295 68.9177C14.4913 68.9177 13.9661 68.9109 13.4322 68.8989C12.326 68.8845 11.2225 68.7885 10.1305 68.6116C9.11239 68.4367 8.12607 68.1115 7.20412 67.6465C6.29063 67.1854 5.45744 66.5808 4.73649 65.8558C4.00511 65.1394 3.3962 64.3085 2.93389 63.396C2.46649 62.4776 2.14302 61.4931 1.97475 60.477C1.79303 59.3851 1.69471 58.281 1.68064 57.1743C1.67028 56.8304 1.65695 55.7453 1.65502 55.5856C1.65486 55.572 1.65479 55.5591 1.65479 55.5455V14.898C1.65479 14.8832 1.65487 14.8692 1.65506 14.8545C1.6572 14.6906 1.67121 13.63 1.68073 13.3002C1.6942 12.1952 1.79195 11.0928 1.97312 10.0027C2.1417 8.9837 2.46542 7.99641 2.93308 7.07497C3.39369 6.16311 3.99922 5.33156 4.7262 4.61258C5.45236 3.88677 6.28821 3.27904 7.20326 2.81157C8.12309 2.34811 9.10754 2.02513 10.1236 1.85346C11.2191 1.67479 12.3265 1.57819 13.4365 1.56448L15.0303 1.54297H196.558L198.171 1.56534C199.271 1.57837 200.368 1.67411 201.454 1.85173C202.48 2.02556 203.475 2.35079 204.405 2.81673C206.238 3.75883 207.73 5.24931 208.671 7.07927C209.131 7.99435 209.45 8.97358 209.616 9.98373C209.8 11.0829 209.902 12.1939 209.923 13.3079C209.929 13.8068 209.929 14.3426 209.929 14.8758C209.943 15.5364 209.943 16.1651 209.943 16.799V53.6634C209.943 54.3033 209.943 54.9277 209.929 55.5573C209.929 56.1301 209.929 56.6548 209.922 57.1949C209.901 58.289 209.8 59.3802 209.62 60.4597C209.455 61.4832 209.133 62.4753 208.666 63.4013C208.2 64.3039 207.595 65.1276 206.872 65.8421C206.15 66.571 205.316 67.1791 204.4 67.6432C203.472 68.1117 202.479 68.4382 201.454 68.6116C200.362 68.7894 199.258 68.8855 198.152 68.8989C197.635 68.9109 197.093 68.9177 196.567 68.9177L194.652 68.9213L15.0295 68.9177Z" fill="url(#paint1_linear_6399_36153)"/>
<path d="M43.8627 35.7473C43.8817 34.2771 44.2733 32.8356 45.0011 31.5569C45.7289 30.2782 46.7692 29.2038 48.0253 28.4338C47.2274 27.2974 46.1747 26.3621 44.9509 25.7024C43.7271 25.0426 42.3659 24.6765 40.9754 24.6332C38.0092 24.3227 35.1337 26.4031 33.6222 26.4031C32.0814 26.4031 29.7542 24.664 27.2482 24.7154C25.6272 24.7676 24.0475 25.2377 22.6629 26.0797C21.2782 26.9218 20.136 28.1072 19.3473 29.5203C15.9312 35.4184 18.4793 44.0865 21.7517 48.854C23.389 51.1885 25.3025 53.7962 27.8062 53.7037C30.2563 53.6024 31.1713 52.1458 34.1288 52.1458C37.0588 52.1458 37.9173 53.7037 40.4718 53.6449C43.1009 53.6024 44.7573 51.3 46.3371 48.9434C47.5135 47.28 48.4187 45.4415 49.0192 43.4962C47.4918 42.852 46.1884 41.7736 45.2714 40.3957C44.3544 39.0177 43.8645 37.4011 43.8627 35.7473V35.7473Z" fill="#4F4F4F"/>
<path d="M39.0376 21.5001C40.4711 19.784 41.1773 17.5784 41.0063 15.3516C38.8163 15.5809 36.7933 16.6247 35.3405 18.2749C34.6302 19.081 34.0861 20.0188 33.7395 21.0348C33.3928 22.0507 33.2504 23.1248 33.3203 24.1957C34.4157 24.207 35.4993 23.9702 36.4897 23.5033C37.48 23.0363 38.3512 22.3514 39.0376 21.5001Z" fill="#4F4F4F"/>
<path d="M75.7855 50.082H68.1737L66.3457 55.4645H63.1216L70.3314 35.5508H73.6811L80.891 55.4645H77.6119L75.7855 50.082ZM68.962 47.5983H74.9957L72.0213 38.863H71.938L68.962 47.5983Z" fill="#4F4F4F"/>
<path d="M96.4612 48.2038C96.4612 52.7155 94.0396 55.6143 90.3852 55.6143C89.4595 55.6625 88.5388 55.4499 87.7287 55.0007C86.9185 54.5514 86.2516 53.8838 85.8043 53.0741H85.7351V60.2654H82.7466V40.9437H85.6394V43.3585H85.6943C86.1622 42.5527 86.8404 41.8885 87.6567 41.4365C88.4731 40.9846 89.397 40.7617 90.3302 40.7917C94.0254 40.7918 96.4612 43.7046 96.4612 48.2038ZM93.3894 48.2038C93.3894 45.2644 91.8661 43.3319 89.5419 43.3319C87.2585 43.3319 85.7226 45.3051 85.7226 48.2038C85.7226 51.1291 87.2585 53.0883 89.5419 53.0883C91.8661 53.0883 93.3894 51.1699 93.3894 48.2038Z" fill="#4F4F4F"/>
<path d="M112.487 48.2038C112.487 52.7155 110.065 55.6142 106.411 55.6142C105.485 55.6625 104.564 55.4499 103.754 55.0007C102.944 54.5514 102.277 53.8838 101.83 53.0741H101.761V60.2653H98.772V40.9436H101.665V43.3585H101.72C102.188 42.5527 102.866 41.8885 103.682 41.4365C104.498 40.9846 105.422 40.7617 106.356 40.7917C110.051 40.7917 112.487 43.7046 112.487 48.2038ZM109.415 48.2038C109.415 45.2643 107.891 43.3318 105.567 43.3318C103.284 43.3318 101.748 45.305 101.748 48.2038C101.748 51.1291 103.284 53.0882 105.567 53.0882C107.892 53.0882 109.415 51.1698 109.415 48.2038H109.415Z" fill="#4F4F4F"/>
<path d="M123.077 49.9161C123.299 51.8908 125.223 53.1874 127.851 53.1874C130.37 53.1874 132.183 51.8908 132.183 50.1102C132.183 48.5645 131.09 47.639 128.502 47.0047L125.914 46.383C122.247 45.4998 120.544 43.7897 120.544 41.0146C120.544 37.5788 123.547 35.2188 127.811 35.2188C132.03 35.2188 134.923 37.5788 135.02 41.0146H132.004C131.823 39.0273 130.176 37.8278 127.768 37.8278C125.361 37.8278 123.713 39.0415 123.713 40.8079C123.713 42.2158 124.765 43.0442 127.339 43.6784L129.54 44.2171C133.637 45.1834 135.339 46.8246 135.339 49.7374C135.339 53.463 132.363 55.7964 127.63 55.7964C123.201 55.7964 120.211 53.5178 120.018 49.9159L123.077 49.9161Z" fill="#4F4F4F"/>
<path d="M141.788 37.5078V40.9437H144.557V43.3037H141.788V51.3077C141.788 52.5511 142.342 53.1306 143.559 53.1306C143.888 53.1249 144.216 53.1018 144.543 53.0616V55.4075C143.995 55.5095 143.439 55.5557 142.883 55.5453C139.935 55.5453 138.785 54.4413 138.785 51.6256V43.3037H136.668V40.9437H138.785V37.5078H141.788Z" fill="#4F4F4F"/>
<path d="M146.159 48.2043C146.159 43.6362 148.857 40.7656 153.064 40.7656C157.285 40.7656 159.971 43.6361 159.971 48.2043C159.971 52.7849 157.299 55.6429 153.064 55.6429C148.83 55.6429 146.159 52.7849 146.159 48.2043ZM156.926 48.2043C156.926 45.0707 155.485 43.2212 153.064 43.2212C150.642 43.2212 149.204 45.0847 149.204 48.2043C149.204 51.3504 150.642 53.1858 153.064 53.1858C155.485 53.1858 156.925 51.3504 156.925 48.2043H156.926Z" fill="#4F4F4F"/>
<path d="M162.436 40.9435H165.286V43.4147H165.356C165.548 42.6429 166.002 41.9608 166.64 41.4831C167.277 41.0054 168.061 40.7612 168.858 40.7916C169.202 40.7904 169.545 40.8277 169.881 40.9028V43.6903C169.447 43.5578 168.993 43.497 168.539 43.5102C168.105 43.4927 167.672 43.569 167.27 43.734C166.868 43.899 166.507 44.1487 166.211 44.4661C165.915 44.7834 165.692 45.1608 165.556 45.5724C165.42 45.984 165.375 46.4201 165.425 46.8506V55.4622H162.436L162.436 40.9435Z" fill="#4F4F4F"/>
<path d="M183.659 51.1985C183.257 53.8342 180.683 55.6429 177.39 55.6429C173.155 55.6429 170.526 52.8131 170.526 48.2732C170.526 43.7192 173.169 40.7656 177.265 40.7656C181.293 40.7656 183.826 43.525 183.826 47.9271V48.9482H173.543V49.1282C173.495 49.6626 173.562 50.2008 173.739 50.7073C173.917 51.2138 174.2 51.6769 174.57 52.0659C174.941 52.4548 175.39 52.7607 175.888 52.9633C176.386 53.1658 176.922 53.2604 177.459 53.2406C178.166 53.3066 178.874 53.1435 179.48 52.7756C180.086 52.4076 180.556 51.8545 180.822 51.1985L183.659 51.1985ZM173.557 46.8653H180.836C180.863 46.3849 180.79 45.9041 180.621 45.4532C180.453 45.0022 180.193 44.5908 179.858 44.2448C179.522 43.8988 179.119 43.6256 178.673 43.4425C178.226 43.2593 177.747 43.1701 177.265 43.1804C176.778 43.1776 176.296 43.2708 175.845 43.4548C175.395 43.6388 174.985 43.9099 174.641 44.2525C174.296 44.5951 174.023 45.0024 173.837 45.4508C173.651 45.8993 173.556 46.38 173.557 46.8653V46.8653Z" fill="#4F4F4F"/>
<path d="M66.6748 15.3432C67.3175 15.2972 67.9624 15.394 68.5631 15.6266C69.1637 15.8593 69.705 16.222 70.1481 16.6885C70.5911 17.1551 70.9248 17.7138 71.1251 18.3246C71.3253 18.9353 71.3872 19.5827 71.3061 20.2201C71.3061 23.3558 69.6067 25.1582 66.6748 25.1582H63.1196V15.3432H66.6748ZM64.6483 23.7701H66.5041C66.9633 23.7975 67.4229 23.7224 67.8494 23.5504C68.2759 23.3783 68.6585 23.1135 68.9694 22.7754C69.2803 22.4372 69.5117 22.0342 69.6468 21.5956C69.7818 21.1571 69.8171 20.694 69.75 20.2401C69.8122 19.788 69.7734 19.3278 69.6363 18.8925C69.4992 18.4571 69.2672 18.0574 68.957 17.722C68.6467 17.3865 68.266 17.1236 67.8419 16.9522C67.4178 16.7807 66.961 16.7049 66.5041 16.7302H64.6483V23.7701Z" fill="#4F4F4F"/>
<path d="M73.0327 21.4486C72.986 20.9619 73.0418 20.4708 73.1966 20.0068C73.3514 19.5428 73.6017 19.1162 73.9316 18.7543C74.2614 18.3925 74.6634 18.1034 75.1118 17.9055C75.5603 17.7077 76.0452 17.6055 76.5356 17.6055C77.0259 17.6055 77.5109 17.7077 77.9593 17.9055C78.4077 18.1034 78.8097 18.3925 79.1396 18.7543C79.4694 19.1162 79.7197 19.5428 79.8745 20.0068C80.0293 20.4708 80.0851 20.9619 80.0384 21.4486C80.086 21.9359 80.0308 22.4277 79.8765 22.8924C79.7221 23.3572 79.4719 23.7846 79.142 24.1471C78.8121 24.5097 78.4098 24.7994 77.9609 24.9977C77.512 25.196 77.0265 25.2984 76.5356 25.2984C76.0446 25.2984 75.5591 25.196 75.1102 24.9977C74.6613 24.7994 74.259 24.5097 73.9291 24.1471C73.5992 23.7846 73.349 23.3572 73.1947 22.8924C73.0403 22.4277 72.9851 21.9359 73.0327 21.4486ZM78.5306 21.4486C78.5306 19.8431 77.8073 18.9042 76.538 18.9042C75.2638 18.9042 74.547 19.8431 74.547 21.4487C74.547 23.0671 75.2638 23.9988 76.538 23.9988C77.8074 23.9988 78.5306 23.0606 78.5306 21.4486H78.5306Z" fill="#4F4F4F"/>
<path d="M89.3523 25.157H87.8317L86.2965 19.7017H86.1805L84.6518 25.157H83.1456L81.0981 17.75H82.585L83.9156 23.402H84.0251L85.5523 17.75H86.9586L88.4857 23.402H88.6017L89.9258 17.75H91.3917L89.3523 25.157Z" fill="#4F4F4F"/>
<path d="M93.1138 17.7557H94.5249V18.9324H94.6345C94.8203 18.5098 95.1337 18.1555 95.531 17.919C95.9284 17.6824 96.3898 17.5754 96.851 17.6128C97.2125 17.5857 97.5753 17.64 97.9128 17.7718C98.2503 17.9035 98.5538 18.1093 98.8007 18.3739C99.0476 18.6385 99.2317 18.955 99.3392 19.3002C99.4468 19.6453 99.4751 20.0102 99.422 20.3677V25.1627H97.9561V20.7348C97.9561 19.5445 97.4374 18.9525 96.3533 18.9525C96.1079 18.9411 95.8629 18.9827 95.6352 19.0746C95.4075 19.1664 95.2023 19.3063 95.0339 19.4846C94.8654 19.6628 94.7376 19.8753 94.6592 20.1075C94.5808 20.3396 94.5537 20.586 94.5797 20.8295V25.1627H93.1138L93.1138 17.7557Z" fill="#4F4F4F"/>
<path d="M101.756 14.8594H103.222V25.1579H101.756V14.8594Z" fill="#4F4F4F"/>
<path d="M105.261 21.4488C105.214 20.962 105.27 20.4708 105.425 20.0068C105.58 19.5428 105.83 19.1162 106.16 18.7544C106.49 18.3925 106.892 18.1034 107.341 17.9055C107.789 17.7077 108.274 17.6055 108.764 17.6055C109.255 17.6055 109.74 17.7077 110.188 17.9055C110.637 18.1034 111.039 18.3925 111.369 18.7544C111.698 19.1162 111.949 19.5428 112.104 20.0068C112.258 20.4708 112.314 20.962 112.268 21.4488C112.315 21.9361 112.26 22.4279 112.106 22.8926C111.951 23.3573 111.701 23.7847 111.371 24.1473C111.041 24.5098 110.639 24.7995 110.19 24.9978C109.741 25.1961 109.255 25.2985 108.764 25.2985C108.273 25.2985 107.788 25.1961 107.339 24.9978C106.89 24.7995 106.488 24.5098 106.158 24.1473C105.828 23.7847 105.578 23.3573 105.423 22.8926C105.269 22.4279 105.214 21.9361 105.261 21.4488ZM110.759 21.4488C110.759 19.8432 110.036 18.9043 108.766 18.9043C107.492 18.9043 106.775 19.8432 106.775 21.4488C106.775 23.0672 107.492 23.9989 108.766 23.9989C110.036 23.9989 110.759 23.0608 110.759 21.4488H110.759Z" fill="#4F4F4F"/>
<path d="M113.811 23.0607C113.811 21.7274 114.807 20.9588 116.574 20.8495L118.586 20.7339V20.0945C118.586 19.3122 118.067 18.8705 117.065 18.8705C116.247 18.8705 115.68 19.1701 115.517 19.6938H114.098C114.248 18.4215 115.448 17.6055 117.133 17.6055C118.995 17.6055 120.045 18.5299 120.045 20.0945V25.1554H118.634V24.1145H118.518C118.283 24.4879 117.952 24.7923 117.56 24.9966C117.168 25.2009 116.729 25.2978 116.287 25.2775C115.975 25.3098 115.66 25.2766 115.362 25.1801C115.064 25.0835 114.789 24.9257 114.556 24.7169C114.323 24.508 114.136 24.2527 114.007 23.9675C113.879 23.6822 113.812 23.3733 113.811 23.0607ZM118.586 22.4278V21.8085L116.772 21.9242C115.749 21.9925 115.285 22.3394 115.285 22.9924C115.285 23.6591 115.865 24.047 116.662 24.047C116.896 24.0706 117.132 24.0471 117.356 23.9778C117.581 23.9086 117.789 23.7951 117.968 23.644C118.148 23.4929 118.295 23.3074 118.401 23.0985C118.507 22.8895 118.57 22.6614 118.586 22.4278Z" fill="#4F4F4F"/>
<path d="M121.969 21.4512C121.969 19.1107 123.176 17.628 125.052 17.628C125.517 17.6067 125.977 17.7175 126.381 17.9477C126.784 18.1778 127.113 18.5176 127.33 18.9275H127.44V14.8594H128.906V25.1579H127.501V23.9876H127.385C127.151 24.3947 126.811 24.7303 126.399 24.9581C125.988 25.1859 125.523 25.2972 125.052 25.2799C123.163 25.28 121.969 23.7973 121.969 21.4512ZM123.484 21.4512C123.484 23.0222 124.226 23.9676 125.468 23.9676C126.704 23.9676 127.467 23.0086 127.467 21.4576C127.467 19.9139 126.696 18.9412 125.468 18.9412C124.234 18.9412 123.483 19.893 123.483 21.4512H123.484Z" fill="#4F4F4F"/>
<path d="M134.974 21.4486C134.927 20.9619 134.983 20.4708 135.138 20.0068C135.293 19.5428 135.543 19.1162 135.873 18.7543C136.203 18.3925 136.605 18.1034 137.053 17.9055C137.502 17.7077 137.987 17.6055 138.477 17.6055C138.967 17.6055 139.452 17.7077 139.901 17.9055C140.349 18.1034 140.751 18.3925 141.081 18.7543C141.411 19.1162 141.661 19.5428 141.816 20.0068C141.971 20.4708 142.027 20.9619 141.98 21.4486C142.027 21.9359 141.972 22.4277 141.818 22.8924C141.663 23.3572 141.413 23.7846 141.083 24.1471C140.753 24.5097 140.351 24.7994 139.902 24.9977C139.453 25.196 138.968 25.2984 138.477 25.2984C137.986 25.2984 137.5 25.196 137.052 24.9977C136.603 24.7994 136.2 24.5097 135.871 24.1471C135.541 23.7846 135.29 23.3572 135.136 22.8924C134.982 22.4277 134.927 21.9359 134.974 21.4486ZM140.472 21.4486C140.472 19.8431 139.749 18.9042 138.479 18.9042C137.205 18.9042 136.488 19.8431 136.488 21.4487C136.488 23.0671 137.205 23.9988 138.479 23.9988C139.749 23.9988 140.472 23.0606 140.472 21.4486Z" fill="#4F4F4F"/>
<path d="M143.946 17.7557H145.357V18.9324H145.466C145.652 18.5098 145.966 18.1555 146.363 17.919C146.76 17.6824 147.222 17.5754 147.683 17.6128C148.044 17.5857 148.407 17.64 148.745 17.7718C149.082 17.9035 149.386 18.1093 149.633 18.3739C149.88 18.6385 150.064 18.955 150.171 19.3002C150.279 19.6453 150.307 20.0102 150.254 20.3677V25.1627H148.788V20.7348C148.788 19.5445 148.269 18.9525 147.185 18.9525C146.94 18.9411 146.695 18.9827 146.467 19.0746C146.239 19.1664 146.034 19.3063 145.866 19.4846C145.697 19.6628 145.57 19.8753 145.491 20.1075C145.413 20.3396 145.386 20.586 145.412 20.8295V25.1627H143.946V17.7557Z" fill="#4F4F4F"/>
<path d="M158.536 15.9062V17.7841H160.145V19.0154H158.536V22.8241C158.536 23.6 158.856 23.9397 159.586 23.9397C159.773 23.9391 159.96 23.9279 160.145 23.906V25.1236C159.882 25.1706 159.615 25.1956 159.348 25.1983C157.718 25.1983 157.068 24.6264 157.068 23.1984V19.0153H155.889V17.784H157.068V15.9062H158.536Z" fill="#4F4F4F"/>
<path d="M162.147 14.8594H163.6V18.9412H163.716C163.911 18.5146 164.233 18.1583 164.638 17.9209C165.043 17.6835 165.512 17.5764 165.981 17.6143C166.34 17.5948 166.7 17.6547 167.033 17.7896C167.367 17.9246 167.667 18.1313 167.911 18.395C168.155 18.6588 168.338 18.9731 168.447 19.3154C168.555 19.6578 168.587 20.0198 168.539 20.3757V25.1579H167.072V20.7363C167.072 19.5532 166.519 18.954 165.483 18.954C165.231 18.9334 164.978 18.968 164.741 19.0552C164.503 19.1425 164.288 19.2804 164.11 19.4592C163.932 19.6381 163.795 19.8536 163.709 20.0907C163.623 20.3278 163.591 20.5808 163.613 20.8319V25.1578H162.147L162.147 14.8594Z" fill="#4F4F4F"/>
<path d="M177.086 23.1556C176.887 23.8326 176.456 24.4181 175.867 24.8099C175.279 25.2016 174.571 25.3746 173.868 25.2985C173.378 25.3114 172.892 25.2179 172.442 25.0246C171.993 24.8313 171.591 24.5427 171.265 24.179C170.938 23.8152 170.695 23.385 170.552 22.9181C170.409 22.4512 170.37 21.9589 170.436 21.4754C170.371 20.9903 170.411 20.4969 170.554 20.0287C170.697 19.5604 170.939 19.1282 171.263 18.7612C171.588 18.3943 171.988 18.1012 172.436 17.9018C172.885 17.7024 173.37 17.6014 173.861 17.6056C175.928 17.6056 177.175 19.0137 177.175 21.3396V21.8497H171.93V21.9316C171.907 22.2034 171.941 22.477 172.03 22.7348C172.12 22.9927 172.262 23.2291 172.448 23.4289C172.634 23.6286 172.86 23.7874 173.112 23.895C173.363 24.0026 173.634 24.0566 173.908 24.0535C174.259 24.0955 174.614 24.0326 174.928 23.8727C175.243 23.7128 175.503 23.4631 175.675 23.1556L177.086 23.1556ZM171.93 20.7685H175.681C175.7 20.52 175.666 20.2703 175.582 20.0355C175.498 19.8007 175.366 19.5861 175.193 19.4054C175.021 19.2247 174.813 19.0819 174.582 18.9862C174.351 18.8905 174.103 18.844 173.853 18.8497C173.6 18.8466 173.348 18.894 173.113 18.9893C172.878 19.0847 172.665 19.2259 172.486 19.4047C172.306 19.5835 172.165 19.7963 172.069 20.0306C171.974 20.2648 171.926 20.5157 171.93 20.7685H171.93Z" fill="#4F4F4F"/>
</g>
<defs>
<linearGradient id="paint0_linear_6399_36153" x1="0.11377" y1="0" x2="6.16062" y2="85.0548" gradientUnits="userSpaceOnUse">
<stop stop-color="#F0F3FF"/>
<stop offset="1" stop-color="#F5F7FF"/>
</linearGradient>
<linearGradient id="paint1_linear_6399_36153" x1="1.65479" y1="1.54297" x2="7.26818" y2="82.9044" gradientUnits="userSpaceOnUse">
<stop stop-color="#F0F3FF"/>
<stop offset="1" stop-color="#F5F7FF"/>
</linearGradient>
<clipPath id="clip0_6399_36153">
<rect x="0.11377" width="211.372" height="70.4573" fill="white"/>
</clipPath>
</defs>
</svg>
