<svg width="232" height="70" viewBox="0 0 232 70" fill="none" xmlns="http://www.w3.org/2000/svg">
<g clip-path="url(#clip0_6399_36188)">
<rect width="231.1" height="69.0481" transform="translate(0.900146 0.70459)" fill="white"/>
<path d="M223.439 69.7527H9.45745C4.74986 69.7527 0.898193 65.8688 0.898193 61.1217V9.33561C0.898193 4.58855 4.74986 0.70459 9.45745 0.70459H223.439C228.146 0.70459 231.998 4.58855 231.998 9.33561V61.1217C231.998 65.8688 228.146 69.7527 223.439 69.7527Z" fill="url(#paint0_linear_6399_36188)"/>
<path d="M80.2385 18.0295C80.2385 19.2708 79.8742 20.2588 79.1441 20.9965C78.3156 21.8734 77.2345 22.3119 75.9066 22.3119C74.6345 22.3119 73.5519 21.8675 72.6631 20.9787C71.773 20.0885 71.3279 18.9864 71.3279 17.6711C71.3279 16.3542 71.773 15.2522 72.6631 14.3634C73.5519 13.4732 74.6345 13.0288 75.9066 13.0288C76.5382 13.0288 77.142 13.1532 77.7148 13.4021C78.2892 13.6509 78.749 13.9813 79.0927 14.3945L78.3186 15.1766C77.7354 14.473 76.9319 14.122 75.9051 14.122C74.9767 14.122 74.1747 14.4508 73.4975 15.1085C72.8203 15.7662 72.4825 16.6209 72.4825 17.6711C72.4825 18.7213 72.8203 19.576 73.4975 20.2336C74.1747 20.8913 74.9767 21.2202 75.9051 21.2202C76.8893 21.2202 77.7104 20.8898 78.367 20.2277C78.793 19.7967 79.0398 19.1968 79.1059 18.428H75.9051V17.36H80.1753C80.2194 17.5911 80.2385 17.8148 80.2385 18.0295Z" fill="#4F4F4F" stroke="#4F4F4F" stroke-width="0.120919" stroke-miterlimit="10"/>
<path d="M87.0107 14.3197H82.9975V17.1371H86.617V18.2051H82.9975V21.0224H87.0107V22.1156H81.865V13.228H87.0107V14.3197Z" fill="#4F4F4F" stroke="#4F4F4F" stroke-width="0.120919" stroke-miterlimit="10"/>
<path d="M91.7876 22.1156H90.6551V14.3197H88.1931V13.228H94.2496V14.3197H91.7876V22.1156Z" fill="#4F4F4F" stroke="#4F4F4F" stroke-width="0.120919" stroke-miterlimit="10"/>
<path d="M98.6287 22.1156V13.228H99.7612V22.1156H98.6287Z" fill="#4F4F4F" stroke="#4F4F4F" stroke-width="0.120919" stroke-miterlimit="10"/>
<path d="M104.786 22.1156H103.653V14.3197H101.191V13.228H107.248V14.3197H104.786V22.1156Z" fill="#4F4F4F" stroke="#4F4F4F" stroke-width="0.120919" stroke-miterlimit="10"/>
<path d="M118.711 20.9683C117.845 21.8675 116.768 22.3148 115.48 22.3148C114.191 22.3148 113.115 21.866 112.249 20.9683C111.383 20.0707 110.951 18.9716 110.951 17.6726C110.951 16.3735 111.383 15.2744 112.249 14.3768C113.115 13.4776 114.191 13.0288 115.48 13.0288C116.761 13.0288 117.836 13.4806 118.705 14.3827C119.575 15.2848 120.01 16.3809 120.01 17.6726C120.01 18.9716 119.577 20.0707 118.711 20.9683ZM113.085 20.2233C113.738 20.8898 114.535 21.2216 115.48 21.2216C116.424 21.2216 117.223 20.8884 117.874 20.2233C118.526 19.5567 118.854 18.7065 118.854 17.6726C118.854 16.6386 118.526 15.7884 117.874 15.1218C117.223 14.4553 116.424 14.1235 115.48 14.1235C114.535 14.1235 113.738 14.4567 113.085 15.1218C112.435 15.7884 112.107 16.6386 112.107 17.6726C112.107 18.7065 112.435 19.5567 113.085 20.2233Z" fill="#4F4F4F" stroke="#4F4F4F" stroke-width="0.120919" stroke-miterlimit="10"/>
<path d="M121.599 22.1156V13.228H122.977L127.261 20.1411H127.309L127.261 18.4287V13.228H128.393V22.1156H127.211L122.729 14.8663H122.681L122.729 16.5786V22.1156H121.599Z" fill="#4F4F4F" stroke="#4F4F4F" stroke-width="0.120919" stroke-miterlimit="10"/>
<path d="M114.066 40.2728C110.356 40.2728 107.332 43.1168 107.332 47.0376C107.332 50.933 110.356 53.8025 114.066 53.8025C117.776 53.8025 120.799 50.933 120.799 47.0376C120.799 43.1168 117.776 40.2728 114.066 40.2728ZM114.066 51.1366C112.032 51.1366 110.278 49.4458 110.278 47.036C110.278 44.6024 112.032 42.9354 114.066 42.9354C116.099 42.9354 117.851 44.6008 117.851 47.036C117.851 49.4458 116.099 51.1366 114.066 51.1366ZM99.3754 40.2728C95.6654 40.2728 92.6415 43.1168 92.6415 47.0376C92.6415 50.933 95.6654 53.8025 99.3754 53.8025C103.085 53.8025 106.109 50.933 106.109 47.0376C106.109 43.1168 103.085 40.2728 99.3754 40.2728ZM99.3754 51.1366C97.3421 51.1366 95.5881 49.4458 95.5881 47.036C95.5881 44.6024 97.3421 42.9354 99.3754 42.9354C101.409 42.9354 103.161 44.6008 103.161 47.036C103.161 49.4458 101.407 51.1366 99.3754 51.1366ZM81.8995 42.3485V45.218H88.7107C88.5072 46.8324 87.974 48.0111 87.1601 48.8318C86.1695 49.8307 84.6189 50.933 81.8995 50.933C77.7068 50.933 74.429 47.5244 74.429 43.2965C74.429 39.0687 77.7068 35.66 81.8995 35.66C84.1615 35.66 85.813 36.5571 87.0323 37.7103L89.0403 35.6854C87.3383 34.0455 85.0764 32.7905 81.8995 32.7905C76.1563 32.7905 71.3279 37.5051 71.3279 43.2965C71.3279 49.0879 76.1563 53.8025 81.8995 53.8025C85.0007 53.8025 87.3383 52.7781 89.1681 50.8551C91.0484 48.9591 91.6336 46.2932 91.6336 44.1411C91.6336 43.4747 91.5831 42.8591 91.4806 42.3469H81.8995V42.3485ZM153.368 44.577C152.809 43.0643 151.106 40.2728 147.624 40.2728C144.168 40.2728 141.298 43.015 141.298 47.0376C141.298 50.8296 144.143 53.8025 147.956 53.8025C151.03 53.8025 152.809 51.9065 153.546 50.8042L151.259 49.2661C150.497 50.3938 149.454 51.1366 147.956 51.1366C146.456 51.1366 145.389 50.4447 144.703 49.0863L153.674 45.3452L153.368 44.577ZM144.219 46.8324C144.143 44.2191 146.227 42.8861 147.725 42.8861C148.894 42.8861 149.885 43.4747 150.216 44.3209L144.219 46.8324ZM136.927 53.3921H139.875V33.5079H136.927V53.3921ZM132.097 41.7838H131.996C131.335 40.9901 130.065 40.2728 128.464 40.2728C125.109 40.2728 122.035 43.2456 122.035 47.0631C122.035 50.8551 125.109 53.8025 128.464 53.8025C130.065 53.8025 131.335 53.0851 131.996 52.2644H132.097V53.2378C132.097 55.8257 130.724 57.2096 128.513 57.2096C126.708 57.2096 125.59 55.9021 125.132 54.8014L122.566 55.8782C123.303 57.6724 125.26 59.8754 128.513 59.8754C131.969 59.8754 134.892 57.8251 134.892 52.829V40.6831H132.097V41.7838ZM128.718 51.1366C126.685 51.1366 124.983 49.4204 124.983 47.0615C124.983 44.6788 126.685 42.9354 128.718 42.9354C130.726 42.9354 132.302 44.6772 132.302 47.0615C132.3 49.4204 130.726 51.1366 128.718 51.1366ZM167.176 33.5079H160.124V53.3921H163.067V45.859H167.178C170.44 45.859 173.647 43.4778 173.647 39.6842C173.647 35.8906 170.438 33.5079 167.176 33.5079ZM167.252 43.0913H163.065V36.2756H167.252C169.452 36.2756 170.702 38.1127 170.702 39.6842C170.702 41.2239 169.452 43.0913 167.252 43.0913ZM185.442 40.2362C183.311 40.2362 181.104 41.1826 180.191 43.2806L182.805 44.3813C183.363 43.2806 184.403 42.9227 185.494 42.9227C187.016 42.9227 188.564 43.8437 188.589 45.4804V45.6856C188.056 45.3786 186.914 44.9173 185.52 44.9173C182.704 44.9173 179.836 46.4777 179.836 49.3949C179.836 52.056 182.146 53.7691 184.732 53.7691C186.712 53.7691 187.802 52.8736 188.487 51.8254H188.588V53.3603H191.428V45.7365C191.428 42.2054 188.816 40.2362 185.442 40.2362ZM185.087 51.1334C184.124 51.1334 182.778 50.6467 182.778 49.4442C182.778 47.9093 184.453 47.3208 185.898 47.3208C187.192 47.3208 187.8 47.6023 188.588 47.9856C188.359 49.8291 186.786 51.1334 185.087 51.1334ZM201.779 40.6704L198.405 49.2915H198.304L194.804 40.6704H191.633L196.885 52.7193L193.891 59.4221H196.96L205.054 40.6704H201.779ZM175.268 53.3921H178.212V33.5079H175.268V53.3921Z" fill="#4F4F4F"/>
<path d="M18.7611 13.7173C18.2629 14.249 17.9685 15.0741 17.9685 16.1426V54.3193C17.9685 55.3896 18.2629 56.213 18.7611 56.7447L18.8878 56.8689L40.0959 35.483V35.231V34.979L18.8878 13.5913L18.7611 13.7173Z" fill="url(#paint1_linear_6399_36188)"/>
<path d="M47.1676 42.6172L40.0994 35.4863V35.2343V34.9822L47.1693 27.853L47.3285 27.9445L55.7046 32.7434C58.0978 34.114 58.0978 36.3563 55.7046 37.7286L47.3285 42.5275L47.1676 42.6172Z" fill="url(#paint2_linear_6399_36188)"/>
<path d="M47.3271 42.5234L40.098 35.2319L18.7615 56.7456C19.5506 57.588 20.8516 57.6916 22.3187 56.8509L47.3271 42.5234Z" fill="url(#paint3_linear_6399_36188)"/>
<path d="M47.3274 27.9405L22.3207 13.613C20.8536 12.7724 19.5526 12.8777 18.7634 13.7183L40.0982 35.232L47.3274 27.9405Z" fill="url(#paint4_linear_6399_36188)"/>
<path opacity="0.2" d="M47.1679 42.3608L22.3204 56.5968C20.9304 57.3926 19.6876 57.3408 18.8899 56.6158L18.7632 56.7453L18.8899 56.8696C19.6876 57.5946 20.9304 57.6481 22.3204 56.8506L47.3271 42.5231L47.1679 42.3608Z" fill="white"/>
<path opacity="0.12" d="M18.7611 56.4932C18.2629 55.9615 17.9685 55.1364 17.9685 54.0679V54.3199C17.9685 55.3884 18.2629 56.2135 18.7611 56.7452L18.8878 56.6158L18.7611 56.4932Z" fill="white"/>
<path opacity="0.12" d="M55.705 37.4747L47.1697 42.3651L47.3289 42.5256L55.705 37.7267C56.9015 37.0414 57.499 36.1386 57.499 35.2358C57.398 36.0523 56.7886 36.8533 55.705 37.4747Z" fill="white"/>
<path opacity="0.25" d="M22.3222 13.8659L55.705 32.9922C56.7903 33.6137 57.398 34.4146 57.499 35.2328C57.499 34.33 56.9016 33.4255 55.705 32.7402L22.3222 13.6139C19.9291 12.2433 17.9724 13.3808 17.9724 16.1445V16.3965C17.9724 13.6346 19.9291 12.4953 22.3222 13.8659Z" fill="#4F4F4F"/>
</g>
<defs>
<linearGradient id="paint0_linear_6399_36188" x1="0.898193" y1="0.70459" x2="6.21506" y2="84.1405" gradientUnits="userSpaceOnUse">
<stop stop-color="#ECF4FF"/>
<stop offset="1" stop-color="#ECF4FF"/>
</linearGradient>
<linearGradient id="paint1_linear_6399_36188" x1="38.2158" y1="15.7399" x2="9.24694" y2="44.4679" gradientUnits="userSpaceOnUse">
<stop stop-color="#00A0FF"/>
<stop offset="0.0066" stop-color="#00A1FF"/>
<stop offset="0.2601" stop-color="#00BEFF"/>
<stop offset="0.5122" stop-color="#00D2FF"/>
<stop offset="0.7604" stop-color="#00DFFF"/>
<stop offset="1" stop-color="#00E3FF"/>
</linearGradient>
<linearGradient id="paint2_linear_6399_36188" x1="58.8191" y1="35.235" x2="17.3977" y2="35.235" gradientUnits="userSpaceOnUse">
<stop stop-color="#FFE000"/>
<stop offset="0.4087" stop-color="#FFBD00"/>
<stop offset="0.7754" stop-color="#FFA500"/>
<stop offset="1" stop-color="#FF9C00"/>
</linearGradient>
<linearGradient id="paint3_linear_6399_36188" x1="43.3984" y1="39.1937" x2="4.11434" y2="78.1512" gradientUnits="userSpaceOnUse">
<stop stop-color="#FF3A44"/>
<stop offset="1" stop-color="#C31162"/>
</linearGradient>
<linearGradient id="paint4_linear_6399_36188" x1="13.3904" y1="1.01036" x2="30.9325" y2="18.4064" gradientUnits="userSpaceOnUse">
<stop stop-color="#32A071"/>
<stop offset="0.0685" stop-color="#2DA771"/>
<stop offset="0.4762" stop-color="#15CF74"/>
<stop offset="0.8009" stop-color="#06E775"/>
<stop offset="1" stop-color="#00F076"/>
</linearGradient>
<clipPath id="clip0_6399_36188">
<rect width="231.1" height="69.0481" fill="white" transform="translate(0.900146 0.70459)"/>
</clipPath>
</defs>
</svg>
