<svg width="167" height="46" viewBox="0 0 167 46" fill="none" xmlns="http://www.w3.org/2000/svg">
<path d="M26.1376 20.888C26.1566 19.4178 26.5482 17.9762 27.276 16.6975C28.0038 15.4188 29.0441 14.3444 30.3002 13.5744C29.5023 12.438 28.4496 11.5028 27.2258 10.843C26.002 10.1833 24.6408 9.81716 23.2503 9.77378C20.2841 9.46331 17.4086 11.5437 15.8971 11.5437C14.3563 11.5437 12.0291 9.8046 9.52309 9.85602C7.90213 9.90824 6.32238 10.3783 4.93776 11.2204C3.55313 12.0624 2.41086 13.2478 1.62223 14.661C-1.79395 20.559 0.754211 29.2271 4.02662 33.9946C5.66387 36.3291 7.57735 38.9368 10.0811 38.8443C12.5312 38.743 13.4462 37.2864 16.4037 37.2864C19.3337 37.2864 20.1922 38.8443 22.7467 38.7855C25.3758 38.743 27.0322 36.4407 28.612 34.084C29.7884 32.4206 30.6936 30.5822 31.2941 28.6368C29.7667 27.9926 28.4633 26.9143 27.5463 25.5363C26.6293 24.1584 26.1394 22.5417 26.1376 20.888V20.888Z" fill="#4F4F4F"/>
<path d="M21.3128 6.64068C22.7462 4.92467 23.4524 2.71905 23.2814 0.492188C21.0914 0.721562 19.0685 1.76531 17.6156 3.41548C16.9053 4.22162 16.3613 5.15947 16.0146 6.17541C15.668 7.19135 15.5255 8.26546 15.5954 9.33634C16.6908 9.34758 17.7745 9.11082 18.7648 8.64389C19.7552 8.17696 20.6264 7.49202 21.3128 6.64068Z" fill="#4F4F4F"/>
<path d="M58.0624 35.2227H50.4505L48.6225 40.6051H45.3984L52.6083 20.6914H55.958L63.1678 40.6051H59.8888L58.0624 35.2227ZM51.2389 32.7389H57.2725L54.2981 24.0036H54.2149L51.2389 32.7389Z" fill="#4F4F4F"/>
<path d="M78.7381 33.3444C78.7381 37.8562 76.3164 40.7549 72.6621 40.7549C71.7363 40.8032 70.8157 40.5905 70.0055 40.1413C69.1954 39.6921 68.5284 39.0244 68.0811 38.2148H68.012V45.406H65.0234V26.0843H67.9162V28.4991H67.9712C68.4391 27.6933 69.1173 27.0291 69.9336 26.5772C70.7499 26.1252 71.6739 25.9024 72.6071 25.9324C76.3022 25.9324 78.7381 28.8452 78.7381 33.3444ZM75.6663 33.3444C75.6663 30.405 74.143 28.4725 71.8187 28.4725C69.5353 28.4725 67.9994 30.4457 67.9994 33.3444C67.9994 36.2698 69.5353 38.2289 71.8187 38.2289C74.143 38.2289 75.6663 36.3105 75.6663 33.3444Z" fill="#4F4F4F"/>
<path d="M94.7615 33.3444C94.7615 37.8562 92.3399 40.7549 88.6855 40.7549C87.7598 40.8032 86.8391 40.5905 86.029 40.1413C85.2188 39.692 84.5519 39.0244 84.1046 38.2147H84.0354V45.406H81.0469V26.0843H83.9396V28.4991H83.9946C84.4625 27.6933 85.1406 27.0291 85.957 26.5772C86.7733 26.1252 87.6973 25.9023 88.6305 25.9324C92.3258 25.9324 94.7615 28.8452 94.7615 33.3444ZM91.6897 33.3444C91.6897 30.405 90.1664 28.4725 87.8422 28.4725C85.5588 28.4725 84.0229 30.4457 84.0229 33.3444C84.0229 36.2698 85.5588 38.2289 87.8422 38.2289C90.1664 38.2289 91.6897 36.3105 91.6897 33.3444H91.6897Z" fill="#4F4F4F"/>
<path d="M105.356 35.0567C105.578 37.0315 107.501 38.3281 110.13 38.3281C112.649 38.3281 114.461 37.0314 114.461 35.2508C114.461 33.7051 113.368 32.7796 110.78 32.1454L108.192 31.5236C104.525 30.6404 102.823 28.9303 102.823 26.1553C102.823 22.7194 105.826 20.3594 110.089 20.3594C114.309 20.3594 117.202 22.7194 117.299 26.1553H114.282C114.102 24.168 112.454 22.9684 110.047 22.9684C107.639 22.9684 105.992 24.1821 105.992 25.9486C105.992 27.3564 107.044 28.1849 109.618 28.819L111.818 29.3578C115.916 30.324 117.618 31.9652 117.618 34.878C117.618 38.6036 114.642 40.937 109.909 40.937C105.48 40.937 102.49 38.6584 102.297 35.0565L105.356 35.0567Z" fill="#4F4F4F"/>
<path d="M124.065 22.6484V26.0843H126.834V28.4443H124.065V36.4483C124.065 37.6918 124.619 38.2712 125.836 38.2712C126.165 38.2655 126.493 38.2425 126.819 38.2022V40.5482C126.272 40.6501 125.716 40.6963 125.159 40.686C122.212 40.686 121.062 39.5819 121.062 36.7662V28.4443H118.945V26.0843H121.062V22.6484H124.065Z" fill="#4F4F4F"/>
<path d="M128.438 33.3449C128.438 28.7768 131.135 25.9062 135.343 25.9062C139.564 25.9062 142.249 28.7767 142.249 33.3449C142.249 37.9256 139.578 40.7836 135.343 40.7836C131.109 40.7836 128.438 37.9255 128.438 33.3449ZM139.204 33.3449C139.204 30.2113 137.764 28.3618 135.343 28.3618C132.921 28.3618 131.483 30.2254 131.483 33.3449C131.483 36.4911 132.921 38.3265 135.343 38.3265C137.764 38.3265 139.204 36.4911 139.204 33.3449H139.204Z" fill="#4F4F4F"/>
<path d="M144.711 26.0841H147.561V28.5553H147.63C147.823 27.7835 148.277 27.1014 148.914 26.6238C149.552 26.1461 150.335 25.9019 151.132 25.9322C151.477 25.931 151.82 25.9683 152.156 26.0434V28.8309C151.722 28.6985 151.268 28.6376 150.814 28.6509C150.379 28.6333 149.947 28.7096 149.545 28.8746C149.143 29.0396 148.782 29.2893 148.486 29.6067C148.19 29.924 147.967 30.3015 147.831 30.7131C147.695 31.1247 147.65 31.5607 147.699 31.9912V40.6028H144.711L144.711 26.0841Z" fill="#4F4F4F"/>
<path d="M165.938 36.3392C165.536 38.9748 162.962 40.7836 159.669 40.7836C155.434 40.7836 152.805 37.9537 152.805 33.4138C152.805 28.8598 155.448 25.9062 159.543 25.9062C163.572 25.9062 166.105 28.6656 166.105 33.0677V34.0888H155.821V34.2689C155.774 34.8032 155.841 35.3415 156.018 35.848C156.195 36.3544 156.479 36.8175 156.849 37.2065C157.22 37.5955 157.669 37.9014 158.167 38.1039C158.665 38.3065 159.201 38.401 159.738 38.3813C160.444 38.4472 161.153 38.2841 161.759 37.9162C162.365 37.5483 162.835 36.9952 163.1 36.3392L165.938 36.3392ZM155.836 32.0059H163.115C163.141 31.5255 163.068 31.0447 162.9 30.5938C162.732 30.1428 162.472 29.7314 162.136 29.3854C161.801 29.0394 161.398 28.7663 160.951 28.5831C160.505 28.3999 160.026 28.3107 159.543 28.3211C159.057 28.3182 158.574 28.4114 158.124 28.5954C157.674 28.7794 157.264 29.0505 156.92 29.3931C156.575 29.7357 156.302 30.143 156.116 30.5914C155.93 31.0399 155.834 31.5207 155.836 32.006V32.0059Z" fill="#4F4F4F"/>
<path d="M48.9498 0.483794C49.5924 0.437803 50.2373 0.534623 50.838 0.767271C51.4386 0.999918 51.9799 1.36259 52.423 1.82914C52.866 2.29568 53.1997 2.85446 53.4 3.46518C53.6002 4.07589 53.6621 4.72331 53.5811 5.36075C53.5811 8.4964 51.8816 10.2988 48.9498 10.2988H45.3945V0.483794H48.9498ZM46.9233 8.91077H48.779C49.2382 8.93815 49.6978 8.86306 50.1243 8.69098C50.5508 8.51889 50.9334 8.25414 51.2443 7.916C51.5552 7.57786 51.7867 7.17484 51.9217 6.73627C52.0567 6.2977 52.092 5.83463 52.0249 5.38075C52.0871 4.92867 52.0483 4.46846 51.9112 4.03311C51.7741 3.59776 51.5421 3.19803 51.2319 2.86258C50.9216 2.52713 50.5409 2.26426 50.1168 2.0928C49.6927 1.92134 49.2359 1.84553 48.779 1.87082H46.9233V8.91077Z" fill="#4F4F4F"/>
<path d="M55.3056 6.58927C55.2589 6.10251 55.3148 5.61138 55.4696 5.1474C55.6244 4.68342 55.8747 4.25682 56.2045 3.89496C56.5343 3.53311 56.9363 3.24398 57.3848 3.04614C57.8332 2.84829 58.3181 2.74609 58.8085 2.74609C59.2989 2.74609 59.7838 2.84829 60.2322 3.04614C60.6807 3.24398 61.0827 3.53311 61.4125 3.89496C61.7423 4.25682 61.9926 4.68342 62.1474 5.1474C62.3022 5.61138 62.3581 6.10251 62.3114 6.58927C62.359 7.07654 62.3038 7.56834 62.1494 8.03307C61.995 8.49781 61.7448 8.92519 61.4149 9.28776C61.085 9.65032 60.6827 9.94005 60.2338 10.1383C59.785 10.3366 59.2994 10.439 58.8085 10.439C58.3176 10.439 57.832 10.3366 57.3832 10.1383C56.9343 9.94005 56.532 9.65032 56.2021 9.28776C55.8722 8.92519 55.622 8.49781 55.4676 8.03307C55.3132 7.56834 55.258 7.07654 55.3056 6.58927V6.58927ZM60.8036 6.58927C60.8036 4.98371 60.0803 4.04478 58.8109 4.04478C57.5367 4.04478 56.8199 4.98371 56.8199 6.58929C56.8199 8.20772 57.5368 9.13941 58.8109 9.13941C60.0803 9.13939 60.8036 8.20127 60.8036 6.58927H60.8036Z" fill="#4F4F4F"/>
<path d="M71.6292 10.2976H70.1085L68.5733 4.84237H68.4574L66.9286 10.2976H65.4224L63.375 2.89062H64.8619L66.1924 8.5426H66.302L67.8291 2.89062H69.2354L70.7625 8.5426H70.8785L72.2027 2.89062H73.6686L71.6292 10.2976Z" fill="#4F4F4F"/>
<path d="M75.3906 2.89636H76.8018V4.07303H76.9113C77.0971 3.65041 77.4106 3.29614 77.8079 3.05959C78.2052 2.82304 78.6667 2.716 79.1279 2.75338C79.4893 2.72629 79.8522 2.78063 80.1897 2.91238C80.5272 3.04413 80.8306 3.24992 81.0775 3.5145C81.3245 3.77908 81.5085 4.09566 81.6161 4.4408C81.7236 4.78594 81.7519 5.15079 81.6989 5.50831V10.3033H80.233V5.8754C80.233 4.68508 79.7143 4.09312 78.6301 4.09312C78.3847 4.08172 78.1398 4.12337 77.9121 4.2152C77.6843 4.30704 77.4792 4.44689 77.3107 4.62518C77.1423 4.80347 77.0145 5.01596 76.9361 5.24811C76.8577 5.48027 76.8305 5.72658 76.8565 5.97016V10.3034H75.3906L75.3906 2.89636Z" fill="#4F4F4F"/>
<path d="M84.0312 0H85.4972V10.2985H84.0312V0Z" fill="#4F4F4F"/>
<path d="M87.5361 6.58941C87.4894 6.10261 87.5453 5.61146 87.7001 5.14746C87.8549 4.68346 88.1053 4.25685 88.4352 3.89498C88.765 3.53312 89.1671 3.24399 89.6155 3.04614C90.064 2.84829 90.549 2.74609 91.0393 2.74609C91.5297 2.74609 92.0147 2.84829 92.4632 3.04614C92.9116 3.24399 93.3137 3.53312 93.6435 3.89498C93.9734 4.25685 94.2237 4.68346 94.3786 5.14746C94.5334 5.61146 94.5893 6.10261 94.5426 6.58941C94.5901 7.07669 94.5349 7.5685 94.3805 8.03324C94.226 8.49797 93.9758 8.92534 93.6459 9.2879C93.316 9.65045 92.9136 9.94017 92.4647 10.1384C92.0158 10.3367 91.5303 10.4391 91.0393 10.4391C90.5484 10.4391 90.0629 10.3367 89.614 10.1384C89.1651 9.94017 88.7627 9.65045 88.4328 9.2879C88.1029 8.92534 87.8526 8.49797 87.6982 8.03324C87.5438 7.5685 87.4885 7.07669 87.5361 6.58941V6.58941ZM93.034 6.58941C93.034 4.98384 92.3107 4.04492 91.0413 4.04492C89.7671 4.04492 89.0503 4.98384 89.0503 6.58943C89.0503 8.20786 89.7672 9.13955 91.0413 9.13955C92.3107 9.13953 93.034 8.20141 93.034 6.58941H93.034Z" fill="#4F4F4F"/>
<path d="M96.0859 8.20134C96.0859 6.86804 97.0815 6.0994 98.8486 5.99016L100.861 5.87451V5.23517C100.861 4.45286 100.342 4.01111 99.3399 4.01111C98.5216 4.01111 97.9546 4.3107 97.7919 4.83438H96.3727C96.5225 3.56213 97.7226 2.74609 99.4076 2.74609C101.27 2.74609 102.32 3.67055 102.32 5.23517V10.2961H100.909V9.25513H100.793C100.558 9.62852 100.227 9.93291 99.835 10.1372C99.443 10.3415 99.0037 10.4385 98.5619 10.4181C98.2501 10.4504 97.9349 10.4173 97.6367 10.3207C97.3385 10.2242 97.064 10.0664 96.8307 9.85751C96.5974 9.64866 96.4106 9.39337 96.2824 9.10812C96.1541 8.82286 96.0872 8.51396 96.0859 8.20134V8.20134ZM100.861 7.56842V6.94917L99.0468 7.06483C98.0238 7.13309 97.5599 7.48007 97.5599 8.13306C97.5599 8.7997 98.1398 9.18764 98.9373 9.18764C99.1709 9.21123 99.4069 9.1877 99.6313 9.11847C99.8556 9.04923 100.064 8.9357 100.243 8.78463C100.423 8.63355 100.57 8.44803 100.676 8.23909C100.782 8.03015 100.845 7.80207 100.861 7.56842V7.56842Z" fill="#4F4F4F"/>
<path d="M104.242 6.59179C104.242 4.2513 105.449 2.76861 107.325 2.76861C107.79 2.74728 108.25 2.85816 108.654 3.08828C109.057 3.31839 109.386 3.65824 109.603 4.06811H109.713V0H111.179V10.2985H109.774V9.12823H109.658C109.424 9.53533 109.084 9.87095 108.672 10.0987C108.261 10.3265 107.795 10.4378 107.325 10.4205C105.436 10.4206 104.242 8.93791 104.242 6.59179ZM105.756 6.59179C105.756 8.16283 106.499 9.10819 107.741 9.10819C108.977 9.10819 109.74 8.1492 109.74 6.59822C109.74 5.05449 108.969 4.08183 107.741 4.08183C106.507 4.08183 105.756 5.0336 105.756 6.59179H105.756Z" fill="#4F4F4F"/>
<path d="M117.251 6.58927C117.204 6.10251 117.26 5.61138 117.415 5.1474C117.57 4.68342 117.82 4.25682 118.15 3.89496C118.48 3.53311 118.882 3.24398 119.33 3.04614C119.779 2.84829 120.263 2.74609 120.754 2.74609C121.244 2.74609 121.729 2.84829 122.178 3.04614C122.626 3.24398 123.028 3.53311 123.358 3.89496C123.688 4.25682 123.938 4.68342 124.093 5.1474C124.248 5.61138 124.303 6.10251 124.257 6.58927C124.304 7.07654 124.249 7.56834 124.095 8.03307C123.94 8.49781 123.69 8.92519 123.36 9.28776C123.03 9.65032 122.628 9.94005 122.179 10.1383C121.73 10.3366 121.245 10.439 120.754 10.439C120.263 10.439 119.777 10.3366 119.328 10.1383C118.88 9.94005 118.477 9.65032 118.147 9.28776C117.817 8.92519 117.567 8.49781 117.413 8.03307C117.259 7.56834 117.203 7.07654 117.251 6.58927V6.58927ZM122.749 6.58927C122.749 4.98371 122.026 4.04478 120.756 4.04478C119.482 4.04478 118.765 4.98371 118.765 6.58929C118.765 8.20772 119.482 9.13941 120.756 9.13941C122.026 9.13939 122.749 8.20127 122.749 6.58927Z" fill="#4F4F4F"/>
<path d="M126.219 2.89636H127.63V4.07303H127.739C127.925 3.65041 128.239 3.29614 128.636 3.05959C129.033 2.82304 129.495 2.716 129.956 2.75338C130.317 2.72629 130.68 2.78063 131.018 2.91238C131.355 3.04413 131.659 3.24992 131.906 3.5145C132.153 3.77908 132.337 4.09566 132.444 4.4408C132.552 4.78594 132.58 5.15079 132.527 5.50831V10.3033H131.061V5.8754C131.061 4.68508 130.542 4.09312 129.458 4.09312C129.213 4.08172 128.968 4.12337 128.74 4.2152C128.512 4.30704 128.307 4.44689 128.139 4.62518C127.97 4.80347 127.843 5.01596 127.764 5.24811C127.686 5.48027 127.659 5.72658 127.685 5.97016V10.3034H126.219V2.89636Z" fill="#4F4F4F"/>
<path d="M140.811 1.04688V2.92473H142.42V4.15602H140.811V7.96474C140.811 8.74062 141.131 9.08037 141.861 9.08037C142.048 9.07977 142.235 9.0685 142.42 9.04663V10.2643C142.157 10.3112 141.89 10.3362 141.623 10.339C139.992 10.339 139.343 9.76707 139.343 8.33901V4.15596H138.164V2.92466H139.343V1.04688H140.811Z" fill="#4F4F4F"/>
<path d="M144.422 0H145.875V4.08181H145.991C146.186 3.65525 146.508 3.29897 146.913 3.06153C147.318 2.82409 147.787 2.71703 148.256 2.75494C148.615 2.73544 148.975 2.79529 149.308 2.93025C149.642 3.0652 149.942 3.27192 150.186 3.53567C150.43 3.79941 150.613 4.11368 150.722 4.45605C150.83 4.79841 150.862 5.16044 150.814 5.5163V10.2985H149.346V5.87692C149.346 4.69382 148.794 4.09464 147.758 4.09464C147.506 4.07404 147.253 4.10858 147.016 4.19585C146.778 4.28312 146.563 4.42101 146.385 4.59987C146.207 4.77874 146.07 4.99426 145.984 5.23135C145.898 5.46845 145.865 5.72139 145.888 5.97249V10.2985H144.422L144.422 0Z" fill="#4F4F4F"/>
<path d="M159.361 8.29624C159.162 8.9732 158.73 9.55877 158.142 9.95051C157.554 10.3422 156.846 10.5152 156.143 10.4391C155.653 10.452 155.167 10.3586 154.717 10.1652C154.268 9.97191 153.866 9.68335 153.539 9.3196C153.213 8.95584 152.97 8.5256 152.827 8.05873C152.684 7.59186 152.644 7.09956 152.711 6.61598C152.646 6.13091 152.686 5.63755 152.829 5.16928C152.972 4.70102 153.214 4.26878 153.538 3.90184C153.863 3.5349 154.263 3.24182 154.711 3.04244C155.159 2.84307 155.645 2.74204 156.136 2.74622C158.203 2.74622 159.45 4.15428 159.45 6.48021V6.99028H154.205V7.0722C154.182 7.34402 154.216 7.61762 154.305 7.87546C154.395 8.13331 154.537 8.3697 154.723 8.56948C154.909 8.76927 155.135 8.92804 155.387 9.03561C155.638 9.14319 155.909 9.19719 156.183 9.19416C156.533 9.23614 156.889 9.17318 157.203 9.01328C157.518 8.85338 157.778 8.60377 157.95 8.29619L159.361 8.29624ZM154.205 5.90917H157.956C157.975 5.66058 157.941 5.41088 157.857 5.17612C157.773 4.94135 157.64 4.72672 157.468 4.54602C157.296 4.36531 157.088 4.22252 156.857 4.12683C156.626 4.03113 156.378 3.98465 156.128 3.99036C155.874 3.98718 155.623 4.03465 155.388 4.12997C155.153 4.22528 154.94 4.36652 154.761 4.54534C154.581 4.72417 154.44 4.93697 154.344 5.1712C154.249 5.40543 154.201 5.65635 154.205 5.90917H154.205Z" fill="#4F4F4F"/>
</svg>
