<svg width="33" height="39" viewBox="0 0 33 39" fill="none" xmlns="http://www.w3.org/2000/svg">
<path d="M26.8627 20.7473C26.8817 19.2771 27.2733 17.8356 28.0011 16.5569C28.7289 15.2782 29.7692 14.2038 31.0253 13.4338C30.2274 12.2974 29.1747 11.3621 27.9509 10.7024C26.7271 10.0426 25.3659 9.67653 23.9754 9.63315C21.0092 9.32268 18.1337 11.4031 16.6222 11.4031C15.0814 11.4031 12.7542 9.66398 10.2482 9.71539C8.62723 9.76762 7.04748 10.2377 5.66285 11.0797C4.27823 11.9218 3.13595 13.1072 2.34733 14.5203C-1.06885 20.4184 1.47931 29.0865 4.75172 33.854C6.38897 36.1885 8.30245 38.7962 10.8062 38.7037C13.2563 38.6024 14.1713 37.1458 17.1288 37.1458C20.0588 37.1458 20.9173 38.7037 23.4718 38.6449C26.1009 38.6024 27.7573 36.3 29.3371 33.9434C30.5135 32.28 31.4187 30.4415 32.0192 28.4962C30.4918 27.852 29.1884 26.7736 28.2714 25.3957C27.3544 24.0177 26.8645 22.4011 26.8627 20.7473Z" fill="#4F4F4F"/>
<path d="M22.0376 6.50005C23.4711 4.78405 24.1773 2.57842 24.0063 0.351562C21.8163 0.580937 19.7933 1.62469 18.3405 3.27485C17.6302 4.081 17.0861 5.01885 16.7395 6.03479C16.3928 7.05073 16.2504 8.12484 16.3203 9.19571C17.4157 9.20696 18.4993 8.9702 19.4897 8.50327C20.48 8.03633 21.3512 7.3514 22.0376 6.50005Z" fill="#4F4F4F"/>
</svg>
