<svg width="188" height="48" viewBox="0 0 188 48" fill="none" xmlns="http://www.w3.org/2000/svg">
<path d="M62.27 6.00073C62.27 7.24202 61.9057 8.23002 61.1756 8.96768C60.3471 9.84459 59.266 10.283 57.9381 10.283C56.666 10.283 55.5834 9.83866 54.6946 8.94991C53.8045 8.05967 53.3594 6.95762 53.3594 5.64226C53.3594 4.32542 53.8045 3.22337 54.6946 2.33461C55.5834 1.44438 56.666 1 57.9381 1C58.5697 1 59.1734 1.12442 59.7463 1.37328C60.3207 1.62213 60.7805 1.95245 61.1242 2.36572L60.3501 3.14782C59.7669 2.44422 58.9634 2.09317 57.9366 2.09317C57.0082 2.09317 56.2062 2.42201 55.529 3.07968C54.8518 3.73736 54.514 4.59205 54.514 5.64226C54.514 6.69247 54.8518 7.54716 55.529 8.20484C56.2062 8.86252 57.0082 9.19135 57.9366 9.19135C58.9208 9.19135 59.7419 8.86103 60.3985 8.19891C60.8245 7.76786 61.0713 7.16795 61.1374 6.39918H57.9366V5.3312H62.2068C62.2509 5.56227 62.27 5.78594 62.27 6.00073Z" fill="#4F4F4F" stroke="#4F4F4F" stroke-width="0.120919" stroke-miterlimit="10"/>
<path d="M69.0441 2.2909H65.031V5.10826H68.6505V6.17625H65.031V8.99359H69.0441V10.0868H63.8984V1.19922H69.0441V2.2909Z" fill="#4F4F4F" stroke="#4F4F4F" stroke-width="0.120919" stroke-miterlimit="10"/>
<path d="M73.8211 10.0868H72.6885V2.2909H70.2266V1.19922H76.283V2.2909H73.8211V10.0868Z" fill="#4F4F4F" stroke="#4F4F4F" stroke-width="0.120919" stroke-miterlimit="10"/>
<path d="M80.6602 10.0868V1.19922H81.7927V10.0868H80.6602Z" fill="#4F4F4F" stroke="#4F4F4F" stroke-width="0.120919" stroke-miterlimit="10"/>
<path d="M86.8172 10.0868H85.6846V2.2909H83.2227V1.19922H89.2791V2.2909H86.8172V10.0868Z" fill="#4F4F4F" stroke="#4F4F4F" stroke-width="0.120919" stroke-miterlimit="10"/>
<path d="M100.745 8.93954C99.8781 9.83866 98.8014 10.286 97.5131 10.286C96.2249 10.286 95.1481 9.83718 94.2829 8.93954C93.4162 8.0419 92.9844 6.94281 92.9844 5.64374C92.9844 4.34468 93.4162 3.24559 94.2829 2.34794C95.1481 1.44882 96.2249 1 97.5131 1C98.794 1 99.8693 1.45178 100.739 2.35387C101.609 3.25595 102.043 4.35209 102.043 5.64374C102.043 6.94281 101.61 8.0419 100.745 8.93954ZM95.1188 8.19447C95.771 8.86103 96.5686 9.19284 97.5131 9.19284C98.4577 9.19284 99.2568 8.85955 99.9075 8.19447C100.56 7.5279 100.887 6.67766 100.887 5.64374C100.887 4.60982 100.56 3.75958 99.9075 3.09302C99.2568 2.42645 98.4577 2.09465 97.5131 2.09465C96.5686 2.09465 95.771 2.42793 95.1188 3.09302C94.468 3.75958 94.1404 4.60982 94.1404 5.64374C94.1404 6.67766 94.468 7.5279 95.1188 8.19447Z" fill="#4F4F4F" stroke="#4F4F4F" stroke-width="0.120919" stroke-miterlimit="10"/>
<path d="M103.633 10.0868V1.19922H105.011L109.294 8.11225H109.343L109.294 6.39991V1.19922H110.427V10.0868H109.244L104.762 2.83749H104.714L104.762 4.54982V10.0868H103.633Z" fill="#4F4F4F" stroke="#4F4F4F" stroke-width="0.120919" stroke-miterlimit="10"/>
<path d="M96.0971 28.244C92.387 28.244 89.3632 31.088 89.3632 35.0088C89.3632 38.9042 92.387 41.7737 96.0971 41.7737C99.8071 41.7737 102.831 38.9042 102.831 35.0088C102.831 31.088 99.8071 28.244 96.0971 28.244ZM96.0971 39.1078C94.0638 39.1078 92.3098 37.417 92.3098 35.0072C92.3098 32.5736 94.0638 30.9066 96.0971 30.9066C98.1303 30.9066 99.8828 32.572 99.8828 35.0072C99.8828 37.417 98.1303 39.1078 96.0971 39.1078ZM81.4069 28.244C77.6969 28.244 74.673 31.088 74.673 35.0088C74.673 38.9042 77.6969 41.7737 81.4069 41.7737C85.1169 41.7737 88.1407 38.9042 88.1407 35.0088C88.1407 31.088 85.1169 28.244 81.4069 28.244ZM81.4069 39.1078C79.3736 39.1078 77.6196 37.417 77.6196 35.0072C77.6196 32.5736 79.3736 30.9066 81.4069 30.9066C83.4401 30.9066 85.1926 32.572 85.1926 35.0072C85.1926 37.417 83.4385 39.1078 81.4069 39.1078ZM63.931 30.3197V33.1892H70.7422C70.5387 34.8036 70.0055 35.9823 69.1916 36.803C68.201 37.8019 66.6504 38.9042 63.931 38.9042C59.7383 38.9042 56.4605 35.4955 56.4605 31.2677C56.4605 27.0399 59.7383 23.6312 63.931 23.6312C66.193 23.6312 67.8445 24.5283 69.0638 25.6815L71.0718 23.6566C69.3698 22.0167 67.1079 20.7617 63.931 20.7617C58.1878 20.7617 53.3594 25.4763 53.3594 31.2677C53.3594 37.0591 58.1878 41.7737 63.931 41.7737C67.0322 41.7737 69.3698 40.7493 71.1996 38.8263C73.0798 36.9303 73.6651 34.2644 73.6651 32.1123C73.6651 31.4458 73.6146 30.8303 73.5121 30.3181H63.931V30.3197ZM135.399 32.5481C134.841 31.0355 133.137 28.244 129.656 28.244C126.2 28.244 123.329 30.9862 123.329 35.0088C123.329 38.8008 126.175 41.7737 129.987 41.7737C133.062 41.7737 134.841 39.8777 135.577 38.7754L133.29 37.2373C132.528 38.365 131.486 39.1078 129.987 39.1078C128.487 39.1078 127.421 38.4159 126.735 37.0575L135.705 33.3164L135.399 32.5481ZM126.25 34.8036C126.175 32.1903 128.258 30.8573 129.757 30.8573C130.926 30.8573 131.916 31.4459 132.248 32.2921L126.25 34.8036ZM118.958 41.3633H121.906V21.4791H118.958V41.3633ZM114.128 29.755H114.027C113.366 28.9613 112.096 28.244 110.495 28.244C107.14 28.244 104.066 31.2168 104.066 35.0343C104.066 38.8263 107.14 41.7737 110.495 41.7737C112.096 41.7737 113.366 41.0563 114.027 40.2356H114.128V41.209C114.128 43.7969 112.756 45.1808 110.544 45.1808C108.74 45.1808 107.621 43.8733 107.164 42.7726L104.598 43.8494C105.334 45.6436 107.292 47.8466 110.544 47.8466C114 47.8466 116.923 45.7963 116.923 40.8002V28.6543H114.128V29.755V29.755ZM110.749 39.1078C108.716 39.1078 107.014 37.3916 107.014 35.0327C107.014 32.6499 108.716 30.9066 110.749 30.9066C112.757 30.9066 114.333 32.6484 114.333 35.0327C114.332 37.3916 112.757 39.1078 110.749 39.1078ZM149.208 21.4791H142.155V41.3633H145.099V33.8302H149.209C152.471 33.8302 155.678 31.449 155.678 27.6554C155.678 23.8618 152.47 21.4791 149.208 21.4791ZM149.283 31.0625H145.097V24.2467H149.283C151.484 24.2467 152.733 26.0839 152.733 27.6554C152.733 29.1951 151.484 31.0625 149.283 31.0625ZM167.474 28.2074C165.343 28.2074 163.136 29.1538 162.223 31.2518L164.836 32.3525C165.395 31.2518 166.434 30.8939 167.526 30.8939C169.048 30.8939 170.595 31.8149 170.621 33.4516V33.6568C170.087 33.3498 168.945 32.8885 167.551 32.8885C164.735 32.8885 161.868 34.4489 161.868 37.3661C161.868 40.0272 164.177 41.7403 166.764 41.7403C168.744 41.7403 169.834 40.8448 170.518 39.7966H170.619V41.3315H173.46V33.7077C173.46 30.1765 170.848 28.2074 167.474 28.2074ZM167.119 39.1046C166.155 39.1046 164.81 38.6179 164.81 37.4154C164.81 35.8805 166.485 35.2919 167.93 35.2919C169.223 35.2919 169.832 35.5735 170.619 35.9568C170.39 37.8003 168.818 39.1046 167.119 39.1046ZM183.811 28.6416L180.437 37.2627H180.336L176.836 28.6416H173.665L178.916 40.6905L175.922 47.3933H178.992L187.085 28.6416H183.811ZM157.3 41.3633H160.243V21.4791H157.3V41.3633Z" fill="#4F4F4F"/>
<path d="M0.792586 1.68851C0.294437 2.22018 0 3.04531 0 4.11383V42.2905C0 43.3608 0.294437 44.1842 0.792586 44.7158L0.919265 44.8401L22.1274 23.4542V23.2022V22.9502L0.919265 1.5625L0.792586 1.68851Z" fill="url(#paint0_linear_961_2758)"/>
<path d="M29.201 30.5884L22.1328 23.4575V23.2055V22.9534L29.2028 15.8242L29.362 15.9157L37.738 20.7146C40.1312 22.0852 40.1312 24.3275 37.738 25.6998L29.362 30.4987L29.201 30.5884Z" fill="url(#paint1_linear_961_2758)"/>
<path d="M29.3586 30.4946L22.1295 23.2031L0.792969 44.7168C1.58213 45.5592 2.88314 45.6628 4.3502 44.8221L29.3586 30.4946Z" fill="url(#paint2_linear_961_2758)"/>
<path d="M29.3608 15.9117L4.3541 1.58422C2.88704 0.743558 1.58604 0.848858 0.796875 1.68952L22.1317 23.2032L29.3608 15.9117Z" fill="url(#paint3_linear_961_2758)"/>
<path opacity="0.2" d="M29.1977 30.332L4.35019 44.568C2.96017 45.3638 1.71737 45.312 0.919645 44.587L0.792969 44.7165L0.919645 44.8408C1.71737 45.5658 2.96017 45.6193 4.35019 44.8218L29.3569 30.4943L29.1977 30.332Z" fill="white"/>
<path opacity="0.12" d="M0.792585 44.4644C0.294437 43.9327 0 43.1076 0 42.0391V42.2911C0 43.3596 0.294437 44.1847 0.792585 44.7164L0.919265 44.5869L0.792585 44.4644Z" fill="white"/>
<path opacity="0.12" d="M37.7384 25.4459L29.2031 30.3362L29.3623 30.4968L37.7384 25.6979C38.935 25.0126 39.5324 24.1098 39.5324 23.207C39.4314 24.0235 38.822 24.8245 37.7384 25.4459Z" fill="white"/>
<path opacity="0.25" d="M4.35372 1.83709L37.7365 20.9634C38.8218 21.5849 39.4295 22.3858 39.5305 23.204C39.5305 22.3012 38.9331 21.3967 37.7365 20.7114L4.35372 1.58507C1.96055 0.214461 0.00390625 1.35203 0.00390625 4.11568V4.36771C0.00390625 1.60578 1.96055 0.466487 4.35372 1.83709Z" fill="#4F4F4F"/>
<defs>
<linearGradient id="paint0_linear_961_2758" x1="20.2473" y1="3.7111" x2="-8.72156" y2="32.4391" gradientUnits="userSpaceOnUse">
<stop stop-color="#00A0FF"/>
<stop offset="0.0066" stop-color="#00A1FF"/>
<stop offset="0.2601" stop-color="#00BEFF"/>
<stop offset="0.5122" stop-color="#00D2FF"/>
<stop offset="0.7604" stop-color="#00DFFF"/>
<stop offset="1" stop-color="#00E3FF"/>
</linearGradient>
<linearGradient id="paint1_linear_961_2758" x1="40.8526" y1="23.2062" x2="-0.568896" y2="23.2062" gradientUnits="userSpaceOnUse">
<stop stop-color="#FFE000"/>
<stop offset="0.4087" stop-color="#FFBD00"/>
<stop offset="0.7754" stop-color="#FFA500"/>
<stop offset="1" stop-color="#FF9C00"/>
</linearGradient>
<linearGradient id="paint2_linear_961_2758" x1="25.4299" y1="27.1649" x2="-13.8542" y2="66.1224" gradientUnits="userSpaceOnUse">
<stop stop-color="#FF3A44"/>
<stop offset="1" stop-color="#C31162"/>
</linearGradient>
<linearGradient id="paint3_linear_961_2758" x1="-4.57611" y1="-11.0184" x2="12.966" y2="6.37763" gradientUnits="userSpaceOnUse">
<stop stop-color="#32A071"/>
<stop offset="0.0685" stop-color="#2DA771"/>
<stop offset="0.4762" stop-color="#15CF74"/>
<stop offset="0.8009" stop-color="#06E775"/>
<stop offset="1" stop-color="#00F076"/>
</linearGradient>
</defs>
</svg>
