<svg width="152" height="32" viewBox="0 0 152 32" fill="none" xmlns="http://www.w3.org/2000/svg">
<g clip-path="url(#clip0_6675_62526)">
<path d="M9.2899 13.5756L15.1894 7.67842L21.0914 13.5804L24.5222 10.1472L15.1894 0.812012L5.85669 10.1448L9.2899 13.5756Z" fill="#9EAAC7"/>
<path d="M-0.000976562 15.9995L3.43098 12.5676L6.86293 15.9995L3.43097 19.4315L-0.000976562 15.9995Z" fill="#9EAAC7"/>
<path d="M9.28957 18.4238L15.1891 24.3233L21.0911 18.4214L24.5243 21.8498L24.5219 21.8522L15.1891 31.1873L5.85636 21.857L5.85156 21.8522L9.28957 18.4238Z" fill="#9EAAC7"/>
<path d="M23.5098 15.9995L26.9417 12.5676L30.3737 15.9995L26.9417 19.4315L23.5098 15.9995Z" fill="#9EAAC7"/>
<path d="M18.6705 15.9987L15.1894 12.5151L12.6151 15.0894L12.3176 15.3845L11.7082 15.9939L11.7034 15.9987L11.7082 16.0059L15.1894 19.4847L18.6705 16.0011L18.6729 15.9987H18.6705Z" fill="#9EAAC7"/>
<path d="M35.7285 8.17139H43.1947C45.0469 8.17139 46.448 8.65122 47.3981 9.61089C47.756 9.96538 48.0382 10.3889 48.2275 10.8558C48.4168 11.3226 48.5093 11.8231 48.4993 12.3267V12.3723C48.5057 12.7849 48.4483 13.1961 48.3289 13.5911C48.2226 13.9312 48.0683 14.2543 47.8707 14.5508C47.6864 14.8303 47.4635 15.0823 47.2085 15.2993C46.9594 15.5137 46.6865 15.6989 46.3952 15.8511C47.2353 16.1437 47.9907 16.638 48.5952 17.2906C49.1295 17.8984 49.3966 18.7381 49.3966 19.8097V19.8553C49.4117 20.5246 49.2661 21.1877 48.9719 21.7891C48.6868 22.3431 48.2689 22.8179 47.7555 23.171C47.1751 23.5601 46.5289 23.8405 45.8482 23.9987C45.0395 24.1905 44.2105 24.2831 43.3795 24.2746H35.7285V8.17139ZM42.4462 14.6827C43.0921 14.7139 43.735 14.575 44.3103 14.2797C44.5347 14.1486 44.7179 13.9573 44.8392 13.7275C44.9604 13.4977 45.0149 13.2385 44.9965 12.9793V12.9337C45.0084 12.6949 44.9599 12.4569 44.8555 12.2418C44.751 12.0267 44.5941 11.8414 44.3991 11.703C44.0008 11.4199 43.4258 11.2783 42.6741 11.2783H39.1809V14.6827H42.4462ZM43.3891 21.1725C44.0326 21.2085 44.6732 21.0613 45.2364 20.7478C45.4558 20.6068 45.6334 20.4096 45.7507 20.1767C45.868 19.9438 45.9207 19.6837 45.9034 19.4235V19.3779C45.912 19.1306 45.8599 18.8849 45.7516 18.6624C45.6432 18.4398 45.482 18.2473 45.282 18.1015C44.8693 17.7816 44.2024 17.6217 43.2811 17.6217H39.1809V21.1725H43.3891Z" fill="#9EAAC7"/>
<path d="M53.8447 8.17139H57.3883V24.2794H53.8447V8.17139Z" fill="#9EAAC7"/>
<path d="M62.75 8.17139H66.0177L73.5702 18.0847V8.17139H77.0682V24.2794H74.0525L66.2528 14.0397V24.2794H62.75V8.17139Z" fill="#9EAAC7"/>
<path d="M87.7974 8.0542H91.0602L97.9626 24.2774H94.2631L92.79 20.6642H85.9788L84.5057 24.2774H80.8926L87.7974 8.0542ZM91.5257 17.5357L89.3808 12.3103L87.2456 17.5357H91.5257Z" fill="#9EAAC7"/>
<path d="M101.794 8.17139H105.062L112.609 18.0847V8.17139H116.107V24.2794H113.092L105.292 14.0397V24.2794H101.794V8.17139Z" fill="#9EAAC7"/>
<path d="M128.862 24.5623C127.733 24.572 126.613 24.3533 125.57 23.9194C124.589 23.514 123.698 22.9163 122.951 22.1615C122.204 21.4066 121.616 20.5099 121.221 19.5241C120.804 18.493 120.593 17.3902 120.599 16.278V16.2324C120.581 14.0401 121.424 11.9283 122.948 10.3521C123.698 9.58213 124.595 8.97171 125.587 8.55751C126.666 8.11069 127.824 7.88786 128.991 7.90254C129.682 7.89738 130.371 7.95925 131.05 8.08727C131.631 8.19707 132.198 8.36672 132.744 8.5935C133.239 8.8019 133.71 9.06419 134.147 9.37562C134.574 9.67937 134.976 10.018 135.347 10.3881L133.094 12.9888C132.518 12.4577 131.873 12.008 131.175 11.6524C130.489 11.3246 129.737 11.1604 128.977 11.1726C128.345 11.1659 127.718 11.2937 127.139 11.5477C126.56 11.8017 126.042 12.176 125.618 12.6457C125.198 13.1142 124.87 13.6569 124.649 14.2459C124.418 14.8684 124.302 15.5277 124.306 16.1917V16.2372C124.304 16.9003 124.42 17.5584 124.649 18.1806C124.867 18.7717 125.192 19.3175 125.609 19.7904C126.029 20.266 126.546 20.6457 127.125 20.904C127.705 21.1623 128.333 21.2931 128.967 21.2875C129.775 21.3129 130.577 21.1391 131.302 20.7813C131.992 20.4052 132.63 19.9406 133.2 19.3993L135.455 21.6785C135.057 22.1107 134.626 22.5118 134.166 22.8781C133.715 23.235 133.225 23.54 132.705 23.7874C132.152 24.048 131.568 24.2406 130.968 24.3608C130.275 24.4998 129.569 24.5674 128.862 24.5623V24.5623Z" fill="#9EAAC7"/>
<path d="M139.637 8.17139H151.76V11.3239H143.123V14.5916H150.728V17.7441H143.135V21.1269H151.88V24.2794H139.644L139.637 8.17139Z" fill="#9EAAC7"/>
</g>
<defs>
<clipPath id="clip0_6675_62526">
<rect width="151.877" height="30.3758" fill="white" transform="translate(0 0.812012)"/>
</clipPath>
</defs>
</svg>
