<svg width="126" height="26" viewBox="0 0 126 26" fill="none" xmlns="http://www.w3.org/2000/svg">
<path d="M26.3899 16.1446C24.6406 23.0832 17.5589 27.3245 10.5124 25.5888C3.51344 23.8545 -0.764685 16.8339 0.986096 9.84804C2.73548 2.90943 9.8171 -1.33183 16.8637 0.40386C23.8626 2.13817 28.1407 9.15877 26.3899 16.1446Z" fill="#9EAAC7"/>
<path d="M19.4561 11.135C19.7155 9.40065 18.3866 8.46679 16.5727 7.85812L17.1559 5.51236L15.7303 5.15938L15.1472 7.43844L13.9809 7.18135L14.564 4.90229L13.1385 4.54932L12.5553 6.89508L11.6484 6.66995L9.68594 6.18774L9.29766 7.69692L10.335 7.95401C10.5362 7.97675 10.7204 8.07712 10.8476 8.23341C10.9748 8.3897 11.0349 8.58935 11.0148 8.7892L10.335 11.4574C10.3672 11.4574 10.4331 11.4893 10.4976 11.4893C10.4653 11.4893 10.3994 11.4574 10.335 11.4574L9.39578 15.1845C9.3313 15.3457 9.13646 15.6347 8.74818 15.5374C8.74818 15.5694 7.71088 15.2803 7.71088 15.2803L7.01001 16.9202L8.88835 17.3704L9.92564 17.6275L9.34252 19.9899L10.7681 20.3429L11.3512 17.9971L12.4726 18.2862L11.8895 20.632L13.3151 20.9849L13.8982 18.6225C16.3611 19.0728 18.1735 18.9115 18.9529 16.695C19.5697 14.9301 18.9207 13.9157 17.624 13.225C18.5969 13.0305 19.2781 12.4218 19.4715 11.1363L19.4561 11.135ZM16.183 15.7292C15.7289 17.4941 12.7488 16.5324 11.776 16.3073L12.5539 13.1597C13.5267 13.3848 16.6372 13.8545 16.1985 15.7306L16.183 15.7292ZM16.6372 11.135C16.2489 12.7414 13.7216 11.9382 12.9114 11.7131L13.6122 8.85451C14.4225 9.07964 17.0465 9.43262 16.626 11.1336L16.6372 11.135Z" fill="#F8F8FC"/>
<path d="M38.9629 7.85529C40.0324 7.85529 40.9253 8.04985 41.7173 8.40143C42.4953 8.78637 43.1429 9.26858 43.6293 9.9106C44.148 10.5526 44.504 11.2919 44.7507 12.1591C44.9887 13.0609 45.1084 13.9895 45.1067 14.9217C45.1124 16.3872 44.8261 17.8394 44.2643 19.1949C43.7342 20.4993 42.9529 21.6888 41.964 22.6969C40.9816 23.6941 39.8159 24.496 38.5297 25.0593C37.1702 25.6448 35.7016 25.9403 34.2194 25.9265H33.1821C32.6957 25.9265 32.1125 25.8625 31.4649 25.7653L29.424 25.3803C28.7231 25.2191 28.0307 24.9634 27.3831 24.6855L33.119 0.816654L38.2382 0.0134277L36.1972 8.49454C36.6514 8.29998 37.0719 8.14156 37.5261 8.04429C37.9896 7.91263 38.4696 7.84712 38.9517 7.84973L38.9629 7.85529ZM34.6539 21.927C35.4319 21.927 36.144 21.7325 36.8266 21.3809C37.5131 20.9965 38.1181 20.484 38.6082 19.8717C39.0947 19.2602 39.4829 18.5543 39.7745 17.7511C40.0661 16.9479 40.195 16.1446 40.195 15.2775C40.195 14.2172 40.0324 13.4153 39.6764 12.8039C39.3203 12.2258 38.6713 11.9048 37.7322 11.9048C37.4098 11.9048 37.0313 11.9687 36.5337 12.066C36.036 12.1632 35.5945 12.4189 35.2048 12.7608L33.0321 21.7561C33.1611 21.788 33.2914 21.788 33.3881 21.82C33.4849 21.852 33.5844 21.852 33.7105 21.8839C33.8087 21.8839 33.9699 21.9159 34.0988 21.9159H34.6497L34.6539 21.927ZM50.4656 25.5401H45.5595L49.6947 8.2444H54.6204L50.4656 25.5401ZM52.8318 6.13767C52.164 6.14649 51.5128 5.93098 50.9843 5.52622C50.4334 5.10932 50.1432 4.49787 50.1432 3.66407C50.1432 3.21382 50.2413 2.76496 50.4348 2.37863C50.6151 1.98254 50.868 1.62303 51.1805 1.31832C51.503 1.03511 51.8628 0.796681 52.2501 0.609594C52.6706 0.448393 53.0911 0.352505 53.5467 0.352505C54.2145 0.343685 54.8656 0.559194 55.3942 0.963957C55.9451 1.38086 56.2352 1.99231 56.2352 2.8261C56.2352 3.27636 56.1371 3.72522 55.9437 4.11154C55.7633 4.50763 55.5105 4.86714 55.1979 5.17185C54.9064 5.4609 54.5181 5.68603 54.1284 5.86668C53.7387 6.04734 53.3182 6.12377 52.8318 6.12377V6.13767ZM58.9238 3.95034L64.0766 3.14712L62.8122 8.25551H68.3211L67.316 12.2855H61.8394L60.3816 18.325C60.2633 18.7884 60.1873 19.2614 60.1545 19.7383C60.1237 20.1872 60.1867 20.5415 60.3171 20.85C60.3804 21.0141 60.4761 21.164 60.5987 21.291C60.7212 21.4179 60.868 21.5194 61.0306 21.5893C61.3866 21.7505 61.8716 21.8464 62.4884 21.8464C63.0071 21.8464 63.5257 21.7825 64.0303 21.6852C64.5387 21.5907 65.0375 21.4507 65.5204 21.2669L65.8764 25.026C65.1764 25.2717 64.4621 25.4754 63.7374 25.636C62.9594 25.8306 62.0525 25.8931 60.9829 25.8931C59.4606 25.8931 58.2916 25.668 57.4505 25.2191C56.6095 24.7703 56.025 24.1588 55.6703 23.3875C55.3157 22.6163 55.1517 21.7172 55.2161 20.7194C55.2484 19.723 55.4124 18.6627 55.6703 17.5232L58.9238 3.95034ZM68.094 18.6321C68.0963 17.2001 68.3374 15.7783 68.8075 14.4242C69.2705 13.1578 69.9743 11.9912 70.8807 10.9876C71.7876 9.9912 72.8894 9.22272 74.186 8.64184C75.4826 8.06096 76.9082 7.77469 78.4964 7.77469C79.5014 7.77469 80.3747 7.87197 81.1541 8.06374C81.9334 8.25552 82.6441 8.48064 83.2931 8.80304L81.6082 12.6246C81.1541 12.4301 80.7013 12.305 80.2485 12.1424C79.7621 11.9812 79.179 11.9173 78.4992 11.9173C76.8451 11.9173 75.5835 12.4634 74.6107 13.5876C73.6379 14.7119 73.1529 16.1891 73.1529 18.0846C73.1529 19.1963 73.4122 20.1079 73.8986 20.7833C74.385 21.4782 75.292 21.8117 76.59 21.8117C77.2111 21.8144 77.8306 21.7497 78.4375 21.6185C78.9801 21.5042 79.5115 21.3428 80.0257 21.1363L80.3817 25.0551L78.3408 25.6972C77.595 25.8917 76.6867 25.9862 75.6494 25.9862C74.2897 25.9862 73.1221 25.7917 72.1829 25.4081C71.2881 25.0451 70.4815 24.4975 69.8167 23.8017C69.1952 23.1333 68.7401 22.33 68.4879 21.4559C68.2254 20.5364 68.0947 19.5849 68.0996 18.6293L68.094 18.6321ZM89.8687 25.9765C88.7025 25.9765 87.6652 25.7819 86.8227 25.4623C85.9481 25.1093 85.2346 24.6285 84.6837 23.9851C84.1192 23.3239 83.6898 22.5603 83.4193 21.7366C83.1277 20.8695 82.9988 19.9051 82.9988 18.8781C82.9988 17.5607 83.2259 16.2433 83.6464 14.9273C84.0537 13.6405 84.7024 12.4416 85.5584 11.3934C86.3994 10.3331 87.4367 9.46591 88.6366 8.8225C89.8351 8.14851 91.2298 7.82611 92.8166 7.82611C93.8544 7.82015 94.8853 7.99416 95.8626 8.34029C96.7373 8.69326 97.4508 9.17408 98.0017 9.8175C98.5661 10.4787 98.9955 11.2423 99.266 12.066C99.5576 12.9331 99.6866 13.8975 99.6866 14.9245C99.6866 16.2419 99.4903 17.5593 99.0698 18.8753C98.6493 20.1913 98.0325 21.3809 97.2223 22.4092C96.4121 23.4695 95.3748 24.3047 94.1441 24.9801C92.9133 25.6555 91.4864 25.9765 89.8687 25.9765ZM92.3316 11.9062C91.6456 11.9063 90.9769 12.1197 90.4196 12.5162C89.8687 12.9331 89.4146 13.4473 89.0263 14.0907C88.638 14.7341 88.3787 15.4081 88.1852 16.1794C87.9918 16.9506 87.8937 17.6566 87.8937 18.3333C87.8937 19.4256 88.0899 20.2789 88.4123 20.9042C88.7684 21.5157 89.4174 21.8353 90.3243 21.8353C91.07 21.8353 91.684 21.6407 92.2363 21.2238C92.7886 20.8069 93.2413 20.2928 93.6296 19.6494C94.0179 19.0059 94.2772 18.332 94.4707 17.5607C94.6598 16.8579 94.7577 16.1341 94.7622 15.4067C94.7622 14.3144 94.5996 13.4612 94.2436 12.8358C93.8875 12.2105 93.2385 11.9048 92.3316 11.9048V11.9062ZM105.036 25.5248H100.13L104.279 8.24162H109.204L105.036 25.5248ZM107.402 6.12238C106.734 6.1312 106.083 5.9157 105.554 5.51093C105.003 5.09403 104.713 4.48258 104.713 3.64879C104.713 3.19854 104.811 2.74967 105.005 2.36335C105.185 1.96726 105.438 1.60774 105.751 1.30303C106.073 1.01982 106.433 0.781396 106.82 0.594308C107.241 0.433107 107.661 0.337219 108.117 0.337219C108.784 0.328399 109.436 0.543908 109.964 0.948671C110.515 1.36557 110.805 1.97702 110.805 2.81082C110.805 3.26107 110.707 3.70993 110.514 4.09626C110.333 4.49235 110.08 4.85186 109.768 5.15657C109.445 5.43978 109.086 5.67821 108.698 5.8653C108.309 6.05985 107.888 6.12238 107.402 6.12238ZM112.745 9.01288L113.976 8.62795L115.498 8.24301C116.118 8.10556 116.746 8.009 117.378 7.95396L119.744 7.82611C122.337 7.82611 124.118 8.56541 125.09 10.0746C126.063 11.5518 126.257 13.6085 125.609 16.178L123.341 25.4943H118.415L120.588 16.3711L120.91 14.7008C120.975 14.1546 120.975 13.7044 120.878 13.2875C120.798 12.8934 120.58 12.5402 120.261 12.2911C119.936 12.034 119.451 11.9062 118.771 11.9062C118.124 11.9062 117.475 11.9701 116.827 12.1007L113.603 25.4651H108.677L112.745 9.01288Z" fill="#9EAAC7"/>
</svg>
