<svg width="131" height="22" viewBox="0 0 131 22" fill="none" xmlns="http://www.w3.org/2000/svg">
<g clip-path="url(#clip0_6675_62552)">
<path d="M11.9035 0.803955H24.0921C24.0847 0.965169 24.029 1.12043 23.9322 1.24958C23.5196 1.95721 23.1483 2.69372 22.7429 3.40135C22.1693 4.41741 21.6329 5.45203 21.0501 6.46397C20.6808 7.19223 20.2641 7.8978 19.87 8.61368C17.5016 8.61368 15.1333 8.61368 12.7649 8.61368C12.6411 8.61368 12.5183 8.61987 12.3945 8.62709C12.2914 8.89941 12.1201 9.1377 11.9819 9.39352C11.8014 9.68647 11.6549 9.99903 11.4765 10.292C11.2877 10.686 11.0267 11.0388 10.8369 11.4318C10.4449 12.0972 10.0787 12.7728 9.69502 13.4454C9.29478 14.1331 8.90349 14.8304 8.52113 15.5373C8.35932 15.7879 8.21025 16.0464 8.07448 16.312C7.27298 17.7066 6.49727 19.1136 5.69474 20.5072C5.62667 20.657 5.537 20.7961 5.4286 20.9198C4.05667 20.9106 2.68473 20.9198 1.31279 20.9198C1.14382 20.9231 0.975844 20.9466 0.8125 20.99C0.8125 20.6104 1.06626 20.3061 1.23749 19.9873C1.4438 19.5593 1.71922 19.1621 1.92655 18.733C3.57081 15.7911 5.19754 12.8388 6.83664 9.89484C7.20799 9.25529 7.52674 8.60233 7.90015 7.97516C8.3664 7.14994 8.80068 6.30614 9.28653 5.4902C9.44126 5.14876 9.64963 4.83621 9.81983 4.50303C10.4243 3.42714 11.0174 2.34506 11.6199 1.26918C11.6913 1.10115 11.7869 0.944434 11.9035 0.803955Z" fill="#9EAAC7"/>
<path d="M26.0273 5.13471C26.8391 3.71636 27.6231 2.28253 28.4463 0.870361H32.8488C32.913 0.873605 32.9766 0.883633 33.0386 0.900276C32.8922 1.12206 32.7694 1.35724 32.6405 1.58831C31.5787 3.49389 30.52 5.4005 29.4644 7.30815C29.0208 8.08489 28.6082 8.87917 28.1585 9.65179L28.1141 9.66726L28.1059 9.76423C26.0359 13.4777 23.9729 17.194 21.9167 20.913C17.8751 20.9171 13.8332 20.9171 9.79102 20.913C10.021 20.4323 10.2934 19.9733 10.5492 19.506C11.7004 17.3893 12.8815 15.2912 14.0162 13.1745C16.4994 13.1703 18.9826 13.1703 21.4659 13.1745C22.9998 10.5028 24.5007 7.8105 26.0232 5.13471H26.0273Z" fill="#9EAAC7"/>
<path d="M71.4629 0.815674V21.1575H74.9876V6.85323L81.4172 16.2742L87.7951 6.62939V21.1575H91.423V0.815674H87.5207L81.443 10.2057L75.2971 0.815674H71.4629Z" fill="#9EAAC7"/>
<path d="M54.9766 6.06177H57.28V21.3284H54.9766V6.06177Z" fill="#9EAAC7"/>
<path d="M54.7781 0.405518H57.4776V2.96681H54.7781V0.405518Z" fill="#9EAAC7"/>
<path d="M61.6811 1.68677H64.0877V6.06149H68.8327V8.19367H64.0877V17.2629C64.0835 17.6124 64.1646 17.9576 64.3239 18.2686C64.7314 19.0423 65.8382 19.9603 68.8327 18.8876V20.864C68.8327 20.864 66.0992 22.4113 63.6235 21.0022C63.6235 21.0022 62.3939 20.4802 61.8771 18.7184C61.7429 18.2464 61.6769 17.7577 61.6811 17.267V8.15963L59.6521 8.19367V6.06149H61.6976L61.6811 1.68677Z" fill="#9EAAC7"/>
<path d="M95.1367 0.815674V21.2947H110.437V17.9938H98.8678V12.5607H109.062V9.31137H98.8502V4.1372H110.318V0.815674H95.1367Z" fill="#9EAAC7"/>
<path d="M111.873 0.815674H116.231L121.234 8.00545L126.198 0.815674H130.556L123.439 10.803L131 21.2771H126.409L121.252 13.6273L115.845 21.2947H111.486L118.939 10.8937L111.873 0.815674Z" fill="#9EAAC7"/>
<path d="M47.9272 10.6692C47.9272 10.6692 51.2973 9.39736 51.091 5.73542C51.091 5.73542 51.0631 2.21377 47.0979 1.12654C46.4386 0.949892 45.7586 0.862464 45.0761 0.866595H35.5664L35.5922 21.2084H45.8301C45.8301 21.2084 51.8213 21.0795 52.2432 15.7413C52.2432 15.7413 52.6723 12.0102 47.9272 10.6692ZM38.0245 2.96679H44.0941C48.8556 2.95029 48.7184 6.30276 48.7184 6.30276C48.7896 10.1277 44.42 10.0503 44.42 10.0503H38.0245V2.96679ZM45.4516 19.0587H38.0245V11.9762H45.1256C49.8872 11.9587 49.75 15.3111 49.75 15.3111C49.8211 19.136 45.4516 19.0587 45.4516 19.0587Z" fill="#9EAAC7"/>
</g>
<defs>
<clipPath id="clip0_6675_62552">
<rect width="130.188" height="21.1887" fill="white" transform="translate(0.8125 0.405518)"/>
</clipPath>
</defs>
</svg>
