<svg width="124" height="34" viewBox="0 0 124 34" fill="none" xmlns="http://www.w3.org/2000/svg">
<path d="M17.2002 33.5789C26.4361 33.5789 33.9233 26.1562 33.9233 16.9999C33.9233 7.84356 26.4361 0.420898 17.2002 0.420898C7.96426 0.420898 0.477051 7.84356 0.477051 16.9999C0.477051 26.1562 7.96426 33.5789 17.2002 33.5789Z" fill="#9EAAC7"/>
<path d="M18.9814 18.5299V18.5272C18.8658 18.5352 18.2689 18.5698 16.9408 18.5698C15.8788 18.5698 15.134 18.5405 14.8705 18.5272V18.5299C10.7865 18.3513 7.74035 17.6476 7.74035 16.8027C7.74035 15.9604 10.7892 15.254 14.8705 15.0755V17.8288C15.1367 17.8475 15.903 17.8928 16.9596 17.8928C18.2286 17.8928 18.8631 17.8395 18.9814 17.8288V15.0781C23.0574 15.2594 26.0955 15.963 26.0955 16.8053C26.0955 17.6476 23.0547 18.3513 18.9814 18.5325V18.5299ZM18.9814 14.7929V12.3301H24.6678V8.57446H9.18683V12.3301H14.8732V14.7929C10.2515 15.0035 6.77783 15.9097 6.77783 16.9972C6.77783 18.0847 10.2542 18.991 14.8732 19.2042V27.0992H18.9841V19.2042C23.5978 18.9936 27.0661 18.0874 27.0661 16.9999C27.0661 15.9151 23.5978 15.0062 18.9841 14.7956" fill="#F8F8FC"/>
<path d="M48.1269 9.60065V13.5828H52.0307V16.5708H48.1V22.6293C48.1 23.9674 48.8447 24.6204 49.9363 24.6204C50.4821 24.6204 51.1139 24.4498 51.6301 24.194L52.6061 27.1526C51.6032 27.5497 50.7698 27.7203 49.7078 27.7497C46.6374 27.8643 44.629 26.1291 44.629 22.6293V16.5708H41.9888V13.5828H44.629V9.97115L48.1269 9.60065ZM115.431 13.3962L115.689 15.0168C116.78 13.2816 118.243 13.0257 119.679 13.0257C121.141 13.0257 122.547 13.5935 123.322 14.3611L121.744 17.3758C121.026 16.7787 120.367 16.4642 119.219 16.4642C117.383 16.4642 115.689 17.4317 115.689 20.0199V27.4165H112.188V13.3909L115.431 13.3962ZM106.851 18.7724C106.623 16.9519 105.187 16.0404 103.179 16.0404C101.286 16.0404 99.7347 16.9519 99.2184 18.7724H106.851ZM99.162 21.6458C99.3905 23.381 100.912 24.6337 103.38 24.6337C104.671 24.6337 106.365 24.1486 107.169 23.325L109.406 25.516C107.913 27.0513 105.475 27.7923 103.321 27.7923C98.4441 27.7923 95.5431 24.8043 95.5431 20.3104C95.5431 16.043 98.471 12.9698 103.063 12.9698C107.798 12.9698 110.755 15.8724 110.209 21.6458H99.162ZM83.724 7.50562V15.2994C84.9877 13.6788 86.5363 13.1937 88.1441 13.1937C92.1609 13.1937 93.9407 15.8964 93.9407 20.0225V27.4191H90.4401V20.0519C90.4401 17.4904 89.0905 16.4109 87.2246 16.4109C85.157 16.4109 83.724 18.1461 83.724 20.2518V27.4218H80.2234V7.50828L83.724 7.50562ZM74.4268 9.44073V13.4229H78.3307V16.4109H74.3999V22.4694C74.3999 23.8075 75.1474 24.4605 76.2362 24.4605C76.782 24.4605 77.4138 24.2899 77.9301 24.034L78.906 26.9927C77.9032 27.3898 77.0697 27.5604 76.0077 27.5897C72.9373 27.7043 70.9289 25.9665 70.9289 22.4694V16.4109H68.2887V13.4229H70.9289V9.81122L74.4268 9.44073ZM64.7559 18.7724C64.5274 16.9519 63.0916 16.0404 61.0833 16.0404C59.1905 16.0404 57.6391 16.9519 57.1229 18.7724H64.7559ZM57.0665 21.6458C57.295 23.381 58.8168 24.6337 61.2849 24.6337C62.5754 24.6337 64.2693 24.1486 65.0731 23.325L67.3101 25.516C65.8179 27.0513 63.3793 27.7923 61.2257 27.7923C56.3459 27.7923 53.4476 24.8043 53.4476 20.3104C53.4476 16.043 56.3755 12.9698 60.965 12.9698C65.6996 12.9698 68.6544 15.8724 68.1113 21.6458H57.0665Z" fill="#9EAAC7"/>
</svg>
