<svg width="212" height="71" viewBox="0 0 212 71" fill="none" xmlns="http://www.w3.org/2000/svg">
<g clip-path="url(#clip0_6448_38778)">
<path d="M194.653 0.000114493C194.653 0.000177726 194.653 0.000228986 194.653 0.000228986H16.9551C16.3074 0.000228986 15.6674 0.000228986 15.0214 0.00375185C14.4806 0.00727471 13.9442 0.0175086 13.3982 0.026122C12.2121 0.0400405 11.0288 0.144096 9.85856 0.337385C8.68997 0.534881 7.55798 0.907218 6.50089 1.4418C5.44509 1.98091 4.48037 2.68142 3.64174 3.51793C2.79871 4.35209 2.09597 5.31626 1.56056 6.37337C1.02367 7.42838 0.651391 8.55892 0.456577 9.72594C0.25991 10.8915 0.154082 12.0705 0.140042 13.2523C0.12365 13.7924 0.121919 14.3342 0.113281 14.8744V55.5886C0.121919 56.1355 0.12365 56.6653 0.140042 57.2124C0.154086 58.3942 0.259914 59.5731 0.456577 60.7386C0.650853 61.9063 1.02316 63.0375 1.56056 64.0929C2.09573 65.1466 2.79856 66.1069 3.64174 66.9364C4.47719 67.7766 5.44253 68.4776 6.50089 69.0126C7.55797 69.5486 8.68984 69.9232 9.85856 70.1237C11.029 70.3155 12.2122 70.4196 13.3982 70.4351C13.9442 70.4471 14.4806 70.454 15.0214 70.454C15.6674 70.4575 16.3074 70.4575 16.9551 70.4575H194.653C195.288 70.4575 195.933 70.4575 196.568 70.454C197.106 70.454 197.658 70.4471 198.196 70.4351C199.38 70.4204 200.561 70.3163 201.729 70.1237C202.901 69.9218 204.037 69.5473 205.099 69.0126C206.157 68.4773 207.121 67.7763 207.956 66.9364C208.797 66.1036 209.501 65.1441 210.043 64.0929C210.576 63.0368 210.945 61.9057 211.137 60.7386C211.334 59.573 211.443 58.3943 211.464 57.2124C211.471 56.6653 211.471 56.1355 211.471 55.5886C211.485 54.9486 211.485 54.3122 211.485 53.6619V16.7975C211.485 16.1524 211.485 15.5125 211.471 14.8744C211.471 14.3342 211.471 13.7924 211.464 13.2523C211.443 12.0703 211.334 10.8916 211.137 9.72587C210.945 8.55952 210.576 7.42907 210.043 6.3733C208.953 4.25443 207.224 2.52969 205.099 1.44164C204.037 0.908366 202.901 0.536128 201.729 0.337226C200.561 0.143086 199.38 0.0389942 198.196 0.0258754C197.658 0.0172796 197.106 0.00695766 196.568 0.00352286C195.933 2.11659e-07 195.288 0 194.653 0C194.653 0 194.653 5.12603e-05 194.653 0.000114493Z" fill="#24345D"/>
<path d="M15.029 68.9177C14.4908 68.9177 13.9656 68.9109 13.4317 68.8989C12.3255 68.8845 11.222 68.7885 10.1301 68.6116C9.1119 68.4367 8.12558 68.1115 7.20363 67.6465C6.29014 67.1854 5.45696 66.5808 4.73601 65.8558C4.00462 65.1394 3.39571 64.3085 2.9334 63.396C2.466 62.4776 2.14253 61.4931 1.97426 60.477C1.79254 59.3851 1.69422 58.281 1.68016 57.1743C1.66979 56.8304 1.65646 55.7453 1.65453 55.5856C1.65437 55.572 1.6543 55.5591 1.6543 55.5455V14.898C1.6543 14.8832 1.65438 14.8692 1.65457 14.8545C1.65671 14.6906 1.67072 13.63 1.68025 13.3002C1.69372 12.1952 1.79146 11.0928 1.97263 10.0027C2.14121 8.9837 2.46493 7.99641 2.93259 7.07497C3.3932 6.16311 3.99873 5.33156 4.72571 4.61258C5.45187 3.88677 6.28772 3.27904 7.20277 2.81157C8.1226 2.34811 9.10706 2.02513 10.1232 1.85346C11.2187 1.67479 12.326 1.57819 13.436 1.56448L15.0298 1.54297H196.558L198.171 1.56534C199.271 1.57837 200.368 1.67411 201.453 1.85173C202.48 2.02556 203.474 2.35079 204.405 2.81673C206.238 3.75883 207.73 5.24931 208.671 7.07927C209.131 7.99435 209.449 8.97358 209.616 9.98373C209.799 11.0829 209.902 12.1939 209.923 13.3079C209.928 13.8068 209.928 14.3426 209.928 14.8758C209.942 15.5364 209.942 16.1651 209.942 16.799V53.6634C209.942 54.3033 209.942 54.9277 209.928 55.5573C209.928 56.1301 209.928 56.6548 209.921 57.1949C209.901 58.289 209.8 59.3802 209.619 60.4597C209.454 61.4832 209.133 62.4753 208.665 63.4013C208.2 64.3039 207.594 65.1276 206.872 65.8421C206.15 66.571 205.315 67.1791 204.4 67.6432C203.472 68.1117 202.479 68.4382 201.453 68.6116C200.361 68.7894 199.258 68.8855 198.152 68.8989C197.634 68.9109 197.093 68.9177 196.566 68.9177L194.652 68.9213L15.029 68.9177Z" fill="#24345D"/>
<path d="M43.8622 35.7473C43.8812 34.2771 44.2728 32.8356 45.0006 31.5569C45.7284 30.2782 46.7688 29.2038 48.0248 28.4338C47.2269 27.2974 46.1742 26.3621 44.9504 25.7024C43.7266 25.0426 42.3654 24.6765 40.9749 24.6332C38.0087 24.3227 35.1332 26.4031 33.6217 26.4031C32.0809 26.4031 29.7537 24.664 27.2477 24.7154C25.6267 24.7676 24.047 25.2377 22.6624 26.0797C21.2777 26.9218 20.1355 28.1072 19.3468 29.5203C15.9307 35.4184 18.4788 44.0865 21.7512 48.854C23.3885 51.1885 25.302 53.7962 27.8057 53.7037C30.2558 53.6024 31.1708 52.1458 34.1283 52.1458C37.0583 52.1458 37.9168 53.7037 40.4713 53.6449C43.1004 53.6024 44.7568 51.3 46.3366 48.9434C47.513 47.28 48.4182 45.4415 49.0187 43.4962C47.4913 42.852 46.1879 41.7736 45.2709 40.3957C44.3539 39.0177 43.864 37.4011 43.8622 35.7473Z" fill="url(#paint0_linear_6448_38778)"/>
<path d="M39.0374 21.5001C40.4708 19.784 41.1771 17.5784 41.006 15.3516C38.816 15.5809 36.7931 16.6247 35.3402 18.2749C34.6299 19.081 34.0859 20.0188 33.7392 21.0348C33.3926 22.0507 33.2501 23.1248 33.32 24.1957C34.4154 24.207 35.4991 23.9702 36.4894 23.5033C37.4798 23.0363 38.351 22.3514 39.0374 21.5001Z" fill="url(#paint1_linear_6448_38778)"/>
<path d="M75.785 50.082H68.1732L66.3452 55.4645H63.1211L70.3309 35.5508H73.6807L80.8905 55.4645H77.6114L75.785 50.082ZM68.9615 47.5983H74.9952L72.0208 38.863H71.9375L68.9615 47.5983Z" fill="url(#paint2_linear_6448_38778)"/>
<path d="M96.4607 48.2038C96.4607 52.7155 94.0391 55.6143 90.3847 55.6143C89.459 55.6625 88.5383 55.4499 87.7282 55.0007C86.918 54.5514 86.2511 53.8838 85.8038 53.0741H85.7346V60.2654H82.7461V40.9437H85.6389V43.3585H85.6938C86.1617 42.5527 86.8399 41.8885 87.6563 41.4365C88.4726 40.9846 89.3965 40.7617 90.3298 40.7917C94.0249 40.7918 96.4607 43.7046 96.4607 48.2038ZM93.3889 48.2038C93.3889 45.2644 91.8656 43.3319 89.5414 43.3319C87.258 43.3319 85.7221 45.3051 85.7221 48.2038C85.7221 51.1291 87.258 53.0883 89.5414 53.0883C91.8656 53.0883 93.3889 51.1699 93.3889 48.2038Z" fill="url(#paint3_linear_6448_38778)"/>
<path d="M112.486 48.2038C112.486 52.7155 110.064 55.6142 106.41 55.6142C105.484 55.6625 104.564 55.4499 103.754 55.0007C102.943 54.5514 102.276 53.8838 101.829 53.0741H101.76V60.2653H98.7715V40.9436H101.664V43.3585H101.719C102.187 42.5527 102.865 41.8885 103.682 41.4365C104.498 40.9846 105.422 40.7617 106.355 40.7917C110.05 40.7917 112.486 43.7046 112.486 48.2038ZM109.414 48.2038C109.414 45.2643 107.891 43.3318 105.567 43.3318C103.283 43.3318 101.747 45.305 101.747 48.2038C101.747 51.1291 103.283 53.0882 105.567 53.0882C107.891 53.0882 109.414 51.1698 109.414 48.2038H109.414Z" fill="url(#paint4_linear_6448_38778)"/>
<path d="M123.077 49.9161C123.298 51.8908 125.222 53.1874 127.851 53.1874C130.37 53.1874 132.182 51.8908 132.182 50.1102C132.182 48.5645 131.089 47.639 128.501 47.0047L125.913 46.383C122.246 45.4998 120.544 43.7897 120.544 41.0146C120.544 37.5788 123.546 35.2188 127.81 35.2188C132.03 35.2188 134.923 37.5788 135.02 41.0146H132.003C131.823 39.0273 130.175 37.8278 127.768 37.8278C125.36 37.8278 123.713 39.0415 123.713 40.8079C123.713 42.2158 124.765 43.0442 127.339 43.6784L129.539 44.2171C133.636 45.1834 135.339 46.8246 135.339 49.7374C135.339 53.463 132.363 55.7964 127.629 55.7964C123.201 55.7964 120.211 53.5178 120.018 49.9159L123.077 49.9161Z" fill="url(#paint5_linear_6448_38778)"/>
<path d="M141.788 37.5078V40.9437H144.556V43.3037H141.788V51.3077C141.788 52.5511 142.342 53.1306 143.559 53.1306C143.888 53.1249 144.216 53.1018 144.542 53.0616V55.4075C143.995 55.5095 143.439 55.5557 142.882 55.5453C139.934 55.5453 138.785 54.4413 138.785 51.6256V43.3037H136.668V40.9437H138.785V37.5078H141.788Z" fill="url(#paint6_linear_6448_38778)"/>
<path d="M146.158 48.2043C146.158 43.6362 148.856 40.7656 153.063 40.7656C157.285 40.7656 159.97 43.6361 159.97 48.2043C159.97 52.7849 157.299 55.6429 153.063 55.6429C148.829 55.6429 146.158 52.7849 146.158 48.2043ZM156.925 48.2043C156.925 45.0707 155.485 43.2212 153.063 43.2212C150.642 43.2212 149.203 45.0847 149.203 48.2043C149.203 51.3504 150.642 53.1858 153.063 53.1858C155.485 53.1858 156.925 51.3504 156.925 48.2043H156.925Z" fill="url(#paint7_linear_6448_38778)"/>
<path d="M162.436 40.9435H165.286V43.4147H165.355C165.548 42.6429 166.001 41.9608 166.639 41.4831C167.277 41.0054 168.06 40.7612 168.857 40.7916C169.201 40.7904 169.545 40.8277 169.881 40.9028V43.6903C169.446 43.5578 168.993 43.497 168.538 43.5102C168.104 43.4927 167.671 43.569 167.269 43.734C166.868 43.899 166.506 44.1487 166.211 44.4661C165.915 44.7834 165.691 45.1608 165.556 45.5724C165.42 45.984 165.375 46.4201 165.424 46.8506V55.4622H162.436L162.436 40.9435Z" fill="url(#paint8_linear_6448_38778)"/>
<path d="M183.659 51.1985C183.257 53.8342 180.683 55.6429 177.39 55.6429C173.154 55.6429 170.525 52.8131 170.525 48.2732C170.525 43.7192 173.168 40.7656 177.264 40.7656C181.292 40.7656 183.825 43.525 183.825 47.9271V48.9482H173.542V49.1282C173.495 49.6626 173.562 50.2008 173.739 50.7073C173.916 51.2138 174.199 51.6769 174.57 52.0659C174.94 52.4548 175.389 52.7607 175.888 52.9633C176.386 53.1658 176.921 53.2604 177.459 53.2406C178.165 53.3066 178.874 53.1435 179.48 52.7756C180.085 52.4076 180.556 51.8545 180.821 51.1985L183.659 51.1985ZM173.556 46.8653H180.835C180.862 46.3849 180.789 45.9041 180.621 45.4532C180.452 45.0022 180.192 44.5908 179.857 44.2448C179.522 43.8988 179.118 43.6256 178.672 43.4425C178.226 43.2593 177.747 43.1701 177.264 43.1804C176.777 43.1776 176.295 43.2708 175.845 43.4548C175.394 43.6388 174.985 43.9099 174.64 44.2525C174.296 44.5951 174.022 45.0024 173.836 45.4508C173.65 45.8993 173.555 46.38 173.556 46.8653V46.8653Z" fill="url(#paint9_linear_6448_38778)"/>
<path d="M66.6744 15.3432C67.317 15.2972 67.962 15.394 68.5626 15.6266C69.1632 15.8593 69.7046 16.222 70.1476 16.6885C70.5906 17.1551 70.9243 17.7138 71.1246 18.3246C71.3249 18.9353 71.3867 19.5827 71.3057 20.2201C71.3057 23.3558 69.6062 25.1582 66.6744 25.1582H63.1191V15.3432H66.6744ZM64.6479 23.7701H66.5036C66.9628 23.7975 67.4224 23.7224 67.8489 23.5504C68.2754 23.3783 68.658 23.1135 68.9689 22.7754C69.2799 22.4372 69.5113 22.0342 69.6463 21.5956C69.7813 21.1571 69.8166 20.694 69.7495 20.2401C69.8117 19.788 69.7729 19.3278 69.6358 18.8925C69.4987 18.4571 69.2667 18.0574 68.9565 17.722C68.6463 17.3865 68.2655 17.1236 67.8414 16.9522C67.4173 16.7807 66.9605 16.7049 66.5036 16.7302H64.6479V23.7701Z" fill="url(#paint10_linear_6448_38778)"/>
<path d="M73.0322 21.4486C72.9855 20.9619 73.0413 20.4708 73.1961 20.0068C73.3509 19.5428 73.6013 19.1162 73.9311 18.7543C74.2609 18.3925 74.6629 18.1034 75.1113 17.9055C75.5598 17.7077 76.0447 17.6055 76.5351 17.6055C77.0254 17.6055 77.5104 17.7077 77.9588 17.9055C78.4072 18.1034 78.8093 18.3925 79.1391 18.7543C79.4689 19.1162 79.7192 19.5428 79.874 20.0068C80.0288 20.4708 80.0846 20.9619 80.0379 21.4486C80.0855 21.9359 80.0303 22.4277 79.876 22.8924C79.7216 23.3572 79.4714 23.7846 79.1415 24.1471C78.8116 24.5097 78.4093 24.7994 77.9604 24.9977C77.5115 25.196 77.026 25.2984 76.5351 25.2984C76.0441 25.2984 75.5586 25.196 75.1097 24.9977C74.6608 24.7994 74.2585 24.5097 73.9286 24.1471C73.5987 23.7846 73.3486 23.3572 73.1942 22.8924C73.0398 22.4277 72.9846 21.9359 73.0322 21.4486ZM78.5301 21.4486C78.5301 19.8431 77.8068 18.9042 76.5375 18.9042C75.2633 18.9042 74.5465 19.8431 74.5465 21.4487C74.5465 23.0671 75.2633 23.9988 76.5375 23.9988C77.8069 23.9988 78.5302 23.0606 78.5302 21.4486H78.5301Z" fill="url(#paint11_linear_6448_38778)"/>
<path d="M89.3518 25.157H87.8312L86.296 19.7017H86.18L84.6513 25.157H83.1451L81.0977 17.75H82.5845L83.9151 23.402H84.0247L85.5518 17.75H86.9581L88.4852 23.402H88.6012L89.9253 17.75H91.3912L89.3518 25.157Z" fill="url(#paint12_linear_6448_38778)"/>
<path d="M93.1133 17.7557H94.5244V18.9324H94.634C94.8198 18.5098 95.1332 18.1555 95.5305 17.919C95.9279 17.6824 96.3893 17.5754 96.8505 17.6128C97.212 17.5857 97.5749 17.64 97.9124 17.7718C98.2499 17.9035 98.5533 18.1093 98.8002 18.3739C99.0471 18.6385 99.2312 18.955 99.3387 19.3002C99.4463 19.6453 99.4746 20.0102 99.4215 20.3677V25.1627H97.9556V20.7348C97.9556 19.5445 97.4369 18.9525 96.3528 18.9525C96.1074 18.9411 95.8624 18.9827 95.6347 19.0746C95.407 19.1664 95.2019 19.3063 95.0334 19.4846C94.8649 19.6628 94.7371 19.8753 94.6587 20.1075C94.5803 20.3396 94.5532 20.586 94.5792 20.8295V25.1627H93.1133L93.1133 17.7557Z" fill="url(#paint13_linear_6448_38778)"/>
<path d="M101.756 14.8594H103.222V25.1579H101.756V14.8594Z" fill="url(#paint14_linear_6448_38778)"/>
<path d="M105.261 21.4488C105.214 20.962 105.27 20.4708 105.425 20.0068C105.58 19.5428 105.83 19.1162 106.16 18.7544C106.49 18.3925 106.892 18.1034 107.34 17.9055C107.789 17.7077 108.274 17.6055 108.764 17.6055C109.254 17.6055 109.739 17.7077 110.188 17.9055C110.636 18.1034 111.038 18.3925 111.368 18.7544C111.698 19.1162 111.948 19.5428 112.103 20.0068C112.258 20.4708 112.314 20.962 112.267 21.4488C112.315 21.9361 112.26 22.4279 112.105 22.8926C111.951 23.3573 111.7 23.7847 111.37 24.1473C111.041 24.5098 110.638 24.7995 110.189 24.9978C109.74 25.1961 109.255 25.2985 108.764 25.2985C108.273 25.2985 107.787 25.1961 107.339 24.9978C106.89 24.7995 106.487 24.5098 106.157 24.1473C105.827 23.7847 105.577 23.3573 105.423 22.8926C105.268 22.4279 105.213 21.9361 105.261 21.4488ZM110.759 21.4488C110.759 19.8432 110.035 18.9043 108.766 18.9043C107.492 18.9043 106.775 19.8432 106.775 21.4488C106.775 23.0672 107.492 23.9989 108.766 23.9989C110.035 23.9989 110.759 23.0608 110.759 21.4488H110.759Z" fill="url(#paint15_linear_6448_38778)"/>
<path d="M113.811 23.0607C113.811 21.7274 114.806 20.9588 116.573 20.8495L118.585 20.7339V20.0945C118.585 19.3122 118.067 18.8705 117.065 18.8705C116.246 18.8705 115.679 19.1701 115.516 19.6938H114.097C114.247 18.4215 115.447 17.6055 117.132 17.6055C118.994 17.6055 120.045 18.5299 120.045 20.0945V25.1554H118.634V24.1145H118.518C118.282 24.4879 117.952 24.7923 117.56 24.9966C117.168 25.2009 116.728 25.2978 116.286 25.2775C115.975 25.3098 115.66 25.2766 115.361 25.1801C115.063 25.0835 114.789 24.9257 114.555 24.7169C114.322 24.508 114.135 24.2527 114.007 23.9675C113.879 23.6822 113.812 23.3733 113.811 23.0607ZM118.585 22.4278V21.8085L116.771 21.9242C115.748 21.9925 115.284 22.3394 115.284 22.9924C115.284 23.6591 115.864 24.047 116.662 24.047C116.896 24.0706 117.132 24.0471 117.356 23.9778C117.58 23.9086 117.788 23.7951 117.968 23.644C118.147 23.4929 118.294 23.3074 118.4 23.0985C118.507 22.8895 118.569 22.6614 118.585 22.4278Z" fill="url(#paint16_linear_6448_38778)"/>
<path d="M121.969 21.4512C121.969 19.1107 123.175 17.628 125.052 17.628C125.516 17.6067 125.977 17.7175 126.38 17.9477C126.784 18.1778 127.113 18.5176 127.33 18.9275H127.439V14.8594H128.905V25.1579H127.501V23.9876H127.385C127.151 24.3947 126.81 24.7303 126.399 24.9581C125.988 25.1859 125.522 25.2972 125.052 25.2799C123.162 25.28 121.969 23.7973 121.969 21.4512ZM123.483 21.4512C123.483 23.0222 124.226 23.9676 125.468 23.9676C126.703 23.9676 127.467 23.0086 127.467 21.4576C127.467 19.9139 126.695 18.9412 125.468 18.9412C124.234 18.9412 123.483 19.893 123.483 21.4512H123.483Z" fill="url(#paint17_linear_6448_38778)"/>
<path d="M134.974 21.4486C134.927 20.9619 134.983 20.4708 135.138 20.0068C135.292 19.5428 135.543 19.1162 135.872 18.7543C136.202 18.3925 136.604 18.1034 137.053 17.9055C137.501 17.7077 137.986 17.6055 138.476 17.6055C138.967 17.6055 139.452 17.7077 139.9 17.9055C140.349 18.1034 140.751 18.3925 141.08 18.7543C141.41 19.1162 141.661 19.5428 141.815 20.0068C141.97 20.4708 142.026 20.9619 141.979 21.4486C142.027 21.9359 141.972 22.4277 141.817 22.8924C141.663 23.3572 141.413 23.7846 141.083 24.1471C140.753 24.5097 140.351 24.7994 139.902 24.9977C139.453 25.196 138.967 25.2984 138.476 25.2984C137.986 25.2984 137.5 25.196 137.051 24.9977C136.602 24.7994 136.2 24.5097 135.87 24.1471C135.54 23.7846 135.29 23.3572 135.136 22.8924C134.981 22.4277 134.926 21.9359 134.974 21.4486ZM140.472 21.4486C140.472 19.8431 139.748 18.9042 138.479 18.9042C137.205 18.9042 136.488 19.8431 136.488 21.4487C136.488 23.0671 137.205 23.9988 138.479 23.9988C139.748 23.9988 140.472 23.0606 140.472 21.4486Z" fill="url(#paint18_linear_6448_38778)"/>
<path d="M143.945 17.7557H145.356V18.9324H145.466C145.652 18.5098 145.965 18.1555 146.363 17.919C146.76 17.6824 147.221 17.5754 147.683 17.6128C148.044 17.5857 148.407 17.64 148.744 17.7718C149.082 17.9035 149.385 18.1093 149.632 18.3739C149.879 18.6385 150.063 18.955 150.171 19.3002C150.278 19.6453 150.307 20.0102 150.254 20.3677V25.1627H148.788V20.7348C148.788 19.5445 148.269 18.9525 147.185 18.9525C146.939 18.9411 146.694 18.9827 146.467 19.0746C146.239 19.1664 146.034 19.3063 145.865 19.4846C145.697 19.6628 145.569 19.8753 145.491 20.1075C145.412 20.3396 145.385 20.586 145.411 20.8295V25.1627H143.945V17.7557Z" fill="url(#paint19_linear_6448_38778)"/>
<path d="M158.535 15.9062V17.7841H160.145V19.0154H158.535V22.8241C158.535 23.6 158.856 23.9397 159.586 23.9397C159.772 23.9391 159.959 23.9279 160.145 23.906V25.1236C159.881 25.1706 159.615 25.1956 159.347 25.1983C157.717 25.1983 157.068 24.6264 157.068 23.1984V19.0153H155.889V17.784H157.068V15.9062H158.535Z" fill="url(#paint20_linear_6448_38778)"/>
<path d="M162.146 14.8594H163.6V18.9412H163.715C163.91 18.5146 164.232 18.1583 164.638 17.9209C165.043 17.6835 165.512 17.5764 165.98 17.6143C166.34 17.5948 166.699 17.6547 167.033 17.7896C167.367 17.9246 167.666 18.1313 167.911 18.395C168.155 18.6588 168.338 18.9731 168.446 19.3154C168.555 19.6578 168.586 20.0198 168.538 20.3757V25.1579H167.071V20.7363C167.071 19.5532 166.518 18.954 165.483 18.954C165.231 18.9334 164.977 18.968 164.74 19.0552C164.503 19.1425 164.288 19.2804 164.11 19.4592C163.932 19.6381 163.795 19.8536 163.709 20.0907C163.623 20.3278 163.59 20.5808 163.612 20.8319V25.1578H162.147L162.146 14.8594Z" fill="url(#paint21_linear_6448_38778)"/>
<path d="M177.086 23.1556C176.887 23.8326 176.455 24.4181 175.867 24.8099C175.278 25.2016 174.571 25.3746 173.867 25.2985C173.378 25.3114 172.891 25.2179 172.442 25.0246C171.992 24.8313 171.591 24.5427 171.264 24.179C170.938 23.8152 170.694 23.385 170.551 22.9181C170.408 22.4512 170.369 21.9589 170.436 21.4754C170.371 20.9903 170.411 20.4969 170.554 20.0287C170.696 19.5604 170.938 19.1282 171.263 18.7612C171.588 18.3943 171.988 18.1012 172.436 17.9018C172.884 17.7024 173.37 17.6014 173.861 17.6056C175.927 17.6056 177.174 19.0137 177.174 21.3396V21.8497H171.929V21.9316C171.906 22.2034 171.941 22.477 172.03 22.7348C172.119 22.9927 172.261 23.2291 172.448 23.4289C172.634 23.6286 172.86 23.7874 173.111 23.895C173.363 24.0026 173.634 24.0566 173.907 24.0535C174.258 24.0955 174.613 24.0326 174.928 23.8727C175.243 23.7128 175.503 23.4631 175.675 23.1556L177.086 23.1556ZM171.929 20.7685H175.681C175.699 20.52 175.666 20.2703 175.582 20.0355C175.497 19.8007 175.365 19.5861 175.193 19.4054C175.021 19.2247 174.813 19.0819 174.582 18.9862C174.351 18.8905 174.103 18.844 173.853 18.8497C173.599 18.8466 173.347 18.894 173.113 18.9893C172.878 19.0847 172.664 19.2259 172.485 19.4047C172.306 19.5835 172.164 19.7963 172.069 20.0306C171.973 20.2648 171.926 20.5157 171.929 20.7685H171.929Z" fill="url(#paint22_linear_6448_38778)"/>
</g>
<defs>
<linearGradient id="paint0_linear_6448_38778" x1="15.2986" y1="23.1052" x2="20.7153" y2="57.9355" gradientUnits="userSpaceOnUse">
<stop stop-color="white"/>
<stop offset="0.649305" stop-color="#FBFCFF"/>
<stop offset="1" stop-color="#EDF1FF"/>
</linearGradient>
<linearGradient id="paint1_linear_6448_38778" x1="32.7036" y1="14.8968" x2="34.7048" y2="25.3544" gradientUnits="userSpaceOnUse">
<stop stop-color="white"/>
<stop offset="0.649305" stop-color="#FBFCFF"/>
<stop offset="1" stop-color="#EDF1FF"/>
</linearGradient>
<linearGradient id="paint2_linear_6448_38778" x1="61.7436" y1="34.5269" x2="66.1623" y2="58.1067" gradientUnits="userSpaceOnUse">
<stop stop-color="white"/>
<stop offset="0.649305" stop-color="#FBFCFF"/>
<stop offset="1" stop-color="#EDF1FF"/>
</linearGradient>
<linearGradient id="paint3_linear_6448_38778" x1="81.6829" y1="39.7877" x2="87.049" y2="62.3851" gradientUnits="userSpaceOnUse">
<stop stop-color="white"/>
<stop offset="0.649305" stop-color="#FBFCFF"/>
<stop offset="1" stop-color="#EDF1FF"/>
</linearGradient>
<linearGradient id="paint4_linear_6448_38778" x1="97.7083" y1="39.7877" x2="103.074" y2="62.3851" gradientUnits="userSpaceOnUse">
<stop stop-color="white"/>
<stop offset="0.649305" stop-color="#FBFCFF"/>
<stop offset="1" stop-color="#EDF1FF"/>
</linearGradient>
<linearGradient id="paint5_linear_6448_38778" x1="118.83" y1="34.1608" x2="124.222" y2="58.1712" gradientUnits="userSpaceOnUse">
<stop stop-color="white"/>
<stop offset="0.649305" stop-color="#FBFCFF"/>
<stop offset="1" stop-color="#EDF1FF"/>
</linearGradient>
<linearGradient id="paint6_linear_6448_38778" x1="136.056" y1="36.5804" x2="143.432" y2="55.8697" gradientUnits="userSpaceOnUse">
<stop stop-color="white"/>
<stop offset="0.649305" stop-color="#FBFCFF"/>
<stop offset="1" stop-color="#EDF1FF"/>
</linearGradient>
<linearGradient id="paint7_linear_6448_38778" x1="145.087" y1="40.0007" x2="148.269" y2="57.6625" gradientUnits="userSpaceOnUse">
<stop stop-color="white"/>
<stop offset="0.649305" stop-color="#FBFCFF"/>
<stop offset="1" stop-color="#EDF1FF"/>
</linearGradient>
<linearGradient id="paint8_linear_6448_38778" x1="161.858" y1="40.0347" x2="167.204" y2="56.2574" gradientUnits="userSpaceOnUse">
<stop stop-color="white"/>
<stop offset="0.649305" stop-color="#FBFCFF"/>
<stop offset="1" stop-color="#EDF1FF"/>
</linearGradient>
<linearGradient id="paint9_linear_6448_38778" x1="169.494" y1="40.0007" x2="172.79" y2="57.6191" gradientUnits="userSpaceOnUse">
<stop stop-color="white"/>
<stop offset="0.649305" stop-color="#FBFCFF"/>
<stop offset="1" stop-color="#EDF1FF"/>
</linearGradient>
<linearGradient id="paint10_linear_6448_38778" x1="62.4818" y1="14.8268" x2="64.7964" y2="26.4079" gradientUnits="userSpaceOnUse">
<stop stop-color="white"/>
<stop offset="0.649305" stop-color="#FBFCFF"/>
<stop offset="1" stop-color="#EDF1FF"/>
</linearGradient>
<linearGradient id="paint11_linear_6448_38778" x1="72.47" y1="17.2099" x2="74.1374" y2="26.3342" gradientUnits="userSpaceOnUse">
<stop stop-color="white"/>
<stop offset="0.649305" stop-color="#FBFCFF"/>
<stop offset="1" stop-color="#EDF1FF"/>
</linearGradient>
<linearGradient id="paint12_linear_6448_38778" x1="80.2997" y1="17.3692" x2="81.3765" y2="26.3182" gradientUnits="userSpaceOnUse">
<stop stop-color="white"/>
<stop offset="0.649305" stop-color="#FBFCFF"/>
<stop offset="1" stop-color="#EDF1FF"/>
</linearGradient>
<linearGradient id="paint13_linear_6448_38778" x1="92.6222" y1="17.2169" x2="94.3994" y2="26.1251" gradientUnits="userSpaceOnUse">
<stop stop-color="white"/>
<stop offset="0.649305" stop-color="#FBFCFF"/>
<stop offset="1" stop-color="#EDF1FF"/>
</linearGradient>
<linearGradient id="paint14_linear_6448_38778" x1="101.642" y1="14.3299" x2="107.873" y2="19.6335" gradientUnits="userSpaceOnUse">
<stop stop-color="white"/>
<stop offset="0.649305" stop-color="#FBFCFF"/>
<stop offset="1" stop-color="#EDF1FF"/>
</linearGradient>
<linearGradient id="paint15_linear_6448_38778" x1="104.698" y1="17.2099" x2="106.366" y2="26.3344" gradientUnits="userSpaceOnUse">
<stop stop-color="white"/>
<stop offset="0.649305" stop-color="#FBFCFF"/>
<stop offset="1" stop-color="#EDF1FF"/>
</linearGradient>
<linearGradient id="paint16_linear_6448_38778" x1="113.327" y1="17.2104" x2="115.189" y2="26.2447" gradientUnits="userSpaceOnUse">
<stop stop-color="white"/>
<stop offset="0.649305" stop-color="#FBFCFF"/>
<stop offset="1" stop-color="#EDF1FF"/>
</linearGradient>
<linearGradient id="paint17_linear_6448_38778" x1="121.431" y1="14.3235" x2="124.45" y2="26.3394" gradientUnits="userSpaceOnUse">
<stop stop-color="white"/>
<stop offset="0.649305" stop-color="#FBFCFF"/>
<stop offset="1" stop-color="#EDF1FF"/>
</linearGradient>
<linearGradient id="paint18_linear_6448_38778" x1="134.411" y1="17.2099" x2="136.079" y2="26.3342" gradientUnits="userSpaceOnUse">
<stop stop-color="white"/>
<stop offset="0.649305" stop-color="#FBFCFF"/>
<stop offset="1" stop-color="#EDF1FF"/>
</linearGradient>
<linearGradient id="paint19_linear_6448_38778" x1="143.454" y1="17.2169" x2="145.231" y2="26.1251" gradientUnits="userSpaceOnUse">
<stop stop-color="white"/>
<stop offset="0.649305" stop-color="#FBFCFF"/>
<stop offset="1" stop-color="#EDF1FF"/>
</linearGradient>
<linearGradient id="paint20_linear_6448_38778" x1="155.559" y1="15.4285" x2="159.228" y2="25.4781" gradientUnits="userSpaceOnUse">
<stop stop-color="white"/>
<stop offset="0.649305" stop-color="#FBFCFF"/>
<stop offset="1" stop-color="#EDF1FF"/>
</linearGradient>
<linearGradient id="paint21_linear_6448_38778" x1="161.649" y1="14.3299" x2="164.811" y2="26.1037" gradientUnits="userSpaceOnUse">
<stop stop-color="white"/>
<stop offset="0.649305" stop-color="#FBFCFF"/>
<stop offset="1" stop-color="#EDF1FF"/>
</linearGradient>
<linearGradient id="paint22_linear_6448_38778" x1="169.879" y1="17.209" x2="171.616" y2="26.3289" gradientUnits="userSpaceOnUse">
<stop stop-color="white"/>
<stop offset="0.649305" stop-color="#FBFCFF"/>
<stop offset="1" stop-color="#EDF1FF"/>
</linearGradient>
<clipPath id="clip0_6448_38778">
<rect x="0.113281" width="211.372" height="70.4573" fill="white"/>
</clipPath>
</defs>
</svg>
