<svg width="232" height="70" viewBox="0 0 232 70" fill="none" xmlns="http://www.w3.org/2000/svg">
<g clip-path="url(#clip0_6448_38813)">
<rect width="231.1" height="69.0481" transform="translate(0.900391 0.70459)" fill="white"/>
<path d="M223.439 69.7527H9.45769C4.7501 69.7527 0.898438 65.8688 0.898438 61.1217V9.33561C0.898438 4.58855 4.7501 0.70459 9.45769 0.70459H223.439C228.147 0.70459 231.998 4.58855 231.998 9.33561V61.1217C231.998 65.8688 228.147 69.7527 223.439 69.7527Z" fill="#24345D"/>
<path d="M80.2387 18.0295C80.2387 19.2708 79.8744 20.2588 79.1444 20.9965C78.3159 21.8734 77.2347 22.3119 75.9068 22.3119C74.6347 22.3119 73.5521 21.8675 72.6634 20.9787C71.7732 20.0885 71.3281 18.9864 71.3281 17.6711C71.3281 16.3542 71.7732 15.2522 72.6634 14.3634C73.5521 13.4732 74.6347 13.0288 75.9068 13.0288C76.5385 13.0288 77.1422 13.1532 77.7151 13.4021C78.2894 13.6509 78.7492 13.9813 79.0929 14.3945L78.3188 15.1766C77.7356 14.473 76.9321 14.122 75.9053 14.122C74.977 14.122 74.1749 14.4508 73.4977 15.1085C72.8206 15.7662 72.4827 16.6209 72.4827 17.6711C72.4827 18.7213 72.8206 19.576 73.4977 20.2336C74.1749 20.8913 74.977 21.2202 75.9053 21.2202C76.8895 21.2202 77.7107 20.8898 78.3673 20.2277C78.7933 19.7967 79.0401 19.1968 79.1062 18.428H75.9053V17.36H80.1756C80.2196 17.5911 80.2387 17.8148 80.2387 18.0295Z" fill="url(#paint0_linear_6448_38813)" stroke="url(#paint1_linear_6448_38813)" stroke-width="0.120919" stroke-miterlimit="10"/>
<path d="M87.0109 14.3197H82.9978V17.1371H86.6173V18.2051H82.9978V21.0224H87.0109V22.1156H81.8652V13.228H87.0109V14.3197Z" fill="url(#paint2_linear_6448_38813)" stroke="url(#paint3_linear_6448_38813)" stroke-width="0.120919" stroke-miterlimit="10"/>
<path d="M91.7879 22.1156H90.6553V14.3197H88.1934V13.228H94.2498V14.3197H91.7879V22.1156Z" fill="url(#paint4_linear_6448_38813)" stroke="url(#paint5_linear_6448_38813)" stroke-width="0.120919" stroke-miterlimit="10"/>
<path d="M98.6289 22.1156V13.228H99.7615V22.1156H98.6289Z" fill="url(#paint6_linear_6448_38813)" stroke="url(#paint7_linear_6448_38813)" stroke-width="0.120919" stroke-miterlimit="10"/>
<path d="M104.786 22.1156H103.653V14.3197H101.191V13.228H107.248V14.3197H104.786V22.1156Z" fill="url(#paint8_linear_6448_38813)" stroke="url(#paint9_linear_6448_38813)" stroke-width="0.120919" stroke-miterlimit="10"/>
<path d="M118.712 20.9683C117.845 21.8675 116.768 22.3148 115.48 22.3148C114.192 22.3148 113.115 21.866 112.25 20.9683C111.383 20.0707 110.951 18.9716 110.951 17.6726C110.951 16.3735 111.383 15.2744 112.25 14.3768C113.115 13.4776 114.192 13.0288 115.48 13.0288C116.761 13.0288 117.836 13.4806 118.706 14.3827C119.575 15.2848 120.01 16.3809 120.01 17.6726C120.01 18.9716 119.577 20.0707 118.712 20.9683ZM113.086 20.2233C113.738 20.8898 114.535 21.2216 115.48 21.2216C116.424 21.2216 117.224 20.8884 117.874 20.2233C118.527 19.5567 118.854 18.7065 118.854 17.6726C118.854 16.6386 118.527 15.7884 117.874 15.1218C117.224 14.4553 116.424 14.1235 115.48 14.1235C114.535 14.1235 113.738 14.4567 113.086 15.1218C112.435 15.7884 112.107 16.6386 112.107 17.6726C112.107 18.7065 112.435 19.5567 113.086 20.2233Z" fill="url(#paint10_linear_6448_38813)" stroke="url(#paint11_linear_6448_38813)" stroke-width="0.120919" stroke-miterlimit="10"/>
<path d="M121.6 22.1156V13.228H122.977L127.261 20.1411H127.309L127.261 18.4287V13.228H128.393V22.1156H127.211L122.729 14.8663H122.681L122.729 16.5786V22.1156H121.6Z" fill="url(#paint12_linear_6448_38813)" stroke="url(#paint13_linear_6448_38813)" stroke-width="0.120919" stroke-miterlimit="10"/>
<path d="M114.066 40.2728C110.356 40.2728 107.332 43.1168 107.332 47.0376C107.332 50.933 110.356 53.8025 114.066 53.8025C117.776 53.8025 120.8 50.933 120.8 47.0376C120.8 43.1168 117.776 40.2728 114.066 40.2728ZM114.066 51.1366C112.033 51.1366 110.279 49.4458 110.279 47.036C110.279 44.6024 112.033 42.9354 114.066 42.9354C116.099 42.9354 117.852 44.6008 117.852 47.036C117.852 49.4458 116.099 51.1366 114.066 51.1366ZM99.3756 40.2728C95.6656 40.2728 92.6418 43.1168 92.6418 47.0376C92.6418 50.933 95.6656 53.8025 99.3756 53.8025C103.086 53.8025 106.109 50.933 106.109 47.0376C106.109 43.1168 103.086 40.2728 99.3756 40.2728ZM99.3756 51.1366C97.3424 51.1366 95.5883 49.4458 95.5883 47.036C95.5883 44.6024 97.3424 42.9354 99.3756 42.9354C101.409 42.9354 103.161 44.6008 103.161 47.036C103.161 49.4458 101.407 51.1366 99.3756 51.1366ZM81.8998 42.3485V45.218H88.7109C88.5074 46.8324 87.9743 48.0111 87.1603 48.8318C86.1697 49.8307 84.6192 50.933 81.8998 50.933C77.7071 50.933 74.4293 47.5244 74.4293 43.2965C74.4293 39.0687 77.7071 35.66 81.8998 35.66C84.1617 35.66 85.8133 36.5571 87.0326 37.7103L89.0406 35.6854C87.3386 34.0455 85.0766 32.7905 81.8998 32.7905C76.1565 32.7905 71.3281 37.5051 71.3281 43.2965C71.3281 49.0879 76.1565 53.8025 81.8998 53.8025C85.0009 53.8025 87.3386 52.7781 89.1684 50.8551C91.0486 48.9591 91.6338 46.2932 91.6338 44.1411C91.6338 43.4747 91.5833 42.8591 91.4808 42.3469H81.8998V42.3485ZM153.368 44.577C152.81 43.0643 151.106 40.2728 147.625 40.2728C144.169 40.2728 141.298 43.015 141.298 47.0376C141.298 50.8296 144.143 53.8025 147.956 53.8025C151.03 53.8025 152.81 51.9065 153.546 50.8042L151.259 49.2661C150.497 50.3938 149.454 51.1366 147.956 51.1366C146.456 51.1366 145.39 50.4447 144.703 49.0863L153.674 45.3452L153.368 44.577ZM144.219 46.8324C144.143 44.2191 146.227 42.8861 147.726 42.8861C148.894 42.8861 149.885 43.4747 150.216 44.3209L144.219 46.8324ZM136.927 53.3921H139.875V33.5079H136.927V53.3921ZM132.097 41.7838H131.996C131.335 40.9901 130.065 40.2728 128.464 40.2728C125.109 40.2728 122.035 43.2456 122.035 47.0631C122.035 50.8551 125.109 53.8025 128.464 53.8025C130.065 53.8025 131.335 53.0851 131.996 52.2644H132.097V53.2378C132.097 55.8257 130.725 57.2096 128.513 57.2096C126.709 57.2096 125.59 55.9021 125.133 54.8014L122.566 55.8782C123.303 57.6724 125.261 59.8754 128.513 59.8754C131.969 59.8754 134.892 57.8251 134.892 52.829V40.6831H132.097V41.7838ZM128.718 51.1366C126.685 51.1366 124.983 49.4204 124.983 47.0615C124.983 44.6788 126.685 42.9354 128.718 42.9354C130.726 42.9354 132.302 44.6772 132.302 47.0615C132.3 49.4204 130.726 51.1366 128.718 51.1366ZM167.176 33.5079H160.124V53.3921H163.067V45.859H167.178C170.44 45.859 173.647 43.4778 173.647 39.6842C173.647 35.8906 170.438 33.5079 167.176 33.5079ZM167.252 43.0913H163.066V36.2756H167.252C169.453 36.2756 170.702 38.1127 170.702 39.6842C170.702 41.2239 169.453 43.0913 167.252 43.0913ZM185.442 40.2362C183.311 40.2362 181.105 41.1826 180.191 43.2806L182.805 44.3813C183.363 43.2806 184.403 42.9227 185.495 42.9227C187.017 42.9227 188.564 43.8437 188.589 45.4804V45.6856C188.056 45.3786 186.914 44.9173 185.52 44.9173C182.704 44.9173 179.836 46.4777 179.836 49.3949C179.836 52.056 182.146 53.7691 184.733 53.7691C186.712 53.7691 187.802 52.8736 188.487 51.8254H188.588V53.3603H191.429V45.7365C191.429 42.2054 188.817 40.2362 185.442 40.2362ZM185.088 51.1334C184.124 51.1334 182.778 50.6467 182.778 49.4442C182.778 47.9093 184.453 47.3208 185.898 47.3208C187.192 47.3208 187.801 47.6023 188.588 47.9856C188.359 49.8291 186.786 51.1334 185.088 51.1334ZM201.779 40.6704L198.405 49.2915H198.304L194.804 40.6704H191.634L196.885 52.7193L193.891 59.4221H196.961L205.054 40.6704H201.779ZM175.268 53.3921H178.212V33.5079H175.268V53.3921Z" fill="url(#paint14_linear_6448_38813)"/>
<path d="M18.7613 13.7173C18.2632 14.249 17.9688 15.0741 17.9688 16.1426V54.3193C17.9688 55.3896 18.2632 56.213 18.7613 56.7447L18.888 56.8689L40.0961 35.483V35.231V34.979L18.888 13.5913L18.7613 13.7173Z" fill="url(#paint15_linear_6448_38813)"/>
<path d="M47.1678 42.6172L40.0996 35.4863V35.2343V34.9822L47.1696 27.853L47.3288 27.9445L55.7048 32.7434C58.098 34.114 58.098 36.3563 55.7048 37.7286L47.3288 42.5275L47.1678 42.6172Z" fill="url(#paint16_linear_6448_38813)"/>
<path d="M47.3274 42.5234L40.0982 35.2319L18.7617 56.7456C19.5509 57.588 20.8519 57.6916 22.3189 56.8509L47.3274 42.5234Z" fill="url(#paint17_linear_6448_38813)"/>
<path d="M47.3276 27.9405L22.3209 13.613C20.8538 12.7724 19.5528 12.8777 18.7637 13.7183L40.0985 35.232L47.3276 27.9405Z" fill="url(#paint18_linear_6448_38813)"/>
<path opacity="0.2" d="M47.1684 42.3608L22.3209 56.5968C20.9309 57.3926 19.6881 57.3408 18.8903 56.6158L18.7637 56.7453L18.8903 56.8696C19.6881 57.5946 20.9309 57.6481 22.3209 56.8506L47.3276 42.5231L47.1684 42.3608Z" fill="white"/>
<path opacity="0.12" d="M18.7613 56.4932C18.2632 55.9615 17.9688 55.1364 17.9688 54.0679V54.3199C17.9688 55.3884 18.2632 56.2135 18.7613 56.7452L18.888 56.6158L18.7613 56.4932Z" fill="white"/>
<path opacity="0.12" d="M55.7052 37.4747L47.1699 42.3651L47.3291 42.5256L55.7052 37.7267C56.9018 37.0414 57.4992 36.1386 57.4992 35.2358C57.3982 36.0523 56.7888 36.8533 55.7052 37.4747Z" fill="white"/>
<path opacity="0.25" d="M22.3225 13.8659L55.7053 32.9922C56.7906 33.6137 57.3983 34.4146 57.4993 35.2328C57.4993 34.33 56.9019 33.4255 55.7053 32.7402L22.3225 13.6139C19.9293 12.2433 17.9727 13.3808 17.9727 16.1445V16.3965C17.9727 13.6346 19.9293 12.4953 22.3225 13.8659Z" fill="url(#paint19_linear_6448_38813)"/>
</g>
<defs>
<linearGradient id="paint0_linear_6448_38813" x1="70.6374" y1="12.5515" x2="72.5611" y2="23.5944" gradientUnits="userSpaceOnUse">
<stop stop-color="white"/>
<stop offset="0.649305" stop-color="#FBFCFF"/>
<stop offset="1" stop-color="#EDF1FF"/>
</linearGradient>
<linearGradient id="paint1_linear_6448_38813" x1="70.6374" y1="12.5515" x2="72.5611" y2="23.5944" gradientUnits="userSpaceOnUse">
<stop stop-color="white"/>
<stop offset="0.649305" stop-color="#FBFCFF"/>
<stop offset="1" stop-color="#EDF1FF"/>
</linearGradient>
<linearGradient id="paint2_linear_6448_38813" x1="81.4663" y1="12.7711" x2="84.3702" y2="22.8257" gradientUnits="userSpaceOnUse">
<stop stop-color="white"/>
<stop offset="0.649305" stop-color="#FBFCFF"/>
<stop offset="1" stop-color="#EDF1FF"/>
</linearGradient>
<linearGradient id="paint3_linear_6448_38813" x1="81.4663" y1="12.7711" x2="84.3702" y2="22.8257" gradientUnits="userSpaceOnUse">
<stop stop-color="white"/>
<stop offset="0.649305" stop-color="#FBFCFF"/>
<stop offset="1" stop-color="#EDF1FF"/>
</linearGradient>
<linearGradient id="paint4_linear_6448_38813" x1="87.7238" y1="12.7711" x2="90.245" y2="23.0457" gradientUnits="userSpaceOnUse">
<stop stop-color="white"/>
<stop offset="0.649305" stop-color="#FBFCFF"/>
<stop offset="1" stop-color="#EDF1FF"/>
</linearGradient>
<linearGradient id="paint5_linear_6448_38813" x1="87.7238" y1="12.7711" x2="90.245" y2="23.0457" gradientUnits="userSpaceOnUse">
<stop stop-color="white"/>
<stop offset="0.649305" stop-color="#FBFCFF"/>
<stop offset="1" stop-color="#EDF1FF"/>
</linearGradient>
<linearGradient id="paint6_linear_6448_38813" x1="98.5411" y1="12.7711" x2="103.793" y2="16.7732" gradientUnits="userSpaceOnUse">
<stop stop-color="white"/>
<stop offset="0.649305" stop-color="#FBFCFF"/>
<stop offset="1" stop-color="#EDF1FF"/>
</linearGradient>
<linearGradient id="paint7_linear_6448_38813" x1="98.5411" y1="12.7711" x2="103.793" y2="16.7732" gradientUnits="userSpaceOnUse">
<stop stop-color="white"/>
<stop offset="0.649305" stop-color="#FBFCFF"/>
<stop offset="1" stop-color="#EDF1FF"/>
</linearGradient>
<linearGradient id="paint8_linear_6448_38813" x1="100.722" y1="12.7711" x2="103.243" y2="23.0457" gradientUnits="userSpaceOnUse">
<stop stop-color="white"/>
<stop offset="0.649305" stop-color="#FBFCFF"/>
<stop offset="1" stop-color="#EDF1FF"/>
</linearGradient>
<linearGradient id="paint9_linear_6448_38813" x1="100.722" y1="12.7711" x2="103.243" y2="23.0457" gradientUnits="userSpaceOnUse">
<stop stop-color="white"/>
<stop offset="0.649305" stop-color="#FBFCFF"/>
<stop offset="1" stop-color="#EDF1FF"/>
</linearGradient>
<linearGradient id="paint10_linear_6448_38813" x1="110.249" y1="12.5514" x2="112.144" y2="23.6082" gradientUnits="userSpaceOnUse">
<stop stop-color="white"/>
<stop offset="0.649305" stop-color="#FBFCFF"/>
<stop offset="1" stop-color="#EDF1FF"/>
</linearGradient>
<linearGradient id="paint11_linear_6448_38813" x1="110.249" y1="12.5514" x2="112.144" y2="23.6082" gradientUnits="userSpaceOnUse">
<stop stop-color="white"/>
<stop offset="0.649305" stop-color="#FBFCFF"/>
<stop offset="1" stop-color="#EDF1FF"/>
</linearGradient>
<linearGradient id="paint12_linear_6448_38813" x1="121.073" y1="12.7711" x2="123.347" y2="23.1669" gradientUnits="userSpaceOnUse">
<stop stop-color="white"/>
<stop offset="0.649305" stop-color="#FBFCFF"/>
<stop offset="1" stop-color="#EDF1FF"/>
</linearGradient>
<linearGradient id="paint13_linear_6448_38813" x1="121.073" y1="12.7711" x2="123.347" y2="23.1669" gradientUnits="userSpaceOnUse">
<stop stop-color="white"/>
<stop offset="0.649305" stop-color="#FBFCFF"/>
<stop offset="1" stop-color="#EDF1FF"/>
</linearGradient>
<linearGradient id="paint14_linear_6448_38813" x1="60.9614" y1="31.398" x2="62.0844" y2="64.5573" gradientUnits="userSpaceOnUse">
<stop stop-color="white"/>
<stop offset="0.649305" stop-color="#FBFCFF"/>
<stop offset="1" stop-color="#EDF1FF"/>
</linearGradient>
<linearGradient id="paint15_linear_6448_38813" x1="38.216" y1="15.7399" x2="9.24719" y2="44.4679" gradientUnits="userSpaceOnUse">
<stop stop-color="#00A0FF"/>
<stop offset="0.0066" stop-color="#00A1FF"/>
<stop offset="0.2601" stop-color="#00BEFF"/>
<stop offset="0.5122" stop-color="#00D2FF"/>
<stop offset="0.7604" stop-color="#00DFFF"/>
<stop offset="1" stop-color="#00E3FF"/>
</linearGradient>
<linearGradient id="paint16_linear_6448_38813" x1="58.8194" y1="35.235" x2="17.3979" y2="35.235" gradientUnits="userSpaceOnUse">
<stop stop-color="#FFE000"/>
<stop offset="0.4087" stop-color="#FFBD00"/>
<stop offset="0.7754" stop-color="#FFA500"/>
<stop offset="1" stop-color="#FF9C00"/>
</linearGradient>
<linearGradient id="paint17_linear_6448_38813" x1="43.3987" y1="39.1937" x2="4.11459" y2="78.1512" gradientUnits="userSpaceOnUse">
<stop stop-color="#FF3A44"/>
<stop offset="1" stop-color="#C31162"/>
</linearGradient>
<linearGradient id="paint18_linear_6448_38813" x1="13.3907" y1="1.01036" x2="30.9328" y2="18.4064" gradientUnits="userSpaceOnUse">
<stop stop-color="#32A071"/>
<stop offset="0.0685" stop-color="#2DA771"/>
<stop offset="0.4762" stop-color="#15CF74"/>
<stop offset="0.8009" stop-color="#06E775"/>
<stop offset="1" stop-color="#00F076"/>
</linearGradient>
<linearGradient id="paint19_linear_6448_38813" x1="14.9085" y1="11.8913" x2="17.4416" y2="38.8636" gradientUnits="userSpaceOnUse">
<stop stop-color="white"/>
<stop offset="0.649305" stop-color="#FBFCFF"/>
<stop offset="1" stop-color="#EDF1FF"/>
</linearGradient>
<clipPath id="clip0_6448_38813">
<rect width="231.1" height="69.0481" fill="white" transform="translate(0.900391 0.70459)"/>
</clipPath>
</defs>
</svg>
