<svg width="200" height="201" viewBox="0 0 200 201" fill="none" xmlns="http://www.w3.org/2000/svg">
<path d="M153.031 163.887C149.135 168.047 144.67 171.639 139.769 174.557C139.656 174.626 139.542 174.691 139.427 174.758L131.492 167.754C131.576 167.677 131.668 167.59 131.767 167.495C137.68 161.896 167.031 122.751 168.987 113.219C168.852 114.013 170.752 145.156 153.031 163.887Z" fill="#699CFF"/>
<path d="M141.299 175.911C141.149 175.946 140.997 175.98 140.844 176.01L134.891 170.756C135.007 170.715 135.143 170.667 135.298 170.614C137.853 169.712 145.46 166.989 153.03 163.888C161.165 160.554 169.261 156.788 171.002 154.375C170.628 154.936 159.123 171.936 141.299 175.911Z" fill="#699CFF"/>
<path d="M67.2882 51.3286V78.9256C62.8911 80.0793 58.2873 80.2116 53.8309 79.3125C49.3744 78.4134 45.1842 76.5068 41.5826 73.7393C37.981 70.9718 35.064 67.4173 33.056 63.3492C31.048 59.2811 30.0025 54.8079 30 50.2736C30 49.4643 30.0326 48.6634 30.0978 47.8709H46.4123C47.1945 47.8716 47.9648 47.6803 48.6554 47.3139C49.3459 46.9475 49.9355 46.4173 50.3719 45.7699C50.8084 45.1226 51.0784 44.3781 51.1581 43.6021C51.2378 42.8261 51.1247 42.0424 50.8289 41.3203H57.2488C58.567 41.3198 59.8724 41.5783 61.0904 42.0811C62.3085 42.5838 63.4152 43.321 64.3475 44.2504C65.2798 45.1798 66.0194 46.2833 66.5239 47.4978C67.0285 48.7123 67.2882 50.014 67.2882 51.3286Z" fill="#699CFF"/>
<path d="M142.097 58.1985H141.215V34.2434C141.215 32.4227 140.853 30.6198 140.151 28.9377C139.448 27.2556 138.418 25.7272 137.12 24.4397C135.822 23.1523 134.281 22.131 132.585 21.4343C130.889 20.7375 129.071 20.3789 127.235 20.3789H76.0585C72.3507 20.3789 68.7948 21.8396 66.1729 24.4397C63.5511 27.0398 62.0781 30.5663 62.0781 34.2434V165.663C62.0781 169.34 63.5511 172.866 66.1729 175.466C68.7947 178.067 72.3507 179.527 76.0585 179.527H127.235C130.942 179.527 134.498 178.067 137.12 175.466C139.742 172.866 141.215 169.34 141.215 165.663V75.2501H142.097L142.097 58.1985Z" fill="#111111"/>
<path d="M138.241 34.3426V165.569C138.241 168.315 137.141 170.948 135.183 172.89C133.225 174.832 130.569 175.923 127.8 175.923H76.3784C73.6093 175.923 70.9536 174.832 68.9956 172.89C67.0376 170.948 65.9375 168.315 65.9375 165.569V34.3426C65.9376 31.5965 67.0376 28.9628 68.9956 27.021C70.9537 25.0792 73.6093 23.9883 76.3784 23.9883H82.6164C82.3099 24.7352 82.1932 25.5455 82.2765 26.3477C82.3599 27.15 82.6407 27.9196 83.0944 28.5889C83.548 29.2583 84.1606 29.8068 84.8781 30.1862C85.5957 30.5657 86.3963 30.7645 87.2095 30.7651H116.528C117.341 30.7645 118.142 30.5657 118.859 30.1862C119.577 29.8068 120.189 29.2582 120.643 28.5889C121.097 27.9196 121.377 27.15 121.461 26.3477C121.544 25.5455 121.427 24.7352 121.121 23.9883H127.8C130.569 23.9883 133.225 25.0792 135.183 27.021C137.141 28.9628 138.241 31.5965 138.241 34.3426Z" fill="white"/>
<path d="M79.1187 36.1562C78.192 36.1562 77.2745 36.3372 76.4184 36.6889C75.5623 37.0405 74.7844 37.556 74.1292 38.2058C73.474 38.8556 72.9542 39.627 72.5996 40.476C72.245 41.325 72.0625 42.2349 72.0625 43.1539C72.0625 44.0728 72.245 44.9828 72.5996 45.8317C72.9542 46.6807 73.474 47.4522 74.1292 48.102C74.7844 48.7518 75.5623 49.2672 76.4183 49.6189C77.2744 49.9705 78.192 50.1515 79.1186 50.1515H79.1187C80.9901 50.1515 82.7848 49.4143 84.1081 48.102C85.4314 46.7897 86.1748 45.0098 86.1748 43.1539C86.1748 41.298 85.4314 39.5181 84.1081 38.2058C82.7848 36.8935 80.9901 36.1562 79.1187 36.1562Z" fill="#F2F2F2"/>
<path d="M130.356 49.0574H93.3109C92.8431 49.0574 92.3944 48.8731 92.0636 48.545C91.7327 48.2169 91.5469 47.772 91.5469 47.308C91.5469 46.844 91.7327 46.399 92.0636 46.071C92.3944 45.7429 92.8431 45.5586 93.3109 45.5586H130.356C130.823 45.5586 131.272 45.7429 131.603 46.071C131.934 46.399 132.12 46.844 132.12 47.308C132.12 47.772 131.934 48.2169 131.603 48.545C131.272 48.8731 130.823 49.0574 130.356 49.0574Z" fill="#F2F2F2"/>
<path d="M104.998 41.6238H93.3109C92.8431 41.6238 92.3944 41.4395 92.0636 41.1114C91.7327 40.7833 91.5469 40.3384 91.5469 39.8744C91.5469 39.4104 91.7327 38.9654 92.0636 38.6374C92.3944 38.3093 92.8431 38.125 93.3109 38.125H104.998C105.465 38.125 105.914 38.3093 106.245 38.6374C106.576 38.9654 106.762 39.4104 106.762 39.8744C106.762 40.3384 106.576 40.7833 106.245 41.1114C105.914 41.4395 105.465 41.6238 104.998 41.6238Z" fill="#F2F2F2"/>
<path d="M79.1187 65.4609C78.192 65.4609 77.2745 65.6419 76.4184 65.9936C75.5623 66.3452 74.7844 66.8607 74.1292 67.5105C73.474 68.1602 72.9542 68.9317 72.5996 69.7807C72.245 70.6297 72.0625 71.5396 72.0625 72.4585C72.0625 73.3775 72.245 74.2874 72.5996 75.1364C72.9542 75.9854 73.474 76.7569 74.1292 77.4067C74.7844 78.0565 75.5623 78.5719 76.4183 78.9236C77.2744 79.2752 78.192 79.4562 79.1186 79.4562H79.1187C80.9901 79.4562 82.7848 78.719 84.1081 77.4067C85.4314 76.0944 86.1748 74.3145 86.1748 72.4586C86.1748 70.6027 85.4314 68.8228 84.1081 67.5105C82.7848 66.1982 80.9901 65.4609 79.1187 65.4609Z" fill="#F2F2F2"/>
<path d="M130.356 78.3621H93.3109C92.8431 78.3621 92.3944 78.1778 92.0636 77.8497C91.7327 77.5216 91.5469 77.0766 91.5469 76.6127C91.5469 76.1487 91.7327 75.7037 92.0636 75.3756C92.3944 75.0476 92.8431 74.8633 93.3109 74.8633H130.356C130.823 74.8633 131.272 75.0476 131.603 75.3756C131.934 75.7037 132.12 76.1487 132.12 76.6127C132.12 77.0766 131.934 77.5216 131.603 77.8497C131.272 78.1778 130.823 78.3621 130.356 78.3621Z" fill="#F2F2F2"/>
<path d="M104.998 70.9285H93.3109C92.8431 70.9285 92.3944 70.7442 92.0636 70.4161C91.7327 70.088 91.5469 69.6431 91.5469 69.1791C91.5469 68.7151 91.7327 68.2701 92.0636 67.942C92.3944 67.614 92.8431 67.4297 93.3109 67.4297H104.998C105.465 67.4297 105.914 67.614 106.245 67.942C106.576 68.2701 106.762 68.7151 106.762 69.1791C106.762 69.6431 106.576 70.088 106.245 70.4161C105.914 70.7442 105.465 70.9285 104.998 70.9285Z" fill="#F2F2F2"/>
<path d="M79.1187 124.066C77.2473 124.066 75.4525 124.804 74.1292 126.116C72.8059 127.428 72.0625 129.208 72.0625 131.064C72.0625 132.92 72.8059 134.7 74.1292 136.012C75.4525 137.324 77.2472 138.062 79.1186 138.062H79.1187C80.9901 138.062 82.7848 137.324 84.1081 136.012C85.4314 134.7 86.1748 132.92 86.1748 131.064C86.1748 129.208 85.4314 127.428 84.1081 126.116C82.7848 124.804 80.9901 124.066 79.1187 124.066Z" fill="#F2F2F2"/>
<path d="M130.356 136.968H93.3109C92.8431 136.968 92.3944 136.783 92.0636 136.455C91.7327 136.127 91.5469 135.682 91.5469 135.218C91.5469 134.754 91.7327 134.309 92.0636 133.981C92.3944 133.653 92.8431 133.469 93.3109 133.469H130.356C130.823 133.469 131.272 133.653 131.603 133.981C131.934 134.309 132.12 134.754 132.12 135.218C132.12 135.682 131.934 136.127 131.603 136.455C131.272 136.783 130.823 136.968 130.356 136.968Z" fill="#F2F2F2"/>
<path d="M104.998 129.53H93.3109C92.8431 129.53 92.3944 129.346 92.0636 129.018C91.7327 128.69 91.5469 128.245 91.5469 127.781C91.5469 127.317 91.7327 126.872 92.0636 126.544C92.3944 126.216 92.8431 126.031 93.3109 126.031H104.998C105.465 126.031 105.914 126.216 106.245 126.544C106.576 126.872 106.762 127.317 106.762 127.781C106.762 128.245 106.576 128.69 106.245 129.018C105.914 129.346 105.465 129.53 104.998 129.53Z" fill="#F2F2F2"/>
<path d="M79.1187 153.367C78.192 153.367 77.2745 153.548 76.4184 153.9C75.5623 154.251 74.7844 154.767 74.1292 155.417C73.474 156.066 72.9542 156.838 72.5996 157.687C72.245 158.536 72.0625 159.446 72.0625 160.365C72.0625 161.284 72.245 162.194 72.5996 163.043C72.9542 163.892 73.474 164.663 74.1292 165.313C74.7844 165.963 75.5623 166.478 76.4183 166.83C77.2744 167.181 78.192 167.362 79.1186 167.362H79.1187C80.9901 167.362 82.7848 166.625 84.1081 165.313C85.4314 164.001 86.1748 162.221 86.1748 160.365C86.1748 158.509 85.4314 156.729 84.1081 155.417C82.7848 154.104 80.9901 153.367 79.1187 153.367Z" fill="#F2F2F2"/>
<path d="M130.356 166.268H93.3109C92.8431 166.268 92.3944 166.084 92.0636 165.756C91.7327 165.428 91.5469 164.983 91.5469 164.519C91.5469 164.055 91.7327 163.61 92.0636 163.282C92.3944 162.954 92.8431 162.77 93.3109 162.77H130.356C130.823 162.77 131.272 162.954 131.603 163.282C131.934 163.61 132.12 164.055 132.12 164.519C132.12 164.983 131.934 165.428 131.603 165.756C131.272 166.084 130.823 166.268 130.356 166.268Z" fill="#F2F2F2"/>
<path d="M104.998 158.835H93.3109C92.8431 158.835 92.3944 158.65 92.0636 158.322C91.7327 157.994 91.5469 157.549 91.5469 157.085C91.5469 156.621 91.7327 156.176 92.0636 155.848C92.3944 155.52 92.8431 155.336 93.3109 155.336H104.998C105.465 155.336 105.914 155.52 106.245 155.848C106.576 156.176 106.762 156.621 106.762 157.085C106.762 157.549 106.576 157.994 106.245 158.322C105.914 158.65 105.465 158.835 104.998 158.835Z" fill="#F2F2F2"/>
<path d="M144.651 118.598H59.5368C58.5721 118.597 57.6474 118.216 56.9653 117.54C56.2832 116.863 55.8995 115.946 55.8984 114.99V87.8738C55.8995 86.9172 56.2832 86 56.9653 85.3236C57.6474 84.6472 58.5721 84.2667 59.5368 84.2656H144.651C145.616 84.2667 146.541 84.6472 147.223 85.3236C147.905 86 148.289 86.9172 148.29 87.8738V114.99C148.289 115.946 147.905 116.863 147.223 117.54C146.541 118.216 145.616 118.597 144.651 118.598Z" fill="white"/>
<path d="M130.356 107.335H93.3109C92.8431 107.335 92.3944 107.15 92.0636 106.822C91.7327 106.494 91.5469 106.049 91.5469 105.585C91.5469 105.121 91.7327 104.676 92.0636 104.348C92.3944 104.02 92.8431 103.836 93.3109 103.836H130.356C130.823 103.836 131.272 104.02 131.603 104.348C131.934 104.676 132.12 105.121 132.12 105.585C132.12 106.049 131.934 106.494 131.603 106.822C131.272 107.15 130.823 107.335 130.356 107.335Z" fill="#699CFF"/>
<path d="M104.998 99.9013H93.3109C92.8431 99.9013 92.3944 99.717 92.0636 99.3889C91.7327 99.0608 91.5469 98.6159 91.5469 98.1519C91.5469 97.6879 91.7327 97.2429 92.0636 96.9149C92.3944 96.5868 92.8431 96.4025 93.3109 96.4025H104.998C105.465 96.4025 105.914 96.5868 106.245 96.9149C106.576 97.2429 106.762 97.6879 106.762 98.1519C106.762 98.6159 106.576 99.0608 106.245 99.3889C105.914 99.717 105.465 99.9013 104.998 99.9013Z" fill="#699CFF"/>
<rect x="56.2125" y="84.2125" width="91.7631" height="34.2727" stroke="#2C3131" stroke-width="0.628217"/>
<path d="M163.186 59.8346L153.555 52.4883L146.188 62.0935L155.82 69.4399L163.186 59.8346Z" fill="#699CFF"/>
</svg>
