<svg width="238" height="200" viewBox="0 0 238 200" fill="none" xmlns="http://www.w3.org/2000/svg">
<path d="M221.028 111.907C218.717 106.397 212.652 84.0333 211.785 77.8733C210.918 71.7133 216.118 58.7499 214.096 57.4533C212.073 56.1566 206.299 56.4833 201.098 64.5866C195.898 72.6899 199.367 93.4333 197.923 98.9433C196.48 104.453 183.771 87.6099 183.771 87.6099C183.771 87.6099 138.718 84.6666 137.562 82.0866C128.611 72.3633 113.879 65.8799 110.416 69.1233C106.953 72.3666 107.526 77.8733 111.859 81.1233C112.486 81.5933 113.523 82.3899 114.829 83.4099C122.552 89.4099 139.867 103.163 139.867 103.163C139.867 103.163 139.938 141.117 140.227 142.737C142.249 150.517 163.839 170.907 163.839 170.907C164.201 171.04 169.755 177.907 176.076 185.847H228.218C222.073 172.703 216.982 159.087 216.982 154.7C216.982 146.263 223.338 117.417 221.028 111.907Z" fill="#F6967A"/>
<g style="mix-blend-mode:multiply">
<path d="M137.327 81.8373C136.584 81.044 135.803 80.274 134.995 79.5273C132.269 82.6307 126.234 88.214 119.103 86.744C127.594 93.4107 139.872 103.157 139.872 103.157C139.872 103.157 139.872 105.471 139.887 108.981C141.533 108.594 142.581 108.141 142.397 107.727C141.907 106.624 138.8 89.8807 137.327 81.8373Z" fill="#FBC7B6"/>
</g>
<path d="M190.549 36.0625H136.128C133.97 36.0625 132.22 38.0265 132.22 40.4492V156.949C132.22 159.372 133.97 161.336 136.128 161.336H190.549C192.708 161.336 194.458 159.372 194.458 156.949V40.4492C194.458 38.0265 192.708 36.0625 190.549 36.0625Z" fill="#2D4288"/>
<path d="M193.438 157.735V39.662C193.438 38.2997 192.454 37.1953 191.241 37.1953L135.421 37.1953C134.207 37.1953 133.223 38.2997 133.223 39.662V157.735C133.223 159.098 134.207 160.202 135.421 160.202H191.241C192.454 160.202 193.438 159.098 193.438 157.735Z" fill="#4485FD"/>
<path d="M192.431 145.436V44.019C192.431 43.741 192.23 43.5156 191.982 43.5156L134.686 43.5156C134.439 43.5156 134.238 43.741 134.238 44.019V145.436C134.238 145.714 134.439 145.939 134.686 145.939H191.982C192.23 145.939 192.431 145.714 192.431 145.436Z" fill="#B6C0E2"/>
<path d="M136.425 51.592C135.73 50.512 135.831 48.1153 135.237 46.6753C134.643 45.2353 132.032 44.9387 130.752 44.2187C129.472 43.4987 129.469 42.422 128.991 42.602C128.513 42.782 128.189 43.6187 128.724 44.3987C129.258 45.1787 129.683 45.7787 129.523 45.7787C128.136 46.0187 124.343 43.3787 123.651 42.842C122.959 42.3053 122.463 43.6787 123.437 44.6987C121.993 43.6787 121.245 44.5787 122.582 46.4353C121.726 46.1953 121.566 48.1753 124.289 49.312C122.528 48.6453 123.223 50.092 124.664 51.052C126.104 52.012 127.337 51.772 129.044 52.2487C130.752 52.7253 131.925 54.582 131.925 54.582L136.425 51.592Z" fill="#F6967A"/>
<g style="mix-blend-mode:multiply">
<path d="M127.934 47.0792H127.91C127.88 47.0792 124.86 46.0792 123.6 44.8926C123.595 44.887 123.591 44.8802 123.588 44.8728C123.585 44.8653 123.584 44.8573 123.584 44.8492C123.584 44.8411 123.585 44.8331 123.588 44.8257C123.591 44.8182 123.595 44.8115 123.6 44.8059C123.61 44.7951 123.624 44.7891 123.637 44.7891C123.651 44.7891 123.665 44.7951 123.675 44.8059C124.916 45.9626 127.916 46.9626 127.945 46.9726C127.952 46.9744 127.959 46.9779 127.964 46.9827C127.97 46.9875 127.974 46.9935 127.978 47.0004C127.981 47.0073 127.983 47.0149 127.984 47.0228C127.984 47.0306 127.983 47.0385 127.981 47.0459C127.977 47.0561 127.97 47.0647 127.962 47.0706C127.953 47.0766 127.944 47.0796 127.934 47.0792ZM126.945 50.2159C126.079 50.0954 125.232 49.8361 124.432 49.4459C124.425 49.4433 124.419 49.4393 124.414 49.4339C124.409 49.4286 124.405 49.4221 124.402 49.4149C124.399 49.4077 124.398 49.3999 124.398 49.392C124.398 49.3842 124.399 49.3764 124.402 49.3692C124.408 49.3545 124.419 49.3429 124.432 49.3367C124.445 49.3305 124.46 49.3302 124.473 49.3359C125.263 49.7217 126.099 49.9777 126.953 50.0959C126.961 50.0967 126.967 50.0991 126.974 50.1029C126.98 50.1067 126.985 50.1119 126.99 50.1181C126.994 50.1243 126.997 50.1314 126.999 50.139C127.001 50.1467 127.002 50.1547 127.001 50.1626C127 50.1779 126.993 50.192 126.982 50.2019C126.972 50.2118 126.958 50.2168 126.945 50.2159V50.2159ZM127.384 48.2392C127.374 48.2282 127.36 48.2221 127.346 48.2221C127.331 48.2221 127.317 48.2282 127.307 48.2392C127.244 48.3115 127.19 48.3934 127.147 48.4826C126.196 48.2459 123.553 47.2492 122.896 46.5426C122.891 46.5371 122.885 46.5328 122.879 46.5299C122.872 46.527 122.865 46.5256 122.858 46.5258C122.851 46.5259 122.844 46.5276 122.838 46.5308C122.831 46.534 122.825 46.5385 122.821 46.5442C122.816 46.5499 122.812 46.5566 122.809 46.564C122.807 46.5713 122.806 46.5792 122.806 46.5871C122.806 46.595 122.807 46.6027 122.81 46.61C122.813 46.6172 122.817 46.6238 122.822 46.6292C123.484 47.3459 126.119 48.3426 127.099 48.5926C127.06 48.6897 127.045 48.7966 127.054 48.9026C127.056 48.9164 127.062 48.9292 127.071 48.9384C127.081 48.9476 127.093 48.9527 127.105 48.9526V48.9526C127.112 48.9518 127.119 48.9494 127.125 48.9455C127.131 48.9417 127.136 48.9364 127.14 48.9302C127.144 48.9239 127.147 48.9167 127.149 48.9091C127.151 48.9015 127.151 48.8936 127.15 48.8859C127.149 48.7793 127.169 48.6738 127.208 48.5765C127.246 48.4793 127.304 48.3927 127.375 48.3226C127.386 48.3123 127.392 48.2981 127.394 48.2828C127.395 48.2674 127.392 48.2519 127.384 48.2392V48.2392ZM133.85 50.4092C133.418 50.0213 132.908 49.756 132.365 49.6359C132.314 49.4926 131.872 48.1726 132.142 47.1559C132.145 47.1404 132.144 47.1242 132.137 47.1102C132.13 47.0961 132.12 47.0852 132.107 47.0792C132.093 47.0749 132.078 47.0767 132.065 47.0841C132.053 47.0915 132.043 47.1041 132.038 47.1192C131.783 48.0892 132.13 49.2759 132.24 49.6092C131.242 49.4491 130.225 49.5137 129.249 49.7992C129.242 49.7998 129.234 49.8022 129.228 49.8062C129.221 49.8102 129.215 49.8158 129.21 49.8226C129.206 49.8294 129.203 49.8372 129.201 49.8455C129.199 49.8538 129.199 49.8625 129.201 49.8709C129.202 49.8792 129.205 49.8872 129.21 49.8941C129.214 49.901 129.22 49.9068 129.226 49.9111C129.233 49.9153 129.24 49.918 129.248 49.9188C129.255 49.9196 129.263 49.9186 129.27 49.9159C131.349 49.4026 132.769 49.5826 133.764 50.5026C133.775 50.5069 133.788 50.5069 133.8 50.5026C133.808 50.5027 133.816 50.5006 133.823 50.4966C133.83 50.4925 133.836 50.4866 133.841 50.4792C133.849 50.4701 133.854 50.4584 133.856 50.4459C133.857 50.4333 133.855 50.4204 133.85 50.4092Z" fill="#FBC7B6"/>
</g>
<path d="M177.826 45.0794C175.313 42.2628 167.962 37.2461 167.962 37.2461H158.11C158.11 37.2461 150.706 42.2028 148.247 45.0794C145.787 47.9561 145.187 63.6661 145.187 63.6661L137.922 50.5128L131.774 55.6161C131.774 55.6161 142.722 77.9494 144.074 80.0394C145.425 82.1294 148.273 83.5561 149.342 82.8361L149.045 98.4194H182.818L179.827 80.6661C179.827 80.6661 183.956 79.9461 184.954 79.7061C185.952 79.4661 183.044 50.9361 177.826 45.0794Z" fill="#4485FD"/>
<g style="mix-blend-mode:multiply">
<path d="M158.204 98.4214H178.386L169.321 43.4414C169.193 55.8147 160.123 91.0614 158.204 98.4214Z" fill="#86BED1"/>
</g>
<path d="M160.798 98.4205C159.122 79.8772 156.066 44.1239 156.824 38.1305C154.593 39.6839 150.067 42.9505 148.246 45.0805C145.79 47.9572 145.187 63.6605 145.187 63.6605L137.922 50.5139L130.087 55.7405C130.087 55.7405 142.731 77.9639 144.082 80.0405C145.433 82.1172 148.282 83.5572 149.351 82.8372L149.054 98.4205H160.798ZM179.827 80.6672C179.827 80.6672 183.955 79.9472 184.953 79.7072C185.951 79.4672 183.044 50.9239 177.825 45.0672C175.963 42.9772 171.439 39.6805 169.227 38.1172C169.984 44.1172 166.928 79.8639 165.253 98.4072H182.821L179.827 80.6672Z" fill="white"/>
<path d="M179.126 70.9824C177.016 70.9135 174.914 70.6661 172.838 70.2424C171.867 70.0624 170.952 69.8924 170.83 70.0024C170.823 70.016 170.814 70.0279 170.803 70.0373C170.791 70.0467 170.779 70.0535 170.765 70.0572C170.751 70.0609 170.737 70.0615 170.723 70.059C170.71 70.0565 170.696 70.0508 170.685 70.0424C170.661 70.0252 170.643 69.9983 170.637 69.9672C170.63 69.9361 170.635 69.9033 170.649 69.8758C170.774 69.6291 171.282 69.7124 172.874 70.0058C174.939 70.4277 177.03 70.6739 179.129 70.7424C179.157 70.7441 179.183 70.7579 179.203 70.7808C179.222 70.8038 179.233 70.8342 179.233 70.8658C179.232 70.897 179.22 70.9267 179.2 70.9485C179.18 70.9703 179.153 70.9824 179.126 70.9824V70.9824Z" fill="#CAE0E6"/>
<path d="M177.644 70.92C177.628 70.9201 177.613 70.9166 177.6 70.9097C177.586 70.9028 177.573 70.8927 177.563 70.88C177.553 70.8689 177.545 70.8556 177.54 70.841C177.535 70.8264 177.532 70.8108 177.532 70.795C177.532 70.7792 177.535 70.7636 177.54 70.749C177.545 70.7344 177.553 70.7212 177.563 70.71C177.563 70.71 178.538 69.7533 178.677 69.08C178.684 69.0491 178.701 69.0223 178.724 69.0054C178.748 68.9886 178.777 68.983 178.805 68.99C178.832 68.9979 178.855 69.0172 178.87 69.0438C178.885 69.0704 178.89 69.1025 178.885 69.1333C178.731 69.8833 177.745 70.85 177.697 70.8933C177.681 70.907 177.663 70.9161 177.644 70.92V70.92ZM176.233 70.77C176.207 70.7696 176.182 70.759 176.163 70.7401C176.143 70.7212 176.13 70.6952 176.126 70.6667L174.938 59.3567C174.935 59.3255 174.943 59.2943 174.96 59.2696C174.977 59.2448 175.002 59.2283 175.03 59.2233C175.044 59.2215 175.058 59.2228 175.072 59.2272C175.085 59.2315 175.098 59.2389 175.109 59.2488C175.12 59.2587 175.129 59.271 175.136 59.285C175.143 59.2989 175.147 59.3142 175.149 59.33L176.337 70.6367C176.338 70.6524 176.337 70.6684 176.333 70.6837C176.329 70.699 176.323 70.7132 176.314 70.7256C176.305 70.738 176.294 70.7483 176.282 70.756C176.269 70.7636 176.256 70.7683 176.242 70.77H176.233ZM176.224 81.1767C175 81.1767 173.699 81.0333 172.805 80.55C172.793 80.5432 172.781 80.5337 172.772 80.522C172.762 80.5103 172.755 80.4966 172.751 80.4817C172.746 80.4669 172.744 80.4511 172.745 80.4354C172.745 80.4197 172.749 80.4042 172.755 80.39C172.761 80.3758 172.769 80.363 172.78 80.3525C172.79 80.3419 172.802 80.3338 172.816 80.3285C172.829 80.3233 172.843 80.321 172.857 80.3218C172.871 80.3226 172.885 80.3266 172.897 80.3333C174.976 81.46 179.518 80.65 179.562 80.6433C179.576 80.6405 179.59 80.6407 179.604 80.6441C179.617 80.6474 179.63 80.6538 179.641 80.6628C179.653 80.6718 179.662 80.6833 179.67 80.6965C179.677 80.7098 179.682 80.7246 179.684 80.74C179.687 80.7555 179.686 80.7715 179.683 80.787C179.681 80.8024 179.675 80.8171 179.667 80.8301C179.659 80.8431 179.649 80.8542 179.637 80.8628C179.625 80.8713 179.612 80.8772 179.598 80.88C178.481 81.0696 177.353 81.1688 176.224 81.1767V81.1767ZM172.565 79.6667C172.499 79.6683 172.435 79.6407 172.387 79.59C172.045 79.2567 172.226 77.75 172.265 77.45C172.267 77.4343 172.271 77.4191 172.278 77.4055C172.285 77.3918 172.295 77.38 172.306 77.3706C172.318 77.3613 172.331 77.3546 172.345 77.3511C172.358 77.3475 172.373 77.3472 172.387 77.35C172.4 77.352 172.413 77.3571 172.425 77.365C172.437 77.3728 172.448 77.3832 172.456 77.3957C172.464 77.4081 172.47 77.4222 172.474 77.4373C172.477 77.4523 172.478 77.468 172.476 77.4833C172.384 78.1733 172.339 79.2267 172.526 79.41C172.536 79.4179 172.548 79.4221 172.56 79.4221C172.572 79.4221 172.584 79.4179 172.594 79.41C172.626 79.3967 172.654 79.3738 172.675 79.3438C172.696 79.3138 172.709 79.2779 172.713 79.24C173.099 76.3667 172.467 73.4133 171.787 70.6333C171.779 70.6028 171.783 70.5703 171.797 70.5429C171.811 70.5154 171.834 70.4952 171.861 70.4867C171.874 70.4821 171.888 70.4807 171.902 70.4825C171.916 70.4843 171.93 70.4892 171.942 70.497C171.954 70.5048 171.965 70.5153 171.973 70.5278C171.982 70.5404 171.988 70.5547 171.991 70.57C172.681 73.3733 173.316 76.3567 172.924 79.2767C172.915 79.3598 172.884 79.4382 172.836 79.5026C172.788 79.567 172.725 79.6146 172.654 79.64C172.626 79.654 172.595 79.663 172.565 79.6667ZM174.703 54.75C174.675 54.7483 174.649 54.7346 174.629 54.7116C174.61 54.6887 174.599 54.6583 174.599 54.6267C174.599 54.27 174.691 45.8433 176.417 44.2267C176.439 44.2063 176.467 44.1967 176.496 44.1998C176.524 44.2029 176.55 44.2186 176.568 44.2433C176.587 44.2681 176.595 44.2999 176.592 44.3318C176.59 44.3637 176.576 44.393 176.554 44.4133C174.902 45.9567 174.813 54.5433 174.813 54.63C174.813 54.646 174.81 54.6619 174.805 54.6767C174.799 54.6915 174.791 54.7049 174.781 54.7161C174.77 54.7272 174.758 54.736 174.745 54.7418C174.732 54.7477 174.717 54.7504 174.703 54.75ZM151.275 54.75C151.247 54.7492 151.22 54.7362 151.2 54.7139C151.18 54.6916 151.169 54.6616 151.168 54.63C151.168 54.5433 151.079 45.9633 149.428 44.4133C149.406 44.393 149.392 44.3637 149.389 44.3318C149.386 44.2999 149.395 44.2681 149.413 44.2433C149.431 44.2186 149.457 44.2029 149.486 44.1998C149.514 44.1967 149.542 44.2063 149.564 44.2267C151.293 45.8433 151.379 54.27 151.382 54.6267C151.382 54.6424 151.38 54.6581 151.375 54.6729C151.37 54.6876 151.363 54.7011 151.353 54.7125C151.343 54.724 151.332 54.7332 151.319 54.7396C151.306 54.746 151.292 54.7496 151.278 54.75H151.275ZM149.46 81.96C149.432 81.9575 149.406 81.9429 149.387 81.9193C149.369 81.8957 149.359 81.865 149.359 81.8333C149.781 73.6933 151.02 61.0167 151.035 60.89C151.038 60.8587 151.051 60.83 151.073 60.8101C151.095 60.7901 151.122 60.7805 151.15 60.7833C151.164 60.785 151.178 60.7898 151.191 60.7974C151.203 60.805 151.214 60.8153 151.223 60.8277C151.232 60.8401 151.238 60.8544 151.242 60.8696C151.246 60.8849 151.247 60.9009 151.245 60.9167C151.245 61.0433 149.995 73.7133 149.573 81.8467C149.573 81.8624 149.569 81.8779 149.563 81.8921C149.557 81.9063 149.548 81.9191 149.538 81.9296C149.527 81.9402 149.515 81.9483 149.502 81.9535C149.489 81.9587 149.474 81.9609 149.46 81.96V81.96ZM144.976 66.6167H144.949C144.935 66.6128 144.922 66.6059 144.911 66.5964C144.9 66.5869 144.89 66.575 144.883 66.5614C144.876 66.5478 144.871 66.5327 144.869 66.517C144.867 66.5013 144.868 66.4853 144.872 66.47C145.035 65.5474 145.106 64.607 145.083 63.6667C145.081 63.6402 145.087 63.6138 145.101 63.592C145.114 63.5702 145.134 63.5542 145.157 63.5467C145.179 63.5404 145.203 63.5418 145.224 63.5508C145.246 63.5597 145.265 63.5757 145.279 63.5967C146.009 64.86 146.107 65.3967 146.113 65.4167C146.119 65.4481 146.113 65.4806 146.097 65.5072C146.081 65.5337 146.056 65.5521 146.028 65.5583C146.001 65.5645 145.972 65.558 145.948 65.5402C145.924 65.5224 145.908 65.4947 145.902 65.4633C145.765 64.9734 145.565 64.5085 145.308 64.0833C145.312 64.9042 145.239 65.7233 145.088 66.5267C145.082 66.5543 145.067 66.5785 145.047 66.5949C145.026 66.6114 145.001 66.6191 144.976 66.6167Z" fill="#CAE0E6"/>
<path d="M159.654 56.6693L144.634 67.6836L158.771 91.9664L173.791 80.9521L159.654 56.6693Z" fill="#233569"/>
<g style="mix-blend-mode:multiply">
<path d="M173.794 80.9653L173.741 80.872C165.935 79.1453 150.5 74.9353 144.634 67.6953L158.768 91.9786L173.794 80.9653Z" fill="#86BED1"/>
</g>
<path d="M166.655 30.2968H159.426C159.177 33.4135 158.11 37.2468 158.11 37.2468C160.567 41.2468 166.263 40.6435 167.971 37.2468C167.971 37.2468 166.905 33.4135 166.655 30.2968Z" fill="#F6967A"/>
<path d="M157.667 23.0786C156.521 22.122 155.365 23.682 155.784 25.202C156.033 26.1153 157.174 28.3253 158.573 27.342C160.067 24.5853 157.667 23.0786 157.667 23.0786Z" fill="#F68E75"/>
<g style="mix-blend-mode:multiply">
<path d="M156.86 23.6691C156.681 23.659 156.504 23.7171 156.359 23.8339C156.213 23.9507 156.107 24.1194 156.058 24.3124C156.054 24.3279 156.055 24.3444 156.062 24.3586C156.069 24.3729 156.08 24.3838 156.093 24.3891C156.1 24.3917 156.107 24.3927 156.115 24.392C156.122 24.3914 156.129 24.3891 156.135 24.3854C156.141 24.3817 156.147 24.3765 156.152 24.3703C156.156 24.364 156.16 24.3568 156.162 24.3491C156.202 24.1829 156.292 24.0371 156.416 23.9354C156.54 23.8337 156.691 23.7821 156.845 23.7891C157.017 23.8124 157.501 24.0024 157.766 25.3491C157.69 25.2929 157.6 25.2676 157.511 25.2773C157.421 25.287 157.337 25.3312 157.272 25.4024C157.032 25.6658 157.005 26.3024 157.35 26.8358C157.354 26.8433 157.36 26.8494 157.368 26.8535C157.375 26.8576 157.383 26.8595 157.391 26.8591C157.402 26.862 157.413 26.862 157.424 26.8591C157.433 26.8475 157.438 26.8327 157.438 26.8174C157.438 26.8021 157.433 26.7873 157.424 26.7758C157.127 26.2924 157.127 25.7258 157.335 25.4958C157.451 25.3691 157.611 25.3758 157.783 25.5191C157.841 25.8739 157.88 26.2323 157.899 26.5924C157.9 26.6077 157.906 26.6222 157.916 26.6327C157.926 26.6432 157.939 26.6491 157.953 26.6491V26.6491C157.96 26.6487 157.966 26.6467 157.973 26.6432C157.979 26.6398 157.984 26.6349 157.989 26.629C157.993 26.6231 157.996 26.6162 157.998 26.6087C158 26.6013 158.001 26.5935 158 26.5858C157.869 24.0724 157.157 23.7058 156.86 23.6691Z" fill="#FBC7B6"/>
</g>
<path d="M168.951 23.0786C170.098 22.122 171.253 23.682 170.834 25.202C170.585 26.1153 169.444 28.3253 168.046 27.342C166.552 24.5853 168.951 23.0786 168.951 23.0786Z" fill="#F68E75"/>
<g style="mix-blend-mode:multiply">
<path d="M169.757 23.669C169.935 23.6592 170.111 23.7174 170.256 23.8342C170.401 23.951 170.507 24.1196 170.556 24.3124C170.56 24.3274 170.559 24.3436 170.553 24.3578C170.547 24.3719 170.536 24.3831 170.523 24.389C170.516 24.3916 170.509 24.3926 170.502 24.392C170.495 24.3913 170.488 24.3891 170.481 24.3854C170.475 24.3816 170.469 24.3765 170.465 24.3702C170.46 24.364 170.457 24.3568 170.455 24.349C170.414 24.1823 170.324 24.036 170.199 23.9343C170.074 23.8325 169.923 23.7813 169.769 23.789C169.599 23.8124 169.115 24.0024 168.851 25.349C168.926 25.2929 169.016 25.2675 169.106 25.2773C169.196 25.287 169.28 25.3312 169.344 25.4024C169.582 25.6657 169.608 26.3024 169.267 26.8357C169.262 26.8433 169.256 26.8494 169.249 26.8535C169.241 26.8576 169.233 26.8595 169.225 26.859C169.214 26.8625 169.203 26.8625 169.192 26.859C169.183 26.8479 169.177 26.8329 169.177 26.8174C169.177 26.8018 169.183 26.7869 169.192 26.7757C169.489 26.2924 169.489 25.7257 169.282 25.4957C169.166 25.369 169.005 25.3757 168.833 25.519C168.776 25.874 168.736 26.2324 168.714 26.5924C168.714 26.6001 168.713 26.6078 168.71 26.6149C168.707 26.622 168.703 26.6284 168.698 26.6337C168.693 26.639 168.688 26.6431 168.681 26.6457C168.675 26.6484 168.668 26.6495 168.661 26.649C168.647 26.6474 168.634 26.64 168.625 26.6283C168.615 26.6166 168.61 26.6014 168.61 26.5857C168.747 24.0724 169.457 23.7057 169.757 23.669Z" fill="#FBC7B6"/>
</g>
<path d="M168.761 18.4308C167.519 13.5142 162.919 13.3942 159.928 15.3142C159.928 15.3142 158.363 15.5542 157.828 18.4308C157.234 21.0975 157.864 25.3408 158.363 27.8975C158.781 30.0575 159.687 32.3008 162.144 32.9475C162.9 33.1475 163.688 33.1475 164.445 32.9475C166.902 32.3008 167.807 30.0575 168.226 27.8975C168.725 25.3342 169.367 21.1075 168.761 18.4308Z" fill="#2E1F23"/>
<path d="M168.227 27.8975C168.555 26.2625 168.79 24.6058 168.931 22.9375C168.777 23.2091 168.552 23.4209 168.287 23.5442H158.275C158.062 23.4127 157.863 23.2563 157.681 23.0775C157.824 24.6984 158.055 26.308 158.373 27.8975C158.791 30.0575 159.697 32.3008 162.154 32.9475C162.911 33.1475 163.699 33.1475 164.455 32.9475C166.903 32.3008 167.806 30.0575 168.227 27.8975Z" fill="#D17C63"/>
<path d="M164.392 27.6872C163.685 27.7689 162.974 27.7823 162.265 27.7272C161.042 27.6372 160.605 27.8272 160.745 28.6372C160.923 29.6772 161.707 30.6972 163.45 30.6972H163.531C165.277 30.6972 166.046 29.6739 166.236 28.6372C166.427 27.6005 165.265 27.5805 164.392 27.6872Z" fill="#F6967A"/>
<path d="M168.284 23.5446C167.987 23.3046 167.987 22.7046 168.035 21.2479C168.067 19.8979 167.34 18.0879 166.511 17.4446C166.39 17.3453 166.278 17.2337 166.176 17.1113C166.047 16.961 165.877 16.8633 165.693 16.8337C165.509 16.8041 165.321 16.8443 165.16 16.9479C164.361 17.3479 162.329 18.6146 160.247 17.3079C159.338 17.7879 158.486 19.7846 158.522 21.2446C158.557 22.7046 158.575 23.3013 158.272 23.5413C158.005 24.3813 158.985 29.0346 159.998 28.1746C161.011 27.3146 161.12 27.2579 163.096 27.2979H163.461C165.436 27.2579 165.54 27.3179 166.559 28.1746C167.577 29.0313 168.552 24.3846 168.284 23.5446Z" fill="#F6967A"/>
<path d="M159.524 21.8854C160.166 21.1787 161.811 21.3287 162.248 21.6754C161.012 20.3087 159.792 20.7187 159.524 21.8854Z" fill="#2E1F23"/>
<path d="M161.368 20.8854C161.716 21.0676 162.021 21.3381 162.259 21.6754C162.216 21.448 162.103 21.2447 161.94 21.1005C161.778 20.9563 161.575 20.8802 161.368 20.8854V20.8854ZM167.481 21.8854C166.842 21.1787 165.194 21.3287 164.757 21.6754C165.996 20.3087 167.213 20.7187 167.481 21.8854Z" fill="#2E1F23"/>
<path d="M165.634 20.8831C165.287 21.0651 164.981 21.3356 164.743 21.6731C164.787 21.4456 164.899 21.2423 165.062 21.0981C165.225 20.9539 165.427 20.8779 165.634 20.8831V20.8831Z" fill="#2E1F23"/>
<path d="M161.128 23.9227C161.302 23.9227 161.443 23.654 161.443 23.3227C161.443 22.9913 161.302 22.7227 161.128 22.7227C160.954 22.7227 160.813 22.9913 160.813 23.3227C160.813 23.654 160.954 23.9227 161.128 23.9227Z" fill="#2E1F23"/>
<path d="M161.178 24.2053C161.1 24.202 161.024 24.1811 160.953 24.1436C160.883 24.1062 160.82 24.0532 160.769 23.9877C160.718 23.9222 160.679 23.8457 160.654 23.7628C160.63 23.6798 160.621 23.5922 160.628 23.5053C160.628 23.49 160.633 23.4752 160.643 23.464C160.652 23.4529 160.665 23.4462 160.679 23.4453C160.693 23.4452 160.706 23.451 160.717 23.4614C160.727 23.4719 160.734 23.4864 160.735 23.502C160.729 23.5735 160.735 23.6457 160.754 23.7143C160.773 23.7829 160.805 23.8464 160.846 23.9009C160.888 23.9555 160.939 24 160.997 24.0317C161.054 24.0634 161.117 24.0816 161.181 24.0853C161.195 24.0853 161.208 24.0916 161.218 24.1029C161.228 24.1141 161.234 24.1294 161.234 24.1453C161.233 24.1615 161.227 24.1768 161.217 24.188C161.206 24.1991 161.192 24.2053 161.178 24.2053Z" fill="#2E1F23"/>
<path d="M165.566 23.7156C165.74 23.7156 165.881 23.447 165.881 23.1156C165.881 22.7843 165.74 22.5156 165.566 22.5156C165.392 22.5156 165.251 22.7843 165.251 23.1156C165.251 23.447 165.392 23.7156 165.566 23.7156Z" fill="#2E1F23"/>
<path d="M165.592 24.003C165.513 24.0001 165.436 23.9794 165.365 23.942C165.294 23.9046 165.231 23.8514 165.179 23.7856C165.127 23.7197 165.088 23.6427 165.063 23.5591C165.038 23.4756 165.029 23.3873 165.036 23.2996C165.036 23.2834 165.042 23.2678 165.052 23.256C165.062 23.2442 165.075 23.2372 165.09 23.2363C165.103 23.2363 165.117 23.2421 165.127 23.2527C165.136 23.2632 165.142 23.2776 165.143 23.293C165.137 23.3646 165.144 23.4369 165.163 23.5055C165.183 23.5741 165.215 23.6376 165.256 23.6921C165.298 23.7466 165.35 23.791 165.407 23.8227C165.465 23.8543 165.528 23.8726 165.592 23.8763C165.599 23.8763 165.605 23.8779 165.612 23.8809C165.618 23.884 165.624 23.8884 165.628 23.8941C165.633 23.8997 165.637 23.9063 165.639 23.9136C165.642 23.9209 165.643 23.9286 165.642 23.9363C165.643 23.9445 165.642 23.9527 165.64 23.9605C165.638 23.9684 165.635 23.9757 165.63 23.9819C165.625 23.9882 165.619 23.9932 165.613 23.9969C165.606 24.0005 165.599 24.0026 165.592 24.003V24.003ZM163.293 26.5796C163.074 26.5884 162.861 26.5011 162.699 26.3363C162.692 26.3248 162.689 26.3108 162.69 26.297C162.691 26.2831 162.696 26.2701 162.705 26.2602C162.714 26.2503 162.726 26.2442 162.738 26.2429C162.75 26.2416 162.763 26.2451 162.773 26.253C162.849 26.328 162.939 26.385 163.035 26.4205C163.131 26.4561 163.233 26.4694 163.334 26.4596C163.518 26.4706 163.699 26.4 163.836 26.263C163.847 26.252 163.861 26.2458 163.875 26.2458C163.889 26.2458 163.903 26.252 163.914 26.263C163.923 26.2742 163.929 26.2891 163.929 26.3046C163.929 26.3202 163.923 26.3351 163.914 26.3463C163.755 26.5067 163.548 26.5916 163.334 26.583L163.293 26.5796ZM162.547 26.6696H162.53C162.46 26.6553 162.396 26.6185 162.346 26.5638C162.295 26.5091 162.26 26.4389 162.244 26.3618C162.229 26.2848 162.234 26.2044 162.259 26.1305C162.283 26.0567 162.327 25.9926 162.384 25.9463C162.394 25.9355 162.407 25.9295 162.421 25.9295C162.435 25.9295 162.448 25.9355 162.458 25.9463C162.468 25.958 162.474 25.9735 162.474 25.9896C162.474 26.0057 162.468 26.0212 162.458 26.033C162.421 26.0704 162.393 26.1179 162.376 26.1709C162.359 26.224 162.355 26.2809 162.363 26.3363C162.38 26.3902 162.408 26.4385 162.446 26.4764C162.484 26.5143 162.53 26.5407 162.58 26.553C162.593 26.5583 162.603 26.5688 162.609 26.5824C162.615 26.596 162.617 26.6117 162.613 26.6263C162.611 26.6342 162.609 26.6417 162.604 26.6483C162.6 26.6549 162.595 26.6605 162.589 26.6646C162.583 26.6687 162.576 26.6713 162.569 26.6721C162.561 26.673 162.554 26.6722 162.547 26.6696V26.6696ZM164 26.6696C163.988 26.67 163.977 26.6659 163.968 26.658C163.958 26.6501 163.952 26.6389 163.949 26.6263C163.945 26.6117 163.947 26.596 163.953 26.5824C163.959 26.5688 163.969 26.5583 163.982 26.553C164.032 26.5407 164.078 26.5143 164.115 26.4764C164.153 26.4385 164.182 26.3902 164.199 26.3363C164.206 26.2789 164.199 26.2204 164.18 26.1666C164.161 26.1128 164.129 26.0656 164.089 26.0296C164.079 26.0179 164.074 26.0024 164.074 25.9863C164.074 25.9702 164.079 25.9547 164.089 25.943C164.099 25.9322 164.112 25.9261 164.126 25.9261C164.14 25.9261 164.153 25.9322 164.163 25.943C164.22 25.9895 164.264 26.0538 164.288 26.1279C164.313 26.202 164.318 26.2827 164.302 26.3597C164.286 26.4368 164.25 26.507 164.199 26.5615C164.148 26.616 164.084 26.6525 164.015 26.6663L164 26.6696ZM162.832 24.7296C162.819 24.7264 162.806 24.7174 162.798 24.7044C162.79 24.6915 162.786 24.6755 162.788 24.6596C162.788 24.6596 162.993 23.1896 162.399 22.233C162.394 22.2277 162.39 22.2212 162.387 22.2141C162.384 22.2069 162.383 22.1991 162.383 22.1913C162.383 22.1835 162.384 22.1757 162.387 22.1686C162.39 22.1614 162.394 22.1549 162.399 22.1496C162.409 22.1388 162.422 22.1328 162.436 22.1328C162.45 22.1328 162.463 22.1388 162.473 22.1496C163.094 23.1496 162.892 24.603 162.883 24.6663C162.883 24.6742 162.882 24.6821 162.88 24.6895C162.878 24.697 162.874 24.7039 162.869 24.7097C162.865 24.7156 162.859 24.7204 162.853 24.7238C162.846 24.7272 162.839 24.7292 162.832 24.7296Z" fill="#2E1F23"/>
<path d="M163.444 28.5985C162.64 28.6222 161.842 28.429 161.118 28.0352C161.54 29.0352 162.425 30.2418 163.444 30.2418C164.462 30.2418 165.348 29.0452 165.772 28.0352C165.047 28.4287 164.249 28.6218 163.444 28.5985V28.5985Z" fill="white"/>
<path d="M160.67 26.0416C160.269 26.0416 159.877 25.9081 159.543 25.6579C159.21 25.4078 158.95 25.0522 158.796 24.6362C158.642 24.2202 158.602 23.7624 158.681 23.3208C158.759 22.8792 158.952 22.4735 159.236 22.1551C159.519 21.8367 159.881 21.6199 160.274 21.532C160.668 21.4442 161.076 21.4893 161.446 21.6616C161.817 21.8339 162.134 22.1257 162.357 22.5001C162.58 22.8745 162.699 23.3147 162.699 23.7649C162.699 24.3688 162.485 24.9478 162.105 25.3748C161.724 25.8018 161.208 26.0416 160.67 26.0416V26.0416ZM160.67 21.6083C160.29 21.6083 159.919 21.7348 159.603 21.9717C159.287 22.2087 159.04 22.5455 158.895 22.9396C158.749 23.3337 158.711 23.7673 158.785 24.1857C158.86 24.604 159.043 24.9883 159.311 25.2899C159.58 25.5916 159.923 25.797 160.295 25.8802C160.668 25.9634 161.054 25.9207 161.406 25.7574C161.757 25.5942 162.057 25.3178 162.268 24.9631C162.479 24.6085 162.592 24.1915 162.592 23.7649C162.592 23.193 162.389 22.6444 162.029 22.24C161.669 21.8355 161.18 21.6083 160.67 21.6083Z" fill="#2E1F23"/>
<g style="mix-blend-mode:screen">
<path d="M162.031 25.2867C162.781 24.4445 162.781 23.079 162.031 22.2367C161.28 21.3945 160.063 21.3945 159.313 22.2367C158.562 23.079 158.562 24.4445 159.313 25.2867C160.063 26.1289 161.28 26.129 162.031 25.2867Z" fill="#4E4837"/>
</g>
<path d="M166.123 26.0416C165.722 26.0416 165.33 25.9081 164.996 25.6579C164.663 25.4078 164.403 25.0522 164.249 24.6362C164.096 24.2202 164.055 23.7624 164.134 23.3208C164.212 22.8792 164.405 22.4735 164.689 22.1551C164.973 21.8367 165.334 21.6199 165.728 21.532C166.121 21.4442 166.529 21.4893 166.9 21.6616C167.27 21.8339 167.587 22.1257 167.81 22.5001C168.033 22.8745 168.152 23.3147 168.152 23.7649C168.152 24.0639 168.099 24.36 167.997 24.6362C167.896 24.9124 167.746 25.1634 167.558 25.3748C167.369 25.5862 167.146 25.7539 166.9 25.8683C166.653 25.9827 166.39 26.0416 166.123 26.0416ZM166.123 21.6083C165.743 21.6083 165.372 21.7348 165.056 21.9717C164.74 22.2087 164.493 22.5455 164.348 22.9396C164.202 23.3337 164.164 23.7673 164.239 24.1857C164.313 24.604 164.496 24.9883 164.764 25.2899C165.033 25.5916 165.376 25.797 165.748 25.8802C166.121 25.9634 166.508 25.9207 166.859 25.7574C167.21 25.5942 167.51 25.3178 167.721 24.9631C167.932 24.6085 168.045 24.1915 168.045 23.7649C168.045 23.193 167.842 22.6444 167.482 22.24C167.122 21.8355 166.633 21.6083 166.123 21.6083Z" fill="#2E1F23"/>
<g style="mix-blend-mode:screen">
<path d="M166.567 25.8745C167.6 25.6008 168.239 24.4393 167.995 23.2801C167.752 22.1208 166.717 21.4029 165.684 21.6765C164.651 21.9501 164.011 23.1116 164.255 24.2709C164.499 25.4301 165.534 26.1481 166.567 25.8745Z" fill="#4E4837"/>
</g>
<path d="M162.423 24.3687H162.402C162.396 24.3658 162.389 24.3614 162.384 24.3557C162.379 24.3501 162.375 24.3433 162.372 24.3358C162.369 24.3284 162.368 24.3203 162.368 24.3122C162.368 24.3041 162.37 24.2961 162.373 24.2887C162.466 24.095 162.605 23.9342 162.775 23.8247C162.945 23.7151 163.139 23.6611 163.335 23.6687C163.537 23.6418 163.742 23.6787 163.927 23.7752C164.112 23.8718 164.269 24.0242 164.38 24.2154C164.387 24.2296 164.388 24.2459 164.383 24.2609C164.379 24.2758 164.369 24.2882 164.357 24.2954C164.35 24.2993 164.344 24.3018 164.337 24.3025C164.33 24.3033 164.322 24.3024 164.316 24.2999C164.309 24.2974 164.303 24.2933 164.298 24.2879C164.292 24.2826 164.288 24.276 164.285 24.2687C164.183 24.0979 164.041 23.9624 163.874 23.8776C163.707 23.7928 163.523 23.762 163.341 23.7887C163.165 23.78 162.99 23.8266 162.837 23.9232C162.683 24.0197 162.556 24.1625 162.471 24.3354C162.467 24.3459 162.46 24.3548 162.452 24.3608C162.443 24.3667 162.433 24.3695 162.423 24.3687Z" fill="#2E1F23"/>
<path d="M171.779 70.6663C170.737 70.7263 170.095 69.7396 169.269 68.8396C168.444 67.9396 165.61 67.043 165.61 67.043C165.61 67.043 167.291 69.2296 166.412 69.8896C165.533 70.5496 163.501 70.8896 161.045 70.9663C158.589 71.043 158.966 72.5263 159.923 72.8563C159.032 73.3363 159.762 74.713 160.377 74.773C159.842 75.223 161.125 76.4396 162.753 76.4396C162.379 77.1863 162.218 77.773 164.755 77.9963C167.291 78.2196 170.603 77.0663 171.244 76.9163C171.759 76.8179 172.279 76.7677 172.801 76.7663C172.914 74.953 171.779 70.6663 171.779 70.6663Z" fill="#F6967A"/>
<g style="mix-blend-mode:multiply">
<path d="M162.12 73.0289C161.524 73.0306 160.929 72.9906 160.338 72.9089C160.324 72.9057 160.311 72.8969 160.302 72.884C160.293 72.8711 160.289 72.8551 160.29 72.8389C160.293 72.824 160.301 72.8106 160.312 72.8014C160.322 72.7922 160.336 72.7878 160.35 72.7889C161.833 72.9828 163.333 72.9357 164.805 72.6489C164.812 72.6462 164.82 72.6452 164.827 72.646C164.835 72.6469 164.842 72.6495 164.849 72.6538C164.855 72.658 164.861 72.6638 164.865 72.6707C164.87 72.6777 164.873 72.6856 164.874 72.694C164.876 72.7023 164.876 72.711 164.874 72.7193C164.872 72.7276 164.869 72.7354 164.864 72.7422C164.86 72.749 164.854 72.7546 164.847 72.7586C164.84 72.7627 164.833 72.765 164.826 72.7656C163.932 72.9427 163.027 73.0308 162.12 73.0289V73.0289ZM162.369 74.9556C161.789 74.9556 161.209 74.9189 160.632 74.8456C160.618 74.8456 160.604 74.8393 160.594 74.828C160.584 74.8168 160.578 74.8015 160.578 74.7856C160.578 74.7697 160.584 74.7544 160.594 74.7432C160.604 74.7319 160.618 74.7256 160.632 74.7256C162.084 74.9306 163.556 74.8709 164.992 74.5489C164.999 74.5469 165.006 74.5465 165.013 74.5476C165.02 74.5487 165.026 74.5513 165.033 74.5553C165.039 74.5594 165.044 74.5647 165.048 74.571C165.052 74.5774 165.055 74.5846 165.057 74.5923C165.059 74.6076 165.057 74.6234 165.05 74.6368C165.043 74.6502 165.032 74.6604 165.019 74.6656C164.148 74.8706 163.259 74.9679 162.369 74.9556V74.9556ZM163.854 76.5989C163.544 76.5999 163.234 76.5743 162.928 76.5223C162.92 76.5222 162.912 76.5203 162.905 76.5166C162.898 76.5129 162.892 76.5075 162.887 76.5008C162.882 76.4942 162.878 76.4864 162.876 76.4779C162.874 76.4695 162.874 76.4607 162.875 76.4521C162.876 76.4435 162.879 76.4354 162.884 76.4282C162.888 76.421 162.894 76.415 162.901 76.4106C162.907 76.4062 162.915 76.4034 162.923 76.4026C162.93 76.4017 162.938 76.4027 162.945 76.4056C163.712 76.526 164.49 76.4956 165.247 76.3156C165.261 76.3131 165.275 76.3161 165.287 76.324C165.299 76.3319 165.308 76.3443 165.313 76.3589C165.315 76.3744 165.313 76.3904 165.306 76.404C165.299 76.4175 165.287 76.4276 165.274 76.4323C164.808 76.5467 164.332 76.6026 163.854 76.5989V76.5989ZM165.322 72.0289C165.185 72.0332 165.052 71.9849 164.944 71.892C164.836 71.7992 164.759 71.6675 164.727 71.5189C164.711 71.4047 164.732 71.2876 164.786 71.1895C164.841 71.0914 164.926 71.0189 165.025 70.9856C165.037 70.9828 165.05 70.9849 165.061 70.9916C165.072 70.9983 165.08 71.0092 165.085 71.0224C165.09 71.0355 165.09 71.0501 165.086 71.0635C165.082 71.0769 165.074 71.0883 165.063 71.0956C164.986 71.1184 164.92 71.1721 164.876 71.2465C164.832 71.3208 164.814 71.4107 164.826 71.4989C164.852 71.6198 164.915 71.7267 165.004 71.8014C165.093 71.8761 165.202 71.9141 165.313 71.9089C165.32 71.9089 165.327 71.9105 165.333 71.9138C165.34 71.9171 165.346 71.9218 165.351 71.9278C165.355 71.9338 165.359 71.9409 165.361 71.9485C165.363 71.9562 165.364 71.9643 165.363 71.9723C165.363 71.9856 165.358 71.9983 165.351 72.0086C165.343 72.0188 165.333 72.026 165.322 72.0289V72.0289ZM165.829 73.9756C165.693 73.9799 165.56 73.9315 165.452 73.8387C165.344 73.7459 165.267 73.6141 165.235 73.4656C165.22 73.3516 165.242 73.2351 165.296 73.1373C165.35 73.0395 165.434 72.9668 165.532 72.9323C165.545 72.9268 165.56 72.9272 165.573 72.9334C165.585 72.9396 165.595 72.9512 165.601 72.9656C165.606 72.9802 165.605 72.9964 165.6 73.0107C165.594 73.025 165.584 73.0363 165.571 73.0423C165.494 73.0658 165.427 73.1201 165.383 73.195C165.34 73.27 165.322 73.3603 165.333 73.4489C165.36 73.5695 165.423 73.676 165.512 73.7502C165.601 73.8243 165.71 73.8616 165.82 73.8556C165.834 73.8573 165.847 73.8647 165.857 73.8764C165.866 73.8881 165.871 73.9032 165.871 73.9189C165.871 73.9324 165.867 73.9455 165.859 73.9559C165.852 73.9662 165.841 73.9732 165.829 73.9756ZM166.017 75.8356C165.88 75.8399 165.747 75.7915 165.639 75.6987C165.531 75.6059 165.454 75.4741 165.423 75.3256C165.407 75.2111 165.428 75.0942 165.483 74.9958C165.537 74.8975 165.621 74.8241 165.72 74.7889C165.726 74.7863 165.733 74.7852 165.74 74.7856C165.747 74.786 165.754 74.788 165.76 74.7914C165.767 74.7948 165.772 74.7995 165.777 74.8054C165.782 74.8113 165.785 74.8182 165.788 74.8256C165.792 74.8403 165.791 74.8561 165.786 74.8702C165.78 74.8843 165.771 74.8957 165.758 74.9023C165.681 74.9251 165.615 74.9788 165.571 75.0531C165.527 75.1275 165.509 75.2174 165.521 75.3056C165.547 75.4265 165.61 75.5334 165.699 75.6081C165.788 75.6828 165.897 75.7208 166.008 75.7156C166.015 75.716 166.022 75.718 166.028 75.7214C166.034 75.7248 166.04 75.7296 166.045 75.7355C166.049 75.7414 166.053 75.7483 166.055 75.7557C166.058 75.7632 166.058 75.7711 166.058 75.7789C166.057 75.7921 166.053 75.8046 166.045 75.8147C166.038 75.8249 166.028 75.8322 166.017 75.8356V75.8356ZM166.417 77.4523C166.281 77.4565 166.148 77.4082 166.04 77.3154C165.932 77.2225 165.855 77.0908 165.823 76.9423C165.808 76.8282 165.83 76.7118 165.884 76.614C165.939 76.5162 166.022 76.4434 166.12 76.4089C166.127 76.4057 166.134 76.404 166.141 76.4039C166.149 76.4038 166.156 76.4054 166.162 76.4085C166.169 76.4116 166.175 76.4162 166.18 76.422C166.185 76.4278 166.189 76.4347 166.192 76.4423C166.194 76.4497 166.195 76.4576 166.195 76.4655C166.194 76.4734 166.193 76.4811 166.19 76.4882C166.187 76.4953 166.182 76.5017 166.177 76.507C166.172 76.5123 166.166 76.5163 166.159 76.5189C166.083 76.5424 166.017 76.5964 165.974 76.6707C165.93 76.745 165.913 76.8345 165.924 76.9223C165.951 77.0432 166.014 77.15 166.103 77.2247C166.192 77.2995 166.301 77.3374 166.412 77.3323C166.425 77.3339 166.438 77.3413 166.448 77.353C166.457 77.3647 166.462 77.3799 166.462 77.3956C166.462 77.4094 166.457 77.4225 166.449 77.4328C166.441 77.4431 166.43 77.45 166.417 77.4523V77.4523Z" fill="#FBC7B6"/>
</g>
<path d="M152.936 60.8455L152.502 60.1022C152.452 60.0153 152.386 59.9404 152.31 59.8818C152.234 59.8232 152.148 59.7821 152.057 59.7607C151.967 59.7394 151.874 59.7382 151.783 59.7574C151.692 59.7765 151.605 59.8155 151.528 59.8722L149.746 61.1855C149.59 61.3005 149.481 61.4803 149.443 61.6853C149.405 61.8903 149.442 62.1038 149.544 62.2789L149.978 63.0222L147.462 64.8722C147.685 65.2542 147.973 65.5831 148.309 65.8402C148.645 66.0972 149.023 66.2774 149.422 66.3702C149.82 66.4631 150.231 66.4669 150.63 66.3815C151.03 66.296 151.411 66.123 151.751 65.8722L154.563 63.8022C154.904 63.5524 155.197 63.2297 155.426 62.8526C155.655 62.4755 155.815 62.0514 155.898 61.6046C155.981 61.1578 155.984 60.6971 155.908 60.2488C155.832 59.8005 155.678 59.3735 155.454 58.9922L152.936 60.8455Z" fill="#6B6B6B"/>
<path d="M159.838 48.3336C159.76 48.334 159.683 48.3129 159.614 48.2722C159.546 48.2315 159.487 48.1725 159.443 48.1003L157.016 44.1703C157.002 44.1442 156.998 44.113 157.003 44.0833C157.009 44.0535 157.025 44.0272 157.047 44.0098C157.069 43.9924 157.097 43.9852 157.123 43.9896C157.15 43.994 157.175 44.0098 157.192 44.0336L159.63 47.9736C159.657 48.0178 159.694 48.0532 159.738 48.076C159.781 48.0988 159.829 48.1084 159.876 48.1036C159.924 48.0994 159.97 48.0808 160.008 48.0496C160.047 48.0185 160.077 47.9761 160.096 47.9269L162.642 41.5936C162.647 41.5791 162.656 41.5661 162.666 41.5553C162.676 41.5445 162.689 41.536 162.702 41.5305C162.715 41.5249 162.729 41.5223 162.743 41.5228C162.757 41.5234 162.771 41.527 162.784 41.5336C162.797 41.5402 162.809 41.5495 162.818 41.5611C162.828 41.5727 162.836 41.5863 162.84 41.6012C162.845 41.616 162.848 41.6318 162.847 41.6477C162.847 41.6635 162.844 41.6791 162.838 41.6936L160.292 48.0269C160.26 48.118 160.206 48.1974 160.137 48.2562C160.067 48.3151 159.984 48.3511 159.897 48.3603L159.838 48.3336ZM165.927 48.3336H165.882C165.795 48.3243 165.712 48.2882 165.641 48.2295C165.571 48.1707 165.517 48.0914 165.484 48.0003L162.939 41.6669C162.933 41.6525 162.93 41.6369 162.929 41.621C162.929 41.6052 162.931 41.5894 162.936 41.5745C162.941 41.5596 162.948 41.546 162.958 41.5344C162.968 41.5228 162.979 41.5135 162.992 41.5069C163.005 41.5004 163.019 41.4967 163.033 41.4962C163.047 41.4956 163.061 41.4982 163.074 41.5038C163.088 41.5094 163.1 41.5178 163.11 41.5286C163.12 41.5395 163.129 41.5525 163.135 41.5669L165.68 47.9003C165.699 47.9494 165.729 47.9918 165.768 48.023C165.807 48.0541 165.852 48.0728 165.9 48.0769C165.948 48.082 165.996 48.0727 166.039 48.0498C166.082 48.0269 166.119 47.9914 166.146 47.9469L168.585 44.0069C168.593 43.9937 168.603 43.9823 168.614 43.9736C168.626 43.9649 168.639 43.9589 168.653 43.9561C168.667 43.9533 168.681 43.9537 168.695 43.9573C168.709 43.9608 168.722 43.9675 168.733 43.9769C168.745 43.9857 168.755 43.9969 168.763 44.01C168.771 44.0231 168.776 44.0379 168.779 44.0533C168.782 44.0688 168.782 44.0848 168.779 44.1003C168.776 44.1157 168.771 44.1305 168.763 44.1436L166.322 48.0836C166.28 48.1589 166.221 48.2212 166.152 48.2649C166.083 48.3085 166.006 48.3322 165.927 48.3336Z" fill="#668D95"/>
<g style="mix-blend-mode:multiply">
<path d="M173.456 54.9492H166.993V59.5626H173.456V54.9492Z" fill="#86BED1"/>
</g>
<path d="M173.175 54.4727H166.712V59.086H173.175V54.4727Z" fill="white"/>
<path d="M170.362 53.4492H169.524V55.7059H170.362V53.4492Z" fill="#233569"/>
<path d="M195.902 109.312C183.196 142.376 188.106 165.389 188.106 165.389C188.106 165.389 194.747 177.389 197.346 166.359C199.945 155.329 195.902 109.312 195.902 109.312Z" fill="#F6967A"/>
<path d="M208.512 69.332C209.041 70.7153 210.674 70.9986 212.296 70.9286C213.401 64.9286 215.507 58.352 214.096 57.4453C211.111 58.4253 207.357 66.312 208.512 69.332Z" fill="#F9B19D"/>
<path d="M122.906 91.4415C115.935 92.6282 117.263 101.442 121.822 106.318C125.6 110.355 138.069 122.798 143.266 116.965C146.011 113.885 141.621 109.652 136.337 103.632C131.612 98.2715 126.28 90.8682 122.906 91.4415Z" fill="#F6967A"/>
<path d="M142.732 116.751C142.496 117.106 142.2 117.405 141.86 117.632C141.521 117.858 141.145 118.008 140.754 118.071C140.363 118.135 139.965 118.111 139.582 118.002C139.2 117.892 138.84 117.699 138.524 117.434L135.592 114.977C134.953 114.442 134.53 113.643 134.415 112.758C134.3 111.872 134.504 110.972 134.98 110.254C135.217 109.898 135.514 109.598 135.854 109.37C136.194 109.143 136.57 108.993 136.962 108.93C137.354 108.866 137.753 108.889 138.136 108.999C138.52 109.108 138.881 109.301 139.198 109.567L142.129 112.024C142.768 112.561 143.19 113.361 143.303 114.247C143.416 115.134 143.211 116.034 142.732 116.751Z" fill="#F9B19D"/>
<path d="M120.3 108.459C113.766 111.412 116.873 119.659 122.296 123.215C126.799 126.169 138.498 133.642 142.362 126.625C144.403 122.919 139.264 119.932 132.888 115.449C127.188 111.442 123.455 107.029 120.3 108.459Z" fill="#F6967A"/>
<path d="M141.811 126.55C141.654 126.957 141.427 127.325 141.144 127.634C140.86 127.942 140.525 128.185 140.157 128.347C139.79 128.51 139.397 128.59 139.002 128.583C138.607 128.575 138.217 128.48 137.855 128.304L134.499 126.67C133.767 126.313 133.192 125.645 132.899 124.812C132.606 123.978 132.619 123.049 132.937 122.227V122.227C133.254 121.406 133.85 120.76 134.591 120.431C135.333 120.103 136.161 120.118 136.893 120.474L140.249 122.107C140.981 122.464 141.556 123.133 141.849 123.966C142.142 124.799 142.129 125.729 141.811 126.55V126.55Z" fill="#F9B19D"/>
<path d="M118.109 123.461C113.31 126.597 116.571 132.627 121.159 134.707C124.967 136.434 134.843 140.764 137.141 134.801C138.356 131.654 134.05 129.981 128.626 127.301C123.779 124.907 120.432 121.944 118.109 123.461Z" fill="#F6967A"/>
<path d="M136.702 134.819C136.536 135.498 136.137 136.076 135.593 136.426C135.049 136.776 134.403 136.871 133.797 136.689L131.017 135.846C130.411 135.66 129.895 135.212 129.582 134.601C129.269 133.989 129.185 133.263 129.348 132.582C129.514 131.903 129.913 131.324 130.458 130.974C131.003 130.624 131.649 130.53 132.255 130.712L135.035 131.556C135.641 131.742 136.156 132.19 136.468 132.802C136.781 133.413 136.865 134.138 136.702 134.819V134.819Z" fill="#F9B19D"/>
<g style="mix-blend-mode:multiply">
<path d="M158.86 161.692H187.45C186.583 153.672 187.667 142.488 187.667 142.488C187.017 158.775 191.35 168.742 190.483 168.742C189.616 168.742 158.86 161.692 158.86 161.692Z" fill="#FBC7B6"/>
</g>
<g style="mix-blend-mode:screen">
<path d="M197.631 113.855C184.99 128.598 185.792 169.605 198.21 161.188C210.628 152.771 212.363 96.6681 197.631 113.855Z" fill="#0F0F0F"/>
</g>
<g style="mix-blend-mode:multiply">
<path d="M198.544 106.055H167.572C166.596 106.055 165.66 106.49 164.969 107.264C164.278 108.039 163.89 109.089 163.889 110.185V114.001L161.478 117.581L164.053 117.011C164.286 117.852 164.753 118.586 165.386 119.107C166.018 119.628 166.782 119.909 167.566 119.908H198.544C199.52 119.908 200.457 119.473 201.147 118.699C201.838 117.924 202.226 116.874 202.227 115.778V110.185C202.226 109.089 201.838 108.039 201.147 107.264C200.457 106.49 199.52 106.055 198.544 106.055V106.055Z" fill="#86BED1"/>
</g>
<path d="M199.359 104.813H168.384C167.407 104.813 166.471 105.249 165.781 106.024C165.091 106.799 164.704 107.85 164.704 108.946V112.769L162.298 116.336L164.87 115.769C165.104 116.609 165.572 117.343 166.204 117.865C166.835 118.387 167.599 118.668 168.384 118.669H199.359C199.843 118.671 200.323 118.565 200.772 118.358C201.22 118.151 201.627 117.847 201.97 117.463C202.314 117.079 202.586 116.623 202.772 116.121C202.958 115.618 203.053 115.08 203.053 114.536V108.946C203.053 108.402 202.958 107.863 202.772 107.361C202.586 106.859 202.314 106.402 201.97 106.018C201.627 105.634 201.22 105.33 200.772 105.123C200.323 104.916 199.843 104.811 199.359 104.813V104.813Z" fill="white"/>
<g style="mix-blend-mode:multiply">
<path d="M118.621 119.129H149.596C150.573 119.129 151.509 119.564 152.2 120.338C152.89 121.113 153.279 122.163 153.279 123.259V127.086L155.679 130.669L153.107 130.099C152.871 130.936 152.404 131.667 151.772 132.186C151.141 132.704 150.379 132.983 149.596 132.982H118.621C117.645 132.982 116.709 132.547 116.018 131.773C115.328 130.998 114.939 129.948 114.938 128.852V123.259C114.939 122.163 115.328 121.113 116.018 120.338C116.709 119.564 117.645 119.129 118.621 119.129V119.129Z" fill="#86BED1"/>
</g>
<path d="M117.817 117.883H148.774C149.751 117.883 150.687 118.318 151.378 119.093C152.069 119.869 152.457 120.92 152.457 122.016V125.839L154.863 129.409L152.29 128.839C152.056 129.68 151.588 130.415 150.956 130.936C150.323 131.458 149.559 131.739 148.774 131.739H117.817C116.84 131.739 115.903 131.304 115.212 130.529C114.522 129.754 114.134 128.702 114.134 127.606V122.016C114.134 120.92 114.522 119.869 115.212 119.093C115.903 118.318 116.84 117.883 117.817 117.883V117.883Z" fill="white"/>
<path d="M149.945 132.334C144.448 135.018 115.991 146.214 115.991 146.214C118.347 141.881 114.851 129.774 107.467 130.688C109.395 124.978 103.627 120.211 98.5035 121.611C98.7708 116.944 86.8964 117.248 82.1443 119.324C77.3921 121.401 55.0749 138.038 49.7436 142.841C46.0934 146.131 23.6069 170.298 9.79004 185.191V185.838H102.457C107.824 180.571 113.96 172.088 113.716 167.624C142.897 151.548 160.644 141.414 160.691 135.891C160.739 130.368 155.443 129.668 149.945 132.334Z" fill="#F6967A"/>
<path d="M159.632 133.306C159.947 134.129 159.959 135.058 159.665 135.891C159.37 136.723 158.793 137.391 158.06 137.746L154.704 139.373C154.341 139.549 153.951 139.643 153.556 139.65C153.161 139.656 152.769 139.576 152.401 139.412C152.034 139.249 151.699 139.006 151.415 138.697C151.131 138.388 150.905 138.02 150.748 137.613V137.613C150.591 137.206 150.507 136.768 150.501 136.325C150.495 135.882 150.567 135.441 150.713 135.029C150.858 134.617 151.075 134.242 151.35 133.924C151.625 133.606 151.954 133.351 152.316 133.176L155.675 131.546C156.408 131.191 157.236 131.177 157.978 131.507C158.72 131.837 159.314 132.484 159.632 133.306V133.306Z" fill="#F9B19D"/>
<g style="mix-blend-mode:multiply">
<path d="M115.285 145.741C115.251 145.625 115.177 145.529 115.08 145.473C114.984 145.418 114.871 145.407 114.768 145.444L98.3461 151.361L97.069 150.541C97.0222 150.511 96.9706 150.491 96.9171 150.484C96.8637 150.476 96.8094 150.481 96.7574 150.496C96.7054 150.512 96.6567 150.54 96.6141 150.577C96.5715 150.614 96.5358 150.66 96.5091 150.712C96.4824 150.765 96.4652 150.823 96.4584 150.883C96.4516 150.943 96.4555 151.004 96.4697 151.062C96.4839 151.121 96.5082 151.175 96.5412 151.223C96.5742 151.271 96.6153 151.311 96.6621 151.341L97.8501 152.101L97.6244 153.624C97.6063 153.744 97.6315 153.868 97.6945 153.967C97.7574 154.066 97.8529 154.134 97.96 154.154H98.0283C98.1252 154.154 98.2188 154.116 98.2928 154.045C98.3667 153.975 98.4161 153.878 98.4323 153.771L98.6639 152.207L115.02 146.334C115.073 146.315 115.121 146.285 115.163 146.245C115.205 146.204 115.239 146.155 115.264 146.1C115.288 146.045 115.303 145.984 115.307 145.923C115.31 145.861 115.303 145.799 115.285 145.741ZM88.6696 139.751C88.5758 139.751 88.4849 139.714 88.4121 139.648C88.3393 139.582 88.2889 139.489 88.2695 139.386C88.25 139.283 88.2626 139.176 88.3052 139.082C88.3477 138.988 88.4176 138.914 88.5033 138.871C90.0774 138.081 103.948 131.167 106.288 131.167C106.345 131.162 106.402 131.17 106.455 131.19C106.509 131.211 106.558 131.244 106.6 131.287C106.642 131.33 106.675 131.382 106.698 131.441C106.721 131.499 106.733 131.562 106.733 131.626C106.733 131.689 106.721 131.752 106.698 131.811C106.675 131.869 106.642 131.922 106.6 131.965C106.558 132.008 106.509 132.041 106.455 132.061C106.402 132.082 106.345 132.09 106.288 132.084C104.456 132.084 93.0683 137.591 88.8359 139.711C88.7836 139.737 88.7269 139.751 88.6696 139.751ZM78.8356 129.941C78.7392 129.942 78.6455 129.906 78.5707 129.837C78.496 129.769 78.4451 129.673 78.427 129.567C78.409 129.461 78.4248 129.351 78.4718 129.256C78.5189 129.162 78.594 129.089 78.6842 129.051C81.6839 127.717 96.7007 121.051 97.6927 121.051C97.8014 121.051 97.9057 121.099 97.9825 121.186C98.0594 121.272 98.1026 121.389 98.1026 121.511C98.1026 121.633 98.0594 121.75 97.9825 121.836C97.9057 121.922 97.8014 121.971 97.6927 121.971C96.8284 122.067 86.0351 126.771 78.9812 129.911C78.9348 129.931 78.8854 129.941 78.8356 129.941ZM94.6781 184.974C94.6229 184.975 94.5681 184.964 94.5171 184.94C94.466 184.917 94.4197 184.882 94.3811 184.837L93.2881 183.611C93.2415 183.559 93.2069 183.495 93.1872 183.425C93.1675 183.355 93.1634 183.28 93.1752 183.207C93.186 183.135 93.2125 183.067 93.2524 183.009C93.2923 182.951 93.3443 182.904 93.4039 182.874C93.5465 182.797 107.117 175.897 112.778 167.931C112.811 167.884 112.853 167.844 112.9 167.815C112.947 167.786 112.999 167.767 113.052 167.76C113.106 167.753 113.16 167.758 113.212 167.775C113.264 167.792 113.312 167.82 113.354 167.857C113.396 167.895 113.431 167.942 113.457 167.995C113.483 168.047 113.5 168.106 113.506 168.166C113.512 168.226 113.508 168.286 113.493 168.345C113.478 168.403 113.453 168.457 113.419 168.504C108.198 175.837 96.9561 181.967 94.2771 183.424L94.9602 184.191C95.017 184.256 95.0552 184.339 95.0703 184.429C95.0853 184.518 95.0764 184.611 95.0447 184.695C95.0129 184.779 94.9598 184.851 94.892 184.901C94.8241 184.951 94.7445 184.978 94.6632 184.977L94.6781 184.974ZM93.3801 172.554C93.2977 172.553 93.2173 172.525 93.1496 172.472C93.0818 172.42 93.0298 172.345 93.0002 172.259C92.9707 172.172 92.9651 172.078 92.9842 171.988C93.0032 171.898 93.046 171.816 93.1069 171.754C94.188 170.661 95.0285 168.204 94.4999 166.144C94.0544 164.417 92.7178 163.294 90.6388 162.891C90.5491 162.853 90.4743 162.78 90.4272 162.687C90.3802 162.593 90.3639 162.484 90.3812 162.378C90.3985 162.272 90.4483 162.176 90.522 162.107C90.5956 162.039 90.6884 162.001 90.7843 162.001C93.8227 162.591 94.9097 164.451 95.284 165.904C95.9107 168.341 94.9454 171.147 93.6534 172.454C93.5761 172.523 93.479 172.559 93.3801 172.554ZM84.8798 156.804C84.8234 156.803 84.7679 156.789 84.7167 156.763C84.6655 156.737 84.6199 156.698 84.5827 156.651C84.5108 156.56 84.4735 156.442 84.479 156.321C84.4846 156.199 84.5326 156.086 84.6125 156.004C85.6965 154.911 86.5341 152.454 86.0054 150.394C85.5599 148.667 84.2234 147.541 82.1443 147.141C82.0913 147.131 82.0405 147.109 81.995 147.076C81.9495 147.044 81.9102 147.002 81.8791 146.953C81.8165 146.853 81.7917 146.729 81.8102 146.609C81.8287 146.489 81.889 146.382 81.9778 146.312C82.0667 146.241 82.1768 146.213 82.2839 146.234C85.3253 146.821 86.4094 148.681 86.7836 150.137C87.4103 152.574 86.445 155.381 85.153 156.687C85.0777 156.762 84.9805 156.804 84.8798 156.804ZM75.6576 143.001C75.6013 143 75.5458 142.986 75.4946 142.96C75.4434 142.933 75.3978 142.895 75.3606 142.847C75.3246 142.803 75.2968 142.751 75.2788 142.694C75.2608 142.637 75.2529 142.577 75.2557 142.517C75.2585 142.457 75.2718 142.398 75.2949 142.344C75.318 142.29 75.3504 142.241 75.3903 142.201C76.4714 141.107 77.312 138.651 76.7803 136.591C76.3378 134.864 74.9983 133.737 72.9192 133.337C72.8121 133.317 72.7167 133.249 72.654 133.149C72.5914 133.05 72.5666 132.926 72.5851 132.806C72.6036 132.686 72.6639 132.578 72.7528 132.508C72.8416 132.438 72.9517 132.41 73.0588 132.431C76.0972 133.017 77.1843 134.877 77.5585 136.334C78.1852 138.771 77.2199 141.577 75.9279 142.884C75.8527 142.957 75.7571 142.998 75.6576 143.001Z" fill="#FBC7B6"/>
</g>
</svg>
