<svg width="17" height="22" viewBox="0 0 17 22" fill="none" xmlns="http://www.w3.org/2000/svg">
<g clip-path="url(#clip0_6675_62514)">
<path d="M14.127 11.5996C14.127 9.86905 15.0588 8.35939 16.4412 7.55983C15.7194 6.66072 14.6336 5.85494 13.4366 5.6185C11.8044 5.29572 10.8734 5.83316 10.2711 6.04861C9.66881 6.26405 8.86881 6.45772 8.86881 6.45772C8.86881 6.45772 8.06957 6.26405 7.46651 6.04861C6.86498 5.83316 5.93394 5.29494 4.30176 5.61772C2.66957 5.9405 1.24429 7.32261 0.664976 8.55461C-0.452265 10.9323 0.00750499 13.9236 0.796777 16.0749C1.58528 18.2271 3.67034 21.2339 5.2872 21.4758C6.43739 21.6477 7.14927 20.8412 8.86881 20.6366C10.5883 20.8412 11.3002 21.6477 12.4504 21.4758C14.0673 21.2339 16.1523 18.2271 16.9408 16.0749C16.96 16.0221 16.9799 15.9676 16.9991 15.9132C15.3156 15.2272 14.127 13.5542 14.127 11.5996ZM8.46038 5.22494C8.46038 5.22494 10.0596 5.44039 11.5117 3.76661C12.9638 2.09283 12.5508 0.509274 12.5508 0.509274C12.5508 0.509274 10.9516 0.29383 9.49946 1.96761C8.04735 3.64139 8.46038 5.22494 8.46038 5.22494Z" fill="#4485FD"/>
</g>
<defs>
<clipPath id="clip0_6675_62514">
<rect width="17" height="21" fill="white" transform="translate(0 0.5)"/>
</clipPath>
</defs>
</svg>
