<svg width="30" height="30" viewBox="0 0 30 30" fill="none" xmlns="http://www.w3.org/2000/svg">
<path d="M7.56741 5.99991C7.90208 5.95645 8.24145 6.03069 8.52741 6.20991L18.2774 11.7524L15.8099 14.2499L7.56741 5.99991ZM6.81741 6.74991C6.77039 6.91319 6.74765 7.0825 6.74991 7.25241V22.7474C6.74765 22.9173 6.77039 23.0866 6.81741 23.2499L15.0674 14.9999L6.81741 6.74991ZM15.8174 15.7499L7.56741 23.9999C7.90224 24.0473 8.24295 23.9728 8.52741 23.7899L18.2774 18.2474L15.8174 15.7499ZM22.2074 13.9949L19.2524 12.3149L16.5524 14.9999L19.2449 17.6924L22.1999 16.0124C23.1749 15.4574 23.1749 14.5424 22.1999 13.9874L22.2074 13.9949Z" fill="white"/>
</svg>
