<svg width="62" height="62" viewBox="0 0 62 62" fill="none" xmlns="http://www.w3.org/2000/svg">
<circle cx="31" cy="31" r="31" fill="#F9F9F9"/>
<path d="M31 39.125V40.225C31 42.5625 30.0625 43.5 27.7125 43.5H21.775C19.9625 43.5 18.5 42.0375 18.5 40.225V34.2875C18.5 31.9375 19.4375 31 21.775 31H22.875V35.375C22.875 37.45 24.55 39.125 26.625 39.125H31Z" fill="url(#paint0_linear_6403_34458)"/>
<path d="M37.25 32.875V33.9625C37.25 35.775 35.775 37.25 33.9625 37.25H28.025C25.6875 37.25 24.75 36.3125 24.75 33.9625V28.025C24.75 26.2125 26.2125 24.75 28.025 24.75H29.125V29.125C29.125 31.2 30.8 32.875 32.875 32.875H37.25Z" fill="url(#paint1_linear_6403_34458)"/>
<path d="M43.5 21.775V27.7125C43.5 30.0625 42.5625 31 40.2125 31H34.275C31.9375 31 31 30.0625 31 27.7125V21.775C31 19.4375 31.9375 18.5 34.275 18.5H40.2125C42.5625 18.5 43.5 19.4375 43.5 21.775Z" fill="url(#paint2_linear_6403_34458)"/>
<defs>
<linearGradient id="paint0_linear_6403_34458" x1="24.75" y1="31" x2="24.75" y2="43.5" gradientUnits="userSpaceOnUse">
<stop stop-color="#6FA0F8"/>
<stop offset="1" stop-color="#2E61BF"/>
</linearGradient>
<linearGradient id="paint1_linear_6403_34458" x1="24.75" y1="21.3148" x2="40.2442" y2="23.3345" gradientUnits="userSpaceOnUse">
<stop offset="0.00132683" stop-color="#4485FD"/>
<stop offset="1" stop-color="#1A4187"/>
</linearGradient>
<linearGradient id="paint2_linear_6403_34458" x1="37.25" y1="18.5" x2="37.25" y2="31" gradientUnits="userSpaceOnUse">
<stop stop-color="#6FA0F8"/>
<stop offset="1" stop-color="#2E61BF"/>
</linearGradient>
</defs>
</svg>
