<svg width="1440" height="751" viewBox="0 0 1440 751" fill="none" xmlns="http://www.w3.org/2000/svg">
<mask id="path-1-inside-1_947_7412" fill="white">
<path fill-rule="evenodd" clip-rule="evenodd" d="M1440 0.623691L0 127.385V705.516L1440 750.104V0.623691Z"/>
</mask>
<path fill-rule="evenodd" clip-rule="evenodd" d="M1440 0.623691L0 127.385V705.516L1440 750.104V0.623691Z" fill="#24345D"/>
<path d="M1440 0.623691H1441V-0.468205L1439.91 -0.372457L1440 0.623691ZM0 127.385L-0.0876899 126.389L-1 126.47V127.385H0ZM0 705.516H-1V706.486L-0.0309491 706.516L0 705.516ZM1440 750.104L1439.97 751.104L1441 751.136V750.104H1440ZM1439.91 -0.372457L-0.0876899 126.389L0.0876899 128.382L1440.09 1.61984L1439.91 -0.372457ZM-1 127.385V705.516H1V127.385H-1ZM-0.0309491 706.516L1439.97 751.104L1440.03 749.105L0.0309491 704.517L-0.0309491 706.516ZM1441 750.104V0.623691H1439V750.104H1441Z" fill="#2F80ED" mask="url(#path-1-inside-1_947_7412)"/>
</svg>
