<svg width="68" height="68" viewBox="0 0 68 68" fill="none" xmlns="http://www.w3.org/2000/svg">
<circle cx="33.5" cy="21.5" r="17.5" fill="#4485FD"/>
<g filter="url(#filter0_d_226_758)">
<path opacity="0.4" d="M36.79 16H31.21C26.79 16 26.79 18.35 26.79 20.42V22.21C26.79 22.43 26.89 22.63 27.06 22.76C27.23 22.89 27.46 22.94 27.67 22.88C28.12 22.76 28.68 22.7 29.35 22.7C30.02 22.7 30.16 22.78 30.56 23.08L31.47 24.04C32.12 24.74 33.05 25.14 34.01 25.14C34.97 25.14 35.89 24.74 36.55 24.04L37.46 23.08C37.86 22.78 38 22.7 38.67 22.7C39.34 22.7 39.9 22.76 40.35 22.88C40.56 22.94 40.78 22.89 40.96 22.76C41.13 22.63 41.23 22.42 41.23 22.21V20.42C41.21 18.35 41.21 16 36.79 16Z" fill="white"/>
<path d="M36.2804 14.95C36.0204 15.21 35.5904 15.21 35.3304 14.95L34.6804 14.3V19.07C34.6804 19.44 34.3804 19.75 34.0004 19.75C33.6204 19.75 33.3204 19.45 33.3204 19.07V14.3L32.6704 14.95C32.4104 15.21 31.9804 15.21 31.7204 14.95C31.4604 14.69 31.4604 14.26 31.7204 14L33.5204 12.2C33.5304 12.19 33.5304 12.19 33.5404 12.19C33.6004 12.14 33.6604 12.09 33.7404 12.06C33.8304 12.02 33.9104 12 34.0004 12C34.0904 12 34.1704 12.02 34.2604 12.05C34.3404 12.08 34.4204 12.13 34.4804 12.2L36.2804 14C36.5404 14.26 36.5404 14.69 36.2804 14.95Z" fill="white"/>
<path d="M40.6897 21.5298C40.1197 21.3798 39.4497 21.2998 38.6497 21.2998C37.5397 21.2998 37.1297 21.5698 36.5597 21.9998C36.5297 22.0198 36.4997 22.0498 36.4697 22.0798L35.5197 23.0898C34.7197 23.9298 33.2797 23.9398 32.4797 23.0798L31.5297 22.0798C31.4997 22.0498 31.4697 22.0198 31.4397 21.9998C30.8697 21.5698 30.4597 21.2998 29.3497 21.2998C28.5497 21.2998 27.8797 21.3798 27.3097 21.5298C24.9297 22.1698 24.9297 24.0598 24.9297 25.7198V26.6498C24.9297 29.1598 24.9297 31.9998 30.2797 31.9998H37.7197C41.2697 31.9998 43.0697 30.1998 43.0697 26.6498V25.7198C43.0697 24.0598 43.0697 22.1698 40.6897 21.5298ZM36.3297 28.3998H31.6697C31.2897 28.3998 30.9797 28.0898 30.9797 27.6998C30.9797 27.3098 31.2897 26.9998 31.6697 26.9998H36.3297C36.7097 26.9998 37.0197 27.3098 37.0197 27.6998C37.0197 28.0898 36.7097 28.3998 36.3297 28.3998Z" fill="white"/>
<path opacity="0.4" d="M37.0205 27.7C37.0205 28.09 36.7105 28.4 36.3305 28.4H31.6705C31.2905 28.4 30.9805 28.09 30.9805 27.7C30.9805 27.31 31.2905 27 31.6705 27H36.3305C36.7105 27 37.0205 27.31 37.0205 27.7Z" fill="white"/>
</g>
<defs>
<filter id="filter0_d_226_758" x="-2" y="-2" width="72" height="72" filterUnits="userSpaceOnUse" color-interpolation-filters="sRGB">
<feFlood flood-opacity="0" result="BackgroundImageFix"/>
<feColorMatrix in="SourceAlpha" type="matrix" values="0 0 0 0 0 0 0 0 0 0 0 0 0 0 0 0 0 0 127 0" result="hardAlpha"/>
<feOffset dy="12"/>
<feGaussianBlur stdDeviation="12"/>
<feComposite in2="hardAlpha" operator="out"/>
<feColorMatrix type="matrix" values="0 0 0 0 0 0 0 0 0 0 0 0 0 0 0 0 0 0 0.04 0"/>
<feBlend mode="normal" in2="BackgroundImageFix" result="effect1_dropShadow_226_758"/>
<feBlend mode="normal" in="SourceGraphic" in2="effect1_dropShadow_226_758" result="shape"/>
</filter>
</defs>
</svg>
