<svg width="421" height="341" viewBox="0 0 421 341" fill="none" xmlns="http://www.w3.org/2000/svg">
<g clip-path="url(#clip0_6675_64147)">
<g clip-path="url(#clip1_6675_64147)">
<path d="M348.451 271.301C372.402 238.429 383.729 198.039 380.365 157.506C377.001 116.973 359.17 79.0029 330.127 50.529C301.085 22.0552 262.769 4.97784 222.178 2.41561C181.587 -0.146632 141.428 11.9772 109.036 36.5731C76.6436 61.169 54.1792 96.5957 45.745 136.384C37.3108 176.172 43.4696 217.666 63.0968 253.289C82.7239 288.912 114.51 316.286 152.65 330.413C190.789 344.54 232.738 344.477 270.835 330.236L253.036 282.621C226.368 292.591 197.004 292.635 170.306 282.746C143.608 272.857 121.358 253.695 107.619 228.758C93.8798 203.822 89.5687 174.776 95.4726 146.925C101.377 119.073 117.102 94.2746 139.776 77.0575C162.451 59.8404 190.562 51.3537 218.976 53.1472C247.39 54.9408 274.21 66.895 294.54 86.8266C314.87 106.758 327.352 133.338 329.707 161.71C332.062 190.083 324.132 218.357 307.367 241.367L348.451 271.301Z" fill="white"/>
<path d="M355.529 171.521C369.566 171.521 381.141 182.963 379.043 196.842C376.671 212.536 372.099 227.861 365.429 242.356C355.206 264.571 340.295 284.31 321.721 300.217C303.147 316.124 281.35 327.823 257.827 334.508C234.304 341.194 209.612 342.708 185.448 338.948C161.284 335.187 138.221 326.241 117.842 312.723C97.463 299.206 80.2515 281.437 67.3897 260.638C54.528 239.838 46.3208 216.502 43.332 192.23C41.3819 176.394 41.6834 160.404 44.1928 144.732C46.4121 130.871 60.916 123.488 74.2892 127.754C87.6624 132.019 94.7476 146.357 93.4233 160.331C92.6154 168.856 92.7308 177.469 93.7835 186.017C95.8757 203.007 101.621 219.343 110.624 233.903C119.627 248.462 131.675 260.9 145.94 270.363C160.206 279.825 176.35 286.087 193.265 288.72C210.18 291.352 227.464 290.292 243.93 285.612C260.396 280.932 275.654 272.743 288.656 261.608C301.658 250.473 312.095 236.656 319.251 221.105C322.852 213.281 325.579 205.111 327.4 196.743C330.385 183.027 341.492 171.521 355.529 171.521Z" fill="#9972F1"/>
<path d="M140.52 296.839C133.601 309.053 117.941 313.485 106.898 304.819C83.0335 286.091 64.5041 261.192 53.456 232.607C42.4079 204.022 39.3749 173.133 44.4409 143.224C46.7851 129.384 61.3554 122.132 74.6896 126.518C88.0238 130.904 94.9789 145.305 93.5289 159.267C91.6031 177.81 94.0635 196.67 100.87 214.281C107.677 231.892 118.541 247.505 132.437 259.933C142.9 269.29 147.438 284.625 140.52 296.839Z" fill="#00C5C9"/>
<path d="M233.278 313.891C235.4 327.767 225.839 340.938 211.802 340.963C181.221 341.017 151.023 332.789 124.509 316.926C97.9957 301.063 76.4673 278.344 62.0558 251.371C55.4408 238.99 62.5266 224.338 75.7567 219.648C88.9869 214.957 103.3 222.091 110.697 234.021C120.611 250.011 134.255 263.521 150.608 273.304C166.96 283.088 185.316 288.723 204.092 289.899C218.102 290.776 231.156 300.016 233.278 313.891Z" fill="#F72585"/>
<path d="M321.825 264.11C332.577 273.134 334.087 289.339 323.557 298.622C301.962 317.66 275.757 330.98 247.347 337.129C218.937 343.277 189.57 341.986 162.035 333.581C148.61 329.483 143.283 314.104 149.342 301.441C155.4 288.779 170.574 283.726 184.235 286.953C201.331 290.992 219.219 291.207 236.594 287.446C253.97 283.686 270.167 276.093 284.064 265.347C295.168 256.76 311.073 255.086 321.825 264.11Z" fill="#FFD600"/>
<path d="M168.981 181.217V149.311H164.266C162.647 151.359 160.409 152.168 157.79 152.168V156.073H163.6V181.217H168.981ZM187.607 181.645C196.512 181.645 200.989 174.598 200.989 165.216C200.989 155.883 196.512 148.835 187.607 148.835C178.702 148.835 174.178 155.883 174.178 165.216C174.178 174.598 178.702 181.645 187.607 181.645ZM187.607 176.502C181.941 176.502 179.845 171.931 179.845 165.216C179.845 158.55 181.941 153.93 187.607 153.93C193.322 153.93 195.369 158.55 195.369 165.216C195.369 171.931 193.322 176.502 187.607 176.502ZM218.719 181.645C227.624 181.645 232.1 174.598 232.1 165.216C232.1 155.883 227.624 148.835 218.719 148.835C209.814 148.835 205.29 155.883 205.29 165.216C205.29 174.598 209.814 181.645 218.719 181.645ZM218.719 176.502C213.052 176.502 210.956 171.931 210.956 165.216C210.956 158.55 213.052 153.93 218.719 153.93C224.433 153.93 226.481 158.55 226.481 165.216C226.481 171.931 224.433 176.502 218.719 176.502ZM243.161 181.836L266.352 148.692H261.304L238.065 181.836H243.161ZM242.923 164.55C247.304 164.55 250.542 161.502 250.542 156.692C250.542 151.93 247.304 148.883 242.923 148.883C238.542 148.883 235.303 151.93 235.303 156.692C235.303 161.502 238.542 164.55 242.923 164.55ZM242.923 160.597C240.923 160.597 239.78 159.216 239.78 156.692C239.78 154.169 240.923 152.788 242.923 152.788C244.97 152.788 246.161 154.169 246.161 156.692C246.161 159.216 244.97 160.597 242.923 160.597ZM261.685 181.217C266.066 181.217 269.304 178.169 269.304 173.359C269.304 168.597 266.066 165.55 261.685 165.55C257.304 165.55 254.066 168.597 254.066 173.359C254.066 178.169 257.304 181.217 261.685 181.217ZM261.685 177.264C259.685 177.264 258.494 175.883 258.494 173.359C258.494 170.788 259.685 169.455 261.685 169.455C263.685 169.455 264.923 170.788 264.923 173.359C264.923 175.883 263.685 177.264 261.685 177.264Z" fill="white"/>
</g>
</g>
<defs>
<clipPath id="clip0_6675_64147">
<rect width="420.928" height="340.963" fill="white"/>
</clipPath>
<clipPath id="clip1_6675_64147">
<rect width="340.963" height="340.963" fill="white" transform="translate(39.9827)"/>
</clipPath>
</defs>
</svg>
