<svg width="342" height="341" viewBox="0 0 342 341" fill="none" xmlns="http://www.w3.org/2000/svg">
<g clip-path="url(#clip0_6675_64148)">
<path d="M309.451 271.301C333.402 238.429 344.729 198.039 341.365 157.506C338.001 116.973 320.17 79.0029 291.127 50.529C262.085 22.0552 223.769 4.97784 183.178 2.41561C142.587 -0.146632 102.428 11.9772 70.0359 36.5731C37.6436 61.169 15.1792 96.5958 6.74497 136.384C-1.68923 176.172 4.46961 217.666 24.0968 253.289C43.7239 288.912 75.5098 316.286 113.65 330.413C151.789 344.54 193.738 344.477 231.835 330.236L214.036 282.621C187.368 292.591 158.004 292.635 131.306 282.746C104.608 272.857 82.3579 253.695 68.6189 228.759C54.8798 203.822 50.5687 174.776 56.4726 146.925C62.3765 119.073 78.1017 94.2746 100.776 77.0575C123.451 59.8404 151.562 51.3537 179.976 53.1472C208.39 54.9408 235.21 66.895 255.54 86.8266C275.87 106.758 288.352 133.338 290.707 161.71C293.062 190.083 285.132 218.357 268.367 241.367L309.451 271.301Z" fill="white"/>
<path d="M316.529 171.521C330.566 171.521 342.141 182.963 340.043 196.842C337.671 212.536 333.099 227.861 326.429 242.356C316.206 264.571 301.295 284.31 282.721 300.217C264.147 316.124 242.35 327.823 218.827 334.508C195.304 341.194 170.612 342.708 146.448 338.948C122.284 335.187 99.2209 326.241 78.8419 312.723C58.463 299.206 41.2515 281.437 28.3897 260.638C15.528 239.838 7.32085 216.502 4.332 192.23C2.38186 176.394 2.68342 160.404 5.19279 144.732C7.41205 130.871 21.916 123.488 35.2892 127.754V127.754C48.6624 132.019 55.7476 146.357 54.4233 160.331C53.6154 168.856 53.7308 177.469 54.7835 186.017C56.8757 203.007 62.6207 219.343 71.6239 233.903C80.6271 248.462 92.6752 260.9 106.94 270.363C121.206 279.825 137.35 286.087 154.265 288.72C171.18 291.352 188.464 290.292 204.93 285.612C221.396 280.932 236.654 272.743 249.656 261.608C262.658 250.473 273.095 236.656 280.251 221.105C283.852 213.281 286.579 205.111 288.4 196.743C291.385 183.027 302.492 171.521 316.529 171.521V171.521Z" fill="#9972F1"/>
<path d="M101.52 296.839C94.6013 309.053 78.9406 313.485 67.8979 304.819C44.0335 286.091 25.5041 261.192 14.456 232.607C3.40786 204.022 0.374902 173.134 5.4409 143.224C7.78507 129.384 22.3554 122.132 35.6896 126.518V126.518C49.0238 130.904 55.9789 145.305 54.5289 159.267C52.6031 177.81 55.0635 196.67 61.8703 214.281C68.677 231.892 79.5406 247.505 93.4366 259.933C103.9 269.29 108.438 284.625 101.52 296.839V296.839Z" fill="#00C5C9"/>
<path d="M194.278 313.891C196.4 327.767 186.839 340.938 172.802 340.963C142.221 341.017 112.023 332.789 85.5092 316.926C58.9957 301.063 37.4673 278.344 23.0558 251.371C16.4408 238.99 23.5266 224.338 36.7567 219.648V219.648C49.9869 214.957 64.3003 222.091 71.6971 234.021C81.611 250.011 95.2547 263.521 111.608 273.304C127.96 283.088 146.316 288.723 165.092 289.899C179.102 290.776 192.156 300.016 194.278 313.891V313.891Z" fill="#F72585"/>
<path d="M282.825 264.11C293.577 273.134 295.087 289.339 284.557 298.622C262.962 317.66 236.757 330.98 208.347 337.129C179.937 343.277 150.57 341.986 123.035 333.581C109.61 329.483 104.283 314.104 110.342 301.441V301.441C116.4 288.779 131.574 283.726 145.235 286.953C162.331 290.992 180.219 291.207 197.594 287.446C214.97 283.686 231.167 276.093 245.064 265.347C256.168 256.76 272.073 255.086 282.825 264.11V264.11Z" fill="#FFD600"/>
<path d="M129.981 181.217V149.311H125.266C123.647 151.359 121.409 152.168 118.79 152.168V156.073H124.6V181.217H129.981ZM148.607 181.645C157.512 181.645 161.989 174.598 161.989 165.216C161.989 155.883 157.512 148.835 148.607 148.835C139.702 148.835 135.178 155.883 135.178 165.216C135.178 174.598 139.702 181.645 148.607 181.645ZM148.607 176.502C142.941 176.502 140.845 171.931 140.845 165.216C140.845 158.55 142.941 153.93 148.607 153.93C154.322 153.93 156.369 158.55 156.369 165.216C156.369 171.931 154.322 176.502 148.607 176.502ZM179.719 181.645C188.624 181.645 193.1 174.598 193.1 165.216C193.1 155.883 188.624 148.835 179.719 148.835C170.814 148.835 166.29 155.883 166.29 165.216C166.29 174.598 170.814 181.645 179.719 181.645ZM179.719 176.502C174.052 176.502 171.956 171.931 171.956 165.216C171.956 158.55 174.052 153.93 179.719 153.93C185.433 153.93 187.481 158.55 187.481 165.216C187.481 171.931 185.433 176.502 179.719 176.502ZM204.161 181.836L227.352 148.692H222.304L199.065 181.836H204.161ZM203.923 164.55C208.304 164.55 211.542 161.502 211.542 156.692C211.542 151.93 208.304 148.883 203.923 148.883C199.542 148.883 196.303 151.93 196.303 156.692C196.303 161.502 199.542 164.55 203.923 164.55ZM203.923 160.597C201.923 160.597 200.78 159.216 200.78 156.692C200.78 154.169 201.923 152.788 203.923 152.788C205.97 152.788 207.161 154.169 207.161 156.692C207.161 159.216 205.97 160.597 203.923 160.597ZM222.685 181.217C227.066 181.217 230.304 178.169 230.304 173.359C230.304 168.597 227.066 165.55 222.685 165.55C218.304 165.55 215.066 168.597 215.066 173.359C215.066 178.169 218.304 181.217 222.685 181.217ZM222.685 177.264C220.685 177.264 219.494 175.883 219.494 173.359C219.494 170.788 220.685 169.455 222.685 169.455C224.685 169.455 225.923 170.788 225.923 173.359C225.923 175.883 224.685 177.264 222.685 177.264Z" fill="white"/>
</g>
<defs>
<clipPath id="clip0_6675_64148">
<rect width="340.963" height="340.963" fill="white" transform="translate(0.982666)"/>
</clipPath>
</defs>
</svg>
