<svg width="104" height="25" viewBox="0 0 104 25" fill="none" xmlns="http://www.w3.org/2000/svg">
<path d="M35.1841 15.1619C37.3858 15.1619 39.0371 14.0286 39.0371 12.0697C39.0371 9.99749 37.483 9.31754 35.7507 8.89662L34.5365 8.60521C33.3547 8.3138 32.61 7.97382 32.61 7.01865C32.61 6.19299 33.3547 5.70731 34.3908 5.70731C35.7183 5.70731 36.8839 6.29013 37.483 7.63385L38.859 6.32251C38.082 4.83309 36.4954 4.00743 34.5041 4.00743C32.4643 4.00743 30.6996 5.10831 30.6996 7.14817C30.6996 9.20421 32.3347 9.90035 33.8727 10.2241L34.8927 10.4508C36.3011 10.7584 37.1754 11.0498 37.1754 12.1021C37.1754 13.0897 36.3011 13.4782 35.2164 13.4782C33.8889 13.4782 32.2538 12.863 31.671 11.2764L30.3758 12.5878C31.2177 14.4172 33.1118 15.1619 35.1841 15.1619ZM43.1598 15.1781C44.3093 15.1781 45.0864 14.6438 45.4264 14.142L44.8597 12.523C44.6331 12.9763 44.1798 13.4782 43.5646 13.4782C43.0303 13.4782 42.6256 13.2677 42.6256 12.4097V8.52426H45.0378V7.11579H42.6256V5.01117L40.8124 6.16062V7.11579H39.582V8.52426H40.8124V12.8468C40.8124 14.2391 41.6704 15.1781 43.1598 15.1781ZM48.0965 15.1619C49.7478 15.1619 50.5087 13.9315 50.7515 12.8954V13.4782C50.7515 14.6115 51.4153 15 52.2571 15H53.3742V13.4458H52.8723C52.5809 13.4458 52.4514 13.3325 52.4514 12.9763V10.0137C52.4514 8.07096 51.3505 6.95389 49.3916 6.95389C47.6432 6.95389 46.4128 7.8605 45.7976 8.70234L46.8823 9.99749C47.3356 9.17183 48.1612 8.55664 49.2135 8.55664C50.2982 8.55664 50.6544 9.09089 50.7191 9.88417L48.0803 11.0012C46.8013 11.5031 46.0242 12.1831 46.0242 13.3001C46.0242 14.4334 46.8013 15.1619 48.0965 15.1619ZM47.7727 13.0249C47.7727 12.6202 48.0479 12.3449 48.7278 12.0373L50.7515 11.1307V11.9726C50.7515 13.0411 49.942 13.7534 48.744 13.7534C48.0803 13.7534 47.7727 13.4782 47.7727 13.0249ZM56.574 15V12.9116C56.833 14.1258 57.4968 15.1781 59.0671 15.1781C61.0261 15.1781 62.2565 13.6077 62.2565 11.066C62.2565 8.52426 61.0261 6.95389 59.0995 6.95389C57.5292 6.95389 56.833 8.0062 56.574 9.23659V4.15314H54.7608V15H56.574ZM56.574 11.5679V10.5803C56.574 9.28516 57.1082 8.42712 58.3872 8.42712C59.5366 8.42712 60.3947 9.30135 60.3947 11.066C60.3947 12.8468 59.5366 13.7049 58.3872 13.7049C57.1082 13.7049 56.574 12.863 56.574 11.5679ZM65.554 15V4.15314H63.7408V15H65.554ZM70.9688 15.1619C72.7173 15.1619 73.7858 14.3686 74.3848 13.462L73.2677 12.2964C72.9763 12.9601 72.3611 13.6725 70.985 13.6725C69.7385 13.6725 68.9128 12.9116 68.8157 11.5031H74.4496C74.4819 11.3412 74.5143 11.0012 74.5143 10.7098C74.5143 8.52426 73.203 6.95389 70.8393 6.95389C68.6214 6.95389 67.0834 8.58902 67.0834 11.066C67.0834 13.5268 68.6214 15.1619 70.9688 15.1619ZM70.8393 8.41094C72.0373 8.41094 72.7497 9.09089 72.8792 10.3375H68.8319C68.9776 9.05851 69.7223 8.41094 70.8393 8.41094Z" fill="#4894FE"/>
<path d="M80.345 15C83.7124 15 85.5094 12.9278 85.5094 9.57657C85.5094 6.22537 83.6962 4.15314 80.345 4.15314H76.2491V15H80.345ZM80.1184 5.77207C82.3687 5.77207 83.5991 6.85676 83.5991 9.57657C83.5991 12.2964 82.3687 13.3811 80.1346 13.3811H78.0785V5.77207H80.1184ZM90.5532 15.1619C92.852 15.1619 94.4062 13.5106 94.4062 11.066C94.4062 8.60521 92.852 6.95389 90.5532 6.95389C88.2866 6.95389 86.7325 8.60521 86.7325 11.066C86.7325 13.5106 88.2866 15.1619 90.5532 15.1619ZM90.5693 13.6563C89.4037 13.6563 88.5942 12.8792 88.5942 11.066C88.5942 9.23659 89.4037 8.4595 90.5693 8.4595C91.7512 8.4595 92.5606 9.23659 92.5606 11.066C92.5606 12.8792 91.7512 13.6563 90.5693 13.6563ZM99.5355 15.1619C101.511 15.1619 102.757 14.0448 103.178 12.5554L101.543 11.7459C101.365 12.8792 100.798 13.6401 99.5678 13.6401C98.3213 13.6401 97.5604 12.7173 97.5604 11.066C97.5604 9.39849 98.3213 8.47569 99.5678 8.47569C100.782 8.47569 101.365 9.23659 101.543 10.3698L103.178 9.56038C102.757 8.07096 101.511 6.95389 99.5355 6.95389C97.188 6.95389 95.7148 8.60521 95.7148 11.066C95.7148 13.5106 97.188 15.1619 99.5355 15.1619Z" fill="#1A4187"/>
<path fill-rule="evenodd" clip-rule="evenodd" d="M21.786 7.36265C21.6067 7.66798 21.5047 8.21199 21.2404 8.61838C20.7262 9.40894 19.1422 10.8825 18.4268 11.5893C17.728 12.2797 17.2832 12.7475 16.5199 13.5685C16.2815 13.8249 14.9072 15.3103 14.5531 15.4975C14.0521 15.2168 13.9095 14.7382 13.3612 14.5861C12.6946 14.4013 12.0578 14.7455 12.0115 15.3056C10.9088 15.8686 14.5512 18.9571 14.5531 18.958C14.8721 18.8266 15.0271 18.5595 15.2935 18.2755C15.5841 17.9657 15.7649 17.8067 16.0276 17.5334L21.9378 11.4729C23.0183 10.3768 23.876 9.34569 24.1626 7.70363C24.2762 7.052 24.3211 6.28431 24.2494 5.60803C24.2418 5.53687 24.2095 5.32131 24.1881 5.25573C23.9924 4.65464 24.3517 5.59421 24.1212 5.09928C24.111 5.07751 24.0873 5.04317 24.0784 5.02592C24.0695 5.00871 24.0509 4.97616 24.0328 4.95451C24.157 3.34767 21.8834 0.563708 18.979 0.0807087C16.8901 -0.266731 14.7216 0.564934 13.451 1.99867C13.13 2.36099 12.5608 2.99963 12.1717 3.2486C11.1765 2.9023 9.85949 -0.388972 5.54982 0.0381717C0.395247 0.549247 -1.82387 7.10549 1.74604 10.8757C3.13522 12.343 4.45325 13.6701 5.78977 15.0254C6.50003 15.7459 9.34167 18.5145 9.7406 19.1699C10.4181 20.2832 9.94751 21.5986 8.81037 21.7912C7.60309 21.9956 6.97612 21.0001 6.17662 20.4946C6.13781 18.7265 6.22846 18.202 5.05029 17.3761C2.96655 15.9155 0.152616 18.3248 1.34345 20.7765C1.96815 22.0623 2.84861 22.1347 4.10291 22.1918C4.9224 22.229 5.42229 23.2188 6.61892 23.8425C7.5115 24.3078 8.98726 24.4723 10.0114 24.0051C12.925 22.6758 12.7778 19.2144 12.0222 18.465C11.9566 17.5641 8.13283 13.9582 7.4211 13.2412C6.61275 12.427 5.84281 11.6359 4.97715 10.7474C3.84618 9.58636 3.50032 9.37947 2.69621 8.00417C1.38653 2.88103 6.13917 1.49461 8.38147 3.08378C8.80617 3.38475 9.03824 3.66521 9.44774 4.01494C9.69514 4.2261 9.75697 4.3335 9.96913 4.55138C10.235 4.82411 10.3136 4.80457 10.2724 5.29941C10.1042 5.41789 6.08202 9.49592 5.97185 9.70607L5.72375 9.92306C5.94093 10.3946 6.60568 10.9393 6.94381 11.2827C7.24009 11.5836 7.96198 12.464 8.27577 12.5704C9.13937 12.8635 9.82582 12.4264 9.95635 11.733C10.1305 10.8093 9.3547 10.5196 9.15088 9.94991C9.41304 9.48315 11.6021 7.32705 12.1699 6.75095L15.2991 3.57705C17.8481 1.22497 22.248 2.57727 21.7859 7.36265H21.786ZM3.23122 18.4253C1.65099 19.0259 2.66291 21.0922 3.92334 20.653C5.37654 20.1466 4.67023 17.8785 3.23122 18.4253Z" fill="#4485FD"/>
</svg>
