<svg width="195" height="45" viewBox="0 0 195 45" fill="none" xmlns="http://www.w3.org/2000/svg">
<path fill-rule="evenodd" clip-rule="evenodd" d="M40.8917 13.4336C40.5552 13.9907 40.3638 14.9833 39.8678 15.7248C38.9025 17.1672 35.9294 19.8557 34.5866 21.1454C33.275 22.4051 32.44 23.2587 31.0074 24.7565C30.5599 25.2244 27.9804 27.9345 27.3158 28.2761C26.3754 27.7639 26.1077 26.8908 25.0786 26.6133C23.8274 26.2761 22.6323 26.9041 22.5452 27.926C20.4756 28.9532 27.3122 34.5884 27.3158 34.59C27.9145 34.3502 28.2054 33.863 28.7055 33.3448C29.2508 32.7795 29.5903 32.4895 30.0834 31.9907L41.1767 20.9329C43.2047 18.9332 44.8146 17.0518 45.3525 14.0557C45.5657 12.8668 45.6501 11.4661 45.5155 10.2322C45.5012 10.1024 45.4406 9.70906 45.4004 9.58941C45.0331 8.49267 45.7075 10.207 45.2748 9.30396C45.2558 9.26423 45.2112 9.20158 45.1946 9.17011C45.1778 9.13871 45.1429 9.0793 45.1088 9.0398C45.3421 6.10802 41.0746 1.02852 35.6231 0.147258C31.7023 -0.486667 27.6321 1.03076 25.2471 3.64669C24.6446 4.30777 23.5763 5.47302 22.8459 5.92727C20.9781 5.29542 18.506 -0.709703 10.4169 0.0696466C0.741869 1.00214 -3.42335 12.9644 3.27727 19.8434C5.88473 22.5205 8.35863 24.9419 10.8673 27.4148C12.2004 28.7294 17.5341 33.7808 18.2829 34.9767C19.5545 37.0079 18.6712 39.4081 16.5368 39.7595C14.2708 40.1324 13.094 38.3159 11.5933 37.3936C11.5205 34.1676 11.6907 33.2107 9.47926 31.7038C5.56814 29.0387 0.286457 33.4348 2.52162 37.9081C3.69417 40.2541 5.34676 40.3861 7.70105 40.4903C9.23921 40.5583 10.1775 42.3641 12.4235 43.5021C14.0989 44.351 16.8689 44.6513 18.7912 43.7987C24.2598 41.3735 23.9835 35.0578 22.5653 33.6905C22.4421 32.0467 15.2651 25.4676 13.9292 24.1594C12.412 22.6738 10.9668 21.2304 9.34199 19.6093C7.21918 17.4909 6.57001 17.1134 5.06072 14.6041C2.60248 5.25662 11.5231 2.72701 15.7318 5.62654C16.529 6.17568 16.9645 6.68741 17.7331 7.3255C18.1975 7.71077 18.3136 7.90673 18.7118 8.30427C19.2108 8.80188 19.3584 8.76624 19.281 9.6691C18.9654 9.88527 11.4158 17.3259 11.209 17.7093L10.7433 18.1052C11.151 18.9655 12.3987 19.9595 13.0333 20.586C13.5895 21.1349 14.9444 22.7414 15.5334 22.9355C17.1544 23.4702 18.4428 22.6727 18.6878 21.4076C19.0147 19.7222 17.5585 19.1936 17.176 18.1542C17.668 17.3026 21.7768 13.3687 22.8426 12.3175L28.716 6.52655C33.5004 2.23504 41.7589 4.70239 40.8916 13.4336H40.8917ZM6.06491 33.618C3.09887 34.7139 4.99821 38.4841 7.36401 37.6826C10.0916 36.7586 8.76589 32.6204 6.06491 33.618Z" fill="white" fill-opacity="0.9"/>
<path d="M70.4774 30.9492C74.3174 30.9492 77.1826 28.8815 77.1826 25.455C77.1826 21.556 74.1106 20.463 71.3045 19.7837L69.1482 19.252C66.8737 18.6907 65.4263 17.9523 65.4263 15.9732C65.4263 14.1418 67.051 13.0489 69.2368 13.0489C71.8066 13.0489 73.8153 14.1418 74.7605 16.8298L76.9168 15.1166C75.7057 12.1627 72.87 10.5972 69.2959 10.5972C65.8399 10.5972 62.7088 12.5467 62.7088 16.1504C62.7088 19.8723 65.6922 21.0538 68.3211 21.6446L70.182 22.0581C72.811 22.6784 74.5537 23.2397 74.5537 25.5141C74.5537 27.6704 72.6928 28.527 70.4774 28.527C67.9962 28.527 64.9242 27.375 64.0085 24.1553L62.059 25.8686C63.3586 29.5313 66.7556 30.9492 70.4774 30.9492ZM84.7976 30.9787C86.7766 30.9787 88.1354 30.063 88.7557 29.0883L87.8991 26.548C87.5151 27.4341 86.629 28.4975 85.3588 28.4975C84.2363 28.4975 83.3797 28.0544 83.3797 26.223V18.3658H88.0763V16.3572H83.3797V12.6353L80.8099 14.5258V16.3572H78.5059V18.3658H80.8099V26.991C80.8099 29.4427 82.464 30.9787 84.7976 30.9787ZM93.8123 30.9492C96.7662 30.9492 98.3022 28.8224 98.7748 26.932V27.9363C98.7748 29.9449 99.8382 30.6538 101.315 30.6538H102.969V28.3203H102.054C101.522 28.3203 101.256 28.1135 101.256 27.4341V21.556C101.256 18.159 99.3656 16.0618 95.8505 16.0618C92.6603 16.0618 90.5336 17.8637 89.677 19.3406L91.4197 21.1424C92.1582 19.5769 93.517 18.3953 95.5551 18.3953C97.8 18.3953 98.5976 19.636 98.6862 21.3197L93.517 23.6237C91.4788 24.5393 90.0314 25.7504 90.0314 27.6704C90.0314 29.5609 91.3902 30.9492 93.8123 30.9492ZM92.6308 27.2569C92.6308 26.3707 93.2511 25.78 94.6099 25.1301L98.7748 23.1806V25.1597C98.7748 27.2273 97.0616 28.8224 94.6394 28.8224C93.3102 28.8224 92.6308 28.2317 92.6308 27.2569ZM108.515 30.6538V26.991C109.017 29.1769 110.376 31.0083 113.123 31.0083C116.756 31.0083 119.001 28.0544 119.001 23.535C119.001 19.0157 116.756 16.0618 113.123 16.0618C110.376 16.0618 109.017 17.8932 108.515 20.079V10.863H105.945V30.6538H108.515ZM108.515 24.5689V22.5307C108.515 20.1677 109.519 18.2477 112.237 18.2477C114.541 18.2477 116.402 19.9018 116.402 23.535C116.402 27.1978 114.541 28.852 112.237 28.852C109.519 28.852 108.515 26.932 108.515 24.5689ZM124.669 30.6538V10.863H122.099V30.6538H124.669ZM134.616 30.9492C137.718 30.9492 139.697 29.5018 140.76 27.7886L139.195 26.0163C138.634 27.2569 137.482 28.8224 134.616 28.8224C132.076 28.8224 130.392 27.1092 130.245 24.0963H140.849C140.908 23.8304 140.967 23.3873 140.967 22.9443C140.967 18.7498 138.516 16.0618 134.469 16.0618C130.54 16.0618 127.764 18.9861 127.764 23.5055C127.764 28.0544 130.57 30.9492 134.616 30.9492ZM134.469 18.2181C136.861 18.2181 138.397 19.6064 138.663 22.2353H130.304C130.629 19.5769 132.165 18.2181 134.469 18.2181ZM151.578 30.6538C157.81 30.6538 160.912 27.0206 160.912 20.7584C160.912 14.4963 157.81 10.863 151.578 10.863H144.577V30.6538H151.578ZM151.164 13.1375C155.654 13.1375 158.253 15.1166 158.253 20.7584C158.253 26.4003 155.654 28.3793 151.164 28.3793H147.147V13.1375H151.164ZM170.175 30.9492C174.134 30.9492 176.94 28.0249 176.94 23.5055C176.94 18.9861 174.134 16.0618 170.175 16.0618C166.217 16.0618 163.441 18.9861 163.441 23.5055C163.441 28.0249 166.217 30.9492 170.175 30.9492ZM170.175 28.7929C167.753 28.7929 166.07 27.1092 166.07 23.5055C166.07 19.8723 167.753 18.2181 170.175 18.2181C172.627 18.2181 174.34 19.8723 174.34 23.5055C174.34 27.1092 172.627 28.7929 170.175 28.7929ZM186.392 30.9492C190.114 30.9492 192.3 28.7929 192.979 25.9277L190.468 24.8938C190.173 27.1683 188.991 28.8224 186.421 28.8224C183.822 28.8224 182.256 26.8729 182.256 23.5055C182.256 20.1381 183.822 18.2181 186.421 18.2181C188.991 18.2181 190.173 19.8427 190.468 22.1172L192.979 21.0833C192.3 18.2181 190.114 16.0618 186.392 16.0618C182.286 16.0618 179.657 18.9861 179.657 23.5055C179.657 28.0544 182.286 30.9492 186.392 30.9492Z" fill="white" fill-opacity="0.9"/>
</svg>
