<svg width="113" height="109" viewBox="0 0 113 109" fill="none" xmlns="http://www.w3.org/2000/svg">
<rect x="0.0117188" width="112.977" height="109" rx="54.5" fill="#E1EDFF"/>
<path d="M74.3952 80.5191L70.6836 76.8074L74.8592 72.5656H63.7906V67.2632H74.8592L70.6836 63.0214L74.3952 59.3097L84.9999 69.9144L74.3952 80.5191ZM37.2789 72.5656C35.8208 72.5656 34.5729 72.0468 33.5354 71.0093C32.4962 69.9701 31.9766 68.7214 31.9766 67.2632V40.7516C31.9766 39.2934 32.4962 38.0447 33.5354 37.0055C34.5729 35.968 35.8208 35.4492 37.2789 35.4492H71.7441C73.2022 35.4492 74.4509 35.968 75.4902 37.0055C76.5277 38.0447 77.0464 39.2934 77.0464 40.7516V54.2725C76.6045 54.1841 76.1627 54.1179 75.7208 54.0737C75.2789 54.0295 74.8371 54.0074 74.3952 54.0074C73.9534 54.0074 73.5115 54.018 73.0696 54.0392C72.6278 54.0622 72.1859 54.1179 71.7441 54.2062V44.4632L54.2464 56.6586L37.2789 44.5295V67.2632H58.6871C58.5987 67.7051 58.543 68.1469 58.52 68.5888C58.4988 69.0307 58.4882 69.4725 58.4882 69.9144C58.4882 70.3563 58.5103 70.7981 58.5545 71.24C58.5987 71.6818 58.665 72.1237 58.7533 72.5656H37.2789ZM41.1231 40.7516L54.2464 50.1632L67.7673 40.7516H41.1231Z" fill="#4485FD"/>
</svg>
