<svg width="105" height="104" viewBox="0 0 105 104" fill="none" xmlns="http://www.w3.org/2000/svg">
<rect x="0.597656" width="104" height="104" rx="52" fill="#E1EDFF"/>
<path d="M69.4149 71.0387C64.8668 71.0387 60.4336 70.0247 56.1153 67.9967C51.7956 65.9701 47.9702 63.2906 44.6391 59.9581C41.3067 56.6271 38.6271 52.8017 36.6006 48.482C34.5726 44.1637 33.5586 39.7305 33.5586 35.1824C33.5586 34.5477 33.7701 34.0189 34.1932 33.5958C34.6163 33.1727 35.1452 32.9612 35.7798 32.9612H44.3472C44.8408 32.9612 45.2815 33.1198 45.6694 33.4372C46.0572 33.7545 46.2864 34.1599 46.3569 34.6535L47.7319 42.0575C47.8024 42.5511 47.7939 43.0002 47.7065 43.405C47.6177 43.8112 47.4146 44.1729 47.0973 44.4902L41.9674 49.673C43.4482 52.2115 45.3083 54.5913 47.5478 56.8125C49.786 59.0337 52.2448 60.9552 54.9243 62.577L59.8955 57.6058C60.2128 57.2885 60.6275 57.0501 61.1394 56.8908C61.6499 56.7328 62.152 56.6891 62.6456 56.7596L69.9438 58.2404C70.4374 58.3462 70.8428 58.5838 71.1601 58.9533C71.4774 59.3242 71.6361 59.7565 71.6361 60.2501V68.8175C71.6361 69.4521 71.4246 69.981 71.0015 70.4041C70.5784 70.8271 70.0495 71.0387 69.4149 71.0387ZM39.9577 45.6537L43.4482 42.1632L42.5491 37.192H37.8423C38.0186 38.6375 38.2654 40.0655 38.5827 41.4757C38.9 42.886 39.3584 44.2787 39.9577 45.6537ZM58.8907 64.5867C60.2657 65.186 61.6675 65.662 63.0962 66.0146C64.5234 66.3671 65.9597 66.5963 67.4053 66.7021V62.0482L62.434 61.0433L58.8907 64.5867Z" fill="#4485FD"/>
</svg>
