<svg width="126" height="125" viewBox="0 0 126 125" fill="none" xmlns="http://www.w3.org/2000/svg">
<rect x="0.5" width="125" height="125" rx="62.5" fill="#E1EDFF"/>
<path d="M74.3617 69.9999C75.0206 72.7881 75.0401 75.6893 74.4185 78.4861C73.797 81.2829 72.5506 83.9028 70.7728 86.1494C68.9949 88.3961 66.7317 90.2113 64.1527 91.4591C61.5736 92.7068 58.7457 93.3548 55.8807 93.3544V78.1645M74.3617 69.9999C80.4056 65.5973 85.3223 59.8275 88.7103 53.1616C92.0982 46.4957 93.8612 39.1229 93.8553 31.6455C86.3784 31.6401 79.0063 33.4034 72.341 36.7913C65.6757 40.1792 59.9064 45.0957 55.5041 51.1392M74.3648 69.9999C68.8645 74.023 62.5589 76.8082 55.8807 78.1645M55.5041 51.1392C52.7157 50.4797 49.8141 50.4598 47.0169 51.0811C44.2198 51.7024 41.5995 52.9487 39.3524 54.7266C37.1054 56.5045 35.2898 58.7679 34.0419 61.3472C32.794 63.9265 32.146 66.7548 32.1465 69.6202H47.3364M55.5041 51.1392C51.4816 56.6386 48.6963 62.9431 47.3395 69.6202M55.8807 78.1645C55.5533 78.2311 55.2252 78.2944 54.8965 78.3544C52.0256 76.0778 49.4262 73.4785 47.1496 70.6075C47.2094 70.2778 47.2727 69.9486 47.3395 69.6202M40.2509 77.1835C38.1692 78.7315 36.5507 80.8195 35.5706 83.2214C34.5905 85.6233 34.2863 88.2476 34.6908 90.8101C37.2535 91.2142 39.878 90.9095 42.28 89.9288C44.6819 88.9482 46.7698 87.3291 48.3174 85.2468M77.2414 53.0063C77.2414 54.2652 76.7413 55.4726 75.8511 56.3628C74.9609 57.253 73.7535 57.7531 72.4946 57.7531C71.2356 57.7531 70.0283 57.253 69.1381 56.3628C68.2479 55.4726 67.7477 54.2652 67.7477 53.0063C67.7477 51.7473 68.2479 50.54 69.1381 49.6498C70.0283 48.7596 71.2356 48.2594 72.4946 48.2594C73.7535 48.2594 74.9609 48.7596 75.8511 49.6498C76.7413 50.54 77.2414 51.7473 77.2414 53.0063Z" stroke="#4485FD" stroke-width="3.9557" stroke-linecap="round" stroke-linejoin="round"/>
</svg>
