<svg width="138" height="30" viewBox="0 0 138 30" fill="none" xmlns="http://www.w3.org/2000/svg">
<path d="M136.385 10.7537C137.46 11.6236 136.321 12.9996 135.372 12.3038C134.202 11.5604 131.545 11.2125 131.213 12.8573C130.785 15.4512 137.666 13.9645 137.555 18.1716C137.444 22.189 131.624 22.2839 129.441 20.4808C128.919 20.0538 128.935 19.3578 129.22 18.9308C129.631 18.5196 130.09 18.3773 130.627 18.8201C131.924 19.7058 135.262 20.3701 135.499 18.1242C135.293 15.7833 128.714 17.191 129.204 12.6992C129.568 9.6308 134.202 9.07718 136.385 10.7537ZM126.008 11.3706V17.0961C126.008 23.0114 116.471 23.0114 116.471 17.0961V11.3706C116.471 9.94719 118.543 9.88386 118.543 11.3706V17.0961C118.543 20.2119 123.936 20.4017 123.936 17.0961V11.3706C123.936 9.96289 126.008 9.8522 126.008 11.3706ZM60.7009 9.93136C63.4687 10.0736 66.3631 11.9874 66.3631 15.7359C66.3631 19.4844 63.4687 21.4298 60.7009 21.4298C57.7748 21.5564 54.7381 19.6109 54.7381 15.7359C54.7381 11.845 57.7748 9.93136 60.7009 9.93136ZM74.6354 10.3267C78.6528 10.3267 79.4752 15.7043 76.1222 17.0486L78.2257 19.6109C79.0481 20.8288 77.4032 21.9991 76.4543 20.7972L74.066 17.3808H71.5828V20.2435C71.5828 21.6196 69.4792 21.6671 69.4792 20.2752V11.2915C69.4792 10.7379 69.9063 10.3267 70.4283 10.3267H74.6354ZM41.863 10.1844C42.3217 10.1844 42.5906 10.4533 42.8595 10.7537L46.339 15.4512L49.9452 10.5797C50.4671 9.93137 51.7483 10.1844 51.7483 11.2757V20.1803C51.7483 20.8762 51.3054 21.2716 50.7993 21.2716C50.2299 21.2716 49.787 20.8762 49.787 20.1803V14.3283L47.1616 17.6497C46.5921 18.3456 45.8804 18.3456 45.3585 17.6497L43.0018 14.3283V20.1803C43.0018 20.8762 42.4324 21.2716 41.863 21.2716C41.3569 21.2716 40.9141 20.8762 40.9141 20.1803V11.2757C40.9141 10.4533 41.61 10.1844 41.863 10.1844ZM86.1026 10.1844C88.1588 10.1844 90.0093 11.5604 90.0093 14.2017C90.0093 16.7007 88.1588 18.0925 86.1026 18.0925H83.4613V20.1803C83.4613 20.8762 83.0184 21.2716 82.449 21.2716C81.9271 21.2716 81.3735 20.8762 81.3735 20.1803V11.2757C81.3735 10.7537 81.7848 10.1844 82.449 10.1844H86.1026ZM101.208 10.3267C101.761 10.3267 102.188 10.7379 102.188 11.3074V20.291C102.188 20.8445 101.761 21.2716 101.208 21.2716C100.638 21.2716 100.132 20.8445 100.132 20.291V16.8272H94.9761V20.291C94.9761 20.8445 94.5649 21.2716 94.0113 21.2716C93.2996 21.2716 92.8883 20.8445 92.8883 20.291V11.3074C92.8883 10.7379 93.2996 10.3267 94.0113 10.3267C94.5649 10.3267 94.9761 10.7379 94.9761 11.3074V14.7554H100.132V11.3074C100.132 10.7379 100.638 10.3267 101.208 10.3267ZM112.216 10.3267C113.671 10.3267 113.64 12.3828 112.216 12.3828H107.661V14.7554H111.647C113.055 14.7554 113.055 16.8272 111.647 16.8272H107.661V19.1996H112.485C113.924 19.1996 114.035 21.2716 112.485 21.2716H106.538C105.985 21.2716 105.558 20.8445 105.558 20.291V11.3074C105.558 10.7379 105.985 10.3267 106.538 10.3267H112.216ZM60.5268 11.9874C58.7554 11.9874 56.8259 13.237 56.8259 15.7359C56.8259 18.2191 58.7554 19.4844 60.5268 19.4844C62.3458 19.4844 64.2912 18.2191 64.2912 15.7359C64.2912 13.237 62.3458 11.9874 60.5268 11.9874ZM86.1026 12.1773H83.4613V16.1155H86.1026C87.1623 16.1155 88.0006 15.1823 88.0006 14.2017C88.0006 13.0946 87.1623 12.1773 86.1026 12.1773ZM74.6354 12.2404H71.5828V15.5619H74.6354C76.6915 15.5619 76.818 12.2404 74.6354 12.2404Z" fill="#3DB5E6"/>
<path d="M28.3677 18.63C26.8257 24.825 21.1838 29.2325 14.539 29.2325C7.86407 29.2325 2.27079 24.5641 0.791992 18.3435C2.57017 18.3435 4.2325 18.3517 5.00425 18.3517C5.36831 18.3517 5.43901 18.358 5.46007 18.3565C6.04076 18.3279 6.76888 18.1362 7.25329 16.9583L9.09916 12.1297L13.1986 21.9998C13.5672 22.7866 14.1825 22.7309 14.5495 22.7309H14.5841C15.3002 22.7309 15.6116 22.48 15.8839 21.961L20.5144 12.2037L22.094 16.6011L22.1903 16.814C22.5242 17.5466 22.7645 18.2703 23.591 18.3648C23.7614 18.3843 25.7399 18.3498 28.4072 18.3498C28.4072 18.3498 28.4072 18.3669 28.3677 18.63Z" fill="#3DB5E6"/>
<path d="M28.8204 14.9812C28.8204 15.0549 28.8204 15.2403 28.8189 15.2403H28.8159H24.5586L22.0748 8.30202C21.8536 7.78602 21.5212 7.01247 20.5523 7.01247C19.9596 7.01247 19.4241 7.50199 19.1202 8.30984L14.6176 18.7392L10.2835 8.3731C9.85923 7.45242 9.56588 7.01943 8.71741 7.01943C8.14123 7.01943 7.7185 7.23167 7.25816 8.32234L4.68568 15.3433L0.411735 15.3389C0.408724 15.232 0.407227 15.1253 0.407227 15.0184C0.407227 7.21373 6.73464 0.906067 14.5393 0.906067C22.3441 0.906067 28.8204 7.17649 28.8204 14.9812Z" fill="#D8292F"/>
</svg>
