<svg width="138" height="18" viewBox="0 0 138 18" fill="none" xmlns="http://www.w3.org/2000/svg">
<path d="M59.912 11.7542H68.9744L64.1825 4.04474L55.3877 17.9838H51.385L62.0825 1.24002C62.5476 0.563504 63.3227 0.154785 64.1825 0.154785C65.014 0.154785 65.7892 0.549418 66.2402 1.21184L76.9799 17.9838H72.9772L71.0886 14.869H61.9133L59.912 11.7542ZM101.49 14.869V0.323914H98.0929V16.2925C98.0929 16.7294 98.262 17.1522 98.5862 17.4764C98.9103 17.8006 99.3472 17.9838 99.8264 17.9838H115.316L117.317 14.869H101.49ZM45.2964 12.2616C48.5945 12.2616 51.2724 9.59782 51.2724 6.2998C51.2724 3.00179 48.5945 0.323914 45.2964 0.323914H30.437V17.9838H33.8323V3.43871H45.0709C46.6495 3.43871 47.9179 4.72126 47.9179 6.2998C47.9179 7.87834 46.6495 9.1609 45.0709 9.1609L35.4954 9.1468L45.6346 17.9838H50.5676L43.7461 12.2616H45.2964ZM9.53553 17.9838C4.66034 17.9838 0.704102 14.0375 0.704102 9.1609C0.704102 4.28435 4.66034 0.323914 9.53553 0.323914H19.8002C24.6767 0.323914 28.6301 4.28435 28.6301 9.1609C28.6301 14.0375 24.6767 17.9838 19.8002 17.9838H9.53553ZM19.5719 14.869C22.7304 14.869 25.2885 12.318 25.2885 9.1609C25.2885 6.00383 22.7304 3.43871 19.5719 3.43871H9.7624C6.60532 3.43871 4.04578 6.00383 4.04578 9.1609C4.04578 12.318 6.60532 14.869 9.7624 14.869H19.5719ZM84.0692 17.9838C79.1926 17.9838 75.2323 14.0375 75.2323 9.1609C75.2323 4.28435 79.1926 0.323914 84.0692 0.323914H96.2606L94.2733 3.43871H84.2947C81.1376 3.43871 78.5726 6.00383 78.5726 9.1609C78.5726 12.318 81.1376 14.869 84.2947 14.869H96.5424L94.5411 17.9838H84.0692ZM125.604 14.869C122.997 14.869 120.784 13.1213 120.108 10.7112H134.625L136.626 7.59645H120.108C120.784 5.20046 122.997 3.43871 125.604 3.43871H135.569L137.584 0.323914H125.379C120.502 0.323914 116.542 4.28435 116.542 9.1609C116.542 14.0375 120.502 17.9838 125.379 17.9838H135.851L137.852 14.869H125.604Z" fill="#EA1B22"/>
</svg>
