<svg width="46" height="46" viewBox="0 0 46 46" fill="none" xmlns="http://www.w3.org/2000/svg">
<g filter="url(#filter0_ii_6481_39619)">
<circle cx="23" cy="23" r="23" fill="url(#paint0_linear_6481_39619)"/>
</g>
<path fill-rule="evenodd" clip-rule="evenodd" d="M16.991 11.8262C16.991 13.258 15.9008 14.4168 14.1958 14.4168C12.5573 14.4168 11.4671 13.258 11.5008 11.8262C11.4671 10.3247 12.5573 9.19971 14.2285 9.19971C15.9007 9.19971 16.9583 10.3247 16.991 11.8262ZM11.6379 33.1416V16.4634H16.8212V33.1406H11.6379V33.1416Z" fill="url(#paint1_linear_6481_39619)"/>
<path fill-rule="evenodd" clip-rule="evenodd" d="M20.9756 21.7851C20.9756 19.7048 20.907 17.9313 20.8385 16.4646H25.3407L25.5801 18.7495H25.6824C26.3645 17.6919 28.0695 16.0903 30.832 16.0903C34.2419 16.0903 36.7998 18.3414 36.7998 23.2507V33.1429H31.6164V23.9002C31.6164 21.7503 30.8668 20.2847 28.991 20.2847C27.5581 20.2847 26.7062 21.2737 26.3656 22.2279C26.2285 22.5695 26.1611 23.0461 26.1611 23.5248V33.1429H20.9777V21.7851H20.9756Z" fill="url(#paint2_linear_6481_39619)"/>
<defs>
<filter id="filter0_ii_6481_39619" x="0" y="-5.37337" width="46" height="53.5227" filterUnits="userSpaceOnUse" color-interpolation-filters="sRGB">
<feFlood flood-opacity="0" result="BackgroundImageFix"/>
<feBlend mode="normal" in="SourceGraphic" in2="BackgroundImageFix" result="shape"/>
<feColorMatrix in="SourceAlpha" type="matrix" values="0 0 0 0 0 0 0 0 0 0 0 0 0 0 0 0 0 0 127 0" result="hardAlpha"/>
<feOffset dy="2.14935"/>
<feGaussianBlur stdDeviation="1.34334"/>
<feComposite in2="hardAlpha" operator="arithmetic" k2="-1" k3="1"/>
<feColorMatrix type="matrix" values="0 0 0 0 1 0 0 0 0 1 0 0 0 0 1 0 0 0 0.12 0"/>
<feBlend mode="normal" in2="shape" result="effect1_innerShadow_6481_39619"/>
<feColorMatrix in="SourceAlpha" type="matrix" values="0 0 0 0 0 0 0 0 0 0 0 0 0 0 0 0 0 0 127 0" result="hardAlpha"/>
<feOffset dy="-5.37337"/>
<feGaussianBlur stdDeviation="2.68668"/>
<feComposite in2="hardAlpha" operator="arithmetic" k2="-1" k3="1"/>
<feColorMatrix type="matrix" values="0 0 0 0 0.113725 0 0 0 0 0.631373 0 0 0 0 0.94902 0 0 0 0.26 0"/>
<feBlend mode="normal" in2="effect1_innerShadow_6481_39619" result="effect2_innerShadow_6481_39619"/>
</filter>
<linearGradient id="paint0_linear_6481_39619" x1="23" y1="0" x2="23" y2="46" gradientUnits="userSpaceOnUse">
<stop stop-color="#F9FAFF"/>
<stop offset="1" stop-color="#D5E1FE" stop-opacity="0"/>
</linearGradient>
<linearGradient id="paint1_linear_6481_39619" x1="14.2455" y1="9.19971" x2="14.2455" y2="33.1416" gradientUnits="userSpaceOnUse">
<stop stop-color="#5BA4CA"/>
<stop offset="1" stop-color="#1872CB"/>
</linearGradient>
<linearGradient id="paint2_linear_6481_39619" x1="28.8192" y1="16.0903" x2="28.8192" y2="33.1429" gradientUnits="userSpaceOnUse">
<stop stop-color="#5BA4CA"/>
<stop offset="1" stop-color="#1872CB"/>
</linearGradient>
</defs>
</svg>
